<svg xmlns="http://www.w3.org/2000/svg" width="42.213" height="42.213" viewBox="0 0 42.213 42.213"><defs><style>.a{fill:#fff;}</style></defs><g transform="translate(-631.936 904.807)"><path class="a" d="M653.042-904.807A21.106,21.106,0,0,0,631.936-883.7a21.1,21.1,0,0,0,6.182,14.924,21.106,21.106,0,0,0,29.849,0,21.106,21.106,0,0,0,0-29.849A20.972,20.972,0,0,0,653.042-904.807Zm0,40.076A18.991,18.991,0,0,1,634.073-883.7a18.991,18.991,0,0,1,18.969-18.97,18.992,18.992,0,0,1,18.97,18.97A18.991,18.991,0,0,1,653.042-864.731Z"/><path class="a" d="M660.412-889.234a6.649,6.649,0,0,0-6.645-6.653,6.649,6.649,0,0,0-6.653,6.644,6.65,6.65,0,0,0,2.863,5.47,13.216,13.216,0,0,0-4.485,2.986,11.982,11.982,0,0,0-3.756,8.252v1.017H643.7v-1.017a10.025,10.025,0,0,1,3.184-6.866,10.023,10.023,0,0,1,6.884-3.16h.975v-.1A6.66,6.66,0,0,0,660.412-889.234Zm-6.649-4.683a4.683,4.683,0,0,1,4.684,4.683,4.684,4.684,0,0,1-4.684,4.684,4.684,4.684,0,0,1-4.684-4.684h0A4.688,4.688,0,0,1,653.763-893.917Z"/><path class="a" d="M664.347-878.424l-3.731,0v-3.873h-1.959v3.874l-3.772,0v1.965l3.77,0v3.957h1.959v-3.958l3.733,0Z"/></g></svg>