<svg xmlns="http://www.w3.org/2000/svg" width="71.746" height="104.973" viewBox="0 0 71.746 104.973"><g transform="translate(-1029.707 -4049.617)"><path d="M1099.942,4076.568a.585.585,0,0,0-.212-.245,1.287,1.287,0,0,0-1.166-1.353c-4.134-.385-8.219-1.089-12.3-1.839.045-5.294.923-11.233-1.442-16.186-1.948-4.078-6.762-8.122-11.6-7.193a9.123,9.123,0,0,0-6.212,4.836c-5.026-.863-9.889,4.4-11.836,8.372a25.134,25.134,0,0,0-2.091,7.1,38.752,38.752,0,0,0-9.353,1.849c0-.022.007-.043.011-.066.109-.653-.89-.934-1-.275-.042.25-.085.5-.129.746l-.013,0a.154.154,0,0,0-.235.005,9.228,9.228,0,0,0-1.738,4.437q-1.754.582-3.495,1.2a.488.488,0,0,0-.235.771c-.058,0-.114.005-.17.009-.04-.237-.079-.473-.125-.708a.092.092,0,0,0-.176,0c-.056.268-.1.54-.148.809a.431.431,0,0,0-.1.575c-.855,4.953-.952,10.1-1.433,15.09-.6,6.233-.883,12.52-.976,18.78-.191,12.724-5.466,25.249-3.69,38a1.013,1.013,0,0,0,.906.877.57.57,0,0,0,.153.068c7.22,1.678,15.313,1.125,22.7,1.51,4.151.215,8.3.428,12.452.6,3.8.152,7.868.542,11.63-.112a1.041,1.041,0,0,0,.721-1.352c1.921-2.747,4.028-5.544,7.359-6.51,3.45-1,7.557.811,11.074.667a1.259,1.259,0,0,0,1.238-1.548,1.4,1.4,0,0,0,.1-.511c.087-6.075.52-12.128.937-18.186.456-6.632.46-13.248.685-19.886.2-5.809.505-11.583,1.1-17.362C1101.583,4085.183,1101.834,4080.632,1099.942,4076.568Zm-17.682,5.558c-.376-2.053-1.4-3.8-1.548-5.937a.092.092,0,0,0-.183,0,10.852,10.852,0,0,0,1.369,5.909c-.359-.027-.717-.052-1.076-.081-.41-2.6-1.167-5.142-1.488-7.746q1.432.248,2.861.513a29.2,29.2,0,0,0,1.239,7.43C1083.041,4082.188,1082.653,4082.154,1082.26,4082.126Zm-10.814-1.081q-1.128-.135-2.255-.272c-.779-2.692-1.8-5.3-2.559-8.007,1.191.088,2.378.184,3.566.28.354.029.708.065,1.06.1a37.682,37.682,0,0,0,1.71,6.83c.085.214.426.132.352-.1-.71-2.216-1.236-4.459-1.777-6.707q1.364.136,2.721.316c.051,1.037.05,2.08,0,3.116-.08-.165-.161-.329-.24-.491s-.329-.046-.278.117c.151.48.3.961.437,1.443a23.814,23.814,0,0,1-.591,3.625q-.888-.1-1.775-.21a.153.153,0,0,0,.009-.088c-.642-2.148-1.553-4.226-2.33-6.33-.042-.109-.211-.067-.177.048A40.971,40.971,0,0,0,1071.446,4081.045Zm-12.355-1.48a.114.114,0,0,0-.02-.088,12.481,12.481,0,0,1-2.315-4.8c-.018-.077-.133-.044-.119.033a12.511,12.511,0,0,0,2.1,4.817c-.48-.053-.961-.106-1.442-.155a29.725,29.725,0,0,0-2.38-6.668c.024-.116.049-.233.074-.349.35-.007.7-.016,1.049-.02q.921-.007,1.841.005a45.335,45.335,0,0,0,3.138,7.441Q1060.058,4079.671,1059.091,4079.565Zm-8.693-.783c-.4-1.111-.739-2.242-1.148-3.348-.014-.037-.071-.022-.059.016.312,1.095.559,2.206.852,3.306-.528-.033-1.057-.052-1.586-.078-.154-.692-.356-1.381-.485-2.075a17.818,17.818,0,0,1-.268-4c.954-.024,1.907-.06,2.86-.1.064.905.174,1.8.321,2.711.186,1.156.317,2.43.562,3.641C1051.1,4078.833,1050.749,4078.8,1050.4,4078.782Zm4.458-5.776a46.705,46.705,0,0,1,1.743,5.876c-.381-.629-.757-1.261-1.081-1.936-.356-.744-.679-1.5-1.019-2.254C1054.62,4074.13,1054.738,4073.569,1054.856,4073.006Zm-2.766,4.555c-.1-.388-.2-.774-.292-1.156a35.924,35.924,0,0,1-.735-3.918q.842-.034,1.683-.067c-.186,1.5-.389,3-.548,4.494C1052.177,4077.114,1052.134,4077.334,1052.09,4077.561Zm1.992-1c.1-.414.186-.829.278-1.244a17.327,17.327,0,0,0,1.51,3.916c-.841-.082-1.681-.163-2.523-.233A11.019,11.019,0,0,0,1054.082,4076.559Zm8.479,3.4a41.835,41.835,0,0,1-2.009-6.049c-.028-.156-.257-.087-.235.065a27.489,27.489,0,0,0,1.675,5.918l-.148-.018q-1.861-3.751-3.639-7.532c1.3.021,2.592.068,3.889.133a64.336,64.336,0,0,0,2.483,7.727C1063.905,4080.124,1063.234,4080.044,1062.561,4079.963Zm2.472.3c-.492-2.721-1.937-5.116-2.637-7.767q1.982.1,3.959.251c.556,2.687,1.38,5.3,2.115,7.938Zm3.032-22.766c3.68,1.565,4.955,7.538,5.587,10.885.164.859.291,1.743.4,2.637-1.28-.179-2.563-.338-3.851-.465-1.816-.18-3.7-.347-5.629-.476C1065.777,4066.3,1066.306,4061.378,1068.065,4057.5Zm8.225,24.1c-.027-.123-.058-.246-.1-.369.132-.5.248-1.008.338-1.522.062.107.123.215.191.319a.184.184,0,0,0,.335-.141c-.1-.552-.2-1.126-.319-1.706.049-.466.087-.935.109-1.406a15.88,15.88,0,0,0,.693,2.889,8.957,8.957,0,0,0,.961,2.153Q1077.4,4081.7,1076.29,4081.592Zm2.99.29a22.7,22.7,0,0,0-1.236-2.791c-.381-.974-.759-1.925-1.045-2.934a.106.106,0,0,0-.129-.082q.024-1.106-.031-2.215,1.089.171,2.176.355c.126,2.614.748,5.133,1.136,7.75C1079.861,4081.94,1079.571,4081.909,1079.28,4081.882Zm3.872-3.5a7.073,7.073,0,0,1,.4,1.335c.182.847.349,1.68.573,2.519a.164.164,0,0,1,.009.019l-.356-.019c.006-.021.021-.036.018-.065C1083.634,4080.9,1083.4,4079.642,1083.152,4078.381Zm-.129-.652c-.193-.965-.389-1.93-.567-2.9q1.5.279,3,.562c.171,2.1-.063,4.332.936,6.152a.215.215,0,0,0,.277.1,3.79,3.79,0,0,0,.389.753c-.834-.031-1.666-.079-2.5-.126a.252.252,0,0,0,.036-.17C1084.4,4080.649,1084.091,4078.851,1083.023,4077.729Zm3.491,1.862c-.1-.466-.188-.934-.33-1.384-.062-.386-.117-.777-.157-1.176-.054-.534-.127-1.055-.22-1.571q1.026.192,2.05.38c0,.174,0,.348-.007.522a7.978,7.978,0,0,0,.07,2.119.185.185,0,0,0,.353,0,8.019,8.019,0,0,0,.07-2.119q0-.218-.006-.435,1.036.189,2.075.366c0,.013,0,.027.008.04a5.728,5.728,0,0,0,.353,1.144A35,35,0,0,0,1086.514,4079.591Zm4.684-2.281a7.387,7.387,0,0,0-.347-.892c-.007-.017-.009-.036-.016-.053q1.067.18,2.136.345C1092.373,4076.883,1091.783,4077.086,1091.2,4077.31Zm-18.981-24.811c4.472-2.653,9.714,2.969,11.01,6.723,1.466,4.243.808,9.057.729,13.481-1.588-.3-3.176-.59-4.766-.868,0-.044,0-.087,0-.132,0-.08-.114-.076-.122,0,0,.037,0,.073-.005.109q-1.209-.21-2.422-.4c-.165-1.484-.4-2.942-.668-4.334-.832-4.346-2.618-9.493-6.728-11.692A9.4,9.4,0,0,1,1072.217,4052.5Zm-16.493,16.492c1.056-4.583,4.505-11.958,10.1-11.922-1.665,4.2-2.293,9.3-3.005,12.905-2.412-.124-4.864-.165-7.3-.066C1055.589,4069.6,1055.653,4069.3,1055.724,4068.991Zm-8.154,3.617a16.561,16.561,0,0,0,.24,6.038c-.527-.023-1.054-.048-1.583-.064a11.345,11.345,0,0,0-.405-1.511.965.965,0,0,0,.333-1.554c-.637-.744-.982-2.095-1.676-2.9C1045.509,4072.637,1046.539,4072.632,1047.57,4072.608Zm-5.051.175a14.941,14.941,0,0,1-.965,3.266A8.221,8.221,0,0,1,1042.519,4072.783Zm.636,1.875a8.2,8.2,0,0,0,.681,1.06c-.384.122-.766.25-1.151.373A13.3,13.3,0,0,0,1043.155,4074.658Zm-2.644,3.607c.128.367.692.362.93.053.07-.092.128-.188.194-.282,1.366-.281,2.73-.578,4.084-.926a11.633,11.633,0,0,1,.315,1.468q-3.672-.108-7.356.06Q1039.6,4078.45,1040.511,4078.265Zm27.025,73.381c-4.155-.116-8.309-.307-12.461-.5-7.224-.328-15.321-1.539-22.551-.26-1.041-12.7,3.76-24.936,3.754-37.6,0-6.268.511-12.517.642-18.78.1-4.869.607-10.01-.061-14.881,17.5.827,34.709,4.934,52.254,5.2a1.221,1.221,0,0,0,.157.056c-.358,1.9-.461,3.89-.762,5.777-.5,3.146-1.01,6.291-1.566,9.429-1.093,6.162-2.552,12.264-3.541,18.441-1.72,10.739-1.84,21.954-5.964,32.157a.793.793,0,0,0,.03.739c-.074.215-.14.427-.2.639A81.636,81.636,0,0,0,1067.536,4151.646Zm12.652-2.75c3.332-9.527,3.7-19.9,5.245-29.8.965-6.175,2.471-12.279,3.6-18.426.025-.14.054-.284.08-.427-.532,5.98-.97,11.989-1.679,17.931a229.307,229.307,0,0,0-1.966,26.036,1.658,1.658,0,0,0,.056.422,8.555,8.555,0,0,0-.86.339A11.663,11.663,0,0,0,1080.188,4148.9Zm18.389-57.483c-.721,5.543-1.076,11.147-1.275,16.732-.221,6.222-.247,12.42-.675,18.639-.4,5.832-.879,11.658-.9,17.507a32.761,32.761,0,0,0-8.741-.041c0-.016.005-.025.005-.04.059-9.409,1.191-18.638,2.2-27.9.836-7.69,2.068-16.055,1.415-23.9a33.97,33.97,0,0,0,.486-7.828,1.238,1.238,0,0,0-.322-2.028.447.447,0,0,0-.332-.172,5.991,5.991,0,0,0-2-2.24,21.756,21.756,0,0,1,10.121-2.327.885.885,0,0,0,.251-.024C1100.075,4082.112,1099.143,4087.064,1098.577,4091.413Z"/><path d="M1064.951,4074.686c-.006-.041-.072-.025-.06.017a27.463,27.463,0,0,0,1.366,5.317c.09.188.4.055.335-.141A36.475,36.475,0,0,1,1064.951,4074.686Z"/><path d="M1071.014,4110.533c-1.049-3.5-3.484-5.7-6.442-7.61-4.888-3.15-5.938-8.152-8.285-13.1-.189-.4-.88-.111-.716.3,1.81,4.523-1.349,8.793-3.869,12.673l-.18-.457c-.028-.073-.146-.041-.118.032.07.185.14.374.21.561-.473.73-.92,1.446-1.3,2.148a11.823,11.823,0,0,0-1.152,8.473c.328,1.84,2.9,12.806,6.428,13.045a6.086,6.086,0,0,0,2.65,1.754c-.527,1.12-1.114,2.214-1.751,3.282-1.774,2.964-4.226,3.737-1.721,6.668a.615.615,0,0,0,1.033-.315c.118.029.241.055.367.076a.659.659,0,0,0,.521-.118.509.509,0,0,0,.481-.323c1.595-3.909,3.629-7.512,4.484-11.549,3.008-2.25,5.182-5.309,7.778-8,.026-.029-.016-.072-.044-.043-2.567,2.574-4.733,5.513-7.661,7.693q.166-.86.252-1.75a14.675,14.675,0,0,0,.427-1.732c.056-.31.094-.62.12-.927,2.065-1.793,3.456-4.284,4.855-6.7a29.959,29.959,0,0,1-4.679,5.888,19.807,19.807,0,0,0,.329-2.315c2.434-3.057,3.732-6.9,4.912-10.59.012-.038-.046-.052-.059-.016a36.426,36.426,0,0,1-5.076,10.139.384.384,0,0,0-.493.335l0,.029a21.524,21.524,0,0,0-.618-2.389,22.781,22.781,0,0,0,3.42-5.952,22.394,22.394,0,0,1-3.506,5.694c-.323-.988-.691-1.972-1.052-2.953,1.168-2.315,2.527-4.517,2.959-7.115.019-.114-.155-.163-.176-.048-.436,2.5-1.743,4.637-2.9,6.856q-.227-.623-.44-1.243a34.351,34.351,0,0,1-1.029-6.335.03.03,0,0,0-.061,0,19.8,19.8,0,0,0-.06,2.868.127.127,0,0,0-.056.081,8.2,8.2,0,0,0-.175,1.324c-1.143-1.917-2.032-4-3.364-5.8-.046-.063-.151,0-.1.062,1.315,1.876,2.154,4.041,3.285,6.026a.129.129,0,0,0,.162.059,13.35,13.35,0,0,0,1.084,4.829c.128.349.248.689.364,1.025.3,1.422.594,2.845.8,4.284q-.416,1.947-.956,3.853a.2.2,0,0,0-.053-.072c-4.227-3.784-6.185-9.727-8.347-14.819-.015-.038-.074,0-.056.033,2.463,5.178,3.588,11.168,8.1,15.088a.218.218,0,0,0,.291,0q-.33,1.152-.694,2.294c-3.666-2.336-6.264-6.385-7.762-10.679,1.393,4.481,3.665,8.877,7.636,11.074-.078.243-.152.484-.231.724a2.206,2.206,0,0,1-2.141-.361c-.035-.029-.066-.066-.1-.1.058-.029.117-.05.175-.084a.031.031,0,0,0-.022-.057,1.885,1.885,0,0,1-.261.032,5.45,5.45,0,0,1-.874-1.968c-.117-.383-.749-.328-.718.1a4.032,4.032,0,0,0,.086.571c-1.8-2.472-2.779-5.844-3.9-8.926,1.109,3.241,2.048,7.156,3.926,9.752-1.955-1.412-3.13-5.569-3.667-7.122a34.661,34.661,0,0,1-1.49-5.594,30.544,30.544,0,0,1,1.231,2.964,20.935,20.935,0,0,0-1.232-2.982,18.6,18.6,0,0,1-.268-3.287,12.227,12.227,0,0,1,2.295-6.321c1.918,5.143,4.027,11.024,8.138,14.7a.153.153,0,0,0,.216-.217c-3.941-4.091-6.19-9.4-8.259-14.627,2.1-3.275,4.854-6.375,5.01-10.05a43.571,43.571,0,0,0,2.967,6.427,10.262,10.262,0,0,0,2.751,2.866,7.556,7.556,0,0,1-.072.877c.048-.277.081-.562.112-.846,1.326.984,2.79,1.82,4.1,2.855,3.571,2.817,4.737,7.988,3.44,12.185a14,14,0,0,1-3.291,5.312,21.887,21.887,0,0,0,2.222-4.11c.06-.146-.176-.208-.235-.065a20.814,20.814,0,0,1-3.258,5.439,45.4,45.4,0,0,1-3.942,3.2c-.439.324-.012,1.065.43.739C1067.872,4123.908,1073.3,4118.155,1071.014,4110.533Zm-9.9,11.848v.032a13.68,13.68,0,0,1-.263,1.518c-.088.386-.195.765-.313,1.143-.032.081-.066.162-.1.243A24.027,24.027,0,0,0,1061.117,4122.381Zm-1.416,6.8c.042-.08.083-.16.124-.24-.029.082-.059.161-.088.241Zm-3.52,4.94c-.009.026-.019.051-.029.076-.075.094-.149.192-.226.283-.027.033.019.079.046.046.04-.05.077-.1.115-.152-.164.451-.33.9-.494,1.349-.062.156-.12.314-.179.471-.08-.009-.163-.023-.251-.039A3.813,3.813,0,0,1,1056.181,4134.121Zm2.418-6.753c-.057.17-.117.341-.175.511a7.689,7.689,0,0,1-.795-.4A3,3,0,0,0,1058.6,4127.368Z"/><path d="M1049.937,4109.093c.066.365.139.739.216,1.113-.059-.374-.111-.75-.152-1.121A.032.032,0,1,0,1049.937,4109.093Z"/><path d="M1051.37,4115.052a49.85,49.85,0,0,1-1.217-4.846A27.93,27.93,0,0,0,1051.37,4115.052Z"/><path d="M1058.245,4103.448c-.3-.57-.643-1.127-.984-1.687.3.583.594,1.17.878,1.748C1058.174,4103.578,1058.282,4103.517,1058.245,4103.448Z"/><path d="M1055.921,4099.383c.089.14.173.288.259.433-.071-.152-.138-.3-.2-.459C1055.962,4099.311,1055.9,4099.343,1055.921,4099.383Z"/><path d="M1057.261,4101.761c-.343-.662-.7-1.314-1.081-1.945A19.365,19.365,0,0,0,1057.261,4101.761Z"/><path d="M1058.28,4098.967a14.614,14.614,0,0,0-1.506-3.385c-.063-.1-.221-.008-.156.092a14.425,14.425,0,0,1,1.486,3.343C1058.142,4099.128,1058.318,4099.08,1058.28,4098.967Z"/><path d="M1057.9,4106.14a14.312,14.312,0,0,0,1.819-5.645c.009-.038-.049-.055-.058-.015a14.272,14.272,0,0,1-1.918,5.569C1057.671,4106.143,1057.83,4106.238,1057.9,4106.14Z"/><path d="M1060.54,4109.146a25.449,25.449,0,0,0,1.773-4.54,24.44,24.44,0,0,1-1.984,4.417C1060.256,4109.164,1060.473,4109.287,1060.54,4109.146Z"/><path d="M1062.566,4103.44c-.068.4-.154.784-.253,1.166A8.719,8.719,0,0,0,1062.566,4103.44Z"/><path d="M1065.636,4106.094a7.651,7.651,0,0,1,.008,1.21,10,10,0,0,0,.056-1.21C1065.7,4106.052,1065.632,4106.052,1065.636,4106.094Z"/><path d="M1065.112,4109.744a8.777,8.777,0,0,0,.532-2.44A10.968,10.968,0,0,1,1065.112,4109.744Z"/><path d="M1069.378,4111.31l-.447.762c.163-.247.331-.491.5-.729C1069.459,4111.31,1069.4,4111.274,1069.378,4111.31Z"/><path d="M1067.378,4114.615c.536-.84,1.048-1.693,1.553-2.543C1068.39,4112.885,1067.883,4113.745,1067.378,4114.615Z"/></g></svg>