<svg xmlns="http://www.w3.org/2000/svg" width="99" height="67.974" viewBox="0 0 99 67.974"><g transform="translate(-1272.453 -3720.643)"><path d="M1367.072,3752.351c-5.245-8.867-15.147-14.16-24.969-9.137a15.354,15.354,0,0,0-3.169,2.153,71.913,71.913,0,0,0-5.116-6.484c-.4-.451-.828-.905-1.285-1.342l.114,0a10.405,10.405,0,0,0,3.728-.317c.75-.324,1.114-1.619.149-1.98a10.087,10.087,0,0,0-3.005-.353,1.034,1.034,0,0,0,.541-.475c.084-.15.178-.291.274-.429.02-.006.039-.008.059-.015a11.22,11.22,0,0,0,1.932-.993,48,48,0,0,0,4.738-.905c1.215-.3,3.534-.565,4.583-1.581a2.72,2.72,0,0,0,1.189-.919,1.15,1.15,0,0,0-.085-1.563,2.854,2.854,0,0,0-2.37-.837,3.492,3.492,0,0,0-.665.053c-.44.053-.88.126-1.3.183-2.188.284-4.361.682-6.541,1.023-3.817.594-8.132,1.519-12.022,1.27l-.026-.009a.413.413,0,0,0-.529.59c.978,1.816,3.108,2.634,5.358,2.954a9.345,9.345,0,0,0-.548,1.192,101.786,101.786,0,0,0-10.6-.445,53.852,53.852,0,0,0-10.335,1.011,13.216,13.216,0,0,0-3.156,1,25.691,25.691,0,0,0,.476-6.467.554.554,0,0,0,.13-.389c0-.043-.007-.08-.009-.121a62.164,62.164,0,0,0,5.606,2.838,1.6,1.6,0,0,0,.455.119.763.763,0,0,0,.383.055c.15-.019.3-.045.445-.076.041-.008.082-.016.123-.027a21.049,21.049,0,0,1,2.321-.586.771.771,0,0,0,.674-.933c.064-.037.126-.075.189-.111a.774.774,0,0,0,.318-.991c.03-.018.058-.036.087-.051.909-.512.018-1.816-.885-1.341-.919.486-1.922.79-2.886,1.184-2.861-1.091-5.706-2.363-8.5-3.716a8.219,8.219,0,0,0-1.641-1.066,1.273,1.273,0,0,0,.054-.254,1.062,1.062,0,0,0-.526-1.106,1.416,1.416,0,0,0-.16-.061.879.879,0,0,0-.112-.833l.021-.038c.339-.67-.346-1.664-1.124-1.308-.934.428-2.355,1.051-2.756,2.077a1.418,1.418,0,0,0-.1.456.933.933,0,0,0,.386,1.283c.123.072.245.147.368.219a.6.6,0,0,0,.476.492c.166.029.335.06.5.087,1.624.962,3.242,1.939,4.875,2.887.051.115.095.24.138.365-1.144,6.116-4.3,11.585-6.255,17.463-4.893-.539-9.735,1.4-13.759,4.364-3.967,1.844-6.8,5.963-8.748,9.743a18.775,18.775,0,0,0-1.988,10.955c.917,7.1,6.343,12.775,12.694,15.59a22.794,22.794,0,0,0,21.615-1.795c7.718-5.064,10.579-13.979,8.029-22.694a22.5,22.5,0,0,0-1.883-4.5c.89,1.291,1.835,2.54,2.8,3.79q.429.988.8,2.021a.086.086,0,0,0-.069.069c-.057.271-.107.555-.148.846a6.2,6.2,0,0,0-.484,1.261c-.95,3.669,3.6,8.439,6.77,6.191.649,1.268,1.174,2.6,1.768,3.891a39.967,39.967,0,0,0,2.245,4.481,1.354,1.354,0,0,0-1,1.4c.051.932.788,1.268,1.631,1.37a.55.55,0,0,0,.168.019,10.012,10.012,0,0,0,1.595-.03,7.158,7.158,0,0,0,1.124.717.433.433,0,0,0,.626-.406c-.022-.142-.055-.281-.08-.422,1.821-.115,3.643-.225,5.46-.38a1.5,1.5,0,0,0,.84-.325c.1.079.191.16.289.237,5.118,4.057,11.94,4.969,18.169,3.462a21.327,21.327,0,0,0,14.263-11.545C1373.153,3767.08,1370.96,3758.925,1367.072,3752.351Zm1.282,19.248a56.472,56.472,0,0,0-14.118-7.574c-.017-.081-.036-.162-.053-.243,4.882-.216,9.593-1.62,14.408-2.462A19.063,19.063,0,0,1,1368.354,3771.6Zm-12.548,11.735c-1.253-4.768-2.135-9.626-3.333-14.408a2.71,2.71,0,0,0,.938-1.095c.1-.089.2-.176.3-.264a2.193,2.193,0,0,0,.52-.72c1.34,2.03,2.592,4.121,3.829,6.209,1.38,2.33,2.609,4.854,4.093,7.151A19.894,19.894,0,0,1,1355.806,3783.334Zm-11.054.142a17.313,17.313,0,0,1-8.481-5.542c-.043-.052-.081-.107-.123-.158,3.882-3.569,8.574-6.389,13.126-9.051a2.623,2.623,0,0,0,.708.436c-2.449,4.371-3.832,9.572-5.228,14.292C1344.751,3783.461,1344.754,3783.468,1344.752,3783.476Zm-19.44-16.781,0-.012a6.131,6.131,0,0,0-3.463-4.177c-.128-.068-.252-.133-.376-.2,1.444-4.339,2.842-8.7,4.272-13.042,1.029-3.125,2.122-6.252,3.387-9.289.1-.238.234-.629.4-1.08.737.852,1.483,1.7,2.192,2.56,1.728,2.1,3.241,4.356,4.767,6.6-2.519,3.444-3.878,7.771-5.108,12.053a.371.371,0,0,0-.51.02,7.968,7.968,0,0,0-2.315,6.434C1327.472,3766.6,1326.39,3766.633,1325.312,3766.7Zm-18.2-12.594c-.5.485-.974.992-1.435,1.513-.785.278-1.564.575-2.334.906a1.026,1.026,0,0,0,.01,1.931c-.688.884-1.366,1.776-2.062,2.647a34.276,34.276,0,0,1-5.2,5.214,1.7,1.7,0,0,0-.391-.689,31.913,31.913,0,0,0,1.65-4.987c.979-3.632,1.538-7.37,2.344-11.042.063-.287.139-.571.21-.857a20.3,20.3,0,0,1,8.292,5.92,8.128,8.128,0,0,0-.83.318c.109-.118.216-.236.326-.353C1308.034,3754.252,1307.463,3753.754,1307.107,3754.1Zm-17.905,13.652c.224-.078.447-.154.67-.224l.008.023c-.022.067-.044.137-.06.208s-.025.124-.038.188C1289.589,3767.883,1289.4,3767.816,1289.2,3767.753Zm-10.04-10.5c.837,1.934,3.282,3.148,5.017,4.094a32.03,32.03,0,0,1,6.518,4.047,1.763,1.763,0,0,0-.912,1.717c-.484.111-.963.236-1.44.37-1.378-.439-2.76-.861-4.073-1.341a80.223,80.223,0,0,1-8.27-3.538A20.919,20.919,0,0,1,1279.162,3757.248Zm58.537-7.42c1.752,2.544,3.494,5.089,5.286,7.606.123.174.247.345.37.516a26.783,26.783,0,0,0,4.466,6.243c-.031.049-.065.1-.1.144-5.008-1.071-8.669-5.766-13.494-7.529A32.206,32.206,0,0,1,1337.7,3749.828Zm10.033,13.281c-.417-.452-.806-.926-1.182-1.409.237.215.483.424.738.624Q1347.513,3762.715,1347.732,3763.109Zm-17,2.726c1.232-2.61,2.159-5.428,3.179-8.177,4.639,1.74,8.673,6.685,13.6,7.295a.411.411,0,0,0,.309.343q-1.111.083-2.223.173-1.49.057-2.985.247c-2.211.189-4.421.383-6.632.56-1.7.136-3.421.19-5.141.233Q1330.776,3766.173,1330.729,3765.835Zm4.616,3.266c4.515-.107,9.011-.523,13.515-.816a2.457,2.457,0,0,0,.159.193,54.946,54.946,0,0,0-13.355,8.681,32.865,32.865,0,0,1-3.268-5.994c-.294-.647-.573-1.321-.82-2.011C1332.859,3769.161,1334.127,3769.129,1335.345,3769.1Zm33.066-8.477c-4.783.884-9.469,2.258-14.314,2.729-.029-.148-.059-.3-.088-.444a1.269,1.269,0,0,0-.1-.289c4.221-2.237,8.078-5.133,12.48-7.035.416.8.8,1.616,1.126,2.425A23.317,23.317,0,0,1,1368.411,3760.624Zm-2.3-5.571c-4.317,1.951-8.1,4.851-12.227,7.126,1.966-4.393,4.87-8.333,7.139-12.573a.246.246,0,0,0-.438-.225c-2.321,4.287-5.165,8.255-6.976,12.768a2.165,2.165,0,0,0-1.3-.766,6.256,6.256,0,0,0-1.938.05,27.072,27.072,0,0,0,.588-7.108c-.036-2.206-.23-4.409-.417-6.608a34.775,34.775,0,0,0-.478-4.685C1356.865,3743.165,1362.716,3748.812,1366.107,3755.053Zm-22.938-10.225a13.8,13.8,0,0,1,6.2-1.782c-.369,3.186.632,6.861.854,9.991a33.35,33.35,0,0,1-.178,7.847c-.046-.077-.1-.152-.143-.228-.251-5.3-2.851-11.09-5.774-15.216a.165.165,0,0,0-.293.143c.944,2.6,2.469,4.994,3.586,7.522a27.566,27.566,0,0,1,1.96,6.712,92.668,92.668,0,0,0-7.817-10.374q-.735-1.194-1.494-2.376A15.367,15.367,0,0,1,1343.169,3744.828Zm-10.864-10.028c.034-.032.066-.065.1-.1a.99.99,0,0,0,.182.119Q1332.446,3734.812,1332.305,3734.8Zm-24,3.424a73.712,73.712,0,0,1,9.977-.575c2.75-.036,5.493.02,8.241,0-2.318,3.771-3.856,8.15-5.354,12.237-1.137,3.1-2.306,6.3-3.165,9.553-.947-3.511-3.105-6.822-5.09-9.686-1.736-2.505-3.514-4.978-5.161-7.546-.658-1.025-1.137-2.721-2.033-3.524l-.015-.01C1306.578,3738.529,1307.446,3738.354,1308.309,3738.224Zm-5.495,1.84a3.446,3.446,0,0,1,.53.88,32.6,32.6,0,0,0,4.364,7.48c1.219,1.686,2.418,3.33,3.549,4.993a1.244,1.244,0,0,0-.22.915c-.078,0-.158,0-.239,0a23.9,23.9,0,0,0-10.046-7.4c-.106-.04-.212-.076-.319-.114C1301.137,3744.542,1302.022,3742.31,1302.814,3740.064Zm-18.454,11.168c3.716-2.167,7.709-3.756,12.143-3.288h.01c-.028.1-.061.2-.088.3-1.351,5.066-2.158,10.145-3.745,15.085-.47-1.631-1.031-3.234-1.6-4.858a80.052,80.052,0,0,1-2.337-8.994c-.043-.2-.307-.106-.319.061-.193,2.869.843,5.724,1.784,8.389.722,2.043,1.511,4.067,2.235,6.11q-.19.563-.4,1.123l-.652.035a1.84,1.84,0,0,0-.329.052,14.333,14.333,0,0,0-4.565-3.373c-1.179-.655-2.365-1.289-3.51-2a29.9,29.9,0,0,1-3.5-3.044C1281.039,3754.92,1282.771,3753.133,1284.36,3751.232Zm-8.886,12.962c.126-.473.279-.928.444-1.374a86.508,86.508,0,0,0,8.078,3.853c.934.393,1.915.82,2.921,1.233-.635.2-1.266.415-1.9.633-2.327.8-4.684,1.243-7.036,1.906a.165.165,0,0,0,.018.316c3.288.375,6.584-1.235,9.813-2.493.626.247,1.259.485,1.893.7a1.3,1.3,0,0,0,.047.26.831.831,0,0,0,.077.162c-4.4,1.853-7.2,6.438-10.55,9.784A15.349,15.349,0,0,1,1275.474,3764.194Zm4.28,15.466c3.3-3.365,6.027-7.891,10.258-10.037a1.979,1.979,0,0,0,.331.267c.01.1.023.192.042.287a1.911,1.911,0,0,0,.237.594,55.076,55.076,0,0,1-4.771,12.972A20.6,20.6,0,0,1,1279.754,3779.66Zm33.539-8.745c-.669,4.8-3.709,8.567-7.53,11.342-5.582,4.053-13,4.264-19.175,1.8a28.362,28.362,0,0,0,2.981-7.155,51.187,51.187,0,0,0,1.411-5.627l.02.026c.367.442.869.4,1.4.4a2.593,2.593,0,0,0,1.244-.338,1.768,1.768,0,0,0,.837.008c.081,4.5.215,8.989,2.56,13,.214.364.764,0,.548-.362-2.3-3.852-2.494-8.364-2.783-12.746a1.591,1.591,0,0,0,.794-.757,5.4,5.4,0,0,0,.647-2.822,18.5,18.5,0,0,0,5.324-1.854c3.089-1.524,6.044-3.156,9.22-4.5a.329.329,0,0,0-.208-.623c-5.192,1.251-9.235,5.146-14.382,6.583-.012-.079-.021-.157-.037-.238l0-.008a23.636,23.636,0,0,0,4.766-4.467c1.257-1.428,2.443-2.908,3.651-4.372a51.966,51.966,0,0,1,4.893-1.921q.307.424.594.859A20.3,20.3,0,0,1,1313.293,3770.915Zm7.4-.807a3.188,3.188,0,0,1-2.111-1.94,2.8,2.8,0,0,1-.23-1.521,1.807,1.807,0,0,0,2-1.067,3.137,3.137,0,0,1,1.231.745,2.155,2.155,0,0,1,.441.657c-.091.012-.183.019-.274.031a.242.242,0,0,0-.2.316c-.148-.064-.3-.124-.439-.179-.465-.177-.819.138-1.27.074a.124.124,0,0,0-.083.23c.306.163.568.831.835,1.1a6.5,6.5,0,0,1,.88,1.2A2.911,2.911,0,0,1,1320.692,3770.108Zm9.36,9.783a31.613,31.613,0,0,0-3.33-7.062,26.4,26.4,0,0,0-2.085-2.944,5.161,5.161,0,0,0,.572-1.3,26.367,26.367,0,0,0,3.79.485,24.813,24.813,0,0,0,1.742,4.4,33.787,33.787,0,0,0,3.215,5.415c-.034.037-.07.073-.1.11a.369.369,0,0,0,.55.493l.014-.014c.055.068.113.135.169.2-.189.011-.378.017-.567.033C1332.7,3779.768,1331.374,3779.831,1330.052,3779.891Zm16.2,3.942q-.422-.081-.837-.182c1.772-4.778,2.947-9.687,4.971-14.361a2.738,2.738,0,0,0,1.75-.179c1.077,4.782,1.852,9.63,3.078,14.378A20.77,20.77,0,0,1,1346.255,3783.833Zm17.977-5.426a17.219,17.219,0,0,1-1.32,1.2c-1.321-2.361-2.865-4.647-4.263-6.937-1.33-2.178-2.71-4.306-4.236-6.339a3.455,3.455,0,0,0-.014-1.571c-.011-.044-.019-.089-.03-.133a61.472,61.472,0,0,1,13.733,7.706A17.056,17.056,0,0,1,1364.232,3778.407Z"/><path d="M1296.511,3769.448a.153.153,0,0,0-.082.26c1.424,4.594,6.206,8.136,10.347,10.164.123.059.25-.111.139-.2-3.658-2.942-8.508-5.26-10.214-9.953a34.132,34.132,0,0,1,7.594-.02c3.011.36,5.3,1.759,7.918,3.1a.185.185,0,0,0,.208-.3C1308.616,3768.4,1301.527,3768.6,1296.511,3769.448Z"/></g></svg>