<svg xmlns="http://www.w3.org/2000/svg" width="31.487" height="29.62" viewBox="0 0 31.487 29.62"><defs><style>.a{fill:#fff;}</style></defs><g transform="translate(-349.337 -185.031)"><path class="a" d="M380.824,190.816a.28.28,0,0,0-.036-.146v-.037c-.037-.073-.037-.11-.073-.146h0l-3.149-4.394a2.44,2.44,0,0,0-2.014-1.062H354.609a2.448,2.448,0,0,0-2.013,1.026l-3.149,4.393h0a.276.276,0,0,0-.073.147v.036c0,.037-.037.074-.037.147v21.6a2.281,2.281,0,0,0,2.27,2.27h26.911a2.281,2.281,0,0,0,2.27-2.27V190.853A.036.036,0,0,0,380.824,190.816Zm-5.272-4.32a.971.971,0,0,1,.806.4l2.306,3.258h-9.007L368.6,186.5ZM361.786,191l1.281-4.5H367.1l1.281,4.5V197l-3.3-1.794L361.786,197Zm-7.982-4.1a.97.97,0,0,1,.805-.4h6.92l-1.061,3.661H351.5Zm25.556,25.519a.813.813,0,0,1-.806.806H351.607a.813.813,0,0,1-.8-.806v-20.8h9.519v5.9a1.2,1.2,0,0,0,.549.988,1.073,1.073,0,0,0,.586.147,1.032,1.032,0,0,0,.549-.147l3.076-1.684,3.075,1.684a1.143,1.143,0,0,0,1.135-.037,1.118,1.118,0,0,0,.55-.988v-5.858h9.519Z"/><path class="a" d="M367.644,190.89a.735.735,0,0,0-.733-.733H363.25a.732.732,0,0,0,0,1.465h3.661A.735.735,0,0,0,367.644,190.89Z"/></g></svg>