<?xml version="1.0" encoding="UTF-8" standalone="no"?>
<svg
   xmlns:dc="http://purl.org/dc/elements/1.1/"
   xmlns:cc="http://creativecommons.org/ns#"
   xmlns:rdf="http://www.w3.org/1999/02/22-rdf-syntax-ns#"
   xmlns:svg="http://www.w3.org/2000/svg"
   xmlns="http://www.w3.org/2000/svg"
   id="svg2684"
   version="1.1"
   viewBox="0 0 57.847088 57.847439"
   height="57.847439mm"
   width="57.847088mm">
  <defs
     id="defs2678" />
  <metadata
     id="metadata2681">
    <rdf:RDF>
      <cc:Work
         rdf:about="">
        <dc:format>image/svg+xml</dc:format>
        <dc:type
           rdf:resource="http://purl.org/dc/dcmitype/StillImage" />
        <dc:title></dc:title>
      </cc:Work>
    </rdf:RDF>
  </metadata>
  <g
     transform="translate(-143.4336,-133.51676)"
     id="layer1">
    <g
       transform="matrix(0.35277777,0,0,-0.35277777,198.08593,165.38247)"
       id="g1145">
      <path
         id="path1147"
         style="fill:#fcd602;fill-opacity:1;fill-rule:nonzero;stroke:none"
         d="m 0,0 c 5.93,9.396 9.056,20.213 9.056,31.399 0,32.494 -26.436,58.929 -58.929,58.929 -10.885,0 -21.517,-2.991 -30.754,-8.651 -1.506,-0.924 -1.981,-2.896 -1.055,-4.404 0.926,-1.507 2.896,-1.982 4.404,-1.057 8.225,5.042 17.701,7.707 27.405,7.707 28.962,0 52.524,-23.562 52.524,-52.524 0,-10.503 -3.091,-20.641 -8.937,-29.313 -0.772,-1.152 -0.708,-2.639 0.092,-3.705 l 3.508,-13.099 -14.086,3.775 c -0.922,0.247 -1.91,0.071 -2.686,-0.485 -8.914,-6.343 -19.431,-9.696 -30.415,-9.696 -6.256,0 -12.374,1.093 -18.192,3.243 -4.099,15.084 -16,26.988 -31.086,31.087 -2.15,5.817 -3.244,11.935 -3.244,18.193 0,9.81 2.719,19.376 7.866,27.666 0.933,1.502 0.473,3.478 -1.029,4.411 -1.504,0.933 -3.478,0.47 -4.412,-1.032 -5.777,-9.305 -8.833,-20.04 -8.833,-31.045 0,-5.76 0.83,-11.419 2.459,-16.872 -1.442,0.144 -2.904,0.217 -4.379,0.217 -24.372,0 -44.197,-19.827 -44.197,-44.197 0,-8.745 2.528,-17.142 7.325,-24.379 l -3.427,-12.793 c -0.295,-1.105 0.022,-2.283 0.83,-3.093 0.807,-0.809 1.989,-1.125 3.095,-0.829 l 13.107,3.513 c 6.983,-4.331 14.994,-6.615 23.267,-6.615 8.419,0 16.608,2.378 23.681,6.873 1.492,0.949 1.932,2.927 0.983,4.42 -0.948,1.493 -2.931,1.935 -4.419,0.985 -6.048,-3.843 -13.046,-5.872 -20.245,-5.872 -7.496,0 -14.738,2.19 -20.947,6.333 -0.766,0.512 -1.715,0.669 -2.606,0.43 l -9.121,-2.445 2.372,8.862 c 0.249,0.924 0.069,1.911 -0.486,2.69 -4.584,6.424 -7.005,14.003 -7.005,21.922 0,20.838 16.955,37.791 37.793,37.791 20.838,0 37.791,-16.953 37.791,-37.791 0,-4.451 -0.765,-8.806 -2.273,-12.947 -0.608,-1.66 0.248,-3.499 1.91,-4.105 1.663,-0.605 3.5,0.25 4.108,1.911 1.764,4.845 2.66,9.941 2.66,15.141 0,1.477 -0.073,2.936 -0.215,4.376 5.455,-1.629 11.11,-2.454 16.869,-2.454 11.809,0 23.142,3.457 32.875,10.014 L 1.014,-22.34 c 1.106,-0.298 2.284,0.02 3.094,0.827 0.809,0.81 1.126,1.99 0.827,3.096 z" />
    </g>
    <g
       transform="matrix(0.35277777,0,0,-0.35277777,186.31663,156.71114)"
       id="g1149">
      <path
         id="path1151"
         style="fill:#fcd602;fill-opacity:1;fill-rule:nonzero;stroke:none"
         d="m 0,0 h -32.622 c -1.768,0 -3.203,-1.436 -3.203,-3.203 0,-10.759 8.753,-19.514 19.512,-19.514 10.762,0 19.516,8.755 19.516,19.514 C 3.203,-1.436 1.768,0 0,0 m -16.313,-16.311 c -6.122,0 -11.279,4.221 -12.709,9.905 H -3.6 c -1.43,-5.684 -6.588,-9.905 -12.713,-9.905" />
    </g>
    <g
       transform="matrix(0.35277777,0,0,-0.35277777,189.35899,150.44383)"
       id="g1153">
      <path
         id="path1155"
         style="fill:#fcd602;fill-opacity:1;fill-rule:nonzero;stroke:none"
         d="M 0,0 C -0.926,1.507 -2.9,1.976 -4.403,1.048 L -4.821,0.79 c -1.508,-0.93 -1.973,-2.903 -1.041,-4.408 0.604,-0.981 1.653,-1.521 2.724,-1.521 0.578,0 1.16,0.156 1.683,0.481 l 0.411,0.252 C 0.459,-3.479 0.93,-1.506 0,0" />
    </g>
    <g
       transform="matrix(0.35277777,0,0,-0.35277777,173.83486,150.44348)"
       id="g1157">
      <path
         id="path1159"
         style="fill:#fcd602;fill-opacity:1;fill-rule:nonzero;stroke:none"
         d="M 0,0 C -0.93,1.505 -2.9,1.975 -4.407,1.046 L -4.824,0.788 c -1.504,-0.93 -1.97,-2.902 -1.041,-4.407 0.605,-0.98 1.652,-1.521 2.727,-1.521 0.575,0 1.156,0.155 1.68,0.48 l 0.41,0.253 C 0.459,-3.479 0.93,-1.505 0,0" />
    </g>
    <g
       transform="matrix(0.35277777,0,0,-0.35277777,153.60992,174.97361)"
       id="g1161">
      <path
         id="path1163"
         style="fill:#fcd602;fill-opacity:1;fill-rule:nonzero;stroke:none"
         d="m 0,0 c -0.596,0.597 -1.423,0.939 -2.265,0.939 -0.841,0 -1.668,-0.342 -2.264,-0.939 -0.594,-0.596 -0.938,-1.423 -0.938,-2.264 0,-0.843 0.344,-1.669 0.938,-2.265 0.596,-0.595 1.423,-0.938 2.264,-0.938 0.842,0 1.669,0.343 2.265,0.938 0.596,0.596 0.937,1.422 0.937,2.265 C 0.937,-1.423 0.596,-0.596 0,0" />
    </g>
    <g
       transform="matrix(0.35277777,0,0,-0.35277777,159.82382,174.97361)"
       id="g1165">
      <path
         id="path1167"
         style="fill:#fcd602;fill-opacity:1;fill-rule:nonzero;stroke:none"
         d="m 0,0 c -0.597,0.597 -1.423,0.939 -2.264,0.939 -0.842,0 -1.669,-0.342 -2.265,-0.939 -0.594,-0.596 -0.938,-1.423 -0.938,-2.264 0,-0.843 0.344,-1.669 0.938,-2.265 0.596,-0.595 1.423,-0.938 2.265,-0.938 0.841,0 1.667,0.343 2.264,0.938 0.598,0.596 0.937,1.422 0.937,2.265 C 0.937,-1.423 0.598,-0.596 0,0" />
    </g>
    <g
       transform="matrix(0.35277777,0,0,-0.35277777,166.03777,174.97361)"
       id="g1169">
      <path
         id="path1171"
         style="fill:#fcd602;fill-opacity:1;fill-rule:nonzero;stroke:none"
         d="m 0,0 c -0.597,0.597 -1.423,0.939 -2.264,0.939 -0.842,0 -1.669,-0.342 -2.261,-0.939 -0.598,-0.596 -0.942,-1.423 -0.942,-2.264 0,-0.843 0.344,-1.669 0.942,-2.265 0.592,-0.595 1.419,-0.938 2.261,-0.938 0.841,0 1.667,0.343 2.264,0.938 0.598,0.596 0.937,1.422 0.937,2.265 C 0.937,-1.423 0.598,-0.596 0,0" />
    </g>
    <g
       transform="matrix(0.35277777,0,0,-0.35277777,171.09515,184.03488)"
       id="g1173">
      <path
         id="path1175"
         style="fill:#fcd602;fill-opacity:1;fill-rule:nonzero;stroke:none"
         d="M 0,0 C -0.597,0.597 -1.423,0.938 -2.266,0.938 -3.11,0.938 -3.933,0.597 -4.529,0 c -0.594,-0.595 -0.938,-1.422 -0.938,-2.264 0,-0.842 0.344,-1.668 0.938,-2.264 0.596,-0.596 1.419,-0.939 2.263,-0.939 0.843,0 1.669,0.343 2.266,0.939 0.596,0.596 0.937,1.422 0.937,2.264 C 0.937,-1.422 0.596,-0.595 0,0" />
    </g>
    <g
       transform="matrix(0.35277777,0,0,-0.35277777,167.42784,139.56834)"
       id="g1177">
      <path
         id="path1179"
         style="fill:#ffffff;fill-opacity:1;fill-rule:nonzero;stroke:none"
         d="M 0,0 C -0.596,0.597 -1.423,0.935 -2.264,0.935 -3.11,0.935 -3.933,0.597 -4.529,0 c -0.596,-0.599 -0.938,-1.422 -0.938,-2.267 0,-0.842 0.342,-1.669 0.938,-2.265 0.596,-0.595 1.419,-0.935 2.265,-0.935 0.841,0 1.668,0.34 2.264,0.935 0.594,0.596 0.937,1.423 0.937,2.265 C 0.937,-1.422 0.594,-0.599 0,0" />
    </g>
  </g>
</svg>
