<svg xmlns="http://www.w3.org/2000/svg" width="43.924" height="43.921" viewBox="0 0 43.924 43.921"><defs><style>.a{fill:#fff;}</style></defs><path class="a" d="M654.422-396.927a1.716,1.716,0,0,1,1.716,1.716,1.716,1.716,0,0,1-1.716,1.716,1.716,1.716,0,0,1-1.716-1.716A1.716,1.716,0,0,1,654.422-396.927Zm6.005,1.716a1.716,1.716,0,0,0,1.716,1.716,1.716,1.716,0,0,0,1.716-1.716,1.716,1.716,0,0,0-1.716-1.716A1.716,1.716,0,0,0,660.427-395.211Zm-15.442,0a1.716,1.716,0,0,0,1.716,1.716,1.716,1.716,0,0,0,1.716-1.716,1.716,1.716,0,0,0-1.716-1.716A1.716,1.716,0,0,0,644.985-395.211Zm29.976,16.091a5.153,5.153,0,0,1,0,7.28,5.133,5.133,0,0,1-3.64,1.505,5.131,5.131,0,0,1-3.639-1.505l-9.419-9.4a1.719,1.719,0,0,1-.43-.716l-2.051-6.753a1.715,1.715,0,0,1,.413-1.7,1.717,1.717,0,0,1,1.687-.455l6.925,1.918a1.713,1.713,0,0,1,.754.439Zm-13.968-4.243,6.356,6.342,2.426-2.427-6.318-6.306-3.484-.965Zm11.542,6.67-.331-.331-2.426,2.427.33.329a1.716,1.716,0,0,0,2.427,0A1.715,1.715,0,0,0,672.535-376.693ZM655.462-378.7c-.317.014-.638.021-.954.021a20.762,20.762,0,0,1-7.894-1.527,1.722,1.722,0,0,0-1.317.008l-7.812,3.3,2.632-6.236a1.717,1.717,0,0,0-.3-1.808,14.543,14.543,0,0,1-3.841-9.765c0-8.885,8.313-16.115,18.531-16.115s18.53,7.23,18.53,16.115a14.121,14.121,0,0,1-1.538,6.288,1.715,1.715,0,0,0,.778,2.3,1.715,1.715,0,0,0,2.3-.777,17.519,17.519,0,0,0,1.894-7.809c0-10.778-9.852-19.546-21.962-19.546s-21.962,8.768-21.962,19.546a17.782,17.782,0,0,0,4,11.207l-3.866,9.158a1.714,1.714,0,0,0,.368,1.88,1.716,1.716,0,0,0,1.213.5,1.728,1.728,0,0,0,.667-.135l11.061-4.67a24.226,24.226,0,0,0,8.518,1.518c.366,0,.737-.008,1.1-.024a1.714,1.714,0,0,0,1.639-1.789A1.714,1.714,0,0,0,655.462-378.7Z" transform="translate(-632.546 414.256)"/></svg>