<svg xmlns="http://www.w3.org/2000/svg" width="62.612" height="83.464" viewBox="0 0 62.612 83.464"><g transform="translate(-381.453 -3329.617)"><path d="M441.671,3409.606c-3.414.189-6.758.615-10.218.548-4.5-.085-9-.447-13.493-.688-4.7-.252-9.361-.029-14.057.1-5.878.164-11.857-.219-17.713.263a65.292,65.292,0,0,1-1.652-16.169c-.054-6.239.157-12.459-.159-18.7q-.553-10.974-.471-21.973c.021-3.648.116-7.295.262-10.941a88.751,88.751,0,0,0,.082-11.036.318.318,0,0,0-.6-.053,55.32,55.32,0,0,0-1.452,10.269q-.405,5.772-.6,11.557c-.26,7.532-.185,15.057.17,22.591.566,11.978-1.5,24.607,2.25,36.29.474,1.475,2.956,1.114,2.573-.365,5.746,1.236,11.863,1,17.695.98,4.754-.013,9.468-.184,14.219.078,4.649.257,9.294.617,13.951.664,3.151.032,7.954.505,10.138-2.045C443.172,3410.318,442.4,3409.565,441.671,3409.606Z"/><path d="M384.916,3332.216l.011,0a.058.058,0,0,0,.024-.1c1.345.93,4.26.52,6,.5,3.746-.036,7.473-.121,11.214-.28a276.907,276.907,0,0,1,34.863.651,1.2,1.2,0,1,0,.212-2.387,231.287,231.287,0,0,0-35.214-.558c-3.849.229-7.672.553-11.506.944-1.474.151-2.924.319-4.38.576a2.605,2.605,0,0,0-1.29.56C384.813,3332.159,384.86,3332.228,384.916,3332.216Z"/><path d="M443.252,3365.236c.256-5.942.507-11.921.173-17.87a50.5,50.5,0,0,0-1.178-8.6,21,21,0,0,0-2.889-6.839c-.08-.128-.285-.043-.223.1,2.157,4.923,2.557,10.625,2.707,15.876.169,5.882-.334,11.74-.587,17.606-.619,14.318.821,28.652.832,42.976,0,1.2,1.979,1.384,1.978.176C444.054,3394.185,442.627,3379.707,443.252,3365.236Z"/><path d="M395.148,3359.43c-.022.072-.046.141-.073.211a3.475,3.475,0,0,1-.159.353c-.023.039-.05.086-.067.113-.042.067-.089.133-.135.2a5.279,5.279,0,0,1-.336.414c-.012.014-.031.035-.052.057-.041.04-.084.081-.127.12-.123.114-.255.222-.39.325-.113.085-.232.163-.353.239-.04.023-.084.048-.109.061-.073.039-.148.075-.224.109a4.121,4.121,0,0,1-.437.173l-.055.014c-.076.019-.156.035-.234.048s-.157.025-.235.033l-.051,0a2.815,2.815,0,0,1-.43-.034h0c-.069-.018-.136-.039-.2-.063s-.118-.047-.176-.072l-.078-.046c-.07-.044-.138-.092-.2-.141l-.041-.031-.017-.016a3.166,3.166,0,0,1-.367-.419c-.06-.08-.123-.158-.182-.238l-.007-.009c-.028-.042-.054-.086-.081-.13a5.237,5.237,0,0,1-.324-.632,7.563,7.563,0,0,1-.47-1.567c-.123-.6-1.17-.6-1.167.043.014,1.911.477,4.341,2.728,4.99a4.968,4.968,0,0,0,4.54-1.284,4.068,4.068,0,0,0,1.5-4.336c-.73-2.048-3.587-2.492-5.532-2.548-.494-.015-.994-.011-1.487.023a7.287,7.287,0,0,0-.739.116,1.3,1.3,0,0,0-1.086.747.919.919,0,0,0,.178.956c.421.515,1.065.418,1.664.431.278.006.555-.016.832-.03l.14-.007.3-.007a11.53,11.53,0,0,1,1.973.133l.244.048c.085.022.17.042.255.067a4.616,4.616,0,0,1,.621.231l.07.038c.077.045.15.095.223.146.018.013.043.033.07.055.047.045.093.091.135.139.013.016.032.039.049.062s.041.068.06.1.028.062.041.092.024.079.03.107a1.731,1.731,0,0,1,.027.174,2.314,2.314,0,0,1-.043.406C395.153,3359.411,395.151,3359.421,395.148,3359.43Z"/><path d="M391.913,3381.415a1,1,0,0,0,.815.539c1.625.032,3.214-.571,4.837-.5a1.053,1.053,0,0,0,1.154-.908c.233-2.693.166-5.736-1.253-8.176-1.458-2.507-4.512-2.813-6.929-1.481-.04-.111-.076-.223-.117-.334-.185-.5-.935-.205-.878.261C389.99,3374.438,390.169,3378.061,391.913,3381.415Zm-.478-8.662a4.622,4.622,0,0,1,2.961-.42c.874.29,1.31,1.3,1.614,2.036a12.17,12.17,0,0,1,.633,5.137c-1.093.133-2.157.443-3.245.545a35.5,35.5,0,0,1-2.277-7.251A1.034,1.034,0,0,0,391.435,3372.753Z"/><path d="M391.528,3398.768a18.916,18.916,0,0,0,9.548-.1.884.884,0,0,0,.675-1.245,16.457,16.457,0,0,1-1.743-8.737.957.957,0,0,0-1.124-.969c-1.891.2-5.792.527-7.458,2.083q-.2-1.013-.393-2.023c-.087-.45-.836-.434-.859.033-.168,3.382.63,6.724.779,10.1A.854.854,0,0,0,391.528,3398.768Zm3.513-8.524a20.391,20.391,0,0,1,3.025-.617,18.18,18.18,0,0,0,1.53,7.556,19.024,19.024,0,0,1-6.956.1c-.214-1.936-.533-3.868-.891-5.792A28.666,28.666,0,0,0,395.041,3390.244Z"/><path d="M404,3393.079c2.2-1.154,4.835-.937,7.258-.644,2.708.326,5.422.734,8.149.868s5.445-.607,8.136-.955c3.671-.474,7.349-.631,11.011-1.135a1.145,1.145,0,1,0-.446-2.246c-3.628.67-7.205,1.345-10.856,1.911-3.076.475-5.971,1.273-9.113,1.118-4.417-.219-10.334-1.756-14.172,1.033C403.94,3393.049,403.97,3393.095,404,3393.079Z"/><path d="M410.084,3375.385c3.044.346,6.044.859,9.076,1.3a50.191,50.191,0,0,0,8.835.757,6.333,6.333,0,0,0,3.985-1.109,5.753,5.753,0,0,0,1.5-2.056c.237-.427-.3-.973-.767-.862-1.02.243-1.181-.1-2.544-.128-1.286-.024-2.55.181-3.839.172-3.086-.024-6.141-.527-9.21-.787-4.307-.364-11.665-1.394-14.245,2.928-.317.531.378,1.3.908.791C405.37,3374.876,408.008,3375.149,410.084,3375.385Z"/><path d="M437.477,3357.146c-.627-.365-.942-.86-1.7-.97a22.289,22.289,0,0,0-2.52-.168c-1.582-.05-3.165-.026-4.745.027-2.96.1-5.895.467-8.829.811-2.732.321-5.369.734-8.126.917a32.631,32.631,0,0,0-9.066,1.665c-.5.179-.224.918.285.829,5.554-.968,11.263-.5,16.857-.762,2.866-.132,5.729-.223,8.6-.3,1.579-.04,3.16-.018,4.739.04.844.031,1.682.1,2.526.095.8-.009,1.139-.411,1.853-.679A.857.857,0,0,0,437.477,3357.146Z"/><path d="M402.251,3344c5.18-4.066,12.511-2.191,18.473-.848a75.4,75.4,0,0,0,9.04,1.706c1.863.186,6.556.474,7.21-1.831a.806.806,0,0,0-.316-.956c-.989-.5-2.3-.194-3.37-.052a19.761,19.761,0,0,1-4.455-.047c-3.411-.328-6.764-1.148-10.13-1.753-5.973-1.076-12.687-1.341-17.042,3.266C401.351,3343.816,401.911,3344.27,402.251,3344Z"/><path d="M388.36,3345.506c.017-.45-.708-.519-.742-.066a17.622,17.622,0,0,0,.529,5.181.473.473,0,0,0,.541.354,33.032,33.032,0,0,1,9.461.009.6.6,0,0,0,.618-.837,46.561,46.561,0,0,1-1.765-8.271c.447-.879.942-1.734,1.449-2.583a6.827,6.827,0,0,0,.676-2.862c.1-.655-.734-.929-1.221-.606a6.472,6.472,0,0,0-2.463,2.175c-.706,1.158-1.353,2.349-1.956,3.558a18.8,18.8,0,0,0-1.137,2.865c-.743-1.37-1.525-2.721-2.357-4.055a.56.56,0,0,0-1.052.313c.265,3.089,1.63,5.946,2.734,8.835a1.519,1.519,0,0,0,.08.161,22.5,22.5,0,0,0-2.809.351A16.085,16.085,0,0,1,388.36,3345.506Zm6.116,3.555a20.322,20.322,0,0,1,1.495-4.943,34.4,34.4,0,0,0,1.318,5.623c-1.019-.068-2.033-.117-3.044-.13A1.271,1.271,0,0,0,394.476,3349.061Z"/></g></svg>