<svg xmlns="http://www.w3.org/2000/svg" width="53.558" height="72.202" viewBox="0 0 53.558 72.202"><g transform="translate(-470.432 -3886.107)"><path d="M523.9,3892.323c0-.125,0-.251,0-.376a.709.709,0,0,0,.02-.1c.353-3.76-1.9-4.932-5.318-5.02-6.218-.161-12.431-.324-18.653-.39-3.26-.034-6.52-.115-9.776-.294-3.419-.188-6.828.52-10.235.682-1.861.089-4.528-.619-6.223.422a2.951,2.951,0,0,0-1.265,1.452.082.082,0,0,0-.114.051c-1.7,4.557-1.52,9.31-1.218,14.078a6.23,6.23,0,0,0-.253.574c-.072.193.164.293.3.2.164,2.536.34,5.072.262,7.581-.259,8.333-.673,16.639-.708,24.982-.019,4.643-2.009,18.653,4.657,19.944a19.292,19.292,0,0,0,7.978,1.484c4.43-.026,8.874.136,13.3.005a104.751,104.751,0,0,1,12.368.646,22.533,22.533,0,0,0,5.283-.219c1.85-.271,4.193-.262,5.784-1.276a.444.444,0,0,0,.179-.216,4.9,4.9,0,0,0,2.393-2.306,8.011,8.011,0,0,0,.506-3.482.516.516,0,0,0,.661-.518,161.329,161.329,0,0,1-.359-18.9.221.221,0,0,0,.022-.029c.017-.022,0-.046-.02-.058.079-3.29.175-6.573.207-9.826.079-8.236.168-16.475.2-24.712.005-.206.013-.413.016-.62A21.222,21.222,0,0,0,523.9,3892.323Zm-6.939,45.576c-.006-.894-.022-1.785-.055-2.677a16.815,16.815,0,0,0,2.462-3.028c.97-1.3,1.963-2.572,3.029-3.789q-.015,1.989-.026,3.979C520.606,3934.17,518.452,3935.859,516.965,3937.9Zm2.649,17.153a6.117,6.117,0,0,1-1.325.156c1.14-2.4,2.589-4.652,3.661-7.079a29.067,29.067,0,0,1-.242,3.912A9.858,9.858,0,0,0,519.614,3955.052Zm2.548-13.225c-2.545,4.815-5.253,9.586-7.715,14.439-.721.084-1.441.15-2.162.186,1.11-2.119,2.407-4.135,3.54-6.242.038-.015.077-.028.115-.041a.753.753,0,0,0,.53-.064.561.561,0,0,0,.331-1q.006-1.041.026-2.084a.211.211,0,0,0,.165-.1c.724-1.238,1.243-2.516,2.08-3.706s1.779-2.319,2.642-3.5c.1-.139-.132-.321-.239-.185-.917,1.163-1.907,2.267-2.8,3.447a13.125,13.125,0,0,0-1.823,2.791l.039-1.742a33.345,33.345,0,0,0,5.46-7.847C522.334,3938,522.223,3939.905,522.162,3941.827Zm-13.572,14.547q-1.356-.112-2.71-.221c.005-.007.012-.01.016-.018,1.186-2.027,2.406-4.057,3.764-5.979.946.046,1.888,0,2.833-.01a.2.2,0,0,0-.126.076,34.483,34.483,0,0,0-2.385,3.42A12.419,12.419,0,0,0,508.59,3956.374Zm-9.3-.572a16.6,16.6,0,0,1,2.762-5.056,14.507,14.507,0,0,0,3.3-.618.632.632,0,0,0,.449-.59c.043-.663.046-1.326.023-1.99a15.969,15.969,0,0,1,2.174-2.882.109.109,0,0,0-.154-.155,17.537,17.537,0,0,0-2.056,2.281c-.054-.859-.149-1.717-.267-2.57a.13.13,0,0,0,.118-.038,11.955,11.955,0,0,0,1.06-1.5c.352-.526.756-1.017,1.147-1.514.027,1.944.319,3.868.464,5.805-1.684,3.278-4.14,5.944-6.234,8.923Q500.689,3955.826,499.294,3955.8Zm-1.3-6.189c-.557-2.025-.161-4.217-.063-6.308,2.081-.04,4.163.235,6.237.062a29.549,29.549,0,0,1,.432,5.7A23.526,23.526,0,0,1,498,3949.613Zm-.654-7.513a.619.619,0,0,0-.61.611c-.031,2.24-.308,4.474.364,6.619-2.481,1.586-4.027,4.2-5.639,6.607q-1.184.03-2.37.052c1.285-2.085,3.48-3.507,4.427-5.81.593-.034,1.186-.065,1.78-.074a.564.564,0,0,0,.517-.766c1.05-1.011.362-4.582.015-6.227a4.09,4.09,0,0,0,1.5-1.641,12.017,12.017,0,0,0,1.07-2.337,9.217,9.217,0,0,0,2.922.345c1.349.064,2.7.035,4.05.039a.6.6,0,0,0,.344-.117,7.421,7.421,0,0,0-.641,1.738.131.131,0,0,0,.239.1c.974-1.53,1.678-3.2,2.705-4.7-.1,1.424-.165,2.852-.17,4.28,0,.064,0,.128,0,.191a7.634,7.634,0,0,0-2.377,2.826c-.063-.43-.128-.861-.2-1.289-.059-.358-.452-.468-.752-.427a14.651,14.651,0,0,1-2.2.11,5.49,5.49,0,0,0,.875-2.252c.007-.049-.073-.058-.086-.011a10.412,10.412,0,0,1-1.237,2.256c-.85-.026-1.7-.086-2.551-.12.16-.309.3-.639.461-.906a7.392,7.392,0,0,0,.743-1.531c.045-.137-.159-.184-.209-.058a7.966,7.966,0,0,1-.95,1.573,8.494,8.494,0,0,0-.625.905C498.272,3942.077,497.807,3942.075,497.344,3942.1Zm-9.018,6.891c-1.119-.255-.109-4.132-.206-5.952l.509.1a1.3,1.3,0,0,0,.033.3.154.154,0,0,0,.279.036,1.425,1.425,0,0,0,.112-.254,14.526,14.526,0,0,0,5.6.24,25.6,25.6,0,0,1,.369,3.147c.044.773-.2,1.615-.146,2.38C492.729,3949.051,490.415,3949.467,488.326,3948.991Zm-7.491,6.863q-1.371-.089-2.729-.237c1.141-1.918,2.722-3.53,3.873-5.439a9.3,9.3,0,0,1,1.709-.283.674.674,0,0,0,.666-.618c.382-.7.036-1.5-.021-2.291a13.163,13.163,0,0,1,.325-3.932.67.67,0,0,0,.019-.159,29.487,29.487,0,0,1,3.127-5.294c.014-.021-.019-.046-.035-.027-.7.807-1.474,1.564-2.113,2.423a5.917,5.917,0,0,0-1.219,2.382.645.645,0,0,0-.408-.149c-.258,0-.524-.023-.793-.049a3.3,3.3,0,0,0,.587-.831,8.292,8.292,0,0,0,.611-1.354c.025-.069-.088-.117-.119-.05a9.5,9.5,0,0,1-.628,1.141c-.235.365-.594.666-.8,1.046v.011c-.639-.075-1.3-.184-1.961-.277.467-.742.967-1.451,1.449-2.195.047-.073-.064-.135-.113-.068-.524.731-1.208,1.43-1.7,2.217a9.264,9.264,0,0,0-2.663-.029c.319-.44.553-.983.85-1.423.343-.507.721-.991,1.1-1.472,1.442.037,2.864.46,4.339.612a.546.546,0,0,0,.535-.407,31.655,31.655,0,0,0,.5-5.088l1.775-2.7c.062-.094-.088-.181-.151-.089q-.817,1.214-1.636,2.425a10.155,10.155,0,0,0-.33-2.182.535.535,0,0,0-.108-.2,14.3,14.3,0,0,1,.863-1.714,8.805,8.805,0,0,0,1.263-2.683.153.153,0,0,0-.294-.081,10.511,10.511,0,0,1-1.692,2.976,4.71,4.71,0,0,0-.706,1.286,15.466,15.466,0,0,0-3.357-.06c.085-.166.133-.37.2-.526.1-.238.222-.47.323-.71.039-.095-.11-.148-.16-.067-.148.241-.313.472-.465.711a1.276,1.276,0,0,0-.285.624c-.726.059-1.453.13-2.184.18a.107.107,0,0,0,.05-.04c.407-.738.742-1.481,1.206-2.182,1.321.087,2.645.133,3.968.211a3.3,3.3,0,0,0-.313,1.6.153.153,0,0,0,.294,0c.059-.274.056-.553.128-.826.062-.239.155-.47.235-.705a.179.179,0,0,0,.006-.05c.113.007.225.013.337.021a.523.523,0,0,0,.511-.388c.046-.252.08-.5.113-.756h0c.5-.693.789-1.578,1.268-2.31.516-.788,1.078-1.543,1.544-2.362-.2,1.581-.282,3.169-.328,4.776a.476.476,0,0,0,.348.458c.723.191,1.5.448,2.3.666a3.514,3.514,0,0,0-.594,1.607c-.012.125.193.186.243.066.221-.522.293-1.1.479-1.638a12.08,12.08,0,0,0,1.761.353,13.3,13.3,0,0,0-1.289,1.632,14.539,14.539,0,0,0-2.088-.061.53.53,0,0,0-.448.725,7.79,7.79,0,0,0,.021,2.252c.041,1.4.172,2.79.329,4.182a.444.444,0,0,0,.322.424c1.549.239,3.057.69,4.611.9a15.265,15.265,0,0,1-.835,1.321,15.967,15.967,0,0,0-1.077,1.376c-.7-.02-1.4-.058-2.1-.061a5.893,5.893,0,0,1,.485-.938c.367-.608.8-1.169,1.139-1.794a.066.066,0,0,0-.113-.068,17.355,17.355,0,0,0-2.024,2.8q-.381.009-.759.041a.729.729,0,0,0-.083-.168.177.177,0,0,0-.3,0,2.123,2.123,0,0,0-.135.226c-.036.006-.072.008-.108.014-.165.026-.183.265-.063.352a13.864,13.864,0,0,0-.513,3.373,11.692,11.692,0,0,0-.074,1.8,37.584,37.584,0,0,0-5.972,7.53A.194.194,0,0,0,480.835,3955.854Zm-3.845-.373a.473.473,0,0,0-.471-.321,3.757,3.757,0,0,1-1.338-.231.1.1,0,0,0,.05-.023,9.187,9.187,0,0,0,1.351-1.942c.523-.811,1.1-1.589,1.69-2.354a9.816,9.816,0,0,0,3.588-.406c-1.286,1.854-2.984,3.384-4.09,5.374C477.509,3955.548,477.249,3955.515,476.99,3955.481Zm.186-12.683a.347.347,0,0,0,.009-.109c1.078.192,2.2.252,3.288.4.921.129,1.837.295,2.76.384a13.882,13.882,0,0,0-.241,3.038,7.731,7.731,0,0,0,.208,2.057c-1.719.344-4.733,1.716-5.733.206a6.431,6.431,0,0,1-.544-3.1A9.213,9.213,0,0,1,477.176,3942.8Zm.24-10.5c1.286-.112,6.352-.849,6.556-.087.518,1.946.08,4.155-.234,6.135-1.935-.271-3.772-.878-5.7-.4C477.414,3936.119,478.306,3933.993,477.416,3932.295Zm-.169-7.561c-.03-.928-.031-1.843-.094-2.766a37.8,37.8,0,0,1,6.447-.238c-.011.041-.027.079-.038.12a.132.132,0,0,0,.239.1c.019-.025.034-.053.051-.078a34.1,34.1,0,0,1-.1,6.279c-1.857-.136-3.72-.19-5.575-.384C477.052,3927.65,477.277,3925.613,477.247,3924.734Zm-.867-3.695c-.619.134-.407,1,.159,1.009-.019.157-.037.317-.056.475a.065.065,0,0,0-.027.027c-1.023,2.455-3.117,4.392-4.295,6.752.03-1.446.073-2.891.121-4.336a.147.147,0,0,0,.273.069c.663-1.234,1.228-2.464,1.989-3.651a16.627,16.627,0,0,0,1.718-3.231c.039-.107-.127-.148-.169-.047-.956,2.353-3.277,4.27-3.807,6.769q.1-3.037.233-6.074c1.139-2.17,2.828-3.93,4.02-6.121.014-.027-.025-.051-.04-.024-1.048,1.79-2.811,3.243-3.934,5.026.1-2.439.2-4.877.281-7.319,0-.091,0-.182.005-.274a.181.181,0,0,0,.036-.029c.864-.978,1.6-2.079,2.454-3.072.516-.6,1.012-1.205,1.466-1.841a.645.645,0,0,0,.686-.023,9.793,9.793,0,0,0,4.1,1.1,24.134,24.134,0,0,0-2.509,3.275c-.136.216.2.413.339.2.749-1.182,1.577-2.327,2.411-3.458a15.7,15.7,0,0,0,1.857-.005,54.026,54.026,0,0,1,7.29.168c-1.127,1.124-2.588,2.721-2.68,4.28-.216.039-.431.084-.646.139a.485.485,0,0,0-.276.745c-.532,1.985-1.106,4.723-.105,6.547.454.827,1.6.811,2.4.776,1.6-.068,3.505-.693,5.03.019a.512.512,0,0,0,.737-.3,11.805,11.805,0,0,0,0-7.436.59.59,0,0,0-.06-.118c.011-.008.022-.011.031-.024.373-.617.561-1.369.87-2.023a6.887,6.887,0,0,1,1.437-2.109c.042-.039-.019-.1-.062-.062a6.954,6.954,0,0,0-1.449,1.833,7.774,7.774,0,0,0-1.021,2.2.5.5,0,0,0-.23-.066c-.657-.011-1.314-.063-1.97-.117a.083.083,0,0,0,.027-.034,9.8,9.8,0,0,1,2.193-3.988c3.184.142,6.379.118,9.563.011-.244.369-.5.73-.764,1.089a8.843,8.843,0,0,0-1.386,2.124.2.2,0,0,0,.328.19,18.518,18.518,0,0,0,1.35-2.144c.262-.416.513-.836.747-1.267l.309-.009c1.773-.065,3.556-.021,5.335-.012a11.066,11.066,0,0,0-1.341,1.877,8.949,8.949,0,0,0-1.2,2.406.132.132,0,0,0,.218.128c.013-.013.024-.029.037-.042a22.682,22.682,0,0,0-.406,4.006,5.652,5.652,0,0,0,.394,3.047c-.287.407-.58.8-.839,1.234a4.573,4.573,0,0,0-.75,1.534c-.014.1.1.191.183.1a4.056,4.056,0,0,0,.675-1.33,8.577,8.577,0,0,1,.754-1.506,1.248,1.248,0,0,0,.288.292,3.273,3.273,0,0,0,1.617.454,5.431,5.431,0,0,0-1.154,2.167.488.488,0,0,0-.277.184c-.008-.021-.013-.044-.021-.066-.092-.265-.535-.24-.514.07.075,1.123.164,2.239.234,3.355-.744.695-1.5,1.38-2.245,2.071-.088.081-.178.161-.268.243a10.172,10.172,0,0,0,.423-2.923,5.232,5.232,0,0,1,1.831-1.969c.123-.07.015-.253-.11-.189a5.112,5.112,0,0,0-1.746,1.587,7.439,7.439,0,0,0-.6-2.466.568.568,0,0,0-.65-.265c-.135.046-.272.079-.408.118.052-.132.1-.26.157-.376a6.958,6.958,0,0,1,.962-1.529.066.066,0,0,0-.093-.094,7.22,7.22,0,0,0-1.058,1.287,9.443,9.443,0,0,0-.572.873,16.528,16.528,0,0,1-2.787.37c.045-.107.085-.219.142-.344a5.9,5.9,0,0,1,.489-.822c.307-.456.667-.876,1.013-1.306.872.12,2.251.324,2.687-.144a2.453,2.453,0,0,0,.532-1.587c.509-.981.822-2.057,1.4-3,.074-.121-.111-.227-.188-.111a21.083,21.083,0,0,0-1.219,2.405c-.021-.426-.067-.838-.092-1.181a39.674,39.674,0,0,0-.6-4.394.546.546,0,0,0-.343-.38,7.269,7.269,0,0,1,.358-.644,11.05,11.05,0,0,1,2.344-2.9.023.023,0,1,0-.028-.036,13.459,13.459,0,0,0-2.276,2.229c-.3.393-.7.885-1.018,1.405a9.84,9.84,0,0,1-6.035-.094c.226-.379.424-.778.643-1.161a19.853,19.853,0,0,1,1.564-2.332c.033-.043-.023-.1-.062-.062a14.779,14.779,0,0,0-2.615,3.55.589.589,0,0,0-.3.393.227.227,0,0,0-.336.243c.635,2.035-.373,4.064-.167,6.13a.122.122,0,0,0-.077.061c-.694,1.289-1.985,2.679-2.518,4.177a1.933,1.933,0,0,0-.812-.315,5.819,5.819,0,0,0-1.663.013c.17-.265.343-.529.54-.778a6.648,6.648,0,0,0,.9-1.439c.055-.127-.127-.238-.188-.111a7.712,7.712,0,0,1-1.149,1.629,8.757,8.757,0,0,0-.612.77,6.727,6.727,0,0,1-2.388.065c.123-.165.236-.334.344-.483a5.745,5.745,0,0,0,.782-1.549c.054-.162-.194-.225-.253-.07a5.83,5.83,0,0,1-.9,1.556,4.746,4.746,0,0,1-.4.433c-.1-.033-.2-.068-.3-.11a.445.445,0,0,0-.484.079.12.12,0,0,0-.135.09c-.008.041-.014.081-.023.122a.68.68,0,0,0-.069.366c-.093.5-.17,1.006-.237,1.51a.1.1,0,0,0-.151.031c-.513.848-1.132,1.622-1.718,2.42a12.045,12.045,0,0,0-.859,1.26c.063-1.011.052-2.025.025-3.039,1.141-1.3,1.827-2.935,2.837-4.329.017-.024-.025-.049-.04-.024a39.438,39.438,0,0,1-2.809,3.926c-.02-.736-.045-1.471-.05-2.207a.541.541,0,0,0-.325-.49c.259-.452.513-.908.8-1.336a16.887,16.887,0,0,0,1.4-2.6c.013-.031-.031-.051-.042-.019-.523,1.48-1.849,2.582-2.651,3.907-.527-.005-1.054-.015-1.583-.024a20.858,20.858,0,0,0,.974-1.921c.087-.177-.176-.331-.264-.155a18.05,18.05,0,0,0-1.011,2.073c-.756-.011-1.512-.013-2.266.01a18.186,18.186,0,0,0,1.212-2.248c.809-.116,1.623-.207,2.439-.284-.009.091.109.177.176.091.03-.038.063-.078.093-.117.171-.015.342-.035.513-.049a.6.6,0,0,0,.594-.594c-.018-.225-.034-.451-.051-.676a10.946,10.946,0,0,0,1.869-3.074c.008-.026-.033-.036-.043-.011a9.633,9.633,0,0,1-1.855,2.7c-.052-.687-.1-1.374-.142-2.061.4-.856.971-1.632,1.392-2.48.037-.075-.073-.141-.113-.066-.394.726-.892,1.391-1.3,2.1-.052-.948-.089-1.9-.1-2.846a.125.125,0,0,0,.21-.012,11.491,11.491,0,0,1,3.005-3.775c.065-.058-.028-.144-.093-.094a19.2,19.2,0,0,0-2.255,2.047,3.255,3.255,0,0,0-.909,1.4.589.589,0,0,0-.837-.311,5.678,5.678,0,0,1-2.155.6,9.044,9.044,0,0,1,.945-2.032c.51-.777,1.1-1.491,1.541-2.31a.044.044,0,0,0-.076-.043c-.836,1.322-2.661,2.735-2.816,4.415a24.667,24.667,0,0,1-3.632-.182.5.5,0,0,0-.359.095c-.027-.038-.049-.079-.078-.116-.215-.274-.7.021-.583.34.888,2.4-.251,5.1.262,7.579a.615.615,0,0,0,.749.425c.514-.115,1.029-.219,1.545-.317-.445.563-.883,1.13-1.271,1.734-.06.1.094.186.151.089.372-.641.8-1.245,1.233-1.845q.887-.167,1.778-.295c-.474.736-.983,1.479-1.413,2.237A18.718,18.718,0,0,0,476.38,3921.039Zm7.308-26.672a34.415,34.415,0,0,1,6.294.177c8.995.566,18.1.156,27.116.114q-.082,1.066-.129,2.137l-.031.047a.211.211,0,0,0,.019.265c-.1,2.55-.081,5.107-.146,7.66l-.071.012a.812.812,0,0,0-.619-.2c-3.306.194-6.593-.314-9.9-.2-3.571.121-7.132.142-10.7.016-3.378-.119-6.747-.721-10.129-.518a28.54,28.54,0,0,1-4.8.2,10.512,10.512,0,0,0-2.789-.095c-1.221-2.976-.271-6.631-.677-9.754a.281.281,0,0,0-.052-.126l.1-.12c-.131,1.183,2.666.871,3.164.839C481.465,3894.755,482.568,3894.508,483.688,3894.367Zm6.779-6.885c1.176,0,2.354.013,3.536.033-2.048,1.261-3.132,3.628-4.782,5.36-1.082-.037-2.16-.062-3.235-.061a20,20,0,0,1,2.251-2.88A19.38,19.38,0,0,0,490.467,3887.482Zm6.661.094c-1.862,1.5-2.882,3.8-4.652,5.415-.917-.029-1.832-.066-2.744-.1,1.531-1.76,2.519-4.085,4.462-5.374C495.167,3887.535,496.145,3887.556,497.128,3887.576Zm13.452.222a40.225,40.225,0,0,0-4.624,5.345q-1.34,0-2.677,0c1.244-1.846,2.255-4.068,4-5.411Q508.928,3887.758,510.58,3887.8Zm-4.053,5.344a45.579,45.579,0,0,0,4.119-5.341c.9.023,1.809.057,2.714.093-1.255,1.768-2.633,3.435-3.834,5.241Zm16.05,16.357q-.041,4.645-.088,9.294a22.585,22.585,0,0,0-3.158,3.381c-.574.726-1.216,1.46-1.788,2.227.082-1.02.143-2.041.153-3.066a40.4,40.4,0,0,0,4.473-6.134.284.284,0,0,0-.49-.287,39.293,39.293,0,0,1-4.263,5.82.592.592,0,0,0-.271-.086c-.461-.018-.921-.016-1.38-.007q.2-.567.4-1.133c.018-.049-.053-.073-.079-.034q-.364.541-.728,1.087l-.064.092c-.829.03-1.657.091-2.484.155.065-.125.127-.252.2-.382.157-.292.329-.578.5-.864.088-.149-.129-.264-.226-.132a6.454,6.454,0,0,0-.945,1.414c-.851.064-1.7.119-2.556.142.081-.288.159-.577.26-.85a7.074,7.074,0,0,1,.639-1.267c.517.02,1.025.011,1.421.031,1.454.07,2.911.08,4.366.082a.519.519,0,0,0,.511-.51c.021-.345.035-.691.046-1.036C517.777,3914.228,520.688,3912.148,522.577,3909.5Zm-.174,18.64c-1.073,1.071-2.081,2.2-3.07,3.353a31.458,31.458,0,0,0-2.461,2.915c-.025-.533-.051-1.066-.09-1.6a.681.681,0,0,0-.661-.66l-.343-.028a71.12,71.12,0,0,1,6.667-8.658Q522.424,3925.8,522.4,3928.139Zm-8.764.653a5.519,5.519,0,0,0-1.043,1.565,7.591,7.591,0,0,0-.644,1.56l-.27,0c-.456,0-1.975.777-2.236.568a.363.363,0,0,0-.167-.076c.659-.919,1.72-2.462,1.227-3.505,2.041-.124,4.079-.26,6.127-.277a.566.566,0,0,0,.125-.025c-.017,0-.034,0-.047.021a15.466,15.466,0,0,0-1.9,2.929.131.131,0,0,0,.205.158c.886-.795,1.225-1.964,1.9-2.927a.129.129,0,0,0-.1-.193.618.618,0,0,0,.414-.556c.063-.785.135-1.566.206-2.348a33.5,33.5,0,0,0,2.024-2.76c.959-1.308,1.979-2.6,3.029-3.839q-.011,1.164-.023,2.327c-.005.56-.009,1.119-.015,1.678-2.656,2.673-5.7,5.5-7.255,8.982-.872-.072-1.742-.127-2.617-.146.479-.935.578-2.119,1.247-2.948C513.927,3928.848,513.764,3928.673,513.639,3928.792Zm-4.346-6.7c2.425-.05,4.827-.406,7.252-.348a.294.294,0,0,0,.005.286c-.081,1.811-.288,3.612-.455,5.417-2.076.021-4.155.116-6.224.284a24.977,24.977,0,0,0-.722-5.665A.5.5,0,0,0,509.293,3922.089Zm2-4.347-.122.13c-.529-.046-1.055-.114-1.572-.209-1.235-.226-.635-4.971-.766-6.5a.514.514,0,0,0,.32.305c2.2.776,4.522.17,6.8.172.025,2.109.118,4.218.025,6.326-1.526.009-3.092.043-4.624-.079.015-.021.03-.043.046-.063C511.443,3917.761,511.345,3917.69,511.294,3917.742Zm-2.691-6.972a12.588,12.588,0,0,0,.927-1.8,10.254,10.254,0,0,1,1.568-2.324c.9,0,1.806-.012,2.707-.051a10.974,10.974,0,0,0-1.387,1.928,10.006,10.006,0,0,0-1.171,2.288,6.687,6.687,0,0,1-1.815-.352.47.47,0,0,0-.634.451A.183.183,0,0,0,508.6,3910.77Zm7.518-4.355a.971.971,0,0,0,.553-.251c.229-.024.477-.068.753-.123a30.414,30.414,0,0,0-2.431,4.595c-.333.021-.665.047-1,.075a12.96,12.96,0,0,0,1.846-4.171c.014-.082-.106-.117-.127-.034-.4,1.6-1.575,2.787-2.206,4.245a18.121,18.121,0,0,1-1.875.075,11.6,11.6,0,0,0,.966-1.86,10.286,10.286,0,0,1,1.579-2.335.17.17,0,0,0,.036-.061C514.852,3906.535,515.487,3906.489,516.121,3906.415Zm2.115-3.559a41.038,41.038,0,0,1,4.425-6.189q0,1.27-.011,2.543a65.669,65.669,0,0,0-4.461,5.682Q518.228,3903.877,518.236,3902.856Zm4.434-8.034c0,.567-.006,1.134-.008,1.7a25.135,25.135,0,0,0-4.426,4.994q-.008-.776-.029-1.55c.465-.85.8-1.86,1.288-2.651a34.222,34.222,0,0,1,3.18-4.268C522.672,3893.64,522.669,3894.231,522.67,3894.822Zm-5.691,16.309a.523.523,0,0,0-.517-.516c-.235-.012-.472-.013-.709-.008,1.683-3.94,4.447-7.273,6.894-10.769q-.013,2.451-.032,4.9c-1.775,2.546-3.661,4.925-5.627,7.322C516.983,3911.752,516.98,3911.441,516.979,3911.131Zm5.7-19.641,0,.011v.022c-.006.1-.011.209-.022.32a.606.606,0,0,0,.021.229c0,.185,0,.371,0,.557a41.653,41.653,0,0,0-3.325,4.018c-.327.452-.8,1.045-1.207,1.681q-.057-1.152-.146-2.3a61.081,61.081,0,0,1,4.43-6.33A4.066,4.066,0,0,1,522.681,3891.49Zm-28.1,20.3a11.13,11.13,0,0,1,.049,6.031c-1.874-.566-3.9.16-5.826.06-1.713-.09-1.07-4.492-.771-6.123C490.185,3911.229,492.392,3911.7,494.578,3911.792Zm-5.677-1.2c.343-.628.573-1.324.95-1.94a13.555,13.555,0,0,1,1.771-2.206c.994.071,1.989.143,2.991.194.171.008.342.012.514.02-1.04,1.025-2.263,2.473-2.33,3.96a.1.1,0,0,0,.017.05A20.1,20.1,0,0,0,488.9,3910.591Zm-13.074-8.378a19.621,19.621,0,0,0-2.854,3.55.153.153,0,0,0,.264.155c.787-1.234,1.757-2.337,2.62-3.517a9.926,9.926,0,0,0,.7,2.448.859.859,0,0,0,.057.1c-.555.726-1.167,1.407-1.792,2.082a15.073,15.073,0,0,0-1.964,2.344c.027-2.671-.173-5.336-.371-8,1-1.276,2.3-2.4,3.373-3.6A16.372,16.372,0,0,0,475.827,3902.213Zm25.711,30.489c.037.052.1.078.15.014a.166.166,0,0,0,.019-.027,15.807,15.807,0,0,0,2.9-.468c.042,2.066.492,4.12.264,6.181a26.145,26.145,0,0,1-5.975-.214c-.973-.207-.632-2.486-.605-3.229.034-.917.069-1.829.04-2.742a.608.608,0,0,0,.225.137A7.952,7.952,0,0,0,501.538,3932.7Zm-2.672-1.484a.488.488,0,0,0-.592.17.259.259,0,0,0-.509.057c-.161,1.418-.43,2.781-.484,4.216-.034.9-.185,2.568.644,3.215a1.782,1.782,0,0,0,.3.185,14.591,14.591,0,0,1-1.029,2.063,10.276,10.276,0,0,1-1.454,1.606c-.014-.066-.026-.128-.038-.181a.608.608,0,0,0-.744-.422,9.766,9.766,0,0,1-2.924.35c.288-.4.525-.857.763-1.215a4.867,4.867,0,0,0,.739-1.462c.026,0,.052.008.078.01.876.1,2.524.36,2.923-.714.429-1.156,0-2.908-.147-4.079-.052-.415-.092-.879-.15-1.35a5.639,5.639,0,0,0,.82-2.205c.015-.082-.107-.119-.127-.035a7.119,7.119,0,0,1-.75,1.821,5.571,5.571,0,0,0-.63-2.057.514.514,0,0,0-.687-.18,5.057,5.057,0,0,1-1.857.426q.486-.749.972-1.5c.046-.072-.066-.136-.113-.066l-1.044,1.524a.077.077,0,0,0-.008.046,17.63,17.63,0,0,1-1.993-.079,11.472,11.472,0,0,1,1.083-1.6.04.04,0,0,0,.006-.047,5.033,5.033,0,0,0,2.563-.322,2.505,2.505,0,0,0,1.547-2.2,7.289,7.289,0,0,0,1.059-1.874c.042-.1-.127-.149-.169-.045a7.416,7.416,0,0,1-.863,1.6,17.322,17.322,0,0,0-.116-2.263,5.3,5.3,0,0,0-.826-2.861,9.684,9.684,0,0,1,.838-1.917c.46-.781.98-1.521,1.408-2.32a4.6,4.6,0,0,0,.189.743.5.5,0,0,0,.479.364,13.44,13.44,0,0,1,1.958-.034,11.7,11.7,0,0,0-1.381,2.753c0,.006,0,.01,0,.016h-.238a.489.489,0,0,0-.359.149c-.034-.236-.071-.472-.114-.708a.22.22,0,0,0-.421,0,16.725,16.725,0,0,0-.224,1.874,6.509,6.509,0,0,0-.694,1.91c-.029.138.179.2.209.059a6.816,6.816,0,0,1,.455-1.358,11.241,11.241,0,0,0,.768,4.889,2.348,2.348,0,0,0,2.3,1.122c-.178.246-.359.49-.539.736a5.635,5.635,0,0,0-.764,1.216C498.949,3931.238,498.9,3931.232,498.866,3931.218Zm-3.992.858a11.594,11.594,0,0,1,.446,2.418,23.609,23.609,0,0,1,.312,3.791c-.007.606-.1.578-.717.624a10.222,10.222,0,0,1-2.268-.2c-1.154-.18-2.29-.47-3.444-.649-.145-1.187-.257-2.377-.459-3.555a14.221,14.221,0,0,0-.345-2.231.391.391,0,0,0,.069.009C490.564,3932.143,492.845,3932.765,494.874,3932.076Zm-6.626-4.257c-.057-1.924-.134-3.854-.042-5.776a6.246,6.246,0,0,0,3.365.464c1.107-.132,2.427-.733,2.873.647.361,1.115.832,4.2-.333,4.979C492.555,3929.176,490.007,3928.235,488.248,3927.819Zm16.016-15.742a3.048,3.048,0,0,0,.282-.367l.03-.007c.171.936.317,1.877.43,2.822.078.651.127,1.306.149,1.961a11.988,11.988,0,0,1-.058,1.313c-2.227.128-4.485-.37-6.712-.193-.535-2,.292-4.1-.276-6.1a.7.7,0,0,0,.1.045,10.889,10.889,0,0,0,5.86.276c-.008.053-.022.107-.025.159A.131.131,0,0,0,504.264,3912.077Zm-5.426,9.282c.43-.933.9-1.839,1.354-2.758.783.043,1.566.118,2.33.161.047,0,.1.009.162.015-.329.381-.66.76-.967,1.162a3.23,3.23,0,0,0-.747,1.382C500.257,3921.349,499.543,3921.354,498.838,3921.359Zm.474,6.724c-.487-.114-.553-.946-.638-1.334a42.155,42.155,0,0,1-.561-4.41.511.511,0,0,0,.256.07,25.193,25.193,0,0,0,6.641-.511,7.341,7.341,0,0,1,.211,3.441,4.334,4.334,0,0,0-.535.938c-.047.136.135.291.257.2.02-.014.036-.034.055-.05-.069.268-.143.533-.226.789-.471,1.448-2.39.948-3.6.958A7.917,7.917,0,0,1,499.312,3928.083Zm-21.433-10.332c-.183-1.853.383-4.088-.171-5.866a14.4,14.4,0,0,0,5.758-.229c.036,1.756.144,3.5.272,5.255A50.813,50.813,0,0,0,477.879,3917.751Zm30.469,29.65c.044.709.063,1.421.037,2.137a.576.576,0,0,0,.567.567c.173.018.346.032.52.042a38.971,38.971,0,0,0-3.952,5.768.2.2,0,0,0,0,.211q-1.4-.108-2.8-.192A44.045,44.045,0,0,0,508.348,3947.4Zm1.179,1.613c.034-2.456-.327-4.88-.521-7.328-.225-2.848.166-5.7-.135-8.535a.262.262,0,0,0-.523,0c-.133,1.045-.233,2.093-.314,3.142a.14.14,0,0,0-.215-.007,21.4,21.4,0,0,0-1.9,2.715,12.111,12.111,0,0,0,.132-2.1,12.857,12.857,0,0,1,1.95-2.989.109.109,0,0,0-.154-.154,12.037,12.037,0,0,0-1.568,1.7c-.087.118-.182.244-.271.378-.045-.688-.106-1.376-.157-2.064a6.658,6.658,0,0,1,.717-1.042c.555-.665,1.174-1.274,1.729-1.94.035-.042-.024-.1-.062-.061-.7.755-1.465,1.438-2.148,2.205-.086.1-.18.205-.272.315a17.808,17.808,0,0,1-.033-1.806.591.591,0,0,0-.5-.581c.249-.291.492-.59.738-.863a18.371,18.371,0,0,0,1.787-2.279c.047-.072-.064-.133-.113-.066a18.948,18.948,0,0,1-1.865,2.154c-.383.39-.84.769-1.228,1.187a15.608,15.608,0,0,1-2.108.428,10.4,10.4,0,0,0,.69-1.676c.018-.055-.063-.075-.084-.023a10.894,10.894,0,0,1-.968,1.744,8.394,8.394,0,0,1-2.851-.139c.249-.373.438-.8.666-1.179.169-.284.342-.566.512-.85.568,0,1.136-.043,1.608-.037a10.273,10.273,0,0,0,2.048-.077.168.168,0,0,0,.16-.026.072.072,0,0,0,.016-.014,2.042,2.042,0,0,0,1.461-1.351c.025-.068.049-.136.074-.205.232-.264.463-.525.7-.769.685-.708,1.378-1.407,2.062-2.115.075,1.217.123,2.435.1,3.664a.6.6,0,0,0,.6.6c.328-.018.656-.039.984-.058a3.321,3.321,0,0,1-.668,1.761,6.8,6.8,0,0,0-.784,1.929.125.125,0,0,0,.076.151.348.348,0,0,0,.08.19c.344.416.962.257,1.436.2a20.233,20.233,0,0,1,5.059.233c.081,2.431.084,4.859.063,7.286,0,.011,0,.021,0,.032-.023,2.747-.076,5.493-.091,8.244C513.49,3948.935,511.5,3949.146,509.527,3949.014Zm13.054-39.912c-1.312,1.673-3.028,3.085-4.355,4.734a15.473,15.473,0,0,0-1.185,1.595c-.006-.871-.024-1.743-.04-2.614,2.318-1.977,4.02-4.973,5.611-7.662Q522.6,3907.129,522.581,3909.1Zm-3.013-21a3,3,0,0,1,2.767,1.4,61.565,61.565,0,0,0-4.392,5.8c-.021-.253-.046-.5-.069-.757a.8.8,0,0,0,.038-1.3c.955-1.631,1.968-3.238,3.044-4.793.043-.062-.054-.136-.1-.079a37.694,37.694,0,0,0-2.589,3.255,16.311,16.311,0,0,0-1.037,1.489h-1.491a13.813,13.813,0,0,1,2.8-5.008.04.04,0,0,0,0-.056C518.884,3888.075,519.227,3888.087,519.568,3888.1Zm-1.091-.046a11.78,11.78,0,0,0-3.308,5.067H513.3c.295-.509.556-1.043.822-1.527a31.184,31.184,0,0,1,2.035-3.489c.03-.041-.034-.088-.068-.054a25.171,25.171,0,0,0-3.569,5.072q-1.237,0-2.475.006c1.141-1.744,2.346-3.443,3.411-5.237.288.011.575.016.863.03C515.705,3887.988,517.092,3888.009,518.477,3888.059Zm-17.853-.424c-.583.8-1.194,1.579-1.844,2.329a30.373,30.373,0,0,0-2.269,2.474.175.175,0,0,0,.238.239,12.026,12.026,0,0,0,2.244-2.5,30.963,30.963,0,0,0,1.786-2.539q3.121.044,6.242.088c-1.836,1.338-2.932,3.578-4.26,5.416q-1.246,0-2.492-.013c.449-.567.865-1.161,1.275-1.766.861-1.269,1.652-2.753,2.981-3.6.026-.016,0-.057-.023-.04-2.047,1.421-3.128,3.562-4.667,5.4-2.2-.018-4.4-.051-6.6-.112l-.139,0c1.664-1.644,2.58-3.937,4.378-5.428l.688.015C498.985,3887.614,499.8,3887.624,500.624,3887.635Zm-10.44-.153c-1.438,1.732-4.05,3.112-4.614,5.335-.822.008-1.641.032-2.459.084a58.646,58.646,0,0,1,4.207-5.375Q488.753,3887.487,490.184,3887.482Zm-8.613.361c-1.375,1.326-3.132,2.273-4.141,3.934a.131.131,0,0,0,.226.132c.956-1.693,2.7-2.69,4.028-4.071.263-.01.526-.025.79-.048,1.565-.138,3.114-.215,4.655-.259a47.165,47.165,0,0,0-4.594,5.414,27.33,27.33,0,0,0-5.245.9c.345-.411.685-.823,1.013-1.243.085-.109-.063-.264-.154-.155-.459.555-.96,1.082-1.476,1.6a.152.152,0,0,0-.022.023,39.2,39.2,0,0,0-4.347,4.625q-.081-1.265-.126-2.527c1.259-1.14,2.37-2.509,3.538-3.745a21.551,21.551,0,0,0,2.889-3.632c.029-.048-.045-.09-.076-.043a23.624,23.624,0,0,1-3.348,3.828,20.444,20.444,0,0,0-3.016,3.2q-.029-1.018-.019-2.038a.172.172,0,0,0,.105-.091c1.1-2.188,2.989-3.834,4.306-5.881v-.007C478.232,3887.747,479.886,3887.9,481.571,3887.843Zm-5.776-.064c.219-.009.438-.013.656-.016-1.364,1.825-3.183,3.245-4.295,5.242.013-.486.033-.971.064-1.457C473.079,3889.843,473.14,3887.9,475.8,3887.779Zm-3.449,11.572c1.338-1.5,2.745-2.981,4.083-4.505a26.365,26.365,0,0,0-.563,2.916c-1.034,1.176-2.336,2.09-3.4,3.21Q472.4,3900.162,472.346,3899.351Zm-.317,36.814a.137.137,0,0,0,.178-.077,37.013,37.013,0,0,1,3.991-7.7.023.023,0,0,0-.04-.022c-1.334,2.349-3.529,4.42-4.112,7.132.031-1.258.059-2.514.074-3.766.005-.441.014-.881.022-1.321a45.982,45.982,0,0,0,4.291-7.446,12.944,12.944,0,0,0,.225,5.39.555.555,0,0,0,.394.4c.736.1,1.474.168,2.214.221a6.88,6.88,0,0,0-1.166,2.1.125.125,0,0,0,.073.15c-.322.02-.646.038-.971.044a.491.491,0,0,0-.49.435.144.144,0,0,0-.02.136c.009.024.014.048.022.071a.489.489,0,0,0,.036.123c.013.042.021.086.032.128a21.058,21.058,0,0,0-4.465,9.331c-.022.115.141.2.2.084,1.526-3.077,2.18-6.49,4.319-9.208.477,2.137-.515,4.433.4,6.534a.556.556,0,0,0,.632.258,6,6,0,0,1,1.759-.257c-.377.422-.75.846-1.1,1.288a4.836,4.836,0,0,0-1.077,1.708,4.175,4.175,0,0,0-.713.25.252.252,0,0,0-.094.351.342.342,0,0,0-.09.129,9.331,9.331,0,0,0-.347,1.111,32.9,32.9,0,0,0-4.045,5.673,35.189,35.189,0,0,1-.219-3.617C471.856,3942.6,471.947,3939.376,472.029,3936.165Zm1.382,17.284c.355-.487.629-1.045.956-1.548a26.705,26.705,0,0,1,1.7-2.3c.069-.086-.048-.208-.124-.124q-.774.871-1.486,1.792a11.769,11.769,0,0,0-1.264,1.82,9.809,9.809,0,0,1-.961-3.119c1.551-1.6,2.486-3.727,3.817-5.546a7.736,7.736,0,0,0,.542,5.093,2.28,2.28,0,0,0,1.526,1.066c-.647.688-1.277,1.391-1.874,2.123a4.555,4.555,0,0,0-1.2,2.125.082.082,0,0,0,.014.055A3.657,3.657,0,0,1,473.411,3953.449Zm7.653,2.419a.2.2,0,0,0,.081-.075,49.611,49.611,0,0,1,5.609-7.571,2.253,2.253,0,0,0,.738,1.647,3.043,3.043,0,0,0,1.707.455,23.137,23.137,0,0,0-3.251,3.319,7.792,7.792,0,0,0-1.674,2.352Q482.664,3955.964,481.064,3955.868Zm3.934.138c.516-.614.914-1.508,1.328-2.073a21.668,21.668,0,0,1,3.088-3.449.108.108,0,0,0,.019-.153c.454,0,.9-.02,1.259-.025.9-.011,1.8-.069,2.7-.12-1.152,2.234-3.528,3.527-4.769,5.729a.213.213,0,0,0-.027.082C487.395,3956.014,486.2,3956.02,485,3956.006Zm7-.083c1.523-2.311,2.884-4.879,5.121-6.532.043.132.088.264.138.4a.62.62,0,0,0,.429,1.045l.865.006a28.668,28.668,0,0,1-1.959,2.537,24.776,24.776,0,0,0-2.242,2.487Q493.176,3955.891,492,3955.923Zm5.47-.128q-1.14.018-2.29.046a57.288,57.288,0,0,0,3.622-5c1.016.006,2.028,0,3.032-.073a13.682,13.682,0,0,0-3.08,5.029C498.324,3955.791,497.9,3955.79,497.467,3955.795Zm11.736.627a17.791,17.791,0,0,1,.987-2.188,29.079,29.079,0,0,1,2.516-3.673.263.263,0,0,0-.151-.415c.318,0,.637,0,.957.008a4.494,4.494,0,0,0,1.736.272c.046-.013.087-.026.129-.04-1.2,2.046-2.533,4.009-3.676,6.088A24.638,24.638,0,0,1,509.2,3956.422Zm5.878-.237c2.771-4.331,4.811-9.27,7.066-13.886-.035,1.345-.037,2.692.041,4.015a.134.134,0,0,0-.091.106c-.047.306-.078.613-.1.922-1.242,2.74-3.191,5.177-4.365,7.93a2.372,2.372,0,0,0-.91.32.55.55,0,0,0-.242.372c-.329.059-.657.118-.98.165C515.36,3956.15,515.221,3956.167,515.081,3956.185Zm5.247-1.471c.165-.31.321-.624.49-.913.26-.445.518-.879.8-1.294A3.527,3.527,0,0,1,520.328,3954.714Zm2.025-18.881c-.96,1.415-2.013,2.79-3.067,4.131-.759.968-1.634,1.9-2.371,2.906.026-1.182.047-2.365.054-3.546,1.663-2.324,3.609-4.365,5.405-6.583C522.367,3933.772,522.358,3934.8,522.353,3935.833Z"/><path d="M478.211,3907.19c-1.954,2.027-4.27,4.09-5.232,6.809a.131.131,0,0,0,.239.1,33.113,33.113,0,0,1,5.024-6.878C478.26,3907.2,478.231,3907.17,478.211,3907.19Z"/><path d="M472.89,3945.476a20.227,20.227,0,0,1,1.748-3.877,22.918,22.918,0,0,0,1.965-3.474c.038-.092-.119-.156-.159-.068-1.044,2.318-3.9,4.7-3.811,7.384A.131.131,0,0,0,472.89,3945.476Z"/><path d="M480.041,3892.634c.5-.624.853-1.375,1.332-2.026.63-.856,1.352-1.645,2.036-2.458.071-.086-.046-.208-.124-.124-.662.717-1.339,1.418-1.977,2.157a6.775,6.775,0,0,0-1.523,2.3C479.746,3892.624,479.942,3892.757,480.041,3892.634Z"/><path d="M487.52,3934.292c-.711,1.158-2.133,2.394-2.255,3.81a.131.131,0,0,0,.243.066,18.82,18.82,0,0,1,.927-1.838c.418-.647.889-1.257,1.273-1.929A.109.109,0,0,0,487.52,3934.292Z"/><path d="M484.863,3946.554a17.03,17.03,0,0,0,2.153-3.649c.04-.109-.126-.148-.168-.047a16.914,16.914,0,0,1-2.286,3.52C484.429,3946.555,484.735,3946.74,484.863,3946.554Z"/><path d="M506.675,3914.441c.586-1,.817-2.242,1.61-3.122a.023.023,0,1,0-.036-.028,18.462,18.462,0,0,0-1.813,3.049C506.378,3914.48,506.6,3914.566,506.675,3914.441Z"/><path d="M487.538,3942.253a21.9,21.9,0,0,0,1.294-2.95c.011-.028-.037-.041-.046-.013-.3,1.03-1.3,1.807-1.447,2.879A.109.109,0,0,0,487.538,3942.253Z"/><path d="M497.608,3928.978a9.237,9.237,0,0,0-1.735,2.608c-.047.133.164.19.211.058a8.933,8.933,0,0,1,1.678-2.513C497.85,3929.023,497.7,3928.867,497.608,3928.978Z"/><path d="M505.177,3929.044a18.531,18.531,0,0,1-1.118,1.822c-.1.135.139.28.226.132a18.776,18.776,0,0,0,.93-1.933C505.226,3929.04,505.191,3929.019,505.177,3929.044Z"/><path d="M496.514,3928.031c0-.03-.046-.03-.047,0a.942.942,0,0,1-.5.833c-.026.015,0,.054.024.04A.994.994,0,0,0,496.514,3928.031Z"/><path d="M496.96,3933.993a4.608,4.608,0,0,0-.364,1.378c0,.084.13.084.131,0a4.513,4.513,0,0,1,.317-1.355C497.062,3933.963,496.979,3933.941,496.96,3933.993Z"/><path d="M496.937,3936.053c.007.341.015.683.022,1.024a.043.043,0,0,0,.087,0c.008-.341.015-.683.022-1.024A.066.066,0,0,0,496.937,3936.053Z"/></g></svg>