<svg xmlns="http://www.w3.org/2000/svg" width="74.136" height="61.745" viewBox="0 0 74.136 61.745"><g transform="translate(-606.453 -4112.617)"><path d="M646.559,4138.3a10.5,10.5,0,0,0-4.1-2.533c-2.994-.963-4.79.97-5.765,3.393a10.864,10.864,0,0,0-4.62,8.137.767.767,0,0,0-.975.41,7.77,7.77,0,0,0,.229,5.852c.127,2.383,1.132,4.336,3.7,4.58a11.7,11.7,0,0,0,8.717,1.595c.3-.059.6-.135.888-.218a6.115,6.115,0,0,0,.9-.189,7.277,7.277,0,0,0,3.106-1.976,12.276,12.276,0,0,0,2.53-15.12A9.278,9.278,0,0,0,646.559,4138.3Zm-11.867,16.123a9.8,9.8,0,0,0,.574.993,7.821,7.821,0,0,1-1.7-2.2,8.944,8.944,0,0,1-.841-3.019.29.29,0,0,0,.049-.14c.036-.491.082-.982.147-1.47a10.944,10.944,0,0,1,1.1-2.408c-.049.279-.09.561-.117.844A10.154,10.154,0,0,0,634.692,4154.424Zm2.684-13.959a8.671,8.671,0,0,1,8.347-.407,7.575,7.575,0,0,1,1.874,1.324c.025.058.054.116.077.175a5.786,5.786,0,0,0-1.64-1.006,7.576,7.576,0,0,0-2.628-.56,6.48,6.48,0,0,0-6.378.846c.012-.057.027-.113.04-.169C637.168,4140.6,637.271,4140.531,637.376,4140.465Zm11.182,12.95a11.808,11.808,0,0,0,.4-3.387c-.007-.232-.021-.466-.038-.7.055-.132.107-.258.153-.378a7.937,7.937,0,0,0,.537-2.73,7.82,7.82,0,0,1,.506.8A10.692,10.692,0,0,1,648.558,4153.415Zm-3.081,2.956a9,9,0,0,1-2.658.938,9.221,9.221,0,0,0,3.563-3.792,19.041,19.041,0,0,0,1.5-2.177,9.266,9.266,0,0,1-1.708,4.593A7.9,7.9,0,0,1,645.477,4156.371Zm-5.26,1.027c-.168-.131-.332-.267-.49-.408q.405-.216.794-.452a3.513,3.513,0,0,0,2.593-.224,7.144,7.144,0,0,1-.948.6A4.23,4.23,0,0,1,640.217,4157.4Zm-3.5-10.773c-.022-.278-.041-.6-.052-.939a5.365,5.365,0,0,1,.162-.794,8.046,8.046,0,0,1,1.1-1.324c.04-.039-.02-.1-.06-.061a8.374,8.374,0,0,0-.878.922,4.521,4.521,0,0,1,.5-.92,6.029,6.029,0,0,1,1.74-1.1,9.557,9.557,0,0,1,3-.179c-.108.032-.216.068-.326.108a6.07,6.07,0,0,0-3.991,3.99,1.23,1.23,0,0,0-.108.723,4.267,4.267,0,0,0,.034.872c-.955,2.005.4,4.4,2.6,5.158a2.8,2.8,0,0,0,2.46-.3,3.51,3.51,0,0,0,.971-.027,19.487,19.487,0,0,1-1.98,1.751,5,5,0,0,1-1.558-.691.29.29,0,0,0-.255-.434c-.106.008-.211.012-.317.016-.171-.139-.334-.285-.486-.436a9.587,9.587,0,0,1-2.191-3.657A23.027,23.027,0,0,1,636.713,4146.625Zm4.15,8.616c-.112.076-.223.151-.339.226a3.406,3.406,0,0,1-.862-.6A6.187,6.187,0,0,0,640.863,4155.241Zm1.254.215a3.874,3.874,0,0,0,.425.034,4.114,4.114,0,0,1-.438.136,2.394,2.394,0,0,1-.292.054C641.915,4155.606,642.016,4155.531,642.117,4155.456Zm-1.651-4.749a5.587,5.587,0,0,1-1.252-1.47c.088.075.174.146.26.21a8.884,8.884,0,0,0,3.832,1.791,3.836,3.836,0,0,1-.649.606l0,0A5.5,5.5,0,0,1,640.466,4150.707Zm.807,1.589a3.284,3.284,0,0,1-2.256-1.363,3.725,3.725,0,0,1-.307-.834A6.909,6.909,0,0,0,641.273,4152.3Zm-.13-2.823a6.891,6.891,0,0,1-2.067-1.587,3.7,3.7,0,0,1,1.126-1.115,3.877,3.877,0,0,1,1.532-.589c1.27.145,2.438.757,2.567,2.209a3.751,3.751,0,0,1-.442,2.027A6.416,6.416,0,0,1,641.143,4149.473Zm3.955,1.579a2.576,2.576,0,0,1-.684.591,2.026,2.026,0,0,1-.476.2,5.5,5.5,0,0,0,.414-.578A2.05,2.05,0,0,0,645.1,4151.052Zm-1.02-5.374a2.072,2.072,0,0,1,1.8,1.446,4.208,4.208,0,0,1-.013,2.39,6.8,6.8,0,0,0-.376-1.976A3.121,3.121,0,0,0,644.078,4145.678Zm1.165-.524a5.221,5.221,0,0,0-4.182.108,6.853,6.853,0,0,0-1.968.249h0a6.3,6.3,0,0,1,3.841-2.554c2.585-.609,3.6,1.774,3.844,4.123A2.928,2.928,0,0,0,645.243,4145.154Zm1.157,5.994a6.836,6.836,0,0,1-.748,1.6,5.378,5.378,0,0,1-1.965,1.417A19.5,19.5,0,0,0,646.4,4151.148Zm-8.614,2.958a8.37,8.37,0,0,0,1.091,1.369,4.981,4.981,0,0,0,.682.577c-.169.1-.341.186-.515.275a13.413,13.413,0,0,1-1.007-1.2,12.379,12.379,0,0,1-.753-1.141A4.3,4.3,0,0,0,637.786,4154.106Zm10.227-8.783a12.63,12.63,0,0,0-.524-1.164q.315.222.61.466C648.08,4144.858,648.05,4145.091,648.013,4145.323Zm-1.492-2.721a9.488,9.488,0,0,0-1.089-1.228,5.124,5.124,0,0,1,2.569,2.06c.021.033.036.067.056.1A10.863,10.863,0,0,0,646.521,4142.6Zm-8.858-.9a5.168,5.168,0,0,1,2.152-1.045,10.3,10.3,0,0,0-1.639.843C638,4141.557,637.831,4141.624,637.663,4141.7Zm-1.584,7.97a6.892,6.892,0,0,1-.306-2.078A20.021,20.021,0,0,0,636.079,4149.669Zm.629,2.913c-.08-.058-.159-.118-.235-.183-.049-.11-.1-.222-.144-.335C636.449,4152.242,636.575,4152.414,636.708,4152.582Zm-.529.9a15.455,15.455,0,0,0,2.151,3.176c-.156.066-.315.128-.474.186-.045-.021-.087-.045-.131-.068a9.472,9.472,0,0,1-2.754-4.344c-.007-.076-.015-.152-.022-.227A4.157,4.157,0,0,0,636.179,4153.483Zm13.3-8.681a6.086,6.086,0,0,0-.469-1.454c0-.048-.013-.1-.017-.145a8.69,8.69,0,0,1,.8,1.953C649.694,4145.036,649.592,4144.918,649.484,4144.8Zm-8.6-8.335a6.019,6.019,0,0,1,3.49,1.2,11.064,11.064,0,0,0-5.117.285,9.82,9.82,0,0,0-1.4.548A3.5,3.5,0,0,1,640.886,4136.467Zm-4.881,5.067c-.021.1-.04.2-.058.306a6.346,6.346,0,0,0-.462.6,6.229,6.229,0,0,1-1.652,2.417A9.227,9.227,0,0,1,636.005,4141.534Z"/><path d="M680.285,4151.167c.007-1.342.005-2.684-.015-4.027a88.272,88.272,0,0,0-.93-12.349,42.241,42.241,0,0,0-1.158-5.6.17.17,0,0,0-.093-.31,21.335,21.335,0,0,0-1.729-4.6,1.184,1.184,0,0,0-1.168-1.552q-1.451.044-2.9.074c.378-2.264-.328-4.805-2.6-5.733-2.545-1.044-5.609-.466-8.263-.287a.687.687,0,0,0-.677.677c-.008,1.142-.062,2.3-.026,3.447-.525-.452-1.133-.843-1.635-1.317a30.726,30.726,0,0,1-2.156-2.3,35.707,35.707,0,0,0-2.846-2.928.823.823,0,0,0-.221-1.216c-1.511-.688-3.4-.393-5.029-.4-2.006-.006-4.005.023-6.01.087s-4.007.118-6.009.226c-.856.046-1.744.07-2.62.168a1.165,1.165,0,0,0-1.627-.431c-1.674,1.125-2.96,3.229-4.183,4.81-1.149,1.487-2.171,3.076-3.2,4.65-1.846-.039-3.691-.039-5.536.034-3.732.149-8.548.185-11.685,2.537,0-.042-.005-.083-.007-.125-.01-.136-.219-.181-.25-.034s-.053.286-.082.428a2.079,2.079,0,0,0-.663,1.015c-.04.12.08.2.182.183s.176-.03.264-.045c-1.234,7.085-1.013,14.485-.772,21.63q.045,1.367.1,2.729c-.209.031-.215.36,0,.337h.009c.207,4.966.5,9.928.732,14.892h-.017a.148.148,0,0,0,0,.3h.03c.088,1.883.168,3.765.23,5.647a.783.783,0,0,0,.375.674c-.149.04-.247.058-.255.04a.022.022,0,0,0-.034,0,.467.467,0,0,0,.014.718,2.82,2.82,0,0,0,2.182.579c2.927.02,5.843.193,8.77.268,6.964.178,13.933.09,20.9.147,6.626.052,13.3.385,19.917-.113,5.648-.426,11.369-1.573,17.042-.889a1.206,1.206,0,0,0,1.3-.933,1.006,1.006,0,0,0,1.863-.486c0-.209.01-.419.014-.629a.125.125,0,0,0,.166-.185c-.051-.069-.105-.138-.158-.206.126-6.308.4-12.614.449-18.923A.338.338,0,0,0,680.285,4151.167Zm-3.085,14.184c-.025.6-.078,1.232-.115,1.868q-.207-.267-.415-.534c-.029-.039-.094.012-.066.051l.418.575a27.018,27.018,0,0,0-2.872,1.039c-.435.149-.871.289-1.309.426a9.9,9.9,0,0,1-1.6-2.634q.021-.634.036-1.272,1.047-.2,2.1-.393a13.741,13.741,0,0,0,.13,3.029.255.255,0,0,0,.49,0,16.553,16.553,0,0,0,.177-3.173l.674-.122a11.417,11.417,0,0,0,.189,3.272.17.17,0,0,0,.327,0,13.469,13.469,0,0,0,.223-3.293c0-.038,0-.075,0-.113.1-.018.2-.037.3-.054.461-.083.922-.162,1.381-.242Q677.232,4164.567,677.2,4165.351Zm-14.825,3.388q-.03-1.042-.056-2.085c.282-.1.665-.1.934-.172.606-.161,1.222-.29,1.836-.417.188-.04.376-.076.564-.114a12.6,12.6,0,0,0-.194,2.936.318.318,0,0,0,.635,0c.022-.244.042-.487.061-.731a6.393,6.393,0,0,0,1.567,2.015l-.167.037c-.985.063-1.97.14-2.953.219-.238-.146-.475-.3-.713-.472-.507-.362-1-.723-1.51-1.063C662.378,4168.842,662.376,4168.79,662.375,4168.739ZM672,4147.188c.725-.043,1.451-.077,2.176-.126q.014,1.083-.014,2.163-1.129.062-2.258.138v-.031Q671.96,4148.26,672,4147.188Zm6.255-.048c.007.648.007,1.3.005,1.943q-1.172.013-2.339.06.026-1.124.044-2.244a17.852,17.852,0,0,0,2.281-.421C678.251,4146.7,678.255,4146.919,678.257,4147.14Zm-3.409,16.486-.691.128c-.007-.5-.013-1,0-1.483q.039-1.359.1-2.718l.659-.132c0,.054,0,.108-.006.161C674.861,4160.93,674.853,4162.278,674.848,4163.626Zm-3.369-6.011c.75-.109,1.5-.214,2.252-.33q-.054,1-.1,2-1.118.215-2.238.407.02-.637.049-1.272C671.451,4158.151,671.465,4157.883,671.479,4157.615Zm.269-5.2a13.647,13.647,0,0,0,2.267.047c-.025.4-.048.8-.073,1.2-.761.1-1.521.217-2.279.341C671.692,4153.474,671.719,4152.946,671.748,4152.417Zm2.991-6.356c-.04-.861-.107-1.739-.184-2.629q.52-.1,1.042-.175-.069,1.589-.141,3.178c-.233.036-.469.072-.7.1C674.747,4146.38,674.745,4146.22,674.739,4146.061Zm3.161-7.925c-.637,0-1.271.028-1.9.075-.01-.652-.024-1.307-.041-1.961a8.109,8.109,0,0,0,1.754-.322Q677.816,4137.031,677.9,4138.136Zm.25,4.456a.194.194,0,0,0-.061-.011,17.181,17.181,0,0,0-2.073.172c0-.545.005-1.09,0-1.636a11.369,11.369,0,0,1,2.052-.248C678.1,4141.443,678.129,4142.017,678.15,4142.592Zm-.107-2.223a11.41,11.41,0,0,0-2.025.244q0-.809-.012-1.62.969-.087,1.943-.152Q678,4139.6,678.043,4140.369Zm-2.243-2.14c-.558.044-1.113.1-1.668.175-.041-.652-.073-1.3-.087-1.954.155-.021.312-.044.468-.063.418-.052.884-.084,1.358-.128C675.848,4136.915,675.823,4137.571,675.8,4138.229Zm-.029.786q-.033.832-.067,1.665c-.417.092-.833.194-1.248.3l-.118.032c-.054-.61-.107-1.223-.153-1.837Q674.977,4139.089,675.771,4139.015Zm-.088,2.173q-.033.813-.067,1.625-.551.087-1.1.2c-.045-.5-.092-1.015-.138-1.525C674.815,4141.384,675.249,4141.282,675.683,4141.188Zm-.249,5.77q-.051,1.1-.1,2.209c-.191.008-.381.018-.571.027q.024-1.085,0-2.175C674.99,4147,675.212,4146.98,675.434,4146.958Zm-.119,2.7c-.027.569-.052,1.14-.077,1.709-.007.152-.012.3-.019.457q-.279.043-.56.083c.04-.743.074-1.485.1-2.227Zm-.119,2.705c-.017.386-.032.772-.049,1.158-.195.019-.389.041-.583.063q.036-.584.069-1.166C674.821,4152.4,675.008,4152.386,675.2,4152.365Zm-.66,1.7c.2-.019.393-.038.59-.053q-.054,1.273-.1,2.549l-.635.142c.008-.18.018-.36.027-.54C674.452,4155.464,674.494,4154.764,674.536,4154.065Zm-.624.067q-.049.78-.1,1.562c-.022.383-.04.767-.062,1.151-.753.165-1.508.326-2.261.49q.069-1.452.148-2.9C672.4,4154.321,673.154,4154.217,673.912,4154.132Zm-.3,5.541c-.031.709-.065,1.419-.092,2.128-.025.677-.079,1.382-.12,2.094q-1.058.2-2.111.4c.03-1.412.05-2.824.091-4.237C672.125,4159.938,672.869,4159.81,673.611,4159.673Zm.66-.515q.043-.987.092-1.974c.214-.035.428-.072.64-.11-.025.649-.051,1.3-.073,1.947Q674.6,4159.091,674.271,4159.158Zm1.472-2.222c.664-.131,1.322-.283,1.975-.462q-.066.954-.135,1.91-.933.252-1.876.466Q675.724,4157.893,675.743,4156.936Zm2.361-.574.018,0q-.03.946-.061,1.894l-.014,0Q678.082,4157.309,678.1,4156.362Zm.035-.6-.023.007q.016-.921.023-1.843h.049Q678.167,4154.841,678.139,4155.758Zm-.382.11c-.665.187-1.333.358-2,.519q.026-1.212.056-2.424c.687-.043,1.376-.061,2.068-.048C677.839,4154.567,677.8,4155.218,677.757,4155.868Zm-1.937-2.4q.015-.586.028-1.173c.708-.088,1.417-.187,2.127-.272q-.031.681-.068,1.362C677.209,4153.379,676.513,4153.41,675.82,4153.464Zm.042-1.742q.027-1.042.05-2.082c.716-.022,1.432-.039,2.148-.047-.015.592-.036,1.185-.059,1.777C677.286,4151.474,676.575,4151.6,675.862,4151.722Zm.115-5.374q.026-1.575.038-3.149a17.038,17.038,0,0,1,2.074-.152.24.24,0,0,0,.076-.017q.05,1.4.073,2.787A18.47,18.47,0,0,1,675.977,4146.348Zm1.216-14.523c-1,.139-1.989.478-2.986.7a18.041,18.041,0,0,1,.463-2.463,10.974,10.974,0,0,0,2.182-.314C676.97,4130.44,677.085,4131.132,677.193,4131.825Zm.055.366c.143.941.273,1.884.373,2.832.011.1.019.206.03.31a16.164,16.164,0,0,0-3.216.475l-.4.072c-.007-.935.024-1.863.109-2.781A8.725,8.725,0,0,0,677.248,4132.191Zm-3.579,3.759c-.557.113-1.113.244-1.664.389q-.072-1.458-.194-2.914.908-.1,1.81-.244l.248-.038A27.466,27.466,0,0,0,673.669,4135.95Zm-.008.552c-.005.652.007,1.305.031,1.959-.533.072-1.067.153-1.6.238q-.024-.969-.066-1.939Q672.84,4136.616,673.661,4136.5Zm.064,2.723q.047.965.114,1.922c-.556.159-1.135.332-1.714.443q0-1.085-.017-2.173Q672.916,4139.317,673.725,4139.225Zm-.776,2.547c.309-.05.615-.11.922-.176.036.512.073,1.021.11,1.525-.627.135-1.252.283-1.874.434.009-.558.014-1.114.016-1.671C672.4,4141.855,672.676,4141.815,672.949,4141.772Zm1.062,1.766c.043.612.083,1.218.116,1.814.022.423.037.844.046,1.265-.72.092-1.443.176-2.16.269q.055-1.463.085-2.925C672.734,4143.814,673.371,4143.668,674.011,4143.538Zm.136,6.168q-.039,1.14-.1,2.28a13.924,13.924,0,0,1-2.276.083q.062-1.129.116-2.257Q673.015,4149.755,674.147,4149.706Zm-3.1,4.4q-.826.138-1.651.276c.034-1.483.055-2.966.055-4.45l1.85-.092Q671.175,4151.976,671.042,4154.107Zm-.027.416q-.089,1.479-.174,2.955-.776.171-1.547.354.05-1.531.087-3.065Q670.2,4154.647,671.015,4154.523Zm-.187,3.187q-.023.355-.042.71c-.025.461-.053.926-.081,1.39-.494.085-.99.168-1.484.252q.036-1.053.069-2.107C669.8,4157.867,670.314,4157.787,670.828,4157.71Zm-.144,2.466c-.085,1.421-.166,2.851-.2,4.277-.217.042-.435.083-.652.126-.253.05-.506.1-.758.155.038-1.439.085-2.879.133-4.319Zm-.418,4.885.209-.039c-.01.808,0,1.614.033,2.416a.339.339,0,0,0,.677,0c.013-.25.022-.5.033-.753a10.36,10.36,0,0,0,1.19,2.224q-1.278.388-2.567.732c-.282.076-.564.148-.848.219.005-1.523.031-3.046.069-4.568Q669.664,4165.178,670.266,4165.061Zm-1.907,4.956-.02,0a6.251,6.251,0,0,1-2.135-2.552c.036-.551.069-1.1.1-1.651.719-.142,1.441-.279,2.162-.415Q668.378,4167.709,668.359,4170.017Zm-4.438.466-1.46.12c-.016-.424-.043-.849-.062-1.27C662.908,4169.72,663.41,4170.117,663.921,4170.483Zm6.155-.4q1.338-.342,2.66-.741a8.629,8.629,0,0,0,.665.748C672.295,4170.05,671.186,4170.052,670.076,4170.086Zm5.651-6.623c-.043.008-.086.017-.13.024.03-1.148.071-2.3.088-3.446,0-.262.01-.523.014-.785.621-.135,1.239-.279,1.854-.44q-.047.62-.091,1.237c-.078,1.042-.129,2.087-.174,3.133Q676.508,4163.322,675.727,4163.463Zm2.243-3.41q.035-.683.061-1.366l.016,0q-.072,2.2-.137,4.392l-.086.016Q677.893,4161.572,677.97,4160.053Zm.233-6.67h-.058q0-.691,0-1.384l.088-.009C678.222,4152.454,678.214,4152.919,678.2,4153.383Zm-.065-2.033q-.008-.879-.024-1.757l.146,0q-.006.873-.019,1.746Zm-8.387-28.5a6.457,6.457,0,0,0,.464-1.626.163.163,0,0,0,.028-.252,3.408,3.408,0,0,0-.027-.785,3.8,3.8,0,0,0,.469-.257,8.619,8.619,0,0,1,.279,2.9C670.56,4122.837,670.157,4122.846,669.751,4122.852Zm-4.2-1.8c.037.208.079.414.131.619-.573.021-1.144.025-1.715.029,0-.216,0-.433,0-.651A11.787,11.787,0,0,0,665.546,4121.05Zm-1.6-.327c-.038-.936-.139-1.878-.232-2.778.611-.052,1.226-.095,1.839-.11a9.687,9.687,0,0,0-.064,2.852A13,13,0,0,1,663.949,4120.723Zm4.353,2.147c.37-.059.742-.119,1.114-.177-.018.056-.036.11-.053.165Zm-2.518-.822a7.224,7.224,0,0,0,.321.841q-1.11.009-2.218.011c.034-.291.055-.586.066-.884C664.562,4122.043,665.171,4122.055,665.784,4122.048Zm.623-.014a15.352,15.352,0,0,0,1.671-.131,3.4,3.4,0,0,0,.44.736c-.425.079-.85.161-1.276.241l-.631.007C666.545,4122.6,666.476,4122.317,666.407,4122.034Zm3.083.436c-.213.035-.426.07-.641.108a.182.182,0,0,0,.009-.1,4.764,4.764,0,0,0-.2-.681,5.491,5.491,0,0,0,1.145-.361C669.713,4121.792,669.6,4122.142,669.49,4122.47Zm.415-1.509c-.49.109-.968.222-1.445.325-.068-.178-.134-.356-.19-.539a8.761,8.761,0,0,0,1.684-.446A3.654,3.654,0,0,1,669.905,4120.961Zm-2.015.443a14.538,14.538,0,0,1-1.578.226c-.049-.209-.1-.418-.142-.627l.147-.013c.424-.041.917-.089,1.427-.16A5.346,5.346,0,0,0,667.89,4121.4Zm-4.644.3c-.48.007-.96.022-1.441.054.007-.39.028-.779.06-1.168a6.813,6.813,0,0,0,1.386.372C663.243,4121.213,663.242,4121.461,663.246,4121.707Zm-1.4,1.193q-.045-.519-.042-1.035c.485.045.969.085,1.452.114.011.311.033.619.069.922Zm8.678-3.356a4.478,4.478,0,0,0-.45.126,1.816,1.816,0,0,0-.641-.813c-.059-.041-.132.054-.077.1a1.611,1.611,0,0,1,.513.784c-.285.1-.568.215-.851.3s-.578.159-.87.226a7.418,7.418,0,0,1-.11-2.279c.109.018.216.038.324.06A2.86,2.86,0,0,1,670.521,4119.544Zm-2.8-1.6a9.4,9.4,0,0,0-.046,2.429q-.525.106-1.054.188c-.172.026-.348.049-.526.071a10.164,10.164,0,0,1-.206-2.8A13.152,13.152,0,0,1,667.719,4117.94Zm-4.229.024c-.091.88-.19,1.8-.229,2.712a9.485,9.485,0,0,1-1.383-.239c.068-.781.16-1.561.205-2.348C662.548,4118.05,663.018,4118,663.49,4117.964Zm-4.968,4.926q-1.147-.006-2.3-.014c-.41-1.312-.876-2.622-1.311-3.916l-.007-.02c.056.072.109.144.166.216A19.473,19.473,0,0,0,658.522,4122.89Zm-5.931-7.983c.009.021.018.043.026.065-.018-.021-.036-.041-.055-.06Zm-.355.048a.145.145,0,0,0,.036.078,8.7,8.7,0,0,1,.837,1.05,16.05,16.05,0,0,0,.816,1.458,16.63,16.63,0,0,1,.812,2.215c.3,1.016.526,2.1.9,3.116l-3.48-.029c-.272,0-.542,0-.814,0-.32-1.314-.8-2.6-1.121-3.923s-.61-2.652-.987-3.961A20.854,20.854,0,0,0,652.236,4114.955Zm-3.22-.009v.01c.665,2.526.822,5.47,1.907,7.879q-2.262-.012-4.524-.012a48.257,48.257,0,0,1,.457-7.892q.76.007,1.523,0C648.586,4114.936,648.8,4114.94,649.016,4114.946Zm-2.39-.018a48.777,48.777,0,0,0-.578,7.894c-1.829,0-3.659-.008-5.487-.029a23.957,23.957,0,0,1,1.672-7.964l.136,0C643.79,4114.878,645.207,4114.913,646.626,4114.928Zm-4.481-.1a22.77,22.77,0,0,0-1.949,7.962q-1.566-.021-3.131-.062a28.768,28.768,0,0,1,2.383-7.991Q640.8,4114.785,642.145,4114.826Zm-3.026-.1a29.244,29.244,0,0,0-2.429,7.994q-1.285-.036-2.57-.092c-.65-.029-1.3-.06-1.954-.091a24.942,24.942,0,0,1,3.428-7.977l.764.04C637.279,4114.646,638.2,4114.686,639.119,4114.722Zm-9.141,4.473c.767-.815,1.474-1.692,2.231-2.52a19.037,19.037,0,0,0,2.018-2.224h0c.411.046.825.074,1.237.1a21.573,21.573,0,0,0-3.623,7.97c-1.608-.077-3.217-.153-4.827-.207C628.024,4121.294,628.994,4120.241,629.978,4119.195Zm-20.159,6.494c-.211,2.022-.4,4.046-.535,6.074-.317.029-.634.055-.953.075q-.118-2.856-.285-5.707C608.638,4126,609.227,4125.846,609.819,4125.689Zm-.518,31.363c.595-.12,1.189-.244,1.784-.368a36.995,36.995,0,0,1,.022,4.8c-.56.161-1.119.323-1.681.476Q609.384,4159.508,609.3,4157.052Zm2.395-.1c-.007-.131-.02-.26-.029-.39q.543-.114,1.09-.225l.049-.009q.09,1.282.168,2.567c.041.679.07,1.357.1,2.036-.443.12-.884.244-1.326.371A32.761,32.761,0,0,0,611.7,4156.952Zm-2.5-16.966c.11,1.859.3,3.712.53,5.568-.3.047-.6.085-.9.11q-.114-2.847-.2-5.7Q608.912,4139.98,609.2,4139.986Zm.451-3.634a11.946,11.946,0,0,0,1.809.026q.051,1.605.133,3.206-.912.125-1.831.2Q609.674,4138.067,609.65,4136.352Zm1.958,3.534c.09,1.719.2,3.438.328,5.158-.56.162-1.124.306-1.693.418q-.328-2.747-.472-5.477C610.386,4139.978,611,4139.942,611.608,4139.886Zm-2.669,8.45q-.057-1.278-.108-2.556c.312.005.619,0,.923-.024.025.2.049.4.075.6.151,1.155.316,2.307.478,3.458-.426.124-.854.244-1.284.353C608.995,4149.555,608.968,4148.945,608.939,4148.336Zm1.542-1.057q-.113-.786-.209-1.572a14.756,14.756,0,0,0,1.69-.3q.137,1.849.289,3.7c0,.041.006.081.01.122-.478.139-.952.282-1.429.423C610.715,4148.863,610.6,4148.071,610.481,4147.279Zm1.182,2.617c.213-.059.424-.118.637-.174.165,2.049.327,4.1.473,6.149-.38.092-.759.191-1.136.295-.16-2.028-.439-4.046-.737-6.06Zm3.213,11.189q.17,1.923.3,3.848c-.264.05-.525.1-.783.143l-.464.076c-.026-1.279-.1-2.558-.18-3.833Q614.311,4161.2,614.876,4161.085Zm-.984-.368c-.06.014-.12.031-.179.046-.031-.474-.063-.947-.093-1.419-.066-1.045-.143-2.088-.223-3.13.338-.063.679-.122,1.022-.181q.2,2.227.4,4.454C614.5,4160.564,614.188,4160.642,613.892,4160.717Zm-.534-4.987c-.16-2.051-.339-4.1-.52-6.15q.529-.138,1.064-.261c.018.331.039.662.06.993.112,1.724.254,3.446.407,5.167C614.027,4155.563,613.69,4155.65,613.358,4155.73Zm-.564-6.653q-.168-1.895-.33-3.792c.4-.1.814-.222,1.231-.348l.042-.013c.017,1.285.066,2.567.134,3.842C613.5,4148.871,613.134,4148.98,612.794,4149.077Zm-.364-4.179q-.216-2.528-.4-5.054.939-.1,1.871-.263c-.129,1.628-.174,3.265-.163,4.9C613.3,4144.623,612.867,4144.764,612.43,4144.9Zm-.429-5.373q-.114-1.583-.21-3.169c.851-.063,1.7-.182,2.53-.295q-.256,1.559-.392,3.137C613.289,4139.321,612.646,4139.431,612,4139.525Zm-.216-3.277c-.091-1.527-.169-3.055-.225-4.583,1.34-.186,2.673-.426,4.005-.673a32.449,32.449,0,0,0-1.21,4.868C613.509,4136.013,612.647,4136.161,611.785,4136.248Zm-.329.03a12.355,12.355,0,0,1-1.807.027q-.031-2.211.034-4.424.857-.079,1.708-.192Q611.382,4133.987,611.456,4136.278Zm-2.345-.864c-.039,1.476-.005,2.944.077,4.408-.188.011-.378.022-.569.03-.087-2.625-.174-5.251-.281-7.874.312-.016.624-.034.936-.058C609.2,4133.082,609.14,4134.248,609.111,4135.414Zm1.257,14.833c.284,2.029.549,4.055.693,6.081-.59.169-1.178.346-1.768.518q-.107-3.138-.251-6.279C609.486,4150.469,609.927,4150.362,610.368,4150.247Zm-.935,12.057c.549-.119,1.1-.245,1.642-.373a27.089,27.089,0,0,1-.466,3.3c-.027.133.172.236.231.1a11.7,11.7,0,0,0,.866-3.547q.691-.166,1.385-.323c.045,1.269.076,2.539.123,3.807-1.244.195-2.493.362-3.746.467Q609.464,4164.018,609.433,4162.3Zm3.8,3.4c.043,1.062.1,2.123.185,3.181a.212.212,0,0,0,.424,0c.086-1.086.107-2.178.095-3.272.421-.054.848-.1,1.278-.146.014.217.033.434.046.651.059.965.059,1.942.085,2.916-.644.14-1.276.3-1.875.426-1.371.294-2.723.66-4.057,1.083q.052-2.233.055-4.466C610.726,4166.007,611.98,4165.871,613.232,4165.706Zm-2.861,6.007c-.1.032-.552.19-1.043.357a.93.93,0,0,0,.057-.286c.01-.322.014-.644.021-.967,1.236-.344,2.485-.635,3.747-.881.719-.141,1.465-.221,2.211-.3.02.477.048.952.1,1.423a.144.144,0,0,0,.011.037c-.558.021-1.115.041-1.673.064A13.748,13.748,0,0,0,610.371,4171.713Zm5.766-.641,0-.012a13.3,13.3,0,0,0,.055-1.511,14.992,14.992,0,0,0,2.56-.458.212.212,0,0,0-.057-.415,9.908,9.908,0,0,0-2.523.191c-.036-.8-.106-1.6-.153-2.382-.021-.364-.046-.728-.072-1.092a24.066,24.066,0,0,0,4.236-.708.149.149,0,0,0-.039-.292,14.6,14.6,0,0,0-4.241.4c-.088-1.181-.191-2.359-.3-3.537-.01-.1-.019-.2-.028-.3.186-.033.372-.071.559-.1.992-.171,2.028-.125,3-.37a.171.171,0,0,0,0-.327,8.935,8.935,0,0,0-3.618.177c-.137-1.472-.28-2.944-.417-4.416a27.862,27.862,0,0,0,2.914-.626.17.17,0,0,0-.044-.333,11.189,11.189,0,0,0-2.926.36c-.142-1.536-.279-3.072-.394-4.61-.037-.507-.074-1.017-.109-1.527.913-.177,1.864-.143,2.755-.388a.192.192,0,0,0,0-.368,6.184,6.184,0,0,0-2.794.175c-.082-1.275-.152-2.56-.191-3.849.85-.256,1.7-.5,2.57-.7,1.1-.245,2.205-.184,3.306-.349.174-.026.15-.285,0-.326-1.757-.494-3.888.279-5.556.813l-.334.108c-.041-1.6-.033-3.2.049-4.8,1.39-.256,2.773-.585,4.157-.929,1.891-.469,3.776-.96,5.684-1.355a44.387,44.387,0,0,1,4.971-.643,19.39,19.39,0,0,0-4.272,7.889,16.392,16.392,0,0,0-.574,4.42,14.875,14.875,0,0,0,0,8.17,14.258,14.258,0,0,0,5.07,7c4.945,3.748,11.69,4.668,17.632,3.214a18.385,18.385,0,0,0,9.414-5.578c2.5-2.836,4.8-7.507,3.817-11.345a.259.259,0,0,0-.414-.143c.607-3.754-.547-7.722-2.287-11.036-2.115-4.026-5.664-7.753-10.139-9.023a15.271,15.271,0,0,0-7.052.131,21.193,21.193,0,0,0-6.983,2.775,19.069,19.069,0,0,0-3.717,3c-3.351-.118-6.859.984-10.043,1.816-1.737.452-3.481.894-5.24,1.247.062-1.037.157-2.07.292-3.1,2.435-.33,4.85-.806,7.293-1.061.134-.014.136-.223,0-.212-2.144.188-4.275.53-6.394.9-.287.05-.576.1-.868.157a32.585,32.585,0,0,1,1.033-4.837h0a56.169,56.169,0,0,1,9.849-1.058.127.127,0,0,0,0-.254,29.919,29.919,0,0,0-8.624.837q-.576.111-1.151.225c.02-.065.037-.129.058-.194s-.1-.109-.122-.034-.059.172-.089.258c-1.363.267-2.727.533-4.1.74-.019-.568-.041-1.137-.055-1.7a.042.042,0,0,0-.085,0q-.017.864-.021,1.729-.849.127-1.7.218c.06-2.021.176-4.049.332-6.089.607-.158,1.217-.309,1.835-.411a47.931,47.931,0,0,1,6.625-.565c4.872-.125,9.752.115,14.617.351,5.728.277,11.464.216,17.2.276,4.958.053,9.916.107,14.874.092-6.567,1.98-13.6,2.405-20.418,2.531-8.8.163-17.631-.405-26.413.355-.081.007-.081.134,0,.128,9.035-.783,18.129-.183,27.182-.371,6.712-.139,13.639-.632,20.09-2.645,2.588-.01,5.177-.037,7.766-.1.6-.014,1.212-.031,1.817-.048a1.248,1.248,0,0,0,.657-.2c.234,1.312.648,2.625.87,3.926l.016.1c-.647.154-1.3.368-1.91.479h-.007c.121-.4.258-.8.416-1.2.017-.044-.059-.076-.079-.033-.181.413-.341.832-.485,1.257a6.737,6.737,0,0,1-4.5-.585.085.085,0,0,0-.086.147,6.541,6.541,0,0,0,3.707.96c.224,0,.468,0,.72-.015a18.328,18.328,0,0,0-.56,2.509c-.041.008-.082.018-.123.025-.683.127-1.37.225-2.06.308-.052-.562-.108-1.125-.172-1.687,0-.027-.044-.028-.043,0,.036.567.062,1.134.087,1.7-.941.109-1.885.187-2.826.26-2.949.226-5.919.411-8.839.9-.047.008-.036.088.012.084,3.056-.334,6.137-.271,9.2-.492q1.239-.089,2.473-.23c.037.99.057,1.979.066,2.97-.55.15-1.1.313-1.635.483a.127.127,0,0,0,.069.245c.52-.123,1.045-.228,1.569-.325q.008.97,0,1.942c-3.649.594-7.288,1.341-11.015.946-.273-.029-.266.392,0,.423a33.369,33.369,0,0,0,8.557-.337q1.23-.17,2.449-.324-.015,1.1-.046,2.2a3.635,3.635,0,0,1-2.248-.336.042.042,0,0,0-.043.073,3.742,3.742,0,0,0,2.283.518q-.025.879-.059,1.758c-.5.12-1,.24-1.5.352-2.586.578-6.155,1.543-8.662.223-.013-.007-.026.013-.011.02,2.35,1.163,4.957.846,7.453.389.9-.165,1.8-.371,2.7-.581q-.06,1.443-.133,2.883-.316.044-.632.094c-.118.018-.091.217.028.208q.3-.024.591-.043-.054,1.055-.113,2.11c0,.024,0,.048,0,.071l-1.877.134c0-.792-.01-1.585-.026-2.378a.021.021,0,0,0-.042,0c-.019.8-.047,1.593-.077,2.389-2.621.189-5.241.38-7.869.444a.064.064,0,0,0,0,.127c2.622.048,5.239-.052,7.854-.178-.061,1.5-.139,3-.224,4.5a33.518,33.518,0,0,1-6.906.562c-.164-.008-.162.243,0,.254a33.392,33.392,0,0,0,6.884-.436q-.09,1.56-.184,3.12l-.193.045c-.052.014-.029.091.023.082l.164-.03c-.041.7-.084,1.408-.123,2.112-2.22.378-4.434.779-6.61,1.355a.149.149,0,0,0,.079.286c2.144-.551,4.324-.934,6.511-1.29q-.125,2.178-.217,4.359-1.082.231-2.154.489c.061-.992.132-1.984.251-2.977.011-.1-.146-.114-.167-.022-.216,1.012-.483,2.074-.684,3.144-.321.079-.643.158-.965.241a9.918,9.918,0,0,0-2.453.879q-.029-1.033-.056-2.069a.106.106,0,0,0-.211,0q-.055,2.032-.11,4.064a9.658,9.658,0,0,0-2.665-1.228.064.064,0,0,0-.034.123,9.732,9.732,0,0,1,2.687,1.483c-.022.55-.059,1.11-.081,1.669l-.416.033q-1.16.089-2.318.149a5.121,5.121,0,0,1-.561-.3,22.762,22.762,0,0,1-1.883-1.406,21.185,21.185,0,0,0,3.359-.8c.164-.065.16-.35-.045-.333a20.639,20.639,0,0,0-3.818.761,8.73,8.73,0,0,0-1.42-.815c.775-.1,1.555-.205,2.341-.289a.212.212,0,0,0,0-.424,26.715,26.715,0,0,0-3.9.246c-.148-.023-.3-.044-.448-.055-.024,0-.029.035-.006.041.067.014.131.031.2.048-1.634.227-3.26.573-4.87.961-.127-.106-.254-.21-.383-.314-.012-.008-.028.007-.017.018.113.1.224.205.335.312-1.4.339-2.793.711-4.163,1.067q-1.044.27-2.089.532c-.628-.41-1.263-.807-1.915-1.177a.134.134,0,0,0-.16-.141c-.02,0-.041.008-.061.014-.431-.238-.871-.464-1.322-.671-.073-.034-.137.068-.064.11.354.2.7.418,1.047.639a50.68,50.68,0,0,1-5.21.943,10.71,10.71,0,0,1-2.72-2,12.939,12.939,0,0,0,2.644-.962c.128-.065.073-.292-.074-.276a15.409,15.409,0,0,0-3.007.739,8.328,8.328,0,0,1-1.216-2.073c-.061-.147-.3-.091-.246.068a9.266,9.266,0,0,0,1.039,2.139c-.473.15-.942.295-1.407.411-.026.007-.051.014-.077.019-.571-.483-1.139-.967-1.718-1.437.3-.085.6-.172.888-.258a.192.192,0,0,0-.051-.375,6.365,6.365,0,0,0-1.456.143,19.026,19.026,0,0,0-2.133-1.455.063.063,0,0,0-.064.109,18.223,18.223,0,0,1,1.848,1.424c-1.484.366-2.992,1.091-4.491,1.494a20.26,20.26,0,0,1-1.616-2.28.063.063,0,0,0-.109.063,20.467,20.467,0,0,0,1.38,2.305,5.256,5.256,0,0,1-3.477-.2.043.043,0,0,0-.043.074,5.317,5.317,0,0,0,3.705.391,12.205,12.205,0,0,0,2.239,2.386c.068.053.139.106.211.16-.535,0-1.069-.01-1.6-.028a10.12,10.12,0,0,1-4.52-.792c-.023-.013-.045.023-.021.037a9.132,9.132,0,0,0,3.837.916c.9.091,1.813.14,2.72.16.093.063.189.126.287.186l-1.427.016Q619.754,4170.948,616.137,4171.072Zm42.828-18.277c-.256,1-.494,2-.843,2.983a15.084,15.084,0,0,1-2.442,4.35,16.379,16.379,0,0,1-7.651,5.165,20.164,20.164,0,0,1-17.572-2.384c-5.08-3.581-6.363-9.874-4.893-15.654a.344.344,0,0,0-.337-.442,21.269,21.269,0,0,1,5.884-10.373,20.35,20.35,0,0,1,13.816-5.236c4.66.024,8.511,3.954,10.773,7.65,2.333,3.812,3.755,8.839,2.119,13.178C657.544,4152.76,658.441,4153.151,658.965,4152.795Zm-7.783,18.217c-.187-.127-.369-.26-.55-.4q.988-.282,1.987-.538c1.148-.294,2.306-.56,3.463-.82.312.252.622.513.937.774s.669.561,1.054.851C655.777,4170.984,653.479,4171.016,651.182,4171.012Zm-25.267-.131c-.115-.052-.228-.106-.34-.163.952,0,1.9-.028,2.856-.073.935-.043,1.869-.107,2.8-.185.173.13.348.257.529.378Q628.838,4170.852,625.915,4170.881Zm-3.862-3.091.285-.062c1.516-.342,3.051-.753,4.56-1.185.524.477,1.037.968,1.552,1.46a27.832,27.832,0,0,1-5.4.842C622.7,4168.509,622.369,4168.156,622.053,4167.79Zm6.258.653.505-.093c.311.3.625.59.946.878s.68.6,1.055.908c-.7.056-1.4.107-2.1.146-1.227.07-2.46.112-3.692.125a11.424,11.424,0,0,1-1.3-.953c-.2-.169-.4-.345-.587-.524A26.884,26.884,0,0,0,628.311,4168.443Zm12.938,1.764q-1.322.33-2.646.641-1.295-.01-2.59-.014c-.457-.249-.92-.491-1.386-.734.152-.02.3-.035.457-.056a17.316,17.316,0,0,0,4.51-.975C640.153,4169.437,640.7,4169.819,641.249,4170.207Zm-6.77.625h-1.358c-.3-.143-.593-.294-.88-.463.41-.039.82-.079,1.23-.126C633.8,4170.449,634.14,4170.644,634.479,4170.832Zm-2.738-.776a27.36,27.36,0,0,1-2.314-1.823c.461-.09.929-.19,1.4-.3a9.05,9.05,0,0,0,2.137,1.986l.02.013C632.57,4169.976,632.155,4170.017,631.741,4170.056Zm10.021.515q.223.161.449.32-.817-.012-1.634-.024Zm6.755-1.572c.5.506,1,1.04,1.532,1.54-.457.146-.914.3-1.367.457-1.9-.021-3.8-.057-5.7-.092l-.7-.465.831-.21C644.921,4169.776,646.717,4169.365,648.517,4169Zm.137-.026c1.855-.375,3.717-.7,5.6-.963a9.367,9.367,0,0,1,1.382.9c-.911.263-1.811.54-2.682.777s-1.713.482-2.562.748C649.8,4169.97,649.231,4169.469,648.654,4168.973Zm1.6,1.753c.1.1.212.192.319.284q-.621,0-1.241-.008Q649.789,4170.86,650.25,4170.726Zm26.769-.31c-.9-.133-1.806-.221-2.711-.278a8.779,8.779,0,0,1-1.085-.942c.241-.074.483-.149.724-.226a16.337,16.337,0,0,0,3.108-1.1,9.469,9.469,0,0,0,.187,2.5.129.129,0,0,0,.246,0,9.856,9.856,0,0,0,.239-2.087c.027.038.055.075.081.112q-.009,1.261,0,2.524A1.105,1.105,0,0,0,677.019,4170.416Zm.712-2.361c.014-.911-.029-1.833,0-2.7.019-.555.045-1.109.069-1.663l.094-.016c-.04,1.494-.071,2.989-.083,4.484C677.784,4168.123,677.759,4168.088,677.731,4168.055Z"/></g></svg>