<svg xmlns="http://www.w3.org/2000/svg" width="79.788" height="72.505" viewBox="0 0 79.788 72.505"><g transform="translate(-1219.666 -3524.104)"><path d="M1299.258,3590.775c-2.04-2.382-5.286-3.223-8.157-4.146a.805.805,0,0,0-.779,1.337c.063.061.132.114.2.172-.037.258-.07.515-.1.773-.9-.024-1.8-.018-2.7.011a9.49,9.49,0,0,0,.111-2.361c0-1.512-.014-3.025-.032-4.537q-.05-4.378-.143-8.757c.061-.06.12-.12.18-.178s-.024-.126-.081-.082c-.034.027-.068.056-.1.082-.015-.669-.024-1.34-.042-2.009-.1-3.615-.213-7.229-.291-10.843-.033-1.556-.116-3.117-.225-4.671.109-.082.214-.171.325-.252s.006-.284-.116-.2c-.077.055-.151.115-.227.171-.007-.092-.01-.185-.017-.278-.1-1.275-.072-2.781-.9-3.817a.154.154,0,0,0-.217,0,3.4,3.4,0,0,0-.243.361.684.684,0,0,0-.539-.184c-2.083-.046-4.171.125-6.257.094a19.522,19.522,0,0,1-5.958-.719c.026-.1.048-.206.076-.309a.019.019,0,0,0-.032-.018c-.091.078-.171.163-.256.245a5.91,5.91,0,0,1-.581-.264c-.032-.017-.076.018-.053.052a4.56,4.56,0,0,0,.378.468c-2.126,2.358-1.755,6.238-1.442,9.182a107.929,107.929,0,0,1,1.01,11.145c.011,3.535.075,7.067.009,10.6-.054,2.869-.505,5.705-.608,8.543-1.332.054-2.669.077-4.007.076a.9.9,0,0,0,.508-.89c-.125-4.3-.615-8.609-1.063-12.885-.431-4.107-.674-8.228-1.239-12.315.013-.008.027-.014.041-.022,1.155-.633.139-2.324-1.024-1.751a14.383,14.383,0,0,1-6.588,1.084,16.222,16.222,0,0,1-4.9-.531.406.406,0,0,0-.163-.045.277.277,0,0,0-.2.05.364.364,0,0,0-.2.318c-.3,5.595-.366,11.2-.3,16.8.009.709-.252,7.124.618,9.608-2.3-.1-4.6-.119-6.9-.1,1.177-1.154.824-4.253.84-5.513a73.115,73.115,0,0,0-.294-7.716.092.092,0,0,0-.007-.075c-.025-.265-.054-.53-.082-.795l.055-.022c.924-.4.507-1.568-.282-1.807a.239.239,0,0,0-.451-.029,1.111,1.111,0,0,0-.291.085c-1.819.842-3.838.31-5.671.855a17.2,17.2,0,0,0-2,.279c.012-.035.022-.071.035-.106.231-.618-.739-1-1.049-.443-2.436,4.393-1.893,10.273-1.389,15.079a1.1,1.1,0,0,0,.092.331c-2.161-.011-4.322-.061-6.482-.02a30.887,30.887,0,0,0-3.333-.026c1.24-3.607,1.137-7.562.919-11.332-.032-.553-.073-1.1-.116-1.657a.518.518,0,0,0,.5.154c2.805-.6,5.521-2.62,7.947-4.083q4.23-2.553,8.4-5.207c5.8-3.673,11.441-7.574,17.046-11.529q11.73-8.277,23.126-17.02c.275.248.543.5.8.768.4.476.8.947,1.215,1.39.522.562,1.533-.193,1.074-.828-.021-.029-.042-.056-.063-.084a.886.886,0,0,0,1.181-.386c.734-1.231,1.446-2.457,2.107-3.7a33.753,33.753,0,0,1,2.1-3.046,1.15,1.15,0,0,0,.228-.817c.21-.166.423-.33.633-.5a.8.8,0,0,0,.008-1.3c.188-.151.374-.3.566-.453.646-.5.313-1.73-.6-1.427a17.031,17.031,0,0,0-4.308,2.246c-.539.259-1.054.593-1.509.823a41.422,41.422,0,0,1-6.413,2.83.955.955,0,0,0-.677.809.15.15,0,0,0-.011.265l.005,0a.893.893,0,0,0,.942.843c.1,0,.2-.016.3-.021.229.178.453.364.669.561a.624.624,0,0,0,.13.707q-11.472,8.615-23.273,16.779c-5.438,3.757-10.95,7.409-16.462,11.055q-4.124,2.727-8.307,5.361c-2.411,1.519-5.447,2.945-7.351,5.1a.549.549,0,0,0-.051.079c-.358-4.23-.963-8.441-1.118-12.686-.224-6.132.815-12.8.338-19.135,0-.226.008-.453.009-.68a29.281,29.281,0,0,0-.405-6.5c.1,0,.192-.01.287-.013a.722.722,0,0,0,.693-.909c-.029-.076-.061-.153-.092-.229.051.1.1.205.152.307.271.548,1.274.313,1.193-.322-.515-4.024-2.049-7.72-3.465-11.489a.685.685,0,0,0-1.31,0c-.128.375-.262.758-.4,1.144a.815.815,0,0,0-.058.154l-.013.049c-1.116,3.161-2.383,6.612-2.237,9.933a.726.726,0,0,0,.123,1.344,11.642,11.642,0,0,0,2.546.165c2.222,8.238.473,17.327.506,25.7.01,2.608.247,5.215.51,7.818.013.534.025,1.068.03,1.6.057,5.3.008,10.607.058,15.911a12.862,12.862,0,0,1-.533,1.458c-.549,1.248,1.122,2.344,1.837,1.4a9.856,9.856,0,0,0,3.049.731,55.809,55.809,0,0,0,7.677.48c5.769.113,11.546-.044,17.311.158,7.561.265,15.022.871,22.589.25,4.807-.4,9.637-1.247,14.433-1.16q-.024.323-.052.645c0,.008-.011.014-.015.022a.613.613,0,0,0-.032.461c-.062.587-.145,1.174-.262,1.756a.283.283,0,0,0-.058.277c-.014.062-.026.123-.041.186l-.048.025a.644.644,0,0,0-.2.921c-.132.627.81.828,1.055.222.018-.046.04-.089.06-.134l.163-.077a.728.728,0,0,0,.9.211,21.2,21.2,0,0,0,3.4-2.271,13.546,13.546,0,0,0,2.362-1.252,1.516,1.516,0,0,0,1.56-.692A.809.809,0,0,0,1299.258,3590.775Zm-12.29-53.417c-.115-.042-.229-.088-.343-.131l-.013-.188c.155-.19.313-.379.471-.569l.711-.55Q1287.365,3536.628,1286.968,3537.358Zm-4.474-.9a.592.592,0,0,0,0,.152c-.064-.043-.132-.081-.2-.122Zm-39.979,53.374c.044-.035.085-.072.13-.106.144-.107.066-.388-.132-.314-.061.023-.114.053-.172.078a20.957,20.957,0,0,0,2.836-3.629c-.018.281-.029.562-.052.843a8.05,8.05,0,0,1-.29,2.521c-.139.19-.28.382-.41.579Q1243.469,3589.814,1242.515,3589.83Zm.237-13.391a30.961,30.961,0,0,1-3.358,4.682c-.865,1.126-2.221,2.77-1.383,4.222a.231.231,0,0,0,.428-.117c.212-3.447,3.57-5.638,4.683-8.8a10.7,10.7,0,0,0,2.452-.415c-.046.581-.08,1.161-.109,1.742a86.586,86.586,0,0,0-6.683,10.344.344.344,0,0,0,0,.348c.066.086.132.173.2.259a.349.349,0,0,0,.371.152c.554-.1.549-.962.762-1.359a.2.2,0,0,0-.107-.277c.6-1.124,1.252-2.216,1.9-3.311,1.118-1.893,2.331-3.727,3.531-5.569-.057,1.369-.081,2.739-.11,4.119q-.029,1.318-.1,2.635a25.488,25.488,0,0,1-4.028,4.756c-1.247.022-2.494.043-3.738.055a.994.994,0,0,0,.024-.329c-.226-2.5-.573-5.258-.585-7.965a.765.765,0,0,0,.391.321.193.193,0,0,0,.147-.351c-.324-.224-.231.012-.087-.235a2.142,2.142,0,0,0,.118-.631,6.21,6.21,0,0,1,.778-1.743,13.238,13.238,0,0,1,2.012-2.632c.2.026.408.049.616.063C1241.5,3576.444,1242.129,3576.459,1242.752,3576.439Zm-5.148-.633a2.111,2.111,0,0,0,.768.285c.424.031.839.1,1.254.159a8.608,8.608,0,0,0-2.666,3.331A17.617,17.617,0,0,1,1237.6,3575.806Zm26.665,9.41a10.924,10.924,0,0,1-3.649,5.07c-.61-.028-1.222-.058-1.831-.088,1.809-2.539,2.777-5.593,5.6-7.433a.172.172,0,0,0-.173-.3c-3.1,1.375-4.872,4.792-6.612,7.666l-1.052-.058a79.81,79.81,0,0,1,8.528-10.637c.2,2.584.407,5.167.612,7.751-.26.66-.516,1.322-.76,1.988-.144.4-.416.817-.617,1.244q-1.345-.036-2.69-.091a7.438,7.438,0,0,0,2.716-5.1C1264.346,3585.182,1264.282,3585.176,1264.269,3585.216Zm-9.873,4.1c-.01-.291-.029-.582-.05-.873.305-.264.447-.992.612-1.412a.185.185,0,0,0-.04-.207c.178-.339.36-.675.552-1.006a45.2,45.2,0,0,1,3.468-5.086c1.875-2.476,3.885-4.818,5.719-7.31.051.837.108,1.673.167,2.514q.109,1.569.231,3.136a66.064,66.064,0,0,0-6.21,6.808,19.6,19.6,0,0,0-3.068,4.157l-1.376-.08C1254.415,3589.755,1254.4,3589.5,1254.4,3589.312Zm-.978-25.024a6.674,6.674,0,0,0,2.877,1.046,23.442,23.442,0,0,0-2.649,4.426Q1253.552,3567.024,1253.418,3564.288Zm12.128,25.353c.106-.272.194-.55.276-.829.02.254.041.509.06.764a1.029,1.029,0,0,0,.6.884q-.617-.007-1.234-.019C1265.361,3590.164,1265.452,3589.88,1265.546,3589.641Zm-.872-24.821a51.487,51.487,0,0,0-.054,7.99c-3.733,4.188-7.759,8.414-10.439,13.343-.038-.648-.071-1.294-.1-1.942a.342.342,0,0,0,.56-.092c.061-.1.121-.2.182-.3a9.734,9.734,0,0,1,1.355-1.5c.149-.151-.052-.433-.232-.3l-.083.061c1.475-2.487,2.917-5,4.4-7.475a34.656,34.656,0,0,0,4.113-9.363.076.076,0,0,0-.147-.04c-2.164,6.8-7.4,11.888-10.179,18.329-.025-.63-.049-1.258-.068-1.888.162-.219.323-.44.483-.667a.183.183,0,0,0-.064-.253,152.643,152.643,0,0,0,7.8-15.284A11.3,11.3,0,0,0,1264.674,3564.82Zm-2.941.673c-2.8,4.6-5.16,9.479-7.806,14.183-.009-.4-.021-.81-.031-1.214q-.021-.875-.045-1.747a.179.179,0,0,0,.182-.091c1.7-3.62,4.226-7.058,5.092-11.048A19.012,19.012,0,0,0,1261.733,3565.493Zm-2.9.071a54.48,54.48,0,0,1-3.352,6.749,19.068,19.068,0,0,0-1.665,3q-.049-1.846-.106-3.691a23.1,23.1,0,0,1,3.121-6.213c.405.047.82.082,1.246.114C1258.324,3565.538,1258.578,3565.553,1258.832,3565.564Zm27.12,21.978a5.252,5.252,0,0,0,.186,1.451c-.378.023-.756.047-1.133.075A6.723,6.723,0,0,0,1285.952,3587.542Zm-2.637-34.54a25.139,25.139,0,0,0-4.72,6.779c-1.459,2.859-3.01,5.843-4.183,8.826-.15.384.423.568.629.266,1.667-2.446,2.607-5.5,3.842-8.182a32.441,32.441,0,0,1,4.764-7.692q.759-.011,1.51-.027a16.089,16.089,0,0,0-.238,4.069,45.525,45.525,0,0,0-5.4,6.011c-1.708,2.215-4.546,5.7-4.07,8.737.031.2.333.141.339-.047.089-3.092,2.335-6.1,4.078-8.487a41.91,41.91,0,0,1,5.068-5.856c.033.8.074,1.549.074,2.171,0,1.213.023,2.428.057,3.644-2.115,2.633-4.377,5.156-6.479,7.8a39.252,39.252,0,0,0-3.2,4.61,4.013,4.013,0,0,0-.809,2.693c.04.2.334.144.339-.046a7.4,7.4,0,0,1,1.5-3.314c1.053-1.672,2.282-3.233,3.469-4.808,1.69-2.241,3.487-4.411,5.182-6.652.068,2.356.173,4.712.255,7.064q-2.558,3.608-5.4,7c-1.872,2.239-3.991,4.21-5.956,6.349,0-.025,0-.052,0-.076.139-3.647.081-7.3.034-10.951a72.992,72.992,0,0,0-.8-10.066c-.038-.252-.077-.507-.115-.762a.332.332,0,0,0,.256-.316c.17-3.4,1.782-6.341,3.8-8.992l.092.011A49.457,49.457,0,0,0,1283.315,3553Zm-10.494-1.741a4.928,4.928,0,0,0,1.659.951,9.118,9.118,0,0,0-1.763,6.049c.037.289.512.424.564.075.326-2.191.323-4.077,1.585-6a12.1,12.1,0,0,0,1.811.354,16.879,16.879,0,0,0-3.855,7.476A25.874,25.874,0,0,1,1272.821,3551.261Zm3.835,38.741a.185.185,0,0,0-.124-.145c2.411-3.631,5.962-6.414,8.773-9.728.142-.168-.089-.408-.244-.244-3.234,3.424-7.164,6.22-9.676,10.247q-1.133.1-2.268.175c.918-1.512.836-3.946.846-5.74a.1.1,0,0,0,.027-.012c2.416-1.783,4.363-4.38,6.238-6.7a73.609,73.609,0,0,0,5.107-7.107c0,.109.009.22.012.329.043,1.278.1,2.555.155,3.834a103.423,103.423,0,0,0-9.041,9.912c-.839.993-2.109,2.194-2.4,3.515-.121.554.35.772.788.546a.211.211,0,0,0-.05-.384c.068.012,1.611-2.292,1.685-2.386.927-1.174,1.905-2.307,2.865-3.454,2.008-2.4,4.023-4.9,6.176-7.221.09,1.993.187,3.987.267,5.98q.092,2.3.161,4.6c.01.291,0,.587,0,.885a22.112,22.112,0,0,1-1.9,2.236c-.672.059-1.343.127-2.011.2a8.764,8.764,0,0,0,2.362-4.987.1.1,0,0,0-.188-.026,13.712,13.712,0,0,1-3.188,5.127c-1.085.127-2.164.265-3.229.406C1277.423,3589.914,1277.039,3589.959,1276.656,3590Zm14.656-1.19c.064.05.13.1.193.145-.06,0-.121-.005-.181-.008Z"/><path d="M1273.69,3565.27c.042.2.307.16.369,0a32.786,32.786,0,0,1,6.026-10.368c.151-.162-.085-.4-.243-.243a29.43,29.43,0,0,0-4.43,6.119C1274.725,3561.957,1273.389,3563.812,1273.69,3565.27Z"/></g></svg>