<svg xmlns="http://www.w3.org/2000/svg" width="56.205" height="68.748" viewBox="0 0 56.205 68.748"><g transform="translate(-694.248 -3554.617)"><path d="M731.575,3581.486a8.209,8.209,0,0,0,1.467-2.5.208.208,0,0,0-.345-.2,19.651,19.651,0,0,0-1.911,2.4c-.769.961-1.585,1.885-2.378,2.827a23.19,23.19,0,0,0-2.117,2.981c-.584.968-1.166,1.937-1.757,2.9a7.363,7.363,0,0,0-.514.882.676.676,0,0,0-.027.076c-.022.031-.044.062-.063.094a.114.114,0,0,0-.017.062,2.868,2.868,0,0,0-.59-.19,2.445,2.445,0,0,0-1.97.425.161.161,0,0,0-.042-.22c-3.151-2.282-5.286-5.648-8.7-7.6a.463.463,0,0,0-.475,0l-.679.24c-.275.009-.579.3-.455.6a15.881,15.881,0,0,0,9.109,8.777c-.044.13-.085.261-.118.4a.658.658,0,0,0,.3.737c.3.163.958.624,1.6.912a2.56,2.56,0,0,0,.323.477c1.194,1.352,3.071-.651,3.27-1.863a2.308,2.308,0,0,0-.225-1.426c2.946-4.08,4.562-9.2,8.205-12.707a.015.015,0,0,0-.02-.021A26.208,26.208,0,0,0,731.575,3581.486Zm-19.414,3.067a1.648,1.648,0,0,1,1.137.4,28.063,28.063,0,0,1,2.7,2.258,36.879,36.879,0,0,0,5.159,4.083.147.147,0,0,0,.117.019,3.282,3.282,0,0,0-.78.9C716.9,3590.538,713.884,3588.222,712.161,3584.553Zm11.273,10.31c.1-.411-.452-.693-.736-.858l-.455-.262c-.106-.47-.132-.964-.224-1.437a1.373,1.373,0,0,1,.929-.3,1.509,1.509,0,0,1,1.174.663c-.025.029-.046.059-.071.088a.358.358,0,0,0,.3.583A2.106,2.106,0,0,1,723.434,3594.863Zm1.436-3.164a2.817,2.817,0,0,0-.731-.578c.662-.269,2.317-3.225,2.57-3.6.8-1.178,1.667-2.286,2.572-3.391.509-.62,1.126-1.275,1.722-1.963a28.613,28.613,0,0,0-2.271,3.254C727.462,3587.534,726.325,3589.718,724.87,3591.7Z"/><path d="M721.522,3578.494a5.091,5.091,0,0,0,.391-2.242c.016-.426.056-.852.094-1.277a10.135,10.135,0,0,0-.009-1.539c-.006-.142-.218-.226-.288-.078-.2.434-.327.454-.444.888-.139.51-.262,1.023-.374,1.54a3.952,3.952,0,0,0,.052,2.708A.337.337,0,0,0,721.522,3578.494Z"/><path d="M723.966,3605.041a.338.338,0,0,0-.458-.12c-.977.519-1.067,2.172-1.138,3.156a4.341,4.341,0,0,0,1.106,3.444.285.285,0,0,0,.474-.275,6.972,6.972,0,0,1-.194-3.742C723.922,3606.715,724.334,3605.8,723.966,3605.041Z"/><path d="M708.749,3592.474a.363.363,0,0,0-.167-.407c-.587-.361-1.279-.1-1.911.028a6.721,6.721,0,0,1-3.008-.263.567.567,0,0,0-.3,1.093C704.6,3593.376,708.157,3594.346,708.749,3592.474Z"/><path d="M742.111,3590.172a5.027,5.027,0,0,0-2.221.15c-.955.164-1.907.321-2.853.536-.336.077-.267.64.083.607.864-.081,1.729-.12,2.6-.149a4.749,4.749,0,0,0,2.486-.437A.391.391,0,0,0,742.111,3590.172Z"/><path d="M729.354,3580.262a22.758,22.758,0,0,1,1.273-1.993c.378-.525,1.125-1.068,1.291-1.7a.311.311,0,0,0-.38-.381c-.624.188-1.015,1.022-1.34,1.544a19.461,19.461,0,0,0-1.2,2.316C728.892,3580.291,729.22,3580.5,729.354,3580.262Z"/><path d="M738.778,3582.824c.16-.113.181-.433-.063-.471-1.987-.312-3.707,1.706-4.942,3.013a.412.412,0,0,0,.583.583,18.654,18.654,0,0,1,2.261-1.832C737.321,3583.644,738.082,3583.315,738.778,3582.824Z"/><path d="M738.221,3598.238a7.13,7.13,0,0,0-2.255-.609.258.258,0,0,0-.137.5,17.035,17.035,0,0,1,2.1,1.132c.579.327,1.031.89,1.726.776.2-.032.257-.248.234-.412C739.782,3598.894,738.806,3598.548,738.221,3598.238Z"/><path d="M731.448,3604.3c-.238-.3-.75-.84-1.062-.322a.014.014,0,0,0,.009.021c.136.056.309,1.1.366,1.285.237.792.459,1.589.706,2.378a.717.717,0,1,0,1.316-.554A12.787,12.787,0,0,0,731.448,3604.3Z"/><path d="M716.9,3604.544a6.566,6.566,0,0,0-.845.66c-.258.327-.5.664-.743,1-.39.554-1.232,1.337-1.136,2.057a.343.343,0,0,0,.424.322c.742-.13,1.043-1.141,1.331-1.739.169-.355.341-.707.524-1.055a8.094,8.094,0,0,1,.567-1.156C717.078,3604.563,716.963,3604.493,716.9,3604.544Z"/><path d="M710.845,3599.66a9.6,9.6,0,0,0-4.525.85c-.509.219-.142,1.08.378.9a30.425,30.425,0,0,0,4.173-1.65C710.92,3599.729,710.892,3599.664,710.845,3599.66Z"/><path d="M707.434,3584.4a3.059,3.059,0,0,0,1.2.323,3.88,3.88,0,0,0,1.014-.193c.1-.014.1-.18,0-.2-.248-.048-.321-.194-.533-.276-.337-.132-.643-.32-.966-.484a4.19,4.19,0,0,1-1.579-1.7c-.362-.559-1.376-.208-1.124.474A4.047,4.047,0,0,0,707.434,3584.4Z"/><path d="M714.355,3580.248c.114.157.394.07.33-.139-.273-.886-.536-1.745-.866-2.613a7.652,7.652,0,0,0-.9-2.464.338.338,0,0,0-.559.148c-.3.82.229,1.8.532,2.572A11.162,11.162,0,0,0,714.355,3580.248Z"/><path d="M745.8,3584.555a.181.181,0,0,0-.079-.293,22.445,22.445,0,0,0-1.776-4.572c.168-.1.02-.376-.167-.31-.309-.574-.638-1.138-.994-1.685a23.712,23.712,0,0,0-13.427-9.57,24.844,24.844,0,0,0-17.551,1.228c-5.024,2.447-8.563,7.048-10.6,12.152a27.537,27.537,0,0,0-1.767,7.727l-.131.026c-.032-.591-.054-1.181-.058-1.768a.015.015,0,0,0-.029,0q0,.888.016,1.781l-.015,0a.052.052,0,0,0,0,.1l.016,0q.016.975.053,1.95c-.037.753-.058,1.511-.07,2.274a.015.015,0,0,0,.029,0c0-.617.021-1.24.057-1.865.249,5.733,1.172,11.421,4.334,16.386a14,14,0,0,0,4.288,4.3,15.626,15.626,0,0,0-.475,3.786v.007c-.293.658-.585,1.318-.882,1.975a13.161,13.161,0,0,0-1.347,3.119.422.422,0,0,0-.235.606c.39.569,1.08.668,1.506,1.235.176.236.6.329.754,0,1.074-2.265,2.384-4.413,3.659-6.572a2.96,2.96,0,0,0,.311-.149,2.5,2.5,0,0,0,1.258-1.909,34.951,34.951,0,0,0,3.679.95.847.847,0,0,0-.019.127c-.014.2.226.246.352.146a1.328,1.328,0,0,0,.173-.171q.754.147,1.518.278a22.324,22.324,0,0,0,17.581-4.66c.722-.566,1.427-1.178,2.108-1.827a.544.544,0,0,0-.025.26,4.768,4.768,0,0,1-.864,3.6c-.979,1.237-2.373.641-3.327-.269a.283.283,0,0,0-.4.4,3.319,3.319,0,0,0,3.053,1.325,8.65,8.65,0,0,0,1.285,2.423c.437.611.986,1.561,1.72,1.848a3.332,3.332,0,0,0,.234.332c.017.022.049,0,.043-.025a.54.54,0,0,1,0-.247.366.366,0,0,0,.324-.453,1.508,1.508,0,0,0-.187-.433,1.752,1.752,0,0,1,.116-.288.528.528,0,0,0,.831-.542c-.045-.135-.1-.268-.147-.4a.338.338,0,0,0-.124-.325,34.084,34.084,0,0,1-1.736-4.116.329.329,0,0,0-.042-.086,6.11,6.11,0,0,0,.216-3.016.427.427,0,0,0-.6-.341q.857-.843,1.653-1.766c.326.182.834-.052.668-.483-.027-.07-.059-.139-.088-.208a26.6,26.6,0,0,0,4.48-7.858.419.419,0,0,0,.206-.05.177.177,0,0,0,.09-.156.5.5,0,0,0-.131-.28,20.624,20.624,0,0,0,.661-2.58.219.219,0,0,0,.132-.2c.083-1.669.628-3.209.633-4.9a25.454,25.454,0,0,0-.463-4.746C746,3585.373,745.905,3584.963,745.8,3584.555Zm-6.4,32.433a4.767,4.767,0,0,0-.369.328c-.188-.182-.376-.361-.529-.539a16.6,16.6,0,0,1-1.613-2.313,2.786,2.786,0,0,0,.42-.264,3.885,3.885,0,0,0,.842-.905A20.15,20.15,0,0,0,739.4,3616.988Zm1.8-40.693c-.293.1-.532.413-.78.588a9,9,0,0,1-1,.585.253.253,0,0,0-.117.125,20.648,20.648,0,0,0-6.182-4.733c.714-.561,1.731-.888,2.236-1.641a23.721,23.721,0,0,1,2.849,2.027,2.108,2.108,0,0,0-1.9,1.295c-.134.265.257.5.4.234a2.278,2.278,0,0,1,1.681-1.165.159.159,0,0,0,.115-.106c.177.153.358.3.531.461A20.322,20.322,0,0,1,741.205,3576.295Zm-2.785,27.51a20.852,20.852,0,0,1-12.138,8.826c-4.055,1.116-8.778.262-12.629-1.183-.469-.175-.929-.371-1.38-.582v-.086a.208.208,0,0,0-.385-.1,17.312,17.312,0,0,1-5.749-4.557.691.691,0,0,0,.287-.138c.206-.163-.067-.516-.281-.364-.455.324-1.495-1.655-2.321-3.465a4.076,4.076,0,0,0,.433-.534.156.156,0,0,0-.212-.212,4.182,4.182,0,0,0-.41.326c-.5-1.118-.886-2.092-.962-2.3-.147-.394-.269-.789-.381-1.186.06-.063.118-.128.18-.189a.256.256,0,0,0-.332-.386,16.8,16.8,0,0,1-.4-2.448l.006,0a.369.369,0,0,0-.054-.674,20.117,20.117,0,0,1,.015-2.316c.06-.052.117-.1.171-.154a.347.347,0,0,0-.115-.575,29.332,29.332,0,0,1,.757-4.294q.2-.78.441-1.54a.97.97,0,0,0,.143-.118.305.305,0,0,0,.022-.378,20.226,20.226,0,0,1,12.552-12.877,21.038,21.038,0,0,1,9.044-.9c0,.068,0,.137,0,.2a.182.182,0,0,0,.336.091,2.541,2.541,0,0,0,.112-.24,22.914,22.914,0,0,1,3.839.858.2.2,0,0,0,.225.1c.015,0,.027-.009.041-.013,7.461,2.458,13.526,8.716,13.676,17.174C743.035,3594.489,741.045,3599.718,738.42,3603.8Zm-4.483,7.643a.173.173,0,0,0,.121.051,23.316,23.316,0,0,1-2.24,1.345c.012-.026.029-.049.041-.076a2.27,2.27,0,0,0,.1-.836.308.308,0,0,0-.283-.316,19.233,19.233,0,0,0,2.185-1.4c-.01.133-.02.267-.029.4C733.8,3610.921,733.709,3611.213,733.937,3611.448Zm-8.849,3.139a1.9,1.9,0,0,0,.071-.728,20.208,20.208,0,0,0,3.773-1,.971.971,0,0,1-.445.622.285.285,0,0,0,.287.492,1.047,1.047,0,0,0,.6-.611,1.538,1.538,0,0,0,.01-.672,20.826,20.826,0,0,0,1.932-.885.313.313,0,0,0-.026.123,2.185,2.185,0,0,1-.041.571c-.044.161-.2.251-.338.328a.318.318,0,0,0-.076.5,21.749,21.749,0,0,1-6.258,1.844A1.209,1.209,0,0,0,725.088,3614.587Zm-3.662-47.041a25.857,25.857,0,0,1,13.519,3.429c-.378.221-.715.487-1.078.75a8.768,8.768,0,0,0-1.152.936,22.936,22.936,0,0,0-2.628-1.071c.047-.088.092-.178.136-.265a3.214,3.214,0,0,0,.356-1.556.181.181,0,0,0-.361,0,3.008,3.008,0,0,1-.588,1.405,2.355,2.355,0,0,1-.171.214,23.947,23.947,0,0,0-4.056-.863c.115-.853.042-1.786.157-2.575a.052.052,0,0,0-.1-.027,17.115,17.115,0,0,0-.66,2.532,23.926,23.926,0,0,0-3.418-.091q-.011-1.214-.02-2.427a.13.13,0,0,0-.259,0q-.008,1.221-.02,2.443a22.8,22.8,0,0,0-3.347.438c.073-.845-.007-1.731-.015-2.576a.155.155,0,0,0-.309,0,25.59,25.59,0,0,0-.01,2.642,21.593,21.593,0,0,0-3.211.98,3.663,3.663,0,0,0-.724-2.2c-.122-.19-.456-.071-.377.158.255.743.325,1.528.536,2.279a20.12,20.12,0,0,0-2.109,1.052,2.207,2.207,0,0,0-.275-.138,1.372,1.372,0,0,1-.411-.318,1.669,1.669,0,0,1-.313-1.1.284.284,0,0,0-.567,0,2.4,2.4,0,0,0,.361,1.4,2,2,0,0,0,.573.538c-.184.116-.371.228-.552.35a18.432,18.432,0,0,0-2.059,1.62c-.142-.086-.3-.147-.455-.225a5.237,5.237,0,0,1-1.106-.768.206.206,0,0,0-.291.291,6.021,6.021,0,0,0,1.036.862c.125.084.254.175.388.248a21.286,21.286,0,0,0-4.193,5.77.582.582,0,0,0-.127,0,2.079,2.079,0,0,1-.7.014,2.668,2.668,0,0,1-1.052-.478l-.009-.005a28.225,28.225,0,0,1,1.575-3.151,1.411,1.411,0,0,0,.314.568,1.666,1.666,0,0,0,1.084.635c.315.022.412-.37.237-.572a2.16,2.16,0,0,0-.773-.447.8.8,0,0,1-.487-.594.168.168,0,0,0-.065-.112c.362-.592.743-1.167,1.148-1.72A20.827,20.827,0,0,1,721.426,3567.546Zm-19.815,14.034a2.25,2.25,0,0,0,1.022.806,2.091,2.091,0,0,0,.626.111,26.809,26.809,0,0,0-1.028,2.6c-.148.021-.3.044-.44.057a1.718,1.718,0,0,1-1.23-.284.208.208,0,0,0-.076-.034A31.473,31.473,0,0,1,701.611,3581.58Zm-1.244,3.667a2.17,2.17,0,0,0,1.171.667,1.833,1.833,0,0,0,.416.041,29.826,29.826,0,0,0-.746,3.024,6.192,6.192,0,0,0-1.652.228A32.466,32.466,0,0,1,700.367,3585.247Zm-1.052,4.143.106.021c-.022.25-.042.5-.061.752C699.341,3589.905,699.329,3589.647,699.315,3589.39Zm.212.042a7.085,7.085,0,0,0,1.556.24c-.042.252-.087.5-.124.755q-.117.8-.17,1.6a1.205,1.205,0,0,1-.167.079c-.307.108-.533-.166-.687-.393a.1.1,0,0,0-.192.051c-.026.528.183,1.032.779,1.043a.965.965,0,0,0,.227-.024,19.5,19.5,0,0,0,.035,1.994,2.272,2.272,0,0,0-.229.106,2.859,2.859,0,0,1-.563.244c-.259-1.511-.467-3.038-.6-4.564Q699.451,3590,699.527,3589.432Zm8.611,23.125c.278.174.563.338.851.5a.087.087,0,0,0-.066.05c-.308.6-.6,1.2-.878,1.813A10.361,10.361,0,0,1,708.138,3612.557Zm-1.336,9.611a3.953,3.953,0,0,0-.532-.432c-.007-.142-.02-.286-.035-.427.124-.463.462-1.125.542-1.351.291-.815.608-1.62.921-2.426.116-.3.232-.6.347-.9a4.62,4.62,0,0,0,2.449.088A41.5,41.5,0,0,0,706.8,3622.168Zm3.761-6.5a3.525,3.525,0,0,1-2.261.29,17.157,17.157,0,0,0,.81-2.774.107.107,0,0,0-.012-.069,19.818,19.818,0,0,0,2.456,1.091A2.433,2.433,0,0,1,710.563,3615.665Zm6.7-.8a5.172,5.172,0,0,0,.4-.4.129.129,0,0,0-.182-.183c-.21.167-.492.312-.743.483a32.857,32.857,0,0,1-4.441-1.174.266.266,0,0,0-.281-.1,15.253,15.253,0,0,1-7.95-6.083,27.265,27.265,0,0,1-3.5-9.315c-.166-.787-.322-1.584-.466-2.384a3.865,3.865,0,0,0,.642-.044,1.271,1.271,0,0,0,.132-.028,16.729,16.729,0,0,0,.571,2.789c-.066.067-.13.137-.2.2a.5.5,0,0,1-.113.083,1.741,1.741,0,0,1,.02-.22c.012-.091-.124-.1-.151-.021-.05.141-.058.288-.1.426a.234.234,0,0,0,.224.294.859.859,0,0,0,.488-.244c.144.431.306.858.49,1.279.28.641.579,1.356.914,2.073a2.5,2.5,0,0,1-.725.445.027.027,0,0,0,0,.05,1.246,1.246,0,0,0,.9-.136c.217.446.449.889.7,1.31a9.427,9.427,0,0,0,.346.963,2.438,2.438,0,0,1-.835.693c-.265.14-.032.531.234.4a2.927,2.927,0,0,0,.827-.6,10.931,10.931,0,0,0,1.99,2.8,1.363,1.363,0,0,1-.049.475c-.045.149.033.226-.062.376a1.288,1.288,0,0,1-.4.369.051.051,0,0,0,.051.089,1.72,1.72,0,0,0,.451-.281.957.957,0,0,0,.129-.139c.073-.1.2-.132.259-.235a.8.8,0,0,0,.077-.207,15.314,15.314,0,0,0,1.7,1.377,8.814,8.814,0,0,1-.334,1.2c-.08.179.18.337.267.156a4.982,4.982,0,0,0,.3-.819c.028-.1.063-.206.1-.308a23.6,23.6,0,0,0,6.112,2.82,22.864,22.864,0,0,0,7.489,1.028c-.457.4-.9.814-1.338,1.232a20.16,20.16,0,0,1-2.8-.279Q717.823,3614.976,717.259,3614.869Zm4.48.492c.389-.413.772-.829,1.141-1.26.587-.029,1.172-.081,1.754-.161a1.579,1.579,0,0,1-.06.41c-.053.17-.231.262-.377.336a.307.307,0,0,0,.014.536A20.792,20.792,0,0,1,721.739,3615.361Zm16.285-7.212c0-.087,0-.173,0-.26a5.262,5.262,0,0,0-.19-.873.1.1,0,0,0-.2,0c-.026.134-.052.268-.079.4-.022.115-.1.209-.107.331q-.011.493-.021.988v0c-.41.394-.827.78-1.259,1.15a23.621,23.621,0,0,1-1.907,1.474c.14-.22.063-.479.044-.749-.017-.232-.034-.463-.052-.7a22.111,22.111,0,0,0,4.565-4.876c.227.5.46,1,.675,1.5C739.024,3607.1,738.533,3607.632,738.024,3608.149Zm7.638-14.234a.291.291,0,0,0-.285.214c-.306,1.223-.638,2.412-1.021,3.575a7.638,7.638,0,0,0-1.021-.615c-.238-.11-.441.218-.209.355a8.557,8.557,0,0,1,1.048.793,28.054,28.054,0,0,1-1.361,3.264.25.25,0,0,0-.016-.061.968.968,0,0,0-.628-.493,1.845,1.845,0,0,0-.772-.169c-.164.011-.222.277-.041.3a1.506,1.506,0,0,1,.57.255,2.422,2.422,0,0,1,.294.229.946.946,0,0,0,.345.177.171.171,0,0,0,.132,0q-.276.542-.584,1.078a25.443,25.443,0,0,1-2.031,2.994c-.276-.463-.587-.907-.861-1.37a30.345,30.345,0,0,0,3.321-6.941c1.949-5.806,1.986-11.867-1.256-17.214a18.819,18.819,0,0,0-1.661-2.31.317.317,0,0,0,.082-.021,10.229,10.229,0,0,0,1.136-.6,1.961,1.961,0,0,0,.718-.611,21.08,21.08,0,0,1,1.821,2.869,6.462,6.462,0,0,0-1.411,1.12.052.052,0,0,0,.073.073,6.266,6.266,0,0,1,1.479-.918,22.82,22.82,0,0,1,1.69,4.4,6.714,6.714,0,0,0-.868.161,1.286,1.286,0,0,0-.921.536c-.06.088.023.186.112.194a3.084,3.084,0,0,0,.98-.112,4.211,4.211,0,0,0,.832-.237,24.529,24.529,0,0,1,.559,3.126.244.244,0,0,0-.233-.135c-.686.021-1.383.1-1.727.778a.232.232,0,0,0,.4.234c.287-.49.825-.459,1.327-.444a.25.25,0,0,0,.258-.183,25.655,25.655,0,0,1,.137,3.152A14.042,14.042,0,0,1,745.662,3593.915Z"/><path d="M744.664,3592.8a2.014,2.014,0,0,0-.871.018.181.181,0,0,0,0,.347,1.309,1.309,0,0,1,1.015.5.257.257,0,0,0,.444-.259A.959.959,0,0,0,744.664,3592.8Z"/><path d="M714,3567.087a.351.351,0,0,0,.2-.575c-.4-2.576-1.6-4.932-4.446-5.178-2.3-.2-4.676.994-6.664,2.25a3.149,3.149,0,0,0-1.721-1.921,2.342,2.342,0,0,0-2.3.486,3.338,3.338,0,0,0-1.146,2.356,3.2,3.2,0,0,0,.836,2.346,15.477,15.477,0,0,0-3.938,5.523c-1.5,3.75.082,7.358,3.152,9.683.072.054.154-.061.093-.121-2.8-2.815-4.034-6.269-2.3-10.007,1.345-2.9,3.992-5.149,6.567-6.951.154-.108.311-.215.468-.321a.417.417,0,0,0,.519-.342,13.6,13.6,0,0,1,5.473-2.245c2.9-.374,4.245,1.832,4.718,4.334-7.423,1.555-11.951,8.507-14.951,14.937-.041.088.086.166.134.078C702,3575.318,706.669,3568.387,714,3567.087Zm-12.049-2.754a26.529,26.529,0,0,0-3.061,2.4,3.156,3.156,0,0,1,.416-3.855,1.839,1.839,0,0,1,1.635-.485,2.335,2.335,0,0,1,1.445,1.651C702.241,3564.138,702.1,3564.237,701.954,3564.333Z"/><path d="M750.242,3572.883a16.608,16.608,0,0,0-2.284-6.5,5.427,5.427,0,0,0,1.692-.887c.375-.331-.061-1.407-.172-1.791a3.678,3.678,0,0,0-2.112-2.568,3.418,3.418,0,0,0-1.632-.109c-.789.112-1.006.3-1.133,1.073-.034.208.018.5.256.566.349.1.482-.3.811-.206.027.008.04-.025.024-.043-.13-.16-.369-.18-.559-.232-.077-.022.112-.41.272-.453a2.887,2.887,0,0,1,1.4-.015c1.372.317,1.865,2.02,2.07,3.283a6.12,6.12,0,0,1-1.411.649,14.4,14.4,0,0,0-3.061-3.1,13.472,13.472,0,0,0-8.888-2.83,6.806,6.806,0,0,0-1.428.279,7.742,7.742,0,0,0-5.215-4.623,36.355,36.355,0,0,0-8.74-.753c-4.257-.082-11.191.738-9.97,6.614.018.085.162.066.153-.021-.617-5.583,6.055-5.986,10.078-5.858a50.308,50.308,0,0,1,7.349.61,7.027,7.027,0,0,1,5.493,4.356,7.609,7.609,0,0,0-3.916,5.039.489.489,0,0,0,.943.261c.008-.029.018-.055.027-.083a.136.136,0,0,0,.112.081c4.574.606,8.13,3.632,10.944,7.116a30.787,30.787,0,0,1,3.8,6.168,25.772,25.772,0,0,1,1.247,3.2,12.881,12.881,0,0,0,.743,2.551.442.442,0,0,0,.8-.1,3.567,3.567,0,0,0,.038-.819,43.337,43.337,0,0,1,1.828-4.618A11.76,11.76,0,0,0,750.242,3572.883Zm-1.508,6.628c-.351.956-.722,1.875-1.019,2.821a28.024,28.024,0,0,0-1.5-3.627,31.962,31.962,0,0,0-4.135-6.708c-2.721-3.443-6.985-7.08-11.683-6.633a.139.139,0,0,0-.065.022,6.413,6.413,0,0,1,3.267-4.1c.006.017.012.033.017.049.185.568,1.087.321.9-.246-.017-.048-.035-.094-.051-.141a7.168,7.168,0,0,1,2.18-.291,13.3,13.3,0,0,1,7.855,3.2c3.233,2.64,4.516,6.352,4.929,10.391A11.6,11.6,0,0,1,748.734,3579.511Z"/></g></svg>