<svg xmlns="http://www.w3.org/2000/svg" width="91.285" height="51.187" viewBox="0 0 91.285 51.187"><g transform="translate(-723.453 -3347.617)"><path d="M813.721,3380.535a9.454,9.454,0,0,0-5.646-5.716,6.732,6.732,0,0,0-4.364.34c-1.058-5.7-6.595-13.72-12.373-9.265a11.4,11.4,0,0,0-6.621-14.372c-4.548-2.093-12.168-2.671-15.592,1.819a5.409,5.409,0,0,0-.795,1.45c-.015-.036-.03-.072-.045-.106a11.02,11.02,0,0,0-3.9-4.517c-3.536-2.432-8.23-2.955-12.377-2.279a12.529,12.529,0,0,0-5.206,1.938,15.342,15.342,0,0,0-2.907,2.807,13.9,13.9,0,0,0-6.925,8.927,10.324,10.324,0,0,0,.486,6.36,9.684,9.684,0,0,0-4.823.372,12.791,12.791,0,0,0-6.466,5.474c-3.257,5.139-3.894,12.556-.157,17.611a14.392,14.392,0,0,0,11.73,5.455.271.271,0,0,0,.186-.077c1.161.086,2.326.14,3.492.171-1.584.108-3.164.266-4.735.507a.135.135,0,0,0,0,.259,88.183,88.183,0,0,0,11.475.723q5.934.129,11.866.258c8.049.176,16.114.067,24.164.089,4.073.011,8.329.152,12.511-.157a48.394,48.394,0,0,0,5.353-.2.869.869,0,0,0,.776-.668,28.445,28.445,0,0,0,5.182-1.655,9.76,9.76,0,0,0,5.591-5.4c.137-.277.267-.559.383-.854A12.746,12.746,0,0,0,813.721,3380.535ZM727.7,3391.271a13.007,13.007,0,0,1-2.662-8.685c.175-5.564,3.625-12.23,9.6-13.182,2.053-.327,4.095.48,6.068.919a.337.337,0,0,0,.325-.559,6.231,6.231,0,0,0-1.794-1.271,12.738,12.738,0,0,1-.6-3.006,9.788,9.788,0,0,1,.558-4.539,9.713,9.713,0,0,0-.351,3.816,3.627,3.627,0,0,0,4,3.307.113.113,0,0,0,.03-.22c-1.627-.557-2.916-1.451-3.113-3.272a11.046,11.046,0,0,1,1.389-5.627,24.232,24.232,0,0,1,2.3-3.86,27.2,27.2,0,0,1,4.12-3.235.269.269,0,0,0-.207-.489c-.273.054-.543.12-.811.194a8.247,8.247,0,0,1,2.215-1.445,16.769,16.769,0,0,1,12.942.108,10.557,10.557,0,0,1,4.8,4.049,8.912,8.912,0,0,1,1.1,2.939c.251,1.242.1,2.458.423,3.689a.338.338,0,0,0,.612.08,5.649,5.649,0,0,0,.458-3.618,7.741,7.741,0,0,1,2.605-3.169,23.241,23.241,0,0,1,4.88-2.332.246.246,0,0,0-.13-.474c-2.176.436-5.033,1.276-6.8,2.923,2.258-3.241,7.817-3.517,11.564-2.58a12.957,12.957,0,0,1,7.569,4.773c2.106,2.98,1.937,6.665.777,9.978-.15.429-.283.863-.437,1.292a.694.694,0,0,0,1.264.533c.152-.31.292-.626.424-.947a.488.488,0,0,0,.315-.107c5.822-4.607,10.5,3.592,11.134,8.715a4.506,4.506,0,0,0-1.607,2.1c-.117.339.283.565.557.428,1.269-.631,2.14-1.783,3.488-2.312a4.9,4.9,0,0,1,3.191-.124c2.347.68,3.961,2.95,4.9,5.075a11.538,11.538,0,0,1,.741,2.324,9.4,9.4,0,0,0-1.09-2.34c-.11-.165-.447-.126-.416.112.283,2.175.967,4.169.72,6.4a6.157,6.157,0,0,1-1.491,3.106c.016-.105.03-.211.04-.318.007-.075-.115-.091-.131-.018a5.452,5.452,0,0,1-.194.676c-.187.217-.377.425-.566.624a12.066,12.066,0,0,1-5.524,3.068,11.474,11.474,0,0,0-2.917.475.3.3,0,0,0-.2.234c-.4.071-.8.138-1.191.2-1.033.162-2.073.286-3.117.381.044-.006.089-.012.133-.016a.54.54,0,0,0,0-1.034,53.714,53.714,0,0,0-7.78-.08l-8.211.1q-1.881.023-3.759.049c-2.306-.219-4.616-.367-6.934-.367-4.058,0-8.121.148-12.176.375-.452-.03-.905-.055-1.358-.066-6.484-.183-12.99.855-19.462,1.293a.3.3,0,0,0-.1-.043C733.992,3395.49,730.281,3394.374,727.7,3391.271Zm58.815,4.807,2.819.035c1.864.02,3.788.151,5.684.112-2.013.1-4.033.128-6.041.137Q787.749,3396.228,786.517,3396.078Z"/><path d="M734.843,3373.352c.341-.163.1-.741-.259-.611a11.545,11.545,0,0,0-5.972,5.037c-1.264,2.046-2.719,5.158-2.385,7.612.036.264.414.263.53.07a12.606,12.606,0,0,0,1.065-3.1,19.45,19.45,0,0,1,1.516-3.757A12.1,12.1,0,0,1,734.843,3373.352Z"/><path d="M730.249,3388.811a6.87,6.87,0,0,1,1.067-3.536,23.967,23.967,0,0,1,4.552-5.914c.2-.188-.072-.554-.3-.384a18.8,18.8,0,0,0-5.808,6.992c-.932,2.013-1.216,5.586,1.849,5.76a.292.292,0,0,0,.2-.5A3.81,3.81,0,0,1,730.249,3388.811Z"/><path d="M739.856,3382.329c.09-.085-.03-.249-.135-.175a11.471,11.471,0,0,0-3.839,4.589c-.713,1.525-1.563,4.369-.457,5.874.144.2.511.218.57-.074a14.323,14.323,0,0,0-.038-2.517,9.052,9.052,0,0,1,.674-2.967A13.387,13.387,0,0,1,739.856,3382.329Z"/><path d="M742.077,3394.572a5.237,5.237,0,0,0-.01-1.335,7.783,7.783,0,0,1,.263-2.042,11.223,11.223,0,0,1,1.7-3.739c.149-.218-.194-.4-.347-.2a12.743,12.743,0,0,0-1.974,3.771c-.325.984-.782,2.689-.125,3.611A.27.27,0,0,0,742.077,3394.572Z"/><path d="M790.819,3391.835c-3.551-.231-7.135-.093-10.694-.066q-5.468.04-10.935.151a168.535,168.535,0,0,0-21.282,1.431c-.152.023-.11.262.036.263,7.077.053,14.167-.254,21.246-.36,3.485-.052,6.97-.069,10.456-.074,3.718-.006,7.462.145,11.173-.1A.624.624,0,0,0,790.819,3391.835Z"/><path d="M762.516,3387.747c-4.508.056-9.068-.1-13.551.406a.223.223,0,0,0,0,.446c4.328.485,8.726.346,13.079.4,2.22.027,4.44.068,6.66.068a31.557,31.557,0,0,0,6.909-.3.4.4,0,0,0,0-.774,29.252,29.252,0,0,0-6.429-.3C766.962,3387.684,764.739,3387.718,762.516,3387.747Z"/><path d="M744.188,3364.067a15.585,15.585,0,0,0,.936-3,15.571,15.571,0,0,1,1.772-3.545,12.863,12.863,0,0,1,5.165-4.814c.069-.033.021-.143-.051-.122a12.7,12.7,0,0,0-6.039,4.223c-1.369,1.653-3.111,4.973-2.476,7.171A.382.382,0,0,0,744.188,3364.067Z"/><path d="M751.986,3357.6c-3.339,1.348-6.9,5.684-5.294,9.474a.269.269,0,0,0,.489-.065c.369-1.815.414-3.532,1.294-5.215a11.1,11.1,0,0,1,3.632-3.908C752.246,3357.793,752.158,3357.531,751.986,3357.6Z"/><path d="M771.7,3359.869c.347-.848.353-1.769.752-2.613a4.871,4.871,0,0,1,1.732-1.886,11.226,11.226,0,0,1,5.4-1.614.089.089,0,0,0,0-.178,10.012,10.012,0,0,0-6.066,1.22c-1.515.962-3.04,3.219-2.38,5.071A.292.292,0,0,0,771.7,3359.869Z"/><path d="M778.474,3357.407a11.031,11.031,0,0,0-3.96,2.583c-.793.827-2.35,3.048-1.285,4.122a.34.34,0,0,0,.473,0c.414-.362.421-.846.549-1.365a5.3,5.3,0,0,1,1.292-2.181,14.722,14.722,0,0,1,3.206-2.507C779.079,3357.854,778.862,3357.249,778.474,3357.407Z"/><path d="M791.582,3370.253a5.909,5.909,0,0,1,.779-.462c.282-.207.59-.393.89-.571a8.033,8.033,0,0,1,2.756-.96c.376-.061.236-.577-.084-.614a6.26,6.26,0,0,0-3.328.451,2.467,2.467,0,0,0-1.609,1.809A.359.359,0,0,0,791.582,3370.253Z"/><path d="M791.505,3374.084a.337.337,0,0,0,.625.168c1.015-1.713,2.974-1.972,4.814-1.853.416.028.467-.585.1-.7C794.819,3371.008,791.585,3371.095,791.505,3374.084Z"/><path d="M795.678,3377.146c-.016.265.327.3.458.124a4.559,4.559,0,0,1,1.28-1.529c.243-.142.549-.148.783-.284a2.021,2.021,0,0,1,.811-.267c.108-.015.066-.163-.024-.174-.216-.026-.429-.044-.647-.051-.115,0-.177-.092-.3-.092a2.576,2.576,0,0,0-1.082.352A2.35,2.35,0,0,0,795.678,3377.146Z"/><path d="M806.278,3382.5a4.915,4.915,0,0,0,1.975-3.007,2.371,2.371,0,0,0-1.021-2.426c-.091-.077-.253.024-.176.135,1.265,1.823-.62,3.292-1.2,4.971A.291.291,0,0,0,806.278,3382.5Z"/><path d="M807.153,3387.734c1.384.092,2.518-1.8,3.054-2.845a5.5,5.5,0,0,0,.658-2.04,6.543,6.543,0,0,0-.478-2.687.179.179,0,0,0-.35.048,10.533,10.533,0,0,1-1.115,3.928c-.521,1.053-1.928,1.976-2.135,3.116A.386.386,0,0,0,807.153,3387.734Z"/><path d="M808.435,3390.06c-.528.386-1.136.6-1.629,1.031a.494.494,0,0,0,.347.838c1.395-.134,2.743-1.4,3.6-2.437a7.8,7.8,0,0,0,1.726-4.179c.024-.268-.356-.279-.438-.059a9.9,9.9,0,0,1-2.09,3.435A11.145,11.145,0,0,1,808.435,3390.06Z"/><path d="M777.355,3377.033a.225.225,0,0,0,.306.306,35.078,35.078,0,0,0,5.32-4.457,14.456,14.456,0,0,0,3.819-5.925c.026-.086-.1-.114-.129-.037a14.714,14.714,0,0,1-4.49,5.659C780.512,3373.978,778.585,3375.238,777.355,3377.033Z"/><path d="M780.327,3381.116c-1,.521-2.458.873-3.22,1.714a.631.631,0,0,0,.441,1.067c1.205-.01,2.478-.966,3.509-1.535a33.144,33.144,0,0,0,3.705-2.366,19.877,19.877,0,0,0,5.248-5.788c.163-.278-.243-.5-.424-.248a20.261,20.261,0,0,1-5.8,5.149C782.665,3379.837,781.512,3380.5,780.327,3381.116Z"/><path d="M783.479,3385.8a3.809,3.809,0,0,0-2.1,1.411.293.293,0,0,0,.25.436,6.55,6.55,0,0,0,2.255-.881c1.14-.51,2.337-.881,3.49-1.359a16.249,16.249,0,0,0,5.658-3.491.246.246,0,0,0-.348-.347,17.393,17.393,0,0,1-6.257,3.119C785.436,3385.025,784.448,3385.393,783.479,3385.8Z"/><path d="M797.134,3384.482a.268.268,0,0,0-.379-.379c-1.643,1.288-4.031,1.81-5.955,2.546-1.238.475-3.293,1.128-3.311,2.748a.27.27,0,0,0,.5.135,5.13,5.13,0,0,1,1.745-1.19,24.444,24.444,0,0,1,2.751-1.217C794.132,3386.46,795.918,3385.847,797.134,3384.482Z"/><path d="M793.614,3390.15a.382.382,0,0,0,.077.6c1.174.608,2.978-.257,4.1-.759a9.14,9.14,0,0,0,3.329-2.536.134.134,0,0,0-.19-.189,11.273,11.273,0,0,1-3.591,1.654C796.227,3389.256,794.414,3389.28,793.614,3390.15Z"/><path d="M753.125,3369.26c1.181-.471,2.135-1.945,3-2.853,1.081-1.133,2.091-2.3,3.093-3.5a.067.067,0,0,0-.1-.1c-1.1.914-2.179,1.827-3.212,2.814l-1.764,1.685a4.83,4.83,0,0,0-1.381,1.6A.292.292,0,0,0,753.125,3369.26Z"/><path d="M760.194,3370.447c1.326-.048,2.684-1.778,3.41-2.769a9.527,9.527,0,0,0,1.784-4.823c.009-.1-.149-.117-.176-.024a11.262,11.262,0,0,1-2.38,4.252,10.694,10.694,0,0,1-1.751,1.6c-.491.366-.976.542-1.272,1.09A.451.451,0,0,0,760.194,3370.447Z"/><path d="M764.073,3372.858c-.168.213-.023.574.282.485,2.346-.682,4.342-3.037,5.316-5.215a.335.335,0,0,0-.579-.338C767.8,3369.872,765.558,3370.974,764.073,3372.858Z"/></g></svg>