<svg xmlns="http://www.w3.org/2000/svg" width="81.258" height="97.438" viewBox="0 0 81.258 97.438"><g transform="translate(-840.453 -3430.179)"><path d="M871.526,3493.355a.244.244,0,0,0,0-.467,41.272,41.272,0,0,0-6.137-.228,39.811,39.811,0,0,1-6.891-.819.1.1,0,0,0-.055.2,27.912,27.912,0,0,0,6.3,1.284A25.66,25.66,0,0,0,871.526,3493.355Z"/><path d="M868.509,3495.69c.231.03.285-.368.055-.407a13.924,13.924,0,0,0-8.922,1.365c-.022.011,0,.043.02.034A16.316,16.316,0,0,1,868.509,3495.69Z"/><path d="M860.833,3498.992a.035.035,0,0,0,0,.07c2.286.171,4.873.587,7.141.164a.208.208,0,0,0,0-.4C865.706,3498.4,863.119,3498.821,860.833,3498.992Z"/><path d="M860.833,3501.457c3,.313,6.532.681,9.5.131a.208.208,0,0,0,0-.4c-2.971-.551-6.507-.183-9.5.13A.069.069,0,0,0,860.833,3501.457Z"/><path d="M862.014,3506.285a57.814,57.814,0,0,0,5.9.035.208.208,0,0,0,0-.415,57.884,57.884,0,0,0-5.9.035A.173.173,0,0,0,862.014,3506.285Z"/><path d="M864.376,3508.682l3.815.1a9.982,9.982,0,0,0,3.326-.106.209.209,0,0,0,0-.4,9.982,9.982,0,0,0-3.326-.107l-3.815.1A.208.208,0,0,0,864.376,3508.682Z"/><path d="M869.1,3512.086l3.542.069a.138.138,0,0,0,0-.275l-3.542.068A.069.069,0,0,0,869.1,3512.086Z"/><path d="M920.619,3504.169c-2.773-3.714-8.561-4-12.694-3.314-.705.117-.4,1.171.294,1.066,3.939-.6,11.027-.146,12.154,4.749.573,2.49-2.068,4.682-3.8,5.913a31.864,31.864,0,0,1-6.524,3.45,76.228,76.228,0,0,1-23.848,5.059,109.042,109.042,0,0,1-21.169-.8c-2.166-.3-4.359-.683-6.524-1.2v0a.031.031,0,0,0-.053-.01,34.784,34.784,0,0,1-12.581-5.451,15.353,15.353,0,0,1-4.394-5.417c4.43-4.2,10.4-5.082,16.223-6.1a29.184,29.184,0,0,0,3.369,7.418c1.408,2.127,4.092,5.16,6.85,5.189a.348.348,0,0,0,.244-.59c-1.053-.98-2.437-1.5-3.554-2.433a14.9,14.9,0,0,1-3.1-3.8,27.519,27.519,0,0,1-2.606-6.074.619.619,0,0,0-.3-.987c-.259-.9-.5-1.795-.731-2.688-.994-3.84-1.714-8.434-3.459-12.306,4.513,4.665,11.907,5.038,17.99,5.1,7.345.078,15.356-.446,22.185-3.368a14.821,14.821,0,0,0,5.408-4.135c-.09.371-.173.74-.255,1.1-.9,4-1.347,8.094-1.943,12.146a56.471,56.471,0,0,1-1.539,7.6c-.054.012-.107.029-.16.041a.609.609,0,0,0-.194,1.085,25.106,25.106,0,0,1-1.229,3.045,13.507,13.507,0,0,1-3.092,4.165,8.121,8.121,0,0,1-1.972,1.269.621.621,0,0,0-.26-.149c-1.137-.311-2.581.4-3.705.646a35.484,35.484,0,0,1-5.344.679c-3.115.188-6.9.231-9.8-1.08a.449.449,0,0,0-.453.775c2.881,1.8,6.413,2.007,9.719,1.983a39.591,39.591,0,0,0,5.883-.524c.51-.082,1.12-.154,1.722-.281,3.118-.114,5.93-2.913,7.508-5.36a20.859,20.859,0,0,0,2.339-5.252,44.711,44.711,0,0,0,13.692-6.475c3.955-2.716,7.058-6.468,6.926-11.517-.1-3.745-3.166-6.006-6.676-6.225-4.27-.266-8.316,2.38-10.448,5.944-.207.346.32.648.536.313a11.114,11.114,0,0,1,9.587-5.2c3.932.115,6.289,3.1,5.705,6.933-.734,4.8-4.441,7.681-8.346,10.06a43.718,43.718,0,0,1-10.586,4.772c.276-1.073.505-2.156.707-3.231a.5.5,0,0,0,.6.006c4.624-2.994,15.589-5.514,14.549-12.847-.361-2.54-3.269-2.808-5.27-2.452a11.038,11.038,0,0,0-7.422,5.222.242.242,0,0,0,.418.245,10.56,10.56,0,0,1,6.556-4.436c2.793-.678,5.216.388,4.506,3.574-.625,2.8-4.09,4.553-6.375,5.788-2.417,1.309-5.021,2.308-7.354,3.771l.027-.148c.975-5.554.89-11.884,2.511-17.487a9.817,9.817,0,0,0,1.372-3.623,18.33,18.33,0,0,1,.94-1.716c.021-.034-.027-.067-.054-.041a7.581,7.581,0,0,0-.8.861c.159-6.955-10.979-8.407-15.948-8.715a72.045,72.045,0,0,0-9.429.02,10.636,10.636,0,0,0,2.763-4.92.813.813,0,0,0-.984-.984c-2.714.425-5.351,1.263-8.036,1.807.556-.227,1.11-.445,1.639-.665,2.464-1.031,4.946-2.024,7.367-3.157,2.643-1.236,8.485-3.782,7.336-7.656-1.074-3.621-8.037-1.765-10.49-1.356-2.909.484-5.8,1.069-8.731,1.411a15.329,15.329,0,0,1-5.744-.035c4.376-5.23,11.255-7.783,17.457-10.12,6.364-2.4,12.972-4.606,18.284-9.009a.8.8,0,0,0-.161-1.253c-11.921-7.027-24.9,2.186-37.013,3.572-.086.01-.092.139,0,.138,11.568-.157,24.022-8.918,35.173-2.933-11.035,8-27.411,8.016-35.941,19.54a.887.887,0,0,0,.32,1.215c3.656,1.876,8.721.562,12.532-.1,2.53-.439,5.051-.951,7.6-1.254,1.313-.157,3.75-.622,4.88.338,2.5,2.124-6.828,6.287-7.848,6.746-3.679,1.656-8.2,2.777-11.392,5.326-.572.455-.086,1.41.577,1.394,3.863-.095,7.5-1.4,11.256-2.159a15.1,15.1,0,0,1-2.969,4.3,41.613,41.613,0,0,0-14.452,3.949.3.3,0,0,0-.33-.2c-3.228.288-6.913,2.5-8.053,5.713a5.926,5.926,0,0,0-.107,3.658c-.215-.257-.438-.508-.672-.748-.028-.028-.078.008-.055.041,3.681,5.423,4.073,12.685,5.77,18.845.074.275.154.546.234.819-5.961,1.061-11.838,2.151-16.206,6.613-.073-.14-.146-.275-.219-.417a.208.208,0,0,0-.386.1,8,8,0,0,0,.115.826c-.041.047-.086.088-.127.135a.317.317,0,0,0,.275.524,11.566,11.566,0,0,0,3.731,5.483c4.354,4.837,10.226,8.08,16.557,10.145a4.581,4.581,0,0,0,2.1.877.253.253,0,0,0,.251-.168,66.76,66.76,0,0,0,12.221,2.129,2.152,2.152,0,0,0,.4.334.239.239,0,0,0,.349-.274q1.34.1,2.652.149a63.909,63.909,0,0,0,15.747-1.324c.012.042.021.083.037.124.065.169.349.272.441.057a2.7,2.7,0,0,0,.113-.311,57.393,57.393,0,0,0,5.783-1.608c5.965-2.007,13.18-5.517,16.783-10.932a.484.484,0,0,0,.078-.221C920.845,3510.964,923.157,3507.569,920.619,3504.169Zm-49.786-24.087c-2.142,1.991-4.182,4.107-6.437,5.965a17.057,17.057,0,0,1,3.378-5.143A21.231,21.231,0,0,1,870.833,3480.082Zm18.852,1.318c.606.2,1.208.417,1.8.659a12.405,12.405,0,0,1-3.165,3.166,18.657,18.657,0,0,1,1.489-2.953A.663.663,0,0,0,889.685,3481.4Zm-1.026-.014a19.293,19.293,0,0,1-6.53,4.543,21.065,21.065,0,0,1,4.027-4.686.611.611,0,0,0,.172-.752c.678.153,1.353.317,2.022.5.225.063.447.132.67.2A.691.691,0,0,0,888.659,3481.386Zm-13.376,5.713c1.386-2.555,3.2-4.873,4.391-7.537a39.927,39.927,0,0,1,5.384.665C881.786,3482.514,878.967,3485.535,875.283,3487.1Zm2.09-7.6a100.612,100.612,0,0,1-7.875,6.946,32.393,32.393,0,0,1,4.118-6.767C874.905,3479.557,876.175,3479.508,877.373,3479.5Zm-8.2,4.219a29.987,29.987,0,0,0-1.985,4.475.7.7,0,0,0,.42.869c-1.436-.148-2.854-.354-4.24-.63a.592.592,0,0,0,.151-.066A40.655,40.655,0,0,0,869.178,3483.723Zm16.338,4.568a69.06,69.06,0,0,1-17.39.823.674.674,0,0,0,.173-.066,47.585,47.585,0,0,0,8.057-6.572,40.71,40.71,0,0,0-3.174,5.546.751.751,0,0,0,.839,1.092,19.432,19.432,0,0,0,6.6-3.583c-.307.44-.615.88-.934,1.315-.418.57.268,1.191.831,1.08a15.383,15.383,0,0,0,6.363-3.034c-.275.7-.524,1.408-.765,2.13-.194.576.553,1.206,1.07.824a23.965,23.965,0,0,0,5.023-4.267c.017.037.03.074.048.111.37.75.834.914,1.354,1.458.37.387.955-.2.587-.587a3.49,3.49,0,0,1-.643-1.491,12.178,12.178,0,0,0,2.49,1.4.781.781,0,0,0,.256.039C893.266,3486.706,889.339,3487.653,885.516,3488.291Zm-28.143-12.9a3.714,3.714,0,0,0-.113,4.758c.025.036.083,0,.059-.035-4.1-6.7,10.954-9,14.576-9.477q.91-.119,1.824-.213a14.84,14.84,0,0,0-1.345,1.875.312.312,0,0,0,.488.376c.884-.781,1.838-1.575,2.751-2.418a66.468,66.468,0,0,1,10.683.068c3.915.342,8.117.868,11.584,2.856,2.631,1.508,3.642,3.936,2.292,6.739a11.927,11.927,0,0,1-3.14,4.021.808.808,0,0,0-.054-.685c-1.3-2.225-5.475-3.268-7.758-3.924a41.977,41.977,0,0,0-11.559-1.524c-6.268.005-14.424,1.563-17.156,8.037-.185.438.426.829.655.383a10.426,10.426,0,0,1,4.648-4.478,14.491,14.491,0,0,0-3.243,5.884.679.679,0,0,0,.231.678c-3.233-.753-6.6-2.477-8.407-5.317C852.361,3479.81,854.685,3477.061,857.373,3475.39Zm33.893,46.966c1.543-.207,3.118-.445,4.706-.722a9.9,9.9,0,0,0-1.247,3.285,59.515,59.515,0,0,1-6.713,1.044,3.871,3.871,0,0,1,1.188-3.292.034.034,0,0,0-.048-.049,4.09,4.09,0,0,0-1.491,3.375c-1.777.165-3.561.256-5.342.281a.234.234,0,0,0,.013-.089,10.329,10.329,0,0,0-.532-1.854,12.544,12.544,0,0,0-.4-1.25A86.744,86.744,0,0,0,891.266,3522.356Zm-22.386.157a.276.276,0,0,0-.019.273c.35.761.647,1.545,1.055,2.279.049.089.111.193.178.3-.649-.109-1.3-.232-1.945-.362a.246.246,0,0,0-.166-.23,8.228,8.228,0,0,1-3.874-2.887C865.694,3522.141,867.287,3522.346,868.88,3522.513Zm-5.307-.714a6.385,6.385,0,0,0,2.294,2.7,57.542,57.542,0,0,1-5.541-1.628c-.028-.025-.058-.046-.085-.073a4.964,4.964,0,0,1-1.2-1.916C860.537,3521.245,862.052,3521.545,863.573,3521.8Zm-12.14-3.374a48.759,48.759,0,0,0,6.98,2.3,4.489,4.489,0,0,0,.7,1.7,46.587,46.587,0,0,1-9.522-4.856C850.217,3517.89,850.837,3518.174,851.433,3518.425Zm19.738,7.113-.017-.013a4.048,4.048,0,0,1-.759-.967c-.4-.635-.687-1.331-1.029-2q1.491.15,2.979.262c.832.064,1.669.115,2.505.158a10.129,10.129,0,0,0,.16,3.02Q873.094,3525.828,871.171,3525.538Zm7.893.715q-1.65-.051-3.322-.187a4.189,4.189,0,0,1-.31-.764,10.064,10.064,0,0,1-.275-2.307q2.81.132,5.633.1a12.982,12.982,0,0,1,.469,1.664,3.338,3.338,0,0,0,.594,1.53Q880.456,3526.3,879.064,3526.253Zm21.372-2.9c-1.587.537-3.2.987-4.83,1.367.027-.291.053-.582.1-.868a11.467,11.467,0,0,1,.7-2.3,72.267,72.267,0,0,0,10.707-2.7c-.139.242-.274.488-.406.735s.246.449.358.209c.176-.378.357-.756.558-1.119a44.509,44.509,0,0,0,5.985-2.612,31.075,31.075,0,0,1-3.883,2.971A42.861,42.861,0,0,1,900.436,3523.354Z"/><path d="M904.477,3520.2a6.234,6.234,0,0,0-3.049,2.364c-.109.195.2.371.3.174a6,6,0,0,1,2.856-2.359C904.7,3520.311,904.6,3520.137,904.477,3520.2Z"/><path d="M866.489,3518a70.711,70.711,0,0,0,11.726,1.652,36.763,36.763,0,0,0,12.046-.794,75.39,75.39,0,0,0,8.091-2.614c2.108-.78,4.656-1.373,6.422-2.8a.348.348,0,0,0-.245-.59c-2.029.039-4.054,1.131-5.947,1.807-2.464.879-4.95,1.691-7.478,2.364a40.265,40.265,0,0,1-12.077,1.234,91.37,91.37,0,0,1-11.332-1.116c-2.981-.493-6.749-.783-9.151-2.835-.1-.087-.241.049-.146.146C860.418,3516.536,863.786,3517.312,866.489,3518Z"/><path d="M900.283,3509.357a22.225,22.225,0,0,1,1.645,2.8.278.278,0,0,0,.515-.138c.122-2.558-2.76-4.421-4.963-4.857a.138.138,0,0,0-.074.266A6.582,6.582,0,0,1,900.283,3509.357Z"/><path d="M859.651,3508.336c-1.308-.055-4.336-.338-4.923,1.264a.209.209,0,0,0,.255.256c.718-.193,1.26-.75,2.01-.96a11.909,11.909,0,0,1,2.658-.284A.138.138,0,0,0,859.651,3508.336Z"/></g></svg>