<svg xmlns="http://www.w3.org/2000/svg" width="637.048" height="38.794" viewBox="0 0 637.048 38.794">
	<path class="a" style="fill:none;stroke:#000;stroke-miterlimit:10;stroke-width:3px" d="M428.248,3785.363a94.369,94.369,0,0,1,68.451,13.218c9.169,5.925,18.192,13.775,29.108,13.862,22.292.176,33.169-30.637,54.987-35.215,25.052-5.256,42.825,25.9,67.737,31.788,30.208,7.136,55.637-24.188,86.06-30.338,12.435-2.514,25.288-.674,37.839,1.171L868.66,3794c11.646,1.712,23.551,3.421,35.12,1.249,11.762-2.208,22.489-8.31,34.195-10.794,10.836-2.3,22.062-1.413,33.1-.517l93.81,7.619" transform="translate(-427.961 -3775.149)" />
</svg>
