<svg xmlns="http://www.w3.org/2000/svg" width="73.692" height="99.584" viewBox="0 0 73.692 99.584"><g transform="translate(-226.762 -3893.024)"><path d="M282.721,3978.271a13.087,13.087,0,0,1,1.093,7.392c-.022.144-.3.144-.319,0-.369-2.476-.055-4.914-.925-7.334C282.542,3978.249,282.685,3978.193,282.721,3978.271Z"/><path d="M280.665,3981.953c1.137,2.12,1.434,5.01-.932,6.564-.16.106-.361-.1-.263-.239a8.651,8.651,0,0,0,1.469-2.649,7.053,7.053,0,0,0-.324-3.656C280.606,3981.946,280.65,3981.928,280.665,3981.953Z"/><path d="M261.828,3965.832A6.545,6.545,0,0,1,264,3970.07c.021.354-.6.357-.606,0a6.028,6.028,0,0,0-1.842-3.99C261.389,3965.914,261.652,3965.671,261.828,3965.832Z"/><path d="M270.859,3921.811c-.178.1-.436-.069-.365-.255.435-1.128,1.525-2.041,2.221-3.063a9.865,9.865,0,0,0,1.789-5.106c.014-.288.5-.291.495,0a10.336,10.336,0,0,1-1.217,4.61C273.146,3919.26,272.175,3921.046,270.859,3921.811Z"/><path d="M277.337,3921.595a32.588,32.588,0,0,0,1.96-4.671c.16-.469,1.015-.405.974.12a12.641,12.641,0,0,1-1.25,4.207c-.455,1.01-.91,2.937-2.065,3.41a.41.41,0,0,1-.567-.209C275.988,3923.507,276.9,3922.436,277.337,3921.595Z"/><path d="M276.855,3931.987c-.237.053-.547-.159-.439-.4a5.327,5.327,0,0,1,1.562-1.709,20.411,20.411,0,0,0,2.568-2.739,16.842,16.842,0,0,0,3.009-6.5.253.253,0,0,1,.486.059,12.109,12.109,0,0,1-2.274,6.6,20.154,20.154,0,0,1-2.3,2.759A5.75,5.75,0,0,1,276.855,3931.987Z"/><path d="M280.47,3935.165c.863-1.148,2.394-1.886,3.444-2.932a12.186,12.186,0,0,0,2.734-4.258c.056-.153.337-.136.324.041a7.542,7.542,0,0,1-1.976,4.4c-.962,1.167-2.5,2.876-4.121,3.228C280.59,3935.705,280.284,3935.414,280.47,3935.165Z"/><path d="M290.771,3934.415a.055.055,0,0,1,.11,0c.164,3.9-5.027,4.962-7.9,6.7-.413.251-.811-.366-.388-.6C285.454,3938.894,290.3,3938.038,290.771,3934.415Z"/><path d="M260.1,3922.82a.3.3,0,0,1,0-.58c1.826-.314,3.7-.727,4.37-2.513.1-.273.55-.165.477.12A4.348,4.348,0,0,1,260.1,3922.82Z"/><path d="M265.71,3927.452c-2.353.058-4.816.353-7.1-.133a.222.222,0,0,1,0-.435c2.282-.487,4.745-.191,7.1-.134A.352.352,0,1,1,265.71,3927.452Z"/><path d="M258.483,3932.284c.939-.49,2.21-.371,3.266-.583a23.158,23.158,0,0,0,3.878-1.073c.158-.062.354.115.2.236a9.433,9.433,0,0,1-3.334,1.688c-1.145.332-2.88.865-4.01.337A.338.338,0,0,1,258.483,3932.284Z"/><path d="M258.483,3935.941c.844-.47,2.241-.022,3.234-.15a3.006,3.006,0,0,0,2.879-2.29.111.111,0,0,1,.22,0,2.713,2.713,0,0,1-1.716,3.034c-1.133.407-3.793.9-4.7-.043A.339.339,0,0,1,258.483,3935.941Z"/><path d="M257.4,3941.062a.349.349,0,0,1,.272-.6,11.717,11.717,0,0,0,3.8.126,8.2,8.2,0,0,0,4-2.273c.254-.243.743.085.519.364C264.142,3940.98,260.319,3943.4,257.4,3941.062Z"/><path d="M251.479,3913.3c.117-.154.434-.062.352.135-1.158,2.8,1.491,5.5,2.116,8.108a.3.3,0,0,1-.506.269C251.432,3919.717,249.508,3915.913,251.479,3913.3Z"/><path d="M247.521,3917.932c.023-.111.224-.085.216.027a10.721,10.721,0,0,0,.647,4.362,15.764,15.764,0,0,0,2.494,3.739c.148.2-.15.489-.376.343C247.569,3924.5,246.888,3920.963,247.521,3917.932Z"/><path d="M243.423,3922.94c.06-.141.34-.19.371,0a13.94,13.94,0,0,0,1.429,4.858,12.846,12.846,0,0,0,1.867,2.474c.493.532.847.705.867,1.4a.317.317,0,0,1-.33.3c-1.568-.08-2.809-2.5-3.445-3.622C243.292,3926.786,242.7,3924.647,243.423,3922.94Z"/><path d="M240.429,3930.923a7.562,7.562,0,0,1-1.926-5.194c0-.1.153-.094.165,0,.257,2.011,1.721,3.775,3.087,5.3,1.1,1.235,2.869,2.574,3.124,4.23.029.187-.183.431-.4.283C242.825,3934.436,241.61,3932.429,240.429,3930.923Z"/><path d="M237.819,3932.069a8.264,8.264,0,0,0,2.068,4.037c1.124,1.193,2.768,1.612,3.974,2.65a.325.325,0,0,1-.252.556c-1.714-.134-3.281-1.5-4.322-2.659a8.349,8.349,0,0,1-1.954-4.524C237.3,3931.877,237.766,3931.822,237.819,3932.069Z"/><path d="M238.752,3938.9a15.6,15.6,0,0,0,2.146,3.057,33.563,33.563,0,0,0,2.885,2.357.23.23,0,0,1-.24.377c-2.589-.852-4.324-3.379-5.144-5.656C238.332,3938.845,238.654,3938.72,238.752,3938.9Z"/><path d="M230.108,3950.471a14.306,14.306,0,0,1,9.112-2.437c2.412.157,4.323,1.027,5.388,2.588-.047.994.149,2.08.181,2.907.089.1.169.208.255.312.074.012.147.027.221.043a12.88,12.88,0,0,1,1.248-1.208,6.689,6.689,0,0,0-.2-3.446,31.764,31.764,0,0,1,1.2-10.68,47.01,47.01,0,0,1,4.887-10.288c1.973-3.209,4.2-6.275,6.257-9.438,1.038-1.595,2.071-3.2,3.035-4.829a29.356,29.356,0,0,0,1.355-2.637,43.82,43.82,0,0,1,7.449,17.674,85.407,85.407,0,0,1,1.272,10.281q.154,2.546.212,5.1a16.686,16.686,0,0,0,.312,4.747.487.487,0,0,0,.9,0c.525-1.644.251-3.515.2-5.211-.05-1.853-.124-3.706-.263-5.555a65.125,65.125,0,0,0-1.418-10.132c-1.476-6.24-3.965-12.329-8.509-17.252l.334-.735a4.394,4.394,0,0,0,.785-.134.468.468,0,0,0,.255-.179.305.305,0,0,0,.123.023l.28,0c.128.277.266.553.416.825.186.336.759.1.654-.251-.056-.185-.1-.372-.157-.559a31.61,31.61,0,0,1,23,10.766,35.445,35.445,0,0,1,9.154,21.505,1.3,1.3,0,0,0-.732.853,19.514,19.514,0,0,0-.24,3.226,21.407,21.407,0,0,0-12.406-3.853c-4.48.213-8.6,3.157-9.307,7.168-.237-.469-1.17-.427-1.281.127a11.4,11.4,0,0,0-.164,2.457,22,22,0,0,0-14.861-7.269c-.074-.183-.145-.366-.226-.547s-.383-.11-.318.08c.05.148.093.3.14.446-4.626-.186-9.043,1.386-11.674,5.572-.476.758.811,1.441,1.284.683,2.378-3.812,6.459-5.174,10.757-4.956a25.615,25.615,0,0,1,.626,3.961.214.214,0,0,0-.16.3c.078.158.146.318.217.479.109,1.786.085,3.584.022,5.387-.012-.012-.025-.023-.038-.034s-.035.006-.021.02.038.038.058.057c-.2,5.582-.725,11.191,1.378,16.536.261.663,1.427.38,1.167-.293-1.419-3.679-1.6-7.517-1.582-11.379a16.62,16.62,0,0,1,1.637,2.511,28.716,28.716,0,0,0,1.181,2.715.226.226,0,0,0,.41-.1,5.5,5.5,0,0,0-.921-2.531,19.618,19.618,0,0,0-2.122-3.055.239.239,0,0,0-.18-.083c.01-1.035.031-2.072.045-3.108.314.434.614.877.958,1.285.4.473.793.948,1.17,1.436.217.282.379.58.733.722.125.051.294-.006.289-.151-.025-.746-1.172-1.808-1.716-2.342-.46-.45-.945-.876-1.429-1.3.011-1.134.011-2.265-.028-3.391.252.842.5,1.684.812,2.5.05.13.283.156.319,0a4.667,4.667,0,0,0-.467-2.577c-.241-.685-.5-1.366-.79-2.035q-.105-1.242-.316-2.47a34.731,34.731,0,0,0,1.228,3.432c.074.172.392.165.378-.047-.132-2.159-1.454-4.274-2-6.38a20.778,20.778,0,0,1,3.545.674c-.3,8.818,1.449,17.547,1.555,26.355-.1,0-.2,0-.293,0a18.892,18.892,0,0,1-1.7-1.579,5.718,5.718,0,0,1-1.245-2.611.055.055,0,0,0-.11,0,4.443,4.443,0,0,0,.82,2.9,8.42,8.42,0,0,0,1.134,1.315,7.78,7.78,0,0,0-3.334.831c-.647.344-.033,1.286.583.908a5.741,5.741,0,0,1,.709-.363,12.18,12.18,0,0,0,3.35,3.431c.054.415.111.8.147,1.138a12.454,12.454,0,0,0,1.227,4.65,7.163,7.163,0,0,0,8.442,3.084c2.9-.929,4.183-3.867,5.421-6.182a10.053,10.053,0,0,1,2.2-3.283c1.174-.935,2.285.1,3.073.959a.293.293,0,0,0,.106.074,17.965,17.965,0,0,1-.123,2.112,13.511,13.511,0,0,1-3.005,7.287,7.311,7.311,0,0,0,.393-1.442.138.138,0,0,0-.265-.067,7.007,7.007,0,0,1-6.416,4.518c-.373.017-.746.014-1.118,0a9.063,9.063,0,0,0,1.393-1.124c.895-.882,2.239-2.086,2.468-3.3.028-.15-.151-.345-.324-.227-1.11.765-1.7,2.135-2.646,3.074a16.188,16.188,0,0,1-1.72,1.511,14.5,14.5,0,0,1-2.657-.568l.038-.023c.785-.5,1.9-1.117,2.259-1.946.052-.119-.105-.261-.237-.215-.834.294-1.372,1.129-2.067,1.637-.176.129-.359.249-.546.363a17.869,17.869,0,0,1-3.016-1.4c-.536-.312-1.065-.644-1.578-1,.748.039,1.495.059,2.236.031a.377.377,0,1,0,0-.752,30.68,30.68,0,0,0-3.114.081,16.209,16.209,0,0,1-1.264-1.078c-.081-.133-.167-.264-.242-.4-.017-.03-.031-.061-.047-.091.093.036.185.074.278.109.391.153,1.32.522,1.722.188a.232.232,0,0,0-.054-.38.381.381,0,0,0-.1-.034c.134-.017-.371-.232-.474-.27a12.5,12.5,0,0,0-1.3-.4l-.5-.13c-.284-.718-.491-1.456-.7-2.189a4.071,4.071,0,0,0,1.64.839c.459.088.869-.429.482-.753-.762-.639-1.816-.938-2.6-1.591a9.923,9.923,0,0,0-.431-1.01.388.388,0,0,0-.651,0c-.065-.07-.126-.141-.187-.213a5.352,5.352,0,0,1,.046-.644,6.673,6.673,0,0,1,.437-1.471,6.182,6.182,0,0,0,2.773,3.826.488.488,0,1,0,.528-.822,9.443,9.443,0,0,1-3.2-3.272,4.53,4.53,0,0,0,.389-1.8.465.465,0,0,0-.592-.411,3.437,3.437,0,0,0-.535.227.457.457,0,0,0-.678.007,9.824,9.824,0,0,0-1.743,7.563c1.233,6.277,8.82,10,15.406,9.63.116-.006.232-.017.349-.026a11.781,11.781,0,0,0,2.783-.155,7.124,7.124,0,0,0,3.737-1.894,10.334,10.334,0,0,0,2.111-1.755c2.654-2.912,3.313-6.571,3.069-10.233a.261.261,0,0,0,.045-.375c-.026-.031-.053-.059-.078-.089-.02-.22-.041-.441-.066-.661-.021-.188-.337-.2-.33,0,0,.081,0,.162.005.244-1.346-1.321-3.013-1.739-4.481-.026-1.8,2.1-2.723,4.731-4.621,6.776-2.242,2.414-6.94,2.324-8.683-.6a11.034,11.034,0,0,1-1.326-4.767c-.075-.886-.114-1.774-.125-2.662a3.892,3.892,0,0,0-.245-1.943.386.386,0,0,0-.071-.089.6.6,0,0,0,.474-.6c-.011-8.914-1.858-17.686-2.423-26.566a20.857,20.857,0,0,1,9.432,5.822.4.4,0,0,0,.514.064c.02.484.042.965.048,1.438a5.172,5.172,0,0,1,.663.131l.043.015a12.575,12.575,0,0,1,.86-2.335c0-.054,0-.109,0-.164a.567.567,0,0,0,.07.018,13.839,13.839,0,0,1,1.087-1.8c.582-1.787,1.125-3.554,2.78-4.861a9.277,9.277,0,0,1,6.016-1.773,23.582,23.582,0,0,1,11.59,3.69c.01.2.03.4.046.6a19.76,19.76,0,0,1,2.7,2.661,17.3,17.3,0,0,1,.142-1.859,26.887,26.887,0,0,0,.419-5.309,1.449,1.449,0,0,0-.828-1.236c-.813-15.9-14.714-34.463-33.866-32.891-1.321-5.147-1.2-10.375-1.232-15.647a.812.812,0,0,0-1.561-.192q-2.334,7.959-4.87,15.866c-7.7,2.353-15.144,5.466-20.348,11.387-7.15,8.135-8.62,18.192-10.9,28.071a.622.622,0,0,0,.219.642c-.084.531-.155,1.062-.195,1.6-.045.616-.066,1.232-.081,1.848.053.086.1.175.159.259s.171.238.283.383c.066.077.137.15.2.225a11.51,11.51,0,0,1,1.01-1.073c.026-.377.057-.754.1-1.13.055-.52.131-1.033.222-1.545A.888.888,0,0,0,230.108,3950.471Zm31.2,31.181a7.074,7.074,0,0,1-.183-.807c.026.033.048.069.075.1C261.226,3981.178,261.265,3981.414,261.31,3981.652Zm6.64,9.263a13.252,13.252,0,0,1-7.3-5.227,8.009,8.009,0,0,1-1.117-2.877,7.44,7.44,0,0,0,.292.713,15.85,15.85,0,0,0,7.3,7.01C267.4,3990.666,267.673,3990.792,267.95,3990.915Zm-2.8-16.788a.6.6,0,0,0,.15.12.427.427,0,0,0-.175.165,5.583,5.583,0,0,0-.3,3.088,18.256,18.256,0,0,1-3.157-2.806A10.107,10.107,0,0,1,265.146,3974.127Zm-4.6-67.88a19.674,19.674,0,0,1-.34,1.992.469.469,0,0,0,.2.476c-.247.07-.5.142-.742.214Q260.108,3907.589,260.547,3906.247Zm1.7-2.336c-.059-.171-.121-.342-.171-.518.036-.132.069-.264.111-.4a.461.461,0,0,0-.333-.552c-.009-.048-.015-.1-.023-.144l.411-1.289C262.231,3901.978,262.226,3902.945,262.245,3903.911Zm.189,3.641-.011-.006a.462.462,0,0,0-.481.027c0-.04,0-.079,0-.119q.2-.347.387-.706c.015-.033.033-.077.05-.127C262.4,3906.9,262.409,3907.222,262.434,3907.552Zm.354,1.615a1.932,1.932,0,0,0,.157.269c-.389-.009-.775-.054-1.175-.093a8.249,8.249,0,0,0,.142-1.083A5.275,5.275,0,0,0,262.788,3909.167Zm.243-9.752a.451.451,0,0,0-.241-.12c.066-.21.135-.42.2-.63C263,3898.915,263.017,3899.165,263.031,3899.415Zm.934,7.532a10.344,10.344,0,0,1-.723-.986c-.144-1.638-.115-3.322-.1-4.927.058.729.128,1.456.214,2.18A33.865,33.865,0,0,0,263.965,3906.947Zm.089,2.12a1.607,1.607,0,0,0,.492-.146c.068.186.139.371.215.553-.018,0-.037,0-.056.006a.325.325,0,0,0-.1.031.368.368,0,0,0-.071-.078C264.373,3909.306,264.213,3909.186,264.054,3909.067Zm-.6-1.468c.168.218.343.434.537.642a.954.954,0,0,1-.415-.034C263.534,3908.006,263.494,3907.8,263.458,3907.6Zm-34.478,41.845a.754.754,0,0,0-.158.171c.051-.259.1-.517.164-.774a8.639,8.639,0,0,0-.061-1.627.307.307,0,0,0-.167-.287c1.942-9,3.568-18.337,10.265-25.575a34.526,34.526,0,0,1,10.518-7.567c2.8-1.36,5.754-2.421,8.625-3.639a.735.735,0,0,0,1.175-.249c.035-.1.067-.2.1-.3.451-.2.9-.409,1.342-.624a.154.154,0,0,0,.087-.18.331.331,0,0,0,.041-.013,5.992,5.992,0,0,1-.179.841.446.446,0,0,0,.456.545c.776.027,1.4.139,2.069.124-.1.153-.192.308-.29.461-.059-.062-.114-.128-.174-.19-.1-.107-.3.034-.217.152.076.1.146.2.221.306-3.868,6-8.616,11.54-12.283,17.668-3.689,6.165-6.844,13.512-5.726,20.664a7.616,7.616,0,0,0-4.829-2.37C236.192,3946.461,231.916,3947.109,228.98,3949.444Z"/></g></svg>