<svg width="12.546mm" height="12.548mm" version="1.1" viewBox="0 0 12.546 12.548" xmlns="http://www.w3.org/2000/svg">
 <g transform="translate(-69.322 -150.88)">
  <g transform="matrix(.35278 0 0 -.35278 78.002 158.74)">
   <path d="m0 0c-0.062 0.282-0.34 0.462-0.623 0.401l-0.955-0.206c-0.283-0.057-0.467-0.334-0.409-0.617 0.057-0.283 0.333-0.467 0.616-0.409 5e-3 0 9e-3 1e-3 0.014 3e-3l0.956 0.206c0.282 0.06 0.462 0.339 0.401 0.622" fill="#f8d405"/>
  </g>
  <g transform="matrix(.35278 0 0 -.35278 76.802 158.81)">
   <path d="m0 0-2.649-0.571c-0.283-0.057-0.467-0.333-0.41-0.616 0.058-0.285 0.334-0.467 0.617-0.411 5e-3 1e-3 9e-3 2e-3 0.014 3e-3l2.649 0.572c0.282 0.065 0.458 0.345 0.393 0.627-0.064 0.277-0.336 0.453-0.614 0.396" fill="#f8d405"/>
  </g>
  <g transform="matrix(.35278 0 0 -.35278 74.293 161.99)">
   <path d="m0 0c-1.215-0.262-2.414 0.511-2.676 1.726s0.51 2.414 1.726 2.675c1.216 0.263 2.413-0.509 2.676-1.725 0.26-1.215-0.512-2.412-1.726-2.676m-1.17 5.425c-1.781-0.384-2.913-2.139-2.53-3.919 0.384-1.781 2.138-2.914 3.919-2.53 1.781 0.383 2.914 2.138 2.53 3.919v1e-3c-0.386 1.779-2.139 2.911-3.919 2.529" fill="#f8d405"/>
  </g>
  <g transform="matrix(.35278 0 0 -.35278 76.233 160.57)">
   <path d="m0 0c-0.106 0.348-0.244 0.685-0.41 1.008l15.015 3.238 0.226-1.047zm-4.876-6.911c-2.81-0.608-5.581 1.178-6.188 3.988-0.608 2.81 1.177 5.58 3.987 6.188 2.81 0.607 5.581-1.178 6.188-3.988 1e-3 -2e-3 1e-3 -3e-3 1e-3 -4e-3 0.602-2.808-1.182-5.575-3.989-6.184zm-6.851 32.282h-6.815v1.072h8.104l1.938-8.988 2.812-13.041c-0.363 0.018-0.728 4e-3 -1.088-0.042l-4.439 20.586c-0.052 0.241-0.265 0.413-0.512 0.413m9.719-7.051 0.703-3.257-5.359-1.157-0.702 3.258zm11.192-0.996-5.358-1.155-0.703 3.258 5.358 1.155zm-7.084 1.882 0.813-3.769 0.621-2.878-1.326 0.897c-0.24 0.162-0.565 0.1-0.728-0.141l-1.013-1.5-1.451 6.726zm-6.684-14.943-1.86 8.62 5.359 1.155 0.786-3.642c0.044-0.206 0.206-0.365 0.412-0.405 0.033-6e-3 0.066-9e-3 0.1-9e-3 0.174 0 0.336 0.086 0.433 0.23l1.408 2.083 1.973-1.336c0.239-0.162 0.565-0.099 0.727 0.141 0.079 0.118 0.108 0.262 0.078 0.402l-0.786 3.643 5.359 1.156 2.495-11.567-12.902-2.782c-0.888 1.164-2.155 1.982-3.582 2.311m20.547-1.356-0.446 2.072c-0.061 0.283-0.34 0.462-0.622 0.402l-1.973-0.426-3.527 16.359c-0.062 0.283-0.34 0.462-0.623 0.402l-10.489-2.262-5.87-1.267-1.917 8.89c-0.052 0.24-0.266 0.413-0.512 0.413h-9.05c-0.289 0-0.523-0.234-0.524-0.523v-2.119c0-0.289 0.235-0.524 0.524-0.524h6.917l4.35-20.174c-3.301-1.005-5.162-4.497-4.156-7.798s4.497-5.163 7.798-4.157c2.919 0.889 4.768 3.756 4.376 6.782l15.343 3.308c0.282 0.062 0.462 0.34 0.401 0.622" fill="#f8d405"/>
  </g>
 </g>
</svg>
