<svg width="7.4591mm" height="9.9455mm" version="1.1" viewBox="0 0 7.4591 9.9455" xmlns="http://www.w3.org/2000/svg">
 <g transform="translate(-122.51 -165.03)">
  <g transform="matrix(.35278 0 0 -.35278 129.56 174.14)">
   <path d="m0 0c0-0.647-0.526-1.175-1.174-1.175h-16.445c-0.649 0-1.175 0.528-1.175 1.175v23.492c0 0.648 0.526 1.175 1.175 1.175h11.746v-3.523c0-1.296 1.055-2.35 2.35-2.35h3.523zm-4.698 23.837 3.868-3.868h-2.693c-0.649 0-1.175 0.527-1.175 1.175zm5.701-4.04-5.873 5.873c-0.11 0.11-0.26 0.172-0.415 0.172h-12.334c-1.295 0-2.35-1.054-2.35-2.35v-23.492c0-1.296 1.055-2.35 2.35-2.35h16.445c1.295 0 2.349 1.054 2.349 2.35v19.381c0 0.156-0.062 0.306-0.172 0.416" fill="#f8d405"/>
  </g>
  <g transform="matrix(.35278 0 0 -.35278 128.52 170.83)">
   <path d="m0 0h-8.223c-0.324 0-0.587-0.263-0.587-0.587 0-0.325 0.263-0.588 0.587-0.588h8.223c0.325 0 0.588 0.263 0.588 0.588 0 0.324-0.263 0.587-0.588 0.587" fill="#f8d405"/>
  </g>
  <g transform="matrix(.35278 0 0 -.35278 123.96 167.51)">
   <path d="m0 0h7.048c0.325 0 0.588 0.263 0.588 0.587 0 0.325-0.263 0.588-0.588 0.588h-7.048c-0.324 0-0.587-0.263-0.587-0.588 0-0.324 0.263-0.587 0.587-0.587" fill="#f8d405"/>
  </g>
  <g transform="matrix(.35278 0 0 -.35278 128.52 169.59)">
   <path d="m0 0h-12.921c-0.324 0-0.587-0.263-0.587-0.588 0-0.324 0.263-0.587 0.587-0.587h12.921c0.325 0 0.588 0.263 0.588 0.587 0 0.325-0.263 0.588-0.588 0.588" fill="#f8d405"/>
  </g>
  <g transform="matrix(.35278 0 0 -.35278 123.76 168.55)">
   <path d="m0 0c0-0.325 0.263-0.588 0.587-0.588h12.921c0.325 0 0.588 0.263 0.588 0.588 0 0.324-0.263 0.587-0.588 0.587h-12.921c-0.324 0-0.587-0.263-0.587-0.587" fill="#f8d405"/>
  </g>
  <g transform="matrix(.35278 0 0 -.35278 124.32 172.85)">
   <path d="m0 0c-0.239 0.364-0.409 0.741-0.409 1.042 0 0.717 0.525 1.136 0.588 1.175 0.097 0 0.587-0.029 0.587-0.588 0-0.374-0.317-1.006-0.766-1.629m6.814 0.873c-0.863-0.85-1.952-1.808-2.383-2.099-0.102 0.231-0.218 0.618-0.288 0.852-0.239 0.791-0.425 1.416-1.028 1.416-0.514 0-0.747-0.471-1.097-1.184-0.172-0.348-0.53-1.074-0.659-1.166-0.128 0.014-0.345 0.162-0.586 0.386 0.648 0.836 1.167 1.804 1.167 2.551 0 1.284-1.08 1.763-1.761 1.763-0.694 0-1.762-1.009-1.762-2.35 0-0.595 0.329-1.328 0.796-1.973-0.186-0.185-0.375-0.354-0.562-0.494-0.258-0.194-0.311-0.562-0.118-0.822 0.116-0.154 0.293-0.235 0.471-0.235 0.123 0 0.247 0.039 0.352 0.118 0.204 0.151 0.421 0.343 0.64 0.56 0.46-0.409 0.949-0.678 1.358-0.678 0.793 0 1.264 0.903 1.674 1.735 0.271-0.898 0.533-1.735 1.262-1.735 0.196 0 0.791 0 3.349 2.518 0.231 0.228 0.233 0.6 7e-3 0.83-0.228 0.233-0.6 0.234-0.832 7e-3" fill="#f8d405"/>
  </g>
 </g>
</svg>
