<svg width="7.3861mm" height="1.3644mm" version="1.1" viewBox="0 0 7.3861 1.3644" xmlns="http://www.w3.org/2000/svg">
 <g transform="translate(-77.194 -104.31)">
  <g transform="matrix(.35278 0 0 -.35278 77.194 104.34)">
   <path d="m0 0h2.793v-0.805h-1.988v-0.674h1.183v-0.804h-1.183v-0.674h1.988v-0.805h-2.793z" fill="#231f20"/>
  </g>
  <g transform="matrix(.35278 0 0 -.35278 80.417 104.34)">
   <path d="m0 0-1.289-2.041 1.295-1.721h-1.01l-0.79 1.047-0.783-1.047h-1.005l1.289 1.721-1.305 2.041h0.989l0.815-1.368 0.79 1.368z" fill="#231f20"/>
  </g>
  <g transform="matrix(.35278 0 0 -.35278 81.358 104.34)">
   <path d="m0 0h2.793v-0.805h-1.988v-0.674h1.183v-0.804h-1.183v-0.674h1.988v-0.805h-2.793z" fill="#231f20"/>
  </g>
  <g transform="matrix(.35278 0 0 -.35278 84.374 105.16)">
   <path d="m0 0 0.584-0.585-0.294-0.294c-0.183-0.185-0.391-0.328-0.623-0.427-0.234-0.097-0.482-0.145-0.746-0.141-0.266 0-0.516 0.051-0.749 0.152-0.233 0.103-0.437 0.24-0.613 0.416-0.175 0.176-0.313 0.379-0.415 0.612-0.102 0.234-0.153 0.484-0.153 0.75 0 0.267 0.051 0.518 0.153 0.752 0.102 0.236 0.24 0.441 0.415 0.617 0.176 0.174 0.38 0.313 0.613 0.415 0.233 0.101 0.483 0.153 0.749 0.153 0.26 0 0.508-0.05 0.746-0.148 0.236-0.098 0.443-0.239 0.623-0.42l0.294-0.29-0.584-0.583-0.294 0.288c-0.106 0.109-0.226 0.189-0.361 0.243-0.135 0.052-0.276 0.08-0.424 0.084-0.15 0-0.293-0.03-0.428-0.087-0.135-0.058-0.253-0.138-0.352-0.24-0.1-0.101-0.18-0.22-0.237-0.355-0.058-0.135-0.087-0.277-0.087-0.429 0-0.151 0.029-0.294 0.087-0.428 0.057-0.135 0.137-0.253 0.237-0.353 0.099-0.099 0.217-0.179 0.352-0.237s0.278-0.087 0.428-0.087c0.152 0 0.293 0.029 0.427 0.085 0.133 0.056 0.252 0.137 0.358 0.242z" fill="#231f20"/>
  </g>
 </g>
</svg>
