<svg width="32.765mm" height="43.718mm" version="1.1" viewBox="0 0 32.765 43.718" xmlns="http://www.w3.org/2000/svg">
 <g transform="translate(-58.228 -72.454)">
  <g transform="matrix(.35278 0 0 -.35278 89.716 98.236)">
   <path d="m0 0c-0.291-0.66-0.849-1.164-1.535-1.387-12.165-3.93-27.034-5.833-41.281-5.825-14.876 0.187-26.612 1.349-41.284 5.831-1.367 0.489-2.078 1.995-1.588 3.362 0.012 0.036 0.025 0.07 0.04 0.104l0.581 1.318c0.403 0.934 1.321 1.538 2.338 1.541 11.65-3.196 21.414-5.453 39.913-5.604 18.187 0.24 27.697 2.122 39.132 5.481 1.249 0.402 2.599-0.212 3.119-1.417l0.581-1.319c0.294-0.664 0.289-1.423-0.012-2.083zm-12.683-7.746-59.144-39.16c-1.524-1.008-3.576-0.59-4.584 0.934s-0.59 3.576 0.934 4.584l47.5 31.446c5.134 0.462 10.238 1.195 15.294 2.196m-30.133-7.959-8 5.297c2.556-0.121 5.218-0.194 8-0.194 2.781 0 5.443 0.072 8 0.194zm-30.134 7.959c5.056-1.004 10.163-1.737 15.297-2.196l11.771-7.794-5.988-3.965zm5.849 29.353h48.569v-16.872c-8.023-1.362-16.147-2.033-24.284-2.007-8.138-0.026-16.263 0.645-24.285 2.007zm-3.389 0v-16.231c-2.255 0.456-4.42 0.962-6.468 1.512v14.719zm-12.385 4.599v33.402c1e-3 0.668 0.542 1.209 1.21 1.21h78.907v-35.822h-78.907c-0.668 1e-3 -1.209 0.542-1.21 1.21m5.917 43.487h6.468v-5.486h-6.468zm61.815 0h6.469v-5.486h-6.469zm6.474-62.805c-2.05-0.55-4.215-1.056-6.469-1.512v16.231h6.469zm-0.068-50.378c0.363-1.79-0.793-3.535-2.582-3.899-0.859-0.174-1.751-1e-3 -2.481 0.483l-25.948 17.176 5.988 3.964 23.604-15.627c0.735-0.481 1.246-1.237 1.419-2.097m11.852 46.935-0.581 1.32c-1.215 2.8-4.357 4.22-7.262 3.282-0.176-0.056-0.376-0.117-0.563-0.176v13.736h4.221c0.936 0 1.695 0.759 1.695 1.695v39.211c0 0.935-0.759 1.694-1.695 1.694h-4.221v7.181c-1e-3 0.935-0.759 1.694-1.694 1.694h-9.852c-0.936 0-1.695-0.759-1.695-1.694v-7.181h-48.569v7.181c-1e-3 0.935-0.759 1.694-1.694 1.694h-9.857c-0.936 0-1.694-0.759-1.695-1.694v-7.181h-1.318c-2.538-3e-3 -4.595-2.061-4.598-4.599v-33.402c3e-3 -2.538 2.06-4.596 4.598-4.599h1.318v-13.736c-0.187 0.058-0.387 0.119-0.563 0.176-2.904 0.938-6.047-0.482-7.261-3.282l-0.581-1.319c-1.323-3.008 0.044-6.518 3.051-7.841 0.179-0.078 0.361-0.147 0.546-0.208 0.727-0.237 1.561-0.494 2.459-0.758l27.749-18.372-22.401-14.831c-3.067-2.066-3.879-6.226-1.814-9.293 2.043-3.034 6.141-3.867 9.205-1.872l27.141 17.967 27.14-17.969c3.084-2.041 7.238-1.196 9.279 1.888 2.041 3.083 1.195 7.238-1.889 9.279l-22.405 14.831 27.747 18.371c0.899 0.265 1.733 0.522 2.46 0.759 3.123 1.02 4.828 4.378 3.808 7.501-0.061 0.186-0.131 0.369-0.209 0.547"/>
  </g>
  <g transform="matrix(.35278 0 0 -.35278 71.993 86.041)">
   <path d="m0 0c5e-3 1.653 0.667 3.237 1.842 4.401 1.176 1.164 2.765 1.812 4.419 1.801h2.348c1.65 0.01 3.237-0.64 4.407-1.804 1.17-1.165 1.827-2.748 1.825-4.398v-0.775h-14.841zm-0.625-2.104h16.119c0.174-7e-3 0.344 0.055 0.471 0.174s0.201 0.284 0.205 0.459v1.471c2e-3 2.003-0.795 3.924-2.214 5.338s-3.344 2.203-5.347 2.193h-2.348c-2.006 0.011-3.934-0.777-5.358-2.19s-2.227-3.335-2.232-5.341v-1.471c0-0.368 0.337-0.633 0.704-0.633" fill="#fff"/>
  </g>
  <path d="m71.993 86.041c0.0018-0.58314 0.2353-1.1419 0.64982-1.5526 0.41487-0.41063 0.97543-0.63923 1.5589-0.63535h0.82832c0.58208-0.0035 1.1419 0.22578 1.5547 0.63641 0.41275 0.41099 0.64452 0.96943 0.64382 1.5515v0.2734h-5.2356zm-0.22049 0.74224h5.6864c0.06138 0.0025 0.12136-0.0194 0.16616-0.06138 0.0448-0.04198 0.07091-0.10019 0.07232-0.16192v-0.51894c7.05e-4 -0.70661-0.28046-1.3843-0.78105-1.8831-0.50059-0.49883-1.1797-0.77717-1.8863-0.77364h-0.82832c-0.70767-0.0039-1.3878 0.27411-1.8902 0.77258-0.50236 0.49848-0.78564 1.1765-0.7874 1.8842v0.51894c0 0.12982 0.11889 0.22331 0.24836 0.22331z" stroke="#000" stroke-width=".3"/>
  <g transform="matrix(.35278 0 0 -.35278 74.621 79.585)">
   <path d="m0 0c2.191 0 3.968-1.776 3.968-3.968 0-2.191-1.777-3.968-3.968-3.968s-3.968 1.777-3.968 3.968c3e-3 2.191 1.778 3.965 3.968 3.968m0-9.265c2.925 0 5.297 2.371 5.297 5.297 0 2.925-2.372 5.297-5.297 5.297s-5.297-2.372-5.297-5.297c4e-3 -2.924 2.373-5.294 5.297-5.297" fill="#fff"/>
  </g>
  <path d="m74.621 79.585c0.77294 0 1.3998 0.62653 1.3998 1.3998 0 0.77294-0.62689 1.3998-1.3998 1.3998s-1.3998-0.62689-1.3998-1.3998c0.0011-0.77294 0.62724-1.3988 1.3998-1.3998zm0 3.2685c1.0319 0 1.8687-0.83644 1.8687-1.8687 0-1.0319-0.83679-1.8687-1.8687-1.8687s-1.8687 0.83679-1.8687 1.8687c0.0014 1.0315 0.83714 1.8676 1.8687 1.8687z" stroke="#000" stroke-width=".3"/>
 </g>
</svg>
