<?xml version="1.0" encoding="UTF-8" standalone="no"?>
<svg
   xmlns:dc="http://purl.org/dc/elements/1.1/"
   xmlns:cc="http://creativecommons.org/ns#"
   xmlns:rdf="http://www.w3.org/1999/02/22-rdf-syntax-ns#"
   xmlns:svg="http://www.w3.org/2000/svg"
   xmlns="http://www.w3.org/2000/svg"
   id="svg3576"
   version="1.1"
   viewBox="0 0 32.764736 62.775993"
   height="62.775993mm"
   width="32.764736mm">
  <defs
     id="defs3570" />
  <metadata
     id="metadata3573">
    <rdf:RDF>
      <cc:Work
         rdf:about="">
        <dc:format>image/svg+xml</dc:format>
        <dc:type
           rdf:resource="http://purl.org/dc/dcmitype/StillImage" />
        <dc:title></dc:title>
      </cc:Work>
    </rdf:RDF>
  </metadata>
  <g
     transform="translate(-96.25454,-67.552479)"
     id="layer1">
    <g
       transform="matrix(0.35277777,0,0,-0.35277777,127.74238,93.334184)"
       id="g1053"
       style="display:inline">
      <path
         id="path1055"
         style="fill:#ffffff;fill-opacity:1;fill-rule:nonzero;stroke:none"
         d="m 0,0 c -0.291,-0.66 -0.849,-1.164 -1.535,-1.387 -12.165,-3.93 -27.034,-5.833 -41.281,-5.825 -14.876,0.187 -26.612,1.349 -41.284,5.831 -1.367,0.489 -2.078,1.995 -1.588,3.362 0.012,0.036 0.025,0.07 0.04,0.104 l 0.581,1.318 c 0.403,0.934 1.321,1.538 2.338,1.541 11.65,-3.196 21.414,-5.453 39.913,-5.604 18.187,0.24 27.697,2.122 39.132,5.481 1.249,0.402 2.599,-0.212 3.119,-1.417 L 0.016,2.085 C 0.31,1.421 0.305,0.662 0.004,0.002 Z m -12.683,-7.746 -59.144,-39.16 c -1.524,-1.008 -3.576,-0.59 -4.584,0.934 -1.008,1.524 -0.59,3.576 0.934,4.584 l 47.5,31.446 c 5.134,0.462 10.238,1.195 15.294,2.196 m -30.133,-7.959 -8,5.297 c 2.556,-0.121 5.218,-0.194 8,-0.194 2.781,0 5.443,0.072 8,0.194 z m -30.134,7.959 c 5.056,-1.004 10.163,-1.737 15.297,-2.196 l 11.771,-7.794 -5.988,-3.965 z m 5.849,29.353 h 48.569 V 4.735 C -26.555,3.373 -34.679,2.702 -42.816,2.728 -50.954,2.702 -59.079,3.373 -67.101,4.735 Z m -3.389,0 V 5.376 c -2.255,0.456 -4.42,0.962 -6.468,1.512 v 14.719 z m -12.385,4.599 v 33.402 c 0.001,0.668 0.542,1.209 1.21,1.21 H -2.758 V 24.996 h -78.907 c -0.668,0.001 -1.209,0.542 -1.21,1.21 m 5.917,43.487 h 6.468 v -5.486 h -6.468 z m 61.815,0 h 6.469 v -5.486 h -6.469 z M -8.669,6.888 c -2.05,-0.55 -4.215,-1.056 -6.469,-1.512 v 16.231 h 6.469 z M -8.737,-43.49 c 0.363,-1.79 -0.793,-3.535 -2.582,-3.899 -0.859,-0.174 -1.751,-10e-4 -2.481,0.483 l -25.948,17.176 5.988,3.964 23.604,-15.627 c 0.735,-0.481 1.246,-1.237 1.419,-2.097 M 3.115,3.445 2.534,4.765 C 1.319,7.565 -1.823,8.985 -4.728,8.047 -4.904,7.991 -5.104,7.93 -5.291,7.871 v 13.736 h 4.221 c 0.936,0 1.695,0.759 1.695,1.695 v 39.211 c 0,0.935 -0.759,1.694 -1.695,1.694 h -4.221 v 7.181 c -10e-4,0.935 -0.759,1.694 -1.694,1.694 h -9.852 c -0.936,0 -1.695,-0.759 -1.695,-1.694 v -7.181 h -48.569 v 7.181 c -0.001,0.935 -0.759,1.694 -1.694,1.694 h -9.857 c -0.936,0 -1.694,-0.759 -1.695,-1.694 v -7.181 h -1.318 c -2.538,-0.003 -4.595,-2.061 -4.598,-4.599 V 26.206 c 0.003,-2.538 2.06,-4.596 4.598,-4.599 h 1.318 V 7.871 c -0.187,0.058 -0.387,0.119 -0.563,0.176 -2.904,0.938 -6.047,-0.482 -7.261,-3.282 l -0.581,-1.319 c -1.323,-3.008 0.044,-6.518 3.051,-7.841 0.179,-0.078 0.361,-0.147 0.546,-0.208 0.727,-0.237 1.561,-0.494 2.459,-0.758 l 27.749,-18.372 -22.401,-14.831 c -3.067,-2.066 -3.879,-6.226 -1.814,-9.293 2.043,-3.034 6.141,-3.867 9.205,-1.872 l 27.141,17.967 27.14,-17.969 c 3.084,-2.041 7.238,-1.196 9.279,1.888 2.041,3.083 1.195,7.238 -1.889,9.279 l -22.405,14.831 27.747,18.371 c 0.899,0.265 1.733,0.522 2.46,0.759 3.123,1.02 4.828,4.378 3.808,7.501 C 3.263,3.084 3.193,3.267 3.115,3.445" />
    </g>
    <g
       transform="matrix(0.35277777,0,0,-0.35277777,110.01906,81.139564)"
       id="g1057"
       style="display:inline">
      <path
         id="path1059"
         style="fill:#ffffff;fill-opacity:1;fill-rule:nonzero;stroke:none"
         d="m 0,0 c 0.005,1.653 0.667,3.237 1.842,4.401 1.176,1.164 2.765,1.812 4.419,1.801 h 2.348 c 1.65,0.01 3.237,-0.64 4.407,-1.804 C 14.186,3.233 14.843,1.65 14.841,0 V -0.775 H 0 Z m -0.625,-2.104 h 16.119 c 0.174,-0.007 0.344,0.055 0.471,0.174 0.127,0.119 0.201,0.284 0.205,0.459 V 0 C 16.172,2.003 15.375,3.924 13.956,5.338 12.537,6.752 10.612,7.541 8.609,7.531 H 6.261 C 4.255,7.542 2.327,6.754 0.903,5.341 -0.521,3.928 -1.324,2.006 -1.329,0 v -1.471 c 0,-0.368 0.337,-0.633 0.704,-0.633" />
    </g>
    <g
       transform="matrix(0.35277777,0,0,-0.35277777,110.01906,81.139564)"
       id="g1061"
       style="display:inline">
      <path
         id="path1063"
         style="fill:none;stroke:#ffffff;stroke-width:1;stroke-linecap:butt;stroke-linejoin:miter;stroke-miterlimit:10;stroke-dasharray:none;stroke-opacity:1"
         d="m 0,0 c 0.005,1.653 0.667,3.237 1.842,4.401 1.176,1.164 2.765,1.812 4.419,1.801 h 2.348 c 1.65,0.01 3.237,-0.64 4.407,-1.804 C 14.186,3.233 14.843,1.65 14.841,0 V -0.775 H 0 Z m -0.625,-2.104 h 16.119 c 0.174,-0.007 0.344,0.055 0.471,0.174 0.127,0.119 0.201,0.284 0.205,0.459 V 0 C 16.172,2.003 15.375,3.924 13.956,5.338 12.537,6.752 10.612,7.541 8.609,7.531 H 6.261 C 4.255,7.542 2.327,6.754 0.903,5.341 -0.521,3.928 -1.324,2.006 -1.329,0 v -1.471 c 0,-0.368 0.337,-0.633 0.704,-0.633 z" />
    </g>
    <g
       transform="matrix(0.35277777,0,0,-0.35277777,112.64751,74.682779)"
       id="g1065"
       style="display:inline">
      <path
         id="path1067"
         style="fill:#ffffff;fill-opacity:1;fill-rule:nonzero;stroke:none"
         d="m 0,0 c 2.191,0 3.968,-1.776 3.968,-3.968 0,-2.191 -1.777,-3.968 -3.968,-3.968 -2.191,0 -3.968,1.777 -3.968,3.968 C -3.965,-1.777 -2.19,-0.003 0,0 m 0,-9.265 c 2.925,0 5.297,2.371 5.297,5.297 0,2.925 -2.372,5.297 -5.297,5.297 -2.925,0 -5.297,-2.372 -5.297,-5.297 0.004,-2.924 2.373,-5.294 5.297,-5.297" />
    </g>
    <g
       transform="matrix(0.35277777,0,0,-0.35277777,112.64751,74.682779)"
       id="g1069"
       style="display:inline">
      <path
         id="path1071"
         style="fill:none;stroke:#ffffff;stroke-width:1;stroke-linecap:butt;stroke-linejoin:miter;stroke-miterlimit:10;stroke-dasharray:none;stroke-opacity:1"
         d="m 0,0 c 2.191,0 3.968,-1.776 3.968,-3.968 0,-2.191 -1.777,-3.968 -3.968,-3.968 -2.191,0 -3.968,1.777 -3.968,3.968 C -3.965,-1.777 -2.19,-0.003 0,0 Z m 0,-9.265 c 2.925,0 5.297,2.371 5.297,5.297 0,2.925 -2.372,5.297 -5.297,5.297 -2.925,0 -5.297,-2.372 -5.297,-5.297 0.004,-2.924 2.373,-5.294 5.297,-5.297 z" />
    </g>
    <g
       transform="matrix(0.35277777,0,0,-0.35277777,98.617359,125.29294)"
       id="g1073"
       style="display:inline">
      <path
         id="path1075"
         style="fill:#ffffff;fill-opacity:1;fill-rule:nonzero;stroke:none"
         d="M 0,0 H 10.601 V -3.053 H 3.055 V -5.608 H 7.546 V -8.664 H 3.055 v -2.554 h 7.546 v -3.055 H 0 Z" />
    </g>
    <g
       transform="matrix(0.35277777,0,0,-0.35277777,110.84986,125.29294)"
       id="g1077"
       style="display:inline">
      <path
         id="path1079"
         style="fill:#ffffff;fill-opacity:1;fill-rule:nonzero;stroke:none"
         d="m 0,0 -4.891,-7.745 4.912,-6.528 h -3.834 l -2.995,3.972 -2.973,-3.972 h -3.813 L -8.703,-7.745 -13.654,0 h 3.752 L -6.808,-5.189 -3.813,0 Z" />
    </g>
    <g
       transform="matrix(0.35277777,0,0,-0.35277777,114.42088,125.29294)"
       id="g1081"
       style="display:inline">
      <path
         id="path1083"
         style="fill:#ffffff;fill-opacity:1;fill-rule:nonzero;stroke:none"
         d="M 0,0 H 10.601 V -3.053 H 3.055 v -2.555 h 4.49 v -3.056 h -4.49 v -2.554 h 7.546 v -3.055 H 0 Z" />
    </g>
    <g
       transform="matrix(0.35277777,0,0,-0.35277777,125.86461,128.3911)"
       id="g1085"
       style="display:inline">
      <path
         id="path1087"
         style="fill:#ffffff;fill-opacity:1;fill-rule:nonzero;stroke:none"
         d="M 0,0 2.216,-2.218 1.099,-3.335 C 0.406,-4.04 -0.383,-4.58 -1.267,-4.953 c -0.885,-0.373 -1.827,-0.552 -2.825,-0.538 -1.012,0 -1.96,0.192 -2.845,0.579 -0.884,0.387 -1.659,0.911 -2.326,1.577 -0.666,0.666 -1.19,1.439 -1.576,2.325 -0.387,0.885 -0.579,1.833 -0.579,2.845 0,1.012 0.192,1.964 0.579,2.855 0.386,0.892 0.91,1.67 1.576,2.336 0.667,0.665 1.442,1.19 2.326,1.578 0.885,0.384 1.833,0.579 2.845,0.579 0.985,0 1.926,-0.187 2.825,-0.56 C -0.369,8.25 0.419,7.718 1.099,7.026 L 2.216,5.928 0,3.713 -1.117,4.809 c -0.4,0.414 -0.856,0.718 -1.367,0.92 -0.513,0.199 -1.049,0.305 -1.608,0.319 -0.574,0 -1.115,-0.109 -1.628,-0.33 C -6.231,5.5 -6.677,5.197 -7.056,4.809 -7.435,4.424 -7.736,3.974 -7.956,3.463 -8.175,2.95 -8.284,2.408 -8.284,1.835 c 0,-0.572 0.109,-1.114 0.328,-1.625 0.22,-0.513 0.521,-0.96 0.9,-1.339 0.379,-0.379 0.825,-0.678 1.336,-0.899 0.513,-0.219 1.054,-0.33 1.628,-0.33 0.572,0 1.111,0.109 1.617,0.321 0.505,0.211 0.958,0.518 1.358,0.918 z" />
    </g>
  </g>
</svg>
