<?xml version="1.0" encoding="UTF-8" standalone="no"?>
<svg
   xmlns:dc="http://purl.org/dc/elements/1.1/"
   xmlns:cc="http://creativecommons.org/ns#"
   xmlns:rdf="http://www.w3.org/1999/02/22-rdf-syntax-ns#"
   xmlns:svg="http://www.w3.org/2000/svg"
   xmlns="http://www.w3.org/2000/svg"
   id="svg14862"
   version="1.1"
   viewBox="0 0 47.297947 68.506279"
   height="68.506279mm"
   width="47.297947mm">
  <defs
     id="defs14856" />
  <metadata
     id="metadata14859">
    <rdf:RDF>
      <cc:Work
         rdf:about="">
        <dc:format>image/svg+xml</dc:format>
        <dc:type
           rdf:resource="http://purl.org/dc/dcmitype/StillImage" />
        <dc:title></dc:title>
      </cc:Work>
    </rdf:RDF>
  </metadata>
  <g
     transform="translate(-53.458167,-107.77662)"
     id="layer1">
    <g
       transform="matrix(0.35277777,0,0,-0.35277777,69.078747,139.3038)"
       id="g905">
      <path
         id="path907"
         style="fill:#ffffff;fill-opacity:1;fill-rule:nonzero;stroke:none"
         d="m 0,0 c 0.008,2.688 1.085,5.262 2.995,7.153 1.909,1.892 4.493,2.945 7.181,2.927 h 3.815 c 2.682,0.016 5.26,-1.04 7.162,-2.932 C 23.055,5.256 24.122,2.684 24.119,0 V -1.26 H 0 Z M -1.015,-3.42 H 25.18 c 0.284,-0.012 0.559,0.091 0.766,0.284 0.207,0.194 0.326,0.462 0.332,0.745 V 0 c 0.004,3.256 -1.291,6.378 -3.598,8.676 -2.306,2.298 -5.434,3.58 -8.689,3.563 H 10.176 C 6.916,12.258 3.782,10.977 1.467,8.681 -0.847,6.384 -2.152,3.261 -2.16,0 v -2.391 c 0,-0.597 0.549,-1.029 1.145,-1.029" />
    </g>
    <g
       transform="matrix(0.35277777,0,0,-0.35277777,73.350327,128.81037)"
       id="g909">
      <path
         id="path911"
         style="fill:#ffffff;fill-opacity:1;fill-rule:nonzero;stroke:none"
         d="m 0,0 c 3.562,0 6.449,-2.887 6.449,-6.448 0,-3.562 -2.887,-6.448 -6.449,-6.448 -3.561,0 -6.448,2.886 -6.448,6.448 C -6.444,-2.889 -3.56,-0.005 0,0 m 0,-15.057 c 4.754,0 8.609,3.855 8.609,8.609 0,4.754 -3.855,8.608 -8.609,8.608 -4.754,0 -8.608,-3.854 -8.608,-8.608 0.005,-4.752 3.857,-8.603 8.608,-8.609" />
    </g>
    <path
       id="path913"
       style="fill:#ffffff;fill-opacity:1;fill-rule:nonzero;stroke:none;stroke-width:0.35277778"
       d="m 55.345427,126.34122 h 1.59209 v -0.98849 h -1.59209 z" />
    <path
       id="path915"
       style="fill:#ffffff;fill-opacity:1;fill-rule:nonzero;stroke:none;stroke-width:0.35277778"
       d="m 57.583447,135.46864 h 1.56528 v -0.98778 h -1.56528 z" />
    <g
       transform="matrix(0.35277777,0,0,-0.35277777,83.629457,122.20507)"
       id="g917">
      <path
         id="path919"
         style="fill:#ffffff;fill-opacity:1;fill-rule:nonzero;stroke:none"
         d="m 0,0 v -16.65 c -0.006,-0.362 0.135,-0.71 0.39,-0.966 0.255,-0.256 0.603,-0.398 0.964,-0.393 h 15.962 v -78.5 h -70.65 V 0 Z M 2.771,-2.049 12.98,-12.677 c 0.005,-0.057 -0.003,-0.123 0.004,-0.179 0.021,0.033 0.059,0.057 0.085,0.087 l 2.372,-2.469 H 2.771 Z M 30.295,21.438 C 29.43,19.931 28.637,18.551 27.775,17.05 23.849,30.661 10.234,37.054 -0.949,34.752 -6.017,33.709 -10.458,31.443 -13.99,27.663 -20.77,20.407 -22.468,12.025 -19.878,2.771 h -34.834 c -0.765,0.004 -1.389,-0.614 -1.392,-1.379 V -8.855 h -15.435 v -2.971 h 15.435 v -5.369 c -1.975,-0.016 -3.922,-0.026 -5.848,0.05 -1.501,0.06 -1.938,-0.527 -1.737,-1.873 0.053,-0.358 0.121,-0.714 0.202,-1.186 h 7.383 v -14.579 h -9.523 v -2.989 h 9.523 v -5.121 h -3.933 v -3.015 h 3.933 V -97.9 c 0.003,-0.766 0.627,-1.384 1.392,-1.379 h 73.406 c 0.766,-0.005 1.389,0.613 1.393,1.379 v 81.25 c -0.002,0.086 -0.011,0.171 -0.029,0.256 0,0.004 -0.002,0.008 -0.002,0.01 -0.018,0.082 -0.042,0.163 -0.073,0.241 l -0.005,0.014 c -0.032,0.075 -0.07,0.149 -0.114,0.217 l -0.01,0.018 c -0.045,0.068 -0.095,0.132 -0.15,0.191 -0.005,0.003 -0.007,0.009 -0.011,0.013 l -4.106,4.271 c 2.262,1.2 4.287,2.751 6.074,4.626 0.808,0.848 1.522,1.784 2.332,2.742 -0.82,0.582 -1.467,1.042 -2.204,1.567 -2.221,-2.894 -4.834,-5.233 -8.193,-6.862 L 2.354,2.353 C 2.351,2.354 2.347,2.357 2.343,2.361 2.325,2.38 2.306,2.397 2.288,2.413 2.273,2.427 2.258,2.441 2.243,2.454 2.222,2.473 2.199,2.489 2.175,2.507 2.162,2.517 2.149,2.526 2.136,2.536 2.105,2.557 2.073,2.576 2.04,2.595 2.034,2.599 2.028,2.6 2.021,2.603 1.816,2.715 1.586,2.772 1.354,2.771 H -17 c -0.914,2.48 -1.361,5.048 -1.366,7.681 -0.022,11.33 8.867,21.014 20.118,21.982 10.081,0.867 19.339,-5.023 22.824,-14.53 0.189,-0.514 0.316,-1.052 0.472,-1.579 l -0.205,-0.123 c -1.42,0.792 -2.84,1.584 -4.339,2.419 -0.45,-0.8 -0.851,-1.512 -1.298,-2.307 2.87,-1.634 5.632,-3.208 8.482,-4.831 1.655,2.9 3.262,5.715 4.924,8.628 -0.798,0.457 -1.53,0.877 -2.317,1.327" />
    </g>
    <g
       transform="matrix(0.35277777,0,0,-0.35277777,85.027307,118.0899)"
       id="g921">
      <path
         id="path923"
         style="fill:#ffffff;fill-opacity:1;fill-rule:nonzero;stroke:none"
         d="M 0,0 C 0.732,-0.038 1.283,-0.655 1.262,-1.411 1.241,-2.169 0.647,-2.74 -0.099,-2.722 -0.838,-2.704 -1.428,-2.097 -1.423,-1.36 -1.418,-0.586 -0.764,0.04 0,0 m -13.128,-2.739 c 2.77,0.053 5.541,0.006 8.312,0.029 0.604,0.006 0.985,-0.134 1.311,-0.713 0.857,-1.52 2.49,-2.227 4.185,-1.931 1.646,0.287 2.98,1.665 3.284,3.391 C 4.232,-0.442 3.425,1.245 1.938,2.101 1.418,2.399 1.23,2.74 1.239,3.327 1.269,5.421 1.25,7.515 1.25,9.609 c 0,2.126 -0.022,4.253 0.013,6.378 0.01,0.675 -0.213,0.959 -0.885,0.881 -0.158,-0.018 -0.321,0.002 -0.482,0.003 -1.291,0.01 -1.287,0.01 -1.286,-1.244 0.004,-4.091 -0.003,-8.183 0.017,-12.274 0.003,-0.574 -0.16,-0.909 -0.681,-1.234 -0.58,-0.362 -1.119,-0.89 -1.484,-1.467 -0.327,-0.516 -0.65,-0.678 -1.226,-0.673 -2.802,0.025 -5.606,-0.022 -8.408,0.031 -0.868,0.015 -1.189,-0.266 -1.067,-1.103 0.023,-0.157 0.023,-0.324 0,-0.482 -0.128,-0.87 0.198,-1.182 1.111,-1.164" />
    </g>
    <g
       transform="matrix(0.35277777,0,0,-0.35277777,90.250747,110.21479)"
       id="g925">
      <path
         id="path927"
         style="fill:#ffffff;fill-opacity:1;fill-rule:nonzero;stroke:none"
         d="M 0,0 C 0.486,0.782 0.917,1.477 1.344,2.163 -7.248,7.995 -19.512,8.136 -27.08,4.321 -26.773,3.597 -26.464,2.867 -26.11,2.032 -17.016,5.57 -8.349,4.892 0,0" />
    </g>
    <g
       transform="matrix(0.35277777,0,0,-0.35277777,75.043937,118.04445)"
       id="g929">
      <path
         id="path931"
         style="fill:#ffffff;fill-opacity:1;fill-rule:nonzero;stroke:none"
         d="m 0,0 c 0.233,4.425 1.482,8.544 3.708,12.366 0.593,1.018 1.256,1.993 1.919,3.038 C 4.924,15.948 4.275,16.45 3.567,16.997 -0.611,11.403 -2.69,5.271 -2.734,-1.637 -2.36,-1.666 -2.11,-1.707 -1.862,-1.703 0.115,-1.674 -0.105,-1.991 0,0" />
    </g>
    <g
       transform="matrix(0.35277777,0,0,-0.35277777,78.130037,111.41333)"
       id="g933">
      <path
         id="path935"
         style="fill:#ffffff;fill-opacity:1;fill-rule:nonzero;stroke:none"
         d="M 0,0 C 1.432,1.115 2.835,2.269 4.306,3.459 3.866,4.166 3.436,4.858 2.899,5.721 1.135,4.326 -0.502,3.031 -2.393,1.536 -1.688,0.953 -1.187,0.505 -0.646,0.11 -0.483,-0.01 -0.12,-0.094 0,0" />
    </g>
    <g
       transform="matrix(0.35277777,0,0,-0.35277777,91.739397,122.45518)"
       id="g937">
      <path
         id="path939"
         style="fill:#ffffff;fill-opacity:1;fill-rule:nonzero;stroke:none"
         d="M 0,0 C 0.782,-0.453 1.488,-0.861 2.305,-1.335 2.869,-0.149 3.37,0.902 3.924,2.064 3.033,2.412 2.273,2.709 1.452,3.03 0.949,1.979 0.487,1.018 0,0" />
    </g>
    <g
       transform="matrix(0.35277777,0,0,-0.35277777,92.699197,110.99235)"
       id="g941">
      <path
         id="path943"
         style="fill:#ffffff;fill-opacity:1;fill-rule:nonzero;stroke:none"
         d="M 0,0 C -0.989,0.871 -1.84,1.62 -2.743,2.416 -3.337,1.667 -3.832,1.043 -4.381,0.351 -3.526,-0.421 -2.732,-1.138 -2.099,-1.71 -1.338,-1.091 -0.703,-0.572 0,0" />
    </g>
    <g
       transform="matrix(0.35277777,0,0,-0.35277777,68.600557,145.85499)"
       id="g945">
      <path
         id="path947"
         style="fill:#ffffff;fill-opacity:1;fill-rule:nonzero;stroke:none"
         d="m 0,0 h 44.68 c 0.765,0 1.385,0.405 1.385,0.905 0,0.5 -0.62,0.906 -1.385,0.906 H 0 C -0.765,1.811 -1.385,1.405 -1.385,0.905 -1.385,0.405 -0.765,0 0,0" />
    </g>
    <g
       transform="matrix(0.35277777,0,0,-0.35277777,68.600557,149.10198)"
       id="g949">
      <path
         id="path951"
         style="fill:#ffffff;fill-opacity:1;fill-rule:nonzero;stroke:none"
         d="m 0,0 h 44.68 c 0.765,0 1.385,0.405 1.385,0.905 0,0.5 -0.62,0.906 -1.385,0.906 H 0 C -0.765,1.811 -1.385,1.405 -1.385,0.905 -1.385,0.405 -0.765,0 0,0" />
    </g>
    <g
       transform="matrix(0.35277777,0,0,-0.35277777,68.600557,152.34897)"
       id="g953">
      <path
         id="path955"
         style="fill:#ffffff;fill-opacity:1;fill-rule:nonzero;stroke:none"
         d="m 0,0 h 44.68 c 0.765,0 1.385,0.405 1.385,0.905 0,0.5 -0.62,0.906 -1.385,0.906 H 0 C -0.765,1.811 -1.385,1.405 -1.385,0.905 -1.385,0.405 -0.765,0 0,0" />
    </g>
    <g
       transform="matrix(0.35277777,0,0,-0.35277777,53.458167,171.24739)"
       id="g957">
      <path
         id="path959"
         style="fill:#ffffff;fill-opacity:1;fill-rule:nonzero;stroke:none"
         d="M 0,0 H 10.601 V -3.055 H 3.055 v -2.554 h 4.49 v -3.055 h -4.49 v -2.554 h 7.546 v -3.055 H 0 Z" />
    </g>
    <g
       transform="matrix(0.35277777,0,0,-0.35277777,65.690497,171.24739)"
       id="g961">
      <path
         id="path963"
         style="fill:#ffffff;fill-opacity:1;fill-rule:nonzero;stroke:none"
         d="m 0,0 -4.891,-7.745 4.912,-6.528 h -3.834 l -2.995,3.971 -2.973,-3.971 h -3.812 l 4.89,6.528 L -13.654,0 h 3.753 L -6.808,-5.189 -3.813,0 Z" />
    </g>
    <g
       transform="matrix(0.35277777,0,0,-0.35277777,71.008167,173.8319)"
       id="g965">
      <path
         id="path967"
         style="fill:#ffffff;fill-opacity:1;fill-rule:nonzero;stroke:none"
         d="M 0,0 C 0.293,0 0.569,0.057 0.829,0.169 1.087,0.282 1.315,0.436 1.507,0.63 1.699,0.822 1.853,1.047 1.965,1.308 2.08,1.567 2.136,1.844 2.136,2.137 2.136,2.428 2.08,2.706 1.965,2.964 1.853,3.225 1.699,3.449 1.507,3.644 1.315,3.836 1.087,3.989 0.829,4.103 0.569,4.215 0.293,4.271 0,4.271 H -1.896 V 0 Z M 0,7.326 C 0.718,7.326 1.391,7.19 2.016,6.917 2.641,6.645 3.191,6.271 3.663,5.8 4.135,5.326 4.508,4.778 4.782,4.152 5.054,3.527 5.189,2.855 5.189,2.137 5.189,1.418 5.054,0.746 4.782,0.121 4.508,-0.507 4.135,-1.055 3.663,-1.526 3.191,-2 2.641,-2.373 2.016,-2.645 1.391,-2.919 0.718,-3.055 0,-3.055 H -1.896 V -6.947 H -4.951 V 7.326 Z" />
    </g>
    <g
       transform="matrix(0.35277777,0,0,-0.35277777,77.261717,173.82502)"
       id="g969">
      <path
         id="path971"
         style="fill:#ffffff;fill-opacity:1;fill-rule:nonzero;stroke:none"
         d="M 0,0 H 1.896 C 2.189,0 2.464,0.057 2.725,0.171 2.983,0.284 3.21,0.437 3.403,0.63 3.595,0.821 3.749,1.049 3.861,1.308 3.976,1.567 4.032,1.844 4.032,2.137 4.032,2.43 3.976,2.706 3.861,2.964 3.749,3.225 3.595,3.451 3.403,3.644 3.21,3.836 2.983,3.989 2.725,4.103 2.464,4.217 2.189,4.273 1.896,4.273 H 0 Z M -3.055,7.326 H 1.896 C 2.614,7.326 3.286,7.19 3.912,6.918 4.537,6.645 5.086,6.275 5.559,5.81 6.03,5.343 6.403,4.796 6.677,4.162 6.949,3.531 7.085,2.855 7.085,2.137 7.085,1.591 7.005,1.072 6.846,0.579 6.687,0.088 6.463,-0.369 6.178,-0.788 5.891,-1.208 5.553,-1.577 5.16,-1.896 4.766,-2.216 4.331,-2.475 3.851,-2.674 L 6.566,-6.967 H 3.014 L 0.639,-3.094 H 0 v -3.853 h -3.055 z" />
    </g>
    <g
       transform="matrix(0.35277777,0,0,-0.35277777,83.204857,171.24739)"
       id="g973">
      <path
         id="path975"
         style="fill:#ffffff;fill-opacity:1;fill-rule:nonzero;stroke:none"
         d="M 0,0 H 10.601 V -3.055 H 3.055 v -2.554 h 4.49 v -3.055 h -4.49 v -2.554 h 7.546 v -3.055 H 0 Z" />
    </g>
    <g
       transform="matrix(0.35277777,0,0,-0.35277777,93.054197,173.30757)"
       id="g977">
      <path
         id="path979"
         style="fill:#ffffff;fill-opacity:1;fill-rule:nonzero;stroke:none"
         d="M 0,0 C 0.565,-0.247 1.055,-0.577 1.468,-0.991 1.88,-1.404 2.202,-1.884 2.436,-2.432 2.668,-2.978 2.771,-3.559 2.744,-4.172 2.719,-4.772 2.579,-5.33 2.327,-5.843 2.072,-6.355 1.734,-6.806 1.307,-7.192 0.882,-7.579 0.386,-7.884 -0.179,-8.104 c -0.567,-0.218 -1.169,-0.33 -1.808,-0.33 h -0.159 c -0.837,0.028 -1.614,0.244 -2.325,0.65 -0.713,0.405 -1.26,0.961 -1.647,1.666 l -0.779,1.298 2.835,1.458 0.758,-1.338 c 0.266,-0.453 0.686,-0.692 1.259,-0.719 0.212,-0.014 0.411,0.014 0.598,0.079 0.186,0.067 0.349,0.164 0.489,0.29 0.14,0.126 0.253,0.274 0.34,0.439 0.086,0.167 0.136,0.343 0.15,0.53 0,0.371 -0.14,0.711 -0.42,1.018 -0.293,0.293 -0.647,0.439 -1.058,0.439 l -0.3,0.02 c -0.652,0.027 -1.258,0.166 -1.816,0.418 -0.559,0.253 -1.044,0.587 -1.458,0.999 -0.412,0.412 -0.734,0.891 -0.967,1.437 -0.233,0.546 -0.336,1.119 -0.311,1.717 0.014,0.612 0.153,1.181 0.42,1.708 0.266,0.524 0.619,0.98 1.058,1.367 0.439,0.387 0.956,0.682 1.548,0.888 0.59,0.205 1.22,0.302 1.886,0.289 C -1.061,6.193 -0.293,5.976 0.419,5.57 1.132,5.164 1.68,4.608 2.066,3.903 L -0.748,2.485 C -1.014,2.938 -1.434,3.177 -2.006,3.204 -2.432,3.218 -2.795,3.096 -3.094,2.837 -3.393,2.581 -3.556,2.261 -3.583,1.878 c 0,-0.187 0.033,-0.365 0.101,-0.536 0.065,-0.171 0.172,-0.33 0.318,-0.476 0.293,-0.292 0.645,-0.435 1.059,-0.435 L -1.826,0.409 C -1.175,0.385 -0.565,0.246 0,0" />
    </g>
    <g
       transform="matrix(0.35277777,0,0,-0.35277777,99.786607,173.30757)"
       id="g981">
      <path
         id="path983"
         style="fill:#ffffff;fill-opacity:1;fill-rule:nonzero;stroke:none"
         d="M 0,0 C 0.565,-0.247 1.055,-0.577 1.468,-0.991 1.88,-1.404 2.203,-1.884 2.436,-2.432 2.668,-2.978 2.771,-3.559 2.744,-4.172 2.719,-4.772 2.579,-5.33 2.327,-5.843 2.072,-6.355 1.734,-6.806 1.307,-7.192 0.882,-7.579 0.387,-7.884 -0.179,-8.104 c -0.567,-0.218 -1.169,-0.33 -1.808,-0.33 h -0.159 c -0.837,0.028 -1.614,0.244 -2.325,0.65 -0.713,0.405 -1.26,0.961 -1.647,1.666 l -0.779,1.298 2.836,1.458 0.757,-1.338 c 0.266,-0.453 0.686,-0.692 1.259,-0.719 0.212,-0.014 0.412,0.014 0.598,0.079 0.187,0.067 0.35,0.164 0.489,0.29 0.14,0.126 0.253,0.274 0.34,0.439 0.086,0.167 0.137,0.343 0.15,0.53 0,0.371 -0.14,0.711 -0.42,1.018 -0.293,0.293 -0.646,0.439 -1.058,0.439 l -0.299,0.02 c -0.653,0.027 -1.259,0.166 -1.816,0.418 -0.56,0.253 -1.045,0.587 -1.459,0.999 -0.412,0.412 -0.734,0.891 -0.967,1.437 -0.233,0.546 -0.336,1.119 -0.311,1.717 0.014,0.612 0.154,1.181 0.42,1.708 0.266,0.524 0.619,0.98 1.058,1.367 0.439,0.387 0.956,0.682 1.548,0.888 0.591,0.205 1.22,0.302 1.886,0.289 C -1.061,6.193 -0.293,5.976 0.419,5.57 1.132,5.164 1.68,4.608 2.066,3.903 L -0.748,2.485 C -1.014,2.938 -1.433,3.177 -2.006,3.204 -2.432,3.218 -2.795,3.096 -3.094,2.837 -3.393,2.581 -3.556,2.261 -3.583,1.878 c 0,-0.187 0.033,-0.365 0.101,-0.536 0.065,-0.171 0.172,-0.33 0.318,-0.476 0.293,-0.292 0.645,-0.435 1.059,-0.435 L -1.826,0.409 C -1.175,0.385 -0.565,0.246 0,0" />
    </g>
  </g>
</svg>
