<svg width="12.464mm" height="1.3622mm" version="1.1" viewBox="0 0 12.464 1.3622" xmlns="http://www.w3.org/2000/svg">
 <g transform="translate(-78.888 -106.13)">
  <g transform="matrix(.35278 0 0 -.35278 78.888 106.17)">
   <path d="m0 0h2.793v-0.805h-1.988v-0.673h1.183v-0.805h-1.183v-0.673h1.988v-0.805h-2.793z" fill="#231f20"/>
  </g>
  <g transform="matrix(.35278 0 0 -.35278 82.111 106.17)">
   <path d="m0 0-1.289-2.041 1.295-1.72h-1.01l-0.789 1.046-0.784-1.046h-1.005l1.289 1.72-1.305 2.041h0.989l0.816-1.367 0.789 1.367z" fill="#231f20"/>
  </g>
  <g transform="matrix(.35278 0 0 -.35278 83.512 106.85)">
   <path d="m0 0c0.078 0 0.15 0.016 0.219 0.045 0.068 0.029 0.128 0.07 0.178 0.121 0.051 0.051 0.091 0.11 0.121 0.179 0.03 0.068 0.045 0.141 0.045 0.218s-0.015 0.15-0.045 0.218c-0.03 0.069-0.07 0.128-0.121 0.18-0.05 0.05-0.11 0.091-0.178 0.12-0.069 0.03-0.141 0.045-0.219 0.045h-0.5v-1.126zm0 1.931c0.189 0 0.367-0.035 0.531-0.108 0.165-0.072 0.31-0.17 0.434-0.295 0.125-0.125 0.223-0.268 0.295-0.433s0.108-0.342 0.108-0.532c0-0.189-0.036-0.366-0.108-0.531s-0.17-0.309-0.295-0.434c-0.124-0.124-0.269-0.223-0.434-0.294-0.164-0.073-0.342-0.109-0.531-0.109h-0.5v-1.025h-0.804v3.761z" fill="#231f20"/>
  </g>
  <g transform="matrix(.35278 0 0 -.35278 85.16 106.85)">
   <path d="m0 0h0.5c0.077 0 0.149 0.015 0.218 0.045 0.068 0.029 0.128 0.069 0.179 0.12 0.05 0.051 0.091 0.111 0.121 0.179 0.03 0.069 0.044 0.141 0.044 0.218 0 0.078-0.014 0.151-0.044 0.218-0.03 0.07-0.071 0.129-0.121 0.18-0.051 0.051-0.111 0.091-0.179 0.12-0.069 0.03-0.141 0.046-0.218 0.046h-0.5zm-0.805 1.93h1.305c0.189 0 0.366-0.035 0.531-0.108 0.165-0.072 0.309-0.169 0.434-0.292 0.124-0.123 0.222-0.266 0.295-0.433 0.072-0.167 0.107-0.345 0.107-0.535 0-0.143-0.021-0.28-0.063-0.41s-0.101-0.25-0.176-0.36c-0.076-0.11-0.165-0.208-0.268-0.292-0.104-0.084-0.218-0.152-0.345-0.205l0.715-1.131h-0.936l-0.626 1.021h-0.168v-1.016h-0.805z" fill="#231f20"/>
  </g>
  <g transform="matrix(.35278 0 0 -.35278 86.726 106.17)">
   <path d="m0 0h2.793v-0.805h-1.988v-0.673h1.183v-0.805h-1.183v-0.673h1.988v-0.805h-2.793z" fill="#231f20"/>
  </g>
  <g transform="matrix(.35278 0 0 -.35278 89.322 106.71)">
   <path d="m0 0c0.149-0.064 0.278-0.151 0.387-0.261 0.108-0.109 0.193-0.235 0.255-0.38 0.061-0.143 0.088-0.296 0.081-0.458-7e-3 -0.158-0.043-0.305-0.11-0.44-0.067-0.136-0.156-0.254-0.269-0.356-0.112-0.102-0.242-0.182-0.391-0.24-0.15-0.057-0.308-0.087-0.477-0.087h-0.042c-0.22 7e-3 -0.425 0.064-0.612 0.171-0.188 0.107-0.333 0.253-0.434 0.439l-0.205 0.341 0.747 0.385 0.199-0.352c0.07-0.119 0.181-0.183 0.332-0.19 0.056-4e-3 0.108 4e-3 0.158 0.022 0.048 0.016 0.091 0.043 0.129 0.076 0.036 0.033 0.066 0.072 0.089 0.115 0.022 0.044 0.036 0.091 0.039 0.14 0 0.097-0.036 0.187-0.11 0.268-0.078 0.078-0.17 0.116-0.279 0.116l-0.079 4e-3c-0.172 8e-3 -0.331 0.045-0.478 0.112-0.148 0.066-0.276 0.154-0.385 0.263-0.108 0.108-0.193 0.235-0.254 0.378-0.062 0.144-0.089 0.295-0.083 0.453 4e-3 0.161 0.041 0.311 0.111 0.45 0.07 0.137 0.163 0.258 0.279 0.36s0.252 0.18 0.408 0.233c0.156 0.055 0.321 0.081 0.497 0.077 0.217-6e-3 0.419-0.064 0.607-0.171s0.332-0.253 0.434-0.439l-0.741-0.374c-0.07 0.119-0.181 0.183-0.332 0.19-0.112 4e-3 -0.208-0.029-0.286-0.097-0.08-0.067-0.122-0.152-0.129-0.253 0-0.049 8e-3 -0.096 0.026-0.141s0.046-0.087 0.084-0.125c0.077-0.078 0.17-0.115 0.279-0.115l0.074-6e-3c0.171-6e-3 0.332-0.043 0.481-0.108" fill="#231f20"/>
  </g>
  <g transform="matrix(.35278 0 0 -.35278 91.096 106.71)">
   <path d="m0 0c0.149-0.064 0.278-0.151 0.387-0.261 0.109-0.109 0.194-0.235 0.255-0.38 0.061-0.143 0.088-0.296 0.081-0.458-6e-3 -0.158-0.043-0.305-0.11-0.44-0.067-0.136-0.156-0.254-0.268-0.356-0.113-0.102-0.243-0.182-0.392-0.24-0.149-0.057-0.308-0.087-0.476-0.087h-0.042c-0.221 7e-3 -0.426 0.064-0.613 0.171-0.188 0.107-0.332 0.253-0.434 0.439l-0.205 0.341 0.747 0.385 0.199-0.352c0.071-0.119 0.181-0.183 0.332-0.19 0.056-4e-3 0.109 4e-3 0.158 0.022 0.049 0.016 0.092 0.043 0.129 0.076s0.066 0.072 0.089 0.115c0.023 0.044 0.036 0.091 0.039 0.14 0 0.097-0.036 0.187-0.11 0.268-0.077 0.078-0.17 0.116-0.279 0.116l-0.079 4e-3c-0.172 8e-3 -0.331 0.045-0.478 0.112-0.148 0.066-0.276 0.154-0.385 0.263-0.108 0.108-0.193 0.235-0.254 0.378-0.062 0.144-0.089 0.295-0.083 0.453 4e-3 0.161 0.041 0.311 0.111 0.45 0.07 0.137 0.163 0.258 0.279 0.36s0.252 0.18 0.408 0.233c0.156 0.055 0.322 0.081 0.497 0.077 0.218-6e-3 0.42-0.064 0.607-0.171 0.188-0.107 0.333-0.253 0.434-0.439l-0.741-0.374c-0.07 0.119-0.18 0.183-0.332 0.19-0.112 4e-3 -0.207-0.029-0.286-0.097-0.079-0.067-0.122-0.152-0.129-0.253 0-0.049 8e-3 -0.096 0.027-0.141 0.017-0.045 0.045-0.087 0.084-0.125 0.077-0.078 0.169-0.115 0.278-0.115l0.074-6e-3c0.171-6e-3 0.332-0.043 0.481-0.108" fill="#231f20"/>
  </g>
 </g>
</svg>
