<svg width="39.789mm" height="49.452mm" version="1.1" viewBox="0 0 39.789 49.452" xmlns="http://www.w3.org/2000/svg">
 <g transform="translate(-94.464 -57.197)">
  <g transform="matrix(.35278 0 0 -.35278 108.2 88.724)">
   <path d="m0 0c8e-3 2.688 1.085 5.262 2.995 7.153 1.909 1.892 4.493 2.945 7.181 2.927h3.815c2.682 0.016 5.26-1.04 7.162-2.932s2.969-4.464 2.966-7.148v-1.26h-24.119zm-1.015-3.42h26.195c0.284-0.012 0.559 0.091 0.766 0.284 0.207 0.194 0.326 0.462 0.332 0.745v2.391c4e-3 3.256-1.291 6.378-3.598 8.676-2.306 2.298-5.434 3.58-8.689 3.563h-3.815c-3.26 0.019-6.394-1.262-8.709-3.558-2.314-2.297-3.619-5.42-3.627-8.681v-2.391c0-0.597 0.549-1.029 1.145-1.029"/>
  </g>
  <g transform="matrix(.35278 0 0 -.35278 112.47 78.231)">
   <path d="m0 0c3.562 0 6.449-2.887 6.449-6.448 0-3.562-2.887-6.448-6.449-6.448-3.561 0-6.448 2.886-6.448 6.448 4e-3 3.559 2.888 6.443 6.448 6.448m0-15.057c4.754 0 8.609 3.855 8.609 8.609s-3.855 8.608-8.609 8.608-8.608-3.854-8.608-8.608c5e-3 -4.752 3.857-8.603 8.608-8.609"/>
  </g>
  <path d="m94.464 75.762h1.5921v-0.98849h-1.5921z"/>
  <path d="m96.702 84.889h1.5653v-0.98778h-1.5653z"/>
  <g transform="matrix(.35278 0 0 -.35278 122.75 71.626)">
   <path d="m0 0v-16.65c-6e-3 -0.362 0.135-0.71 0.39-0.966s0.603-0.398 0.964-0.393h15.962v-78.5h-70.65v96.509zm2.771-2.049 10.209-10.628c5e-3 -0.057-3e-3 -0.123 4e-3 -0.179 0.021 0.033 0.059 0.057 0.085 0.087l2.372-2.469h-12.67zm27.524 23.487c-0.865-1.507-1.658-2.887-2.52-4.388-3.926 13.611-17.541 20.004-28.724 17.702-5.068-1.043-9.509-3.309-13.041-7.089-6.78-7.256-8.478-15.638-5.888-24.892h-34.834c-0.765 4e-3 -1.389-0.614-1.392-1.379v-10.247h-15.435v-2.971h15.435v-5.369c-1.975-0.016-3.922-0.026-5.848 0.05-1.501 0.06-1.938-0.527-1.737-1.873 0.053-0.358 0.121-0.714 0.202-1.186h7.383v-14.579h-9.523v-2.989h9.523v-5.121h-3.933v-3.015h3.933v-51.992c3e-3 -0.766 0.627-1.384 1.392-1.379h73.406c0.766-5e-3 1.389 0.613 1.393 1.379v81.25c-2e-3 0.086-0.011 0.171-0.029 0.256 0 4e-3 -2e-3 8e-3 -2e-3 0.01-0.018 0.082-0.042 0.163-0.073 0.241l-5e-3 0.014c-0.032 0.075-0.07 0.149-0.114 0.217l-0.01 0.018c-0.045 0.068-0.095 0.132-0.15 0.191-5e-3 3e-3 -7e-3 9e-3 -0.011 0.013l-4.106 4.271c2.262 1.2 4.287 2.751 6.074 4.626 0.808 0.848 1.522 1.784 2.332 2.742-0.82 0.582-1.467 1.042-2.204 1.567-2.221-2.894-4.834-5.233-8.193-6.862l-11.242 11.699c-3e-3 1e-3 -7e-3 4e-3 -0.011 8e-3 -0.018 0.019-0.037 0.036-0.055 0.052-0.015 0.014-0.03 0.028-0.045 0.041-0.021 0.019-0.044 0.035-0.068 0.053-0.013 0.01-0.026 0.019-0.039 0.029-0.031 0.021-0.063 0.04-0.096 0.059-6e-3 4e-3 -0.012 5e-3 -0.019 8e-3 -0.205 0.112-0.435 0.169-0.667 0.168h-18.354c-0.914 2.48-1.361 5.048-1.366 7.681-0.022 11.33 8.867 21.014 20.118 21.982 10.081 0.867 19.339-5.023 22.824-14.53 0.189-0.514 0.316-1.052 0.472-1.579l-0.205-0.123c-1.42 0.792-2.84 1.584-4.339 2.419-0.45-0.8-0.851-1.512-1.298-2.307 2.87-1.634 5.632-3.208 8.482-4.831 1.655 2.9 3.262 5.715 4.924 8.628-0.798 0.457-1.53 0.877-2.317 1.327"/>
  </g>
  <g transform="matrix(.35278 0 0 -.35278 124.15 67.51)">
   <path d="m0 0c0.732-0.038 1.283-0.655 1.262-1.411-0.021-0.758-0.615-1.329-1.361-1.311-0.739 0.018-1.329 0.625-1.324 1.362 5e-3 0.774 0.659 1.4 1.423 1.36m-13.128-2.739c2.77 0.053 5.541 6e-3 8.312 0.029 0.604 6e-3 0.985-0.134 1.311-0.713 0.857-1.52 2.49-2.227 4.185-1.931 1.646 0.287 2.98 1.665 3.284 3.391 0.268 1.521-0.539 3.208-2.026 4.064-0.52 0.298-0.708 0.639-0.699 1.226 0.03 2.094 0.011 4.188 0.011 6.282 0 2.126-0.022 4.253 0.013 6.378 0.01 0.675-0.213 0.959-0.885 0.881-0.158-0.018-0.321 2e-3 -0.482 3e-3 -1.291 0.01-1.287 0.01-1.286-1.244 4e-3 -4.091-3e-3 -8.183 0.017-12.274 3e-3 -0.574-0.16-0.909-0.681-1.234-0.58-0.362-1.119-0.89-1.484-1.467-0.327-0.516-0.65-0.678-1.226-0.673-2.802 0.025-5.606-0.022-8.408 0.031-0.868 0.015-1.189-0.266-1.067-1.103 0.023-0.157 0.023-0.324 0-0.482-0.128-0.87 0.198-1.182 1.111-1.164"/>
  </g>
  <g transform="matrix(.35278 0 0 -.35278 129.37 59.635)">
   <path d="m0 0c0.486 0.782 0.917 1.477 1.344 2.163-8.592 5.832-20.856 5.973-28.424 2.158 0.307-0.724 0.616-1.454 0.97-2.289 9.094 3.538 17.761 2.86 26.11-2.032"/>
  </g>
  <g transform="matrix(.35278 0 0 -.35278 114.16 67.465)">
   <path d="m0 0c0.233 4.425 1.482 8.544 3.708 12.366 0.593 1.018 1.256 1.993 1.919 3.038-0.703 0.544-1.352 1.046-2.06 1.593-4.178-5.594-6.257-11.726-6.301-18.634 0.374-0.029 0.624-0.07 0.872-0.066 1.977 0.029 1.757-0.288 1.862 1.703"/>
  </g>
  <g transform="matrix(.35278 0 0 -.35278 117.25 60.834)">
   <path d="m0 0c1.432 1.115 2.835 2.269 4.306 3.459-0.44 0.707-0.87 1.399-1.407 2.262-1.764-1.395-3.401-2.69-5.292-4.185 0.705-0.583 1.206-1.031 1.747-1.426 0.163-0.12 0.526-0.204 0.646-0.11"/>
  </g>
  <g transform="matrix(.35278 0 0 -.35278 130.86 71.876)">
   <path d="M 0,0 C 0.782,-0.453 1.488,-0.861 2.305,-1.335 2.869,-0.149 3.37,0.902 3.924,2.064 3.033,2.412 2.273,2.709 1.452,3.03 0.949,1.979 0.487,1.018 0,0"/>
  </g>
  <g transform="matrix(.35278 0 0 -.35278 131.82 60.413)">
   <path d="m0 0c-0.989 0.871-1.84 1.62-2.743 2.416-0.594-0.749-1.089-1.373-1.638-2.065 0.855-0.772 1.649-1.489 2.282-2.061 0.761 0.619 1.396 1.138 2.099 1.71"/>
  </g>
  <g transform="matrix(.35278 0 0 -.35278 107.72 95.276)">
   <path d="m0 0h44.68c0.765 0 1.385 0.405 1.385 0.905s-0.62 0.906-1.385 0.906h-44.68c-0.765 0-1.385-0.406-1.385-0.906s0.62-0.905 1.385-0.905"/>
  </g>
  <g transform="matrix(.35278 0 0 -.35278 107.72 98.523)">
   <path d="m0 0h44.68c0.765 0 1.385 0.405 1.385 0.905s-0.62 0.906-1.385 0.906h-44.68c-0.765 0-1.385-0.406-1.385-0.906s0.62-0.905 1.385-0.905"/>
  </g>
  <g transform="matrix(.35278 0 0 -.35278 107.72 101.77)">
   <path d="m0 0h44.68c0.765 0 1.385 0.405 1.385 0.905s-0.62 0.906-1.385 0.906h-44.68c-0.765 0-1.385-0.406-1.385-0.906s0.62-0.905 1.385-0.905"/>
  </g>
 </g>
</svg>
