<svg xmlns="http://www.w3.org/2000/svg" width="26.841" height="26.842" viewBox="0 0 26.841 26.842"><defs><style>.a{fill:#a6a8ab;}</style></defs><g transform="translate(-1160.953 -371.722)"><path class="a" d="M1184.649,371.722H1164.1a3.149,3.149,0,0,0-3.145,3.146v20.55a3.149,3.149,0,0,0,3.145,3.146h20.551a3.149,3.149,0,0,0,3.145-3.146v-20.55A3.149,3.149,0,0,0,1184.649,371.722Zm1.048,23.7a1.05,1.05,0,0,1-1.048,1.049h-5.976v-8.546h3.239l.535-3.25h-3.774v-2.254a1.546,1.546,0,0,1,1.572-1.573h2.15v-3.25h-2.15a4.822,4.822,0,0,0-4.822,4.832v2.245h-3.146v3.25h3.146v8.546H1164.1a1.05,1.05,0,0,1-1.048-1.049v-20.55a1.05,1.05,0,0,1,1.048-1.049h20.551a1.05,1.05,0,0,1,1.048,1.049Z"/></g></svg>