<svg xmlns="http://www.w3.org/2000/svg" width="26.547" height="26.547" viewBox="0 0 26.547 26.547"><defs><style>.a{fill:#a6a8ab;}</style></defs><g transform="translate(-1261.076 -371.942)"><path class="a" d="M1261.076,373.151V397.28a1.209,1.209,0,0,0,1.209,1.209h24.129a1.209,1.209,0,0,0,1.209-1.209V373.151a1.209,1.209,0,0,0-1.209-1.209h-24.129A1.209,1.209,0,0,0,1261.076,373.151Zm23.193,23.193H1264.43a1.209,1.209,0,0,1-1.209-1.209V375.3a1.209,1.209,0,0,1,1.209-1.209h19.839a1.209,1.209,0,0,1,1.209,1.209v19.839A1.209,1.209,0,0,1,1284.269,396.344Z"/><path class="a" d="M1270.807,381.317a3.435,3.435,0,0,1,2.481.973l1.685-1.6a5.748,5.748,0,0,0-4.166-1.685,6.2,6.2,0,0,0,0,12.406,5.7,5.7,0,0,0,5.939-6.023,3.948,3.948,0,0,0-.089-1.062h-5.85v2.125h3.543a3.4,3.4,0,0,1-3.543,2.658,3.9,3.9,0,0,1,0-7.8Z"/><path class="a" d="M1280.551,387.874h1.773V386.1h1.774v-1.769h-1.774v-1.774h-1.773v1.774h-1.769V386.1h1.769Z"/></g></svg>