<?xml version="1.0" encoding="UTF-8" standalone="no"?>
<svg
   xmlns:dc="http://purl.org/dc/elements/1.1/"
   xmlns:cc="http://creativecommons.org/ns#"
   xmlns:rdf="http://www.w3.org/1999/02/22-rdf-syntax-ns#"
   xmlns:svg="http://www.w3.org/2000/svg"
   xmlns="http://www.w3.org/2000/svg"
   id="svg4520"
   version="1.1"
   viewBox="0 0 50.308609 38.751827"
   height="38.751827mm"
   width="50.308609mm">
  <defs
     id="defs4514" />
  <metadata
     id="metadata4517">
    <rdf:RDF>
      <cc:Work
         rdf:about="">
        <dc:format>image/svg+xml</dc:format>
        <dc:type
           rdf:resource="http://purl.org/dc/dcmitype/StillImage" />
        <dc:title></dc:title>
      </cc:Work>
    </rdf:RDF>
  </metadata>
  <g
     transform="translate(-130.57188,-152.13599)"
     id="layer1">
    <g
       transform="matrix(0.35277777,0,0,-0.35277777,131.08306,153.20136)"
       id="g170">
      <path
         id="path172"
         style="fill:#000000;fill-opacity:1;fill-rule:nonzero;stroke:none"
         d="m 0,0 c 24.186,-0.001 54.053,2.691 75,-11.925 8.359,-5.832 13.918,-14.109 18.72,-22.915 5.648,-10.357 10.891,-20.932 16.422,-31.353 5,-9.42 9.865,-19.855 17.053,-27.859 1.293,-1.439 3.41,0.688 2.121,2.121 -6.862,7.642 -11.504,17.702 -16.286,26.692 -5.715,10.746 -11.106,21.668 -16.954,32.343 -4.566,8.337 -9.832,16.111 -17.437,21.998 C 69.94,-4.166 59.376,-0.784 48.62,0.886 32.588,3.377 16.175,2.999 0,3 -1.93,3 -1.934,0 0,0" />
    </g>
    <g
       transform="matrix(0.35277777,0,0,-0.35277777,172.16582,189.53608)"
       id="g174">
      <path
         id="path176"
         style="fill:#000000;fill-opacity:1;fill-rule:nonzero;stroke:none"
         d="m 0,0 c 7.578,-1.269 15.156,-2.536 22.735,-3.805 0.948,-0.158 1.896,0.393 1.899,1.447 0.023,8.242 0.046,16.484 0.069,24.726 0.006,1.931 -2.994,1.933 -3,0 -0.023,-8.242 -0.046,-16.484 -0.069,-24.726 0.633,0.482 1.265,0.964 1.898,1.446 C 15.954,0.356 8.376,1.624 0.798,2.893 -1.091,3.208 -1.902,0.318 0,0" />
    </g>
  </g>
</svg>
