<?xml version="1.0" encoding="UTF-8" standalone="no"?>
<svg
   xmlns:dc="http://purl.org/dc/elements/1.1/"
   xmlns:cc="http://creativecommons.org/ns#"
   xmlns:rdf="http://www.w3.org/1999/02/22-rdf-syntax-ns#"
   xmlns:svg="http://www.w3.org/2000/svg"
   xmlns="http://www.w3.org/2000/svg"
   id="svg5124"
   version="1.1"
   viewBox="0 0 33.200241 18.841377"
   height="18.841377mm"
   width="33.200241mm">
  <defs
     id="defs5118" />
  <metadata
     id="metadata5121">
    <rdf:RDF>
      <cc:Work
         rdf:about="">
        <dc:format>image/svg+xml</dc:format>
        <dc:type
           rdf:resource="http://purl.org/dc/dcmitype/StillImage" />
        <dc:title></dc:title>
      </cc:Work>
    </rdf:RDF>
  </metadata>
  <g
     transform="translate(-117.9594,-133.36503)"
     id="layer1">
    <g
       transform="matrix(0.35277777,0,0,-0.35277777,117.96581,134.02937)"
       id="g250">
      <path
         id="path252"
         style="fill:#000000;fill-opacity:1;fill-rule:nonzero;stroke:none"
         d="m 0,0 c 5.355,-37.043 51.179,-27.608 74.854,-44.723 1.567,-1.132 3.066,1.469 1.514,2.591 -12.5,9.036 -28.036,10.938 -42.627,14.536 -6.761,1.668 -13.716,3.707 -19.447,7.806 C 7.379,-14.846 4.083,-7.431 2.894,0.797 2.618,2.7 -0.273,1.891 0,0" />
    </g>
    <g
       transform="matrix(0.35277777,0,0,-0.35277777,140.7162,152.03514)"
       id="g254">
      <path
         id="path256"
         style="fill:#000000;fill-opacity:1;fill-rule:nonzero;stroke:none"
         d="M 0,0 16.081,-0.012 C 18.976,-0.014 26.17,-1.4 28.654,0.58 c 1.502,1.197 0.909,2.992 0.34,4.483 -2.035,5.33 -5.35,10.446 -7.953,15.527 -0.88,1.719 -3.47,0.203 -2.59,-1.515 1.62,-3.162 3.239,-6.325 4.86,-9.487 C 23.837,8.561 25.532,6.469 25.52,5.274 25.488,2.083 22.897,2.983 20.812,2.984 13.874,2.989 6.937,2.995 0,3 -1.931,3.001 -1.934,0.001 0,0" />
    </g>
  </g>
</svg>
