<?xml version="1.0" encoding="UTF-8" standalone="no"?>
<svg
   xmlns:dc="http://purl.org/dc/elements/1.1/"
   xmlns:cc="http://creativecommons.org/ns#"
   xmlns:rdf="http://www.w3.org/1999/02/22-rdf-syntax-ns#"
   xmlns:svg="http://www.w3.org/2000/svg"
   xmlns="http://www.w3.org/2000/svg"
   id="svg2042"
   version="1.1"
   viewBox="0 0 39.550285 17.475502"
   height="17.475502mm"
   width="39.550285mm">
  <defs
     id="defs2036" />
  <metadata
     id="metadata2039">
    <rdf:RDF>
      <cc:Work
         rdf:about="">
        <dc:format>image/svg+xml</dc:format>
        <dc:type
           rdf:resource="http://purl.org/dc/dcmitype/StillImage" />
        <dc:title></dc:title>
      </cc:Work>
    </rdf:RDF>
  </metadata>
  <g
     transform="translate(-54.308192,-108.34558)"
     id="layer1">
    <g
       transform="matrix(0.35277777,0,0,-0.35277777,93.34968,124.35074)"
       id="g258">
      <path
         id="path260"
         style="fill:#000000;fill-opacity:1;fill-rule:nonzero;stroke:none"
         d="m 0,0 c -33.061,-2.278 -71.511,-4.094 -96.33,22.103 -1.33,1.404 -3.449,-0.72 -2.121,-2.122 C -73.053,-6.827 -33.884,-5.335 0,-3 1.916,-2.868 1.93,0.133 0,0" />
    </g>
    <g
       transform="matrix(0.35277777,0,0,-0.35277777,55.44692,122.90036)"
       id="g262">
      <path
         id="path264"
         style="fill:#000000;fill-opacity:1;fill-rule:nonzero;stroke:none"
         d="m 0,0 -0.078,19.778 c -0.025,6.363 -0.918,13.451 1.095,19.576 l -2.204,-0.896 c 6.073,-3.685 12.146,-7.37 18.219,-11.055 1.655,-1.005 3.164,1.589 1.514,2.59 -6.073,3.686 -12.146,7.37 -18.218,11.056 -0.864,0.523 -1.909,0.003 -2.204,-0.897 -1.933,-5.881 -1.233,-12.39 -1.209,-18.49 L -3,0 c 0.007,-1.93 3.007,-1.934 3,0" />
    </g>
  </g>
</svg>
