<?xml version="1.0" encoding="UTF-8" standalone="no"?>
<svg
   xmlns:dc="http://purl.org/dc/elements/1.1/"
   xmlns:cc="http://creativecommons.org/ns#"
   xmlns:rdf="http://www.w3.org/1999/02/22-rdf-syntax-ns#"
   xmlns:svg="http://www.w3.org/2000/svg"
   xmlns="http://www.w3.org/2000/svg"
   id="svg1748"
   version="1.1"
   viewBox="0 0 73.113724 68.829056"
   height="68.829056mm"
   width="73.113724mm">
  <defs
     id="defs1742" />
  <metadata
     id="metadata1745">
    <rdf:RDF>
      <cc:Work
         rdf:about="">
        <dc:format>image/svg+xml</dc:format>
        <dc:type
           rdf:resource="http://purl.org/dc/dcmitype/StillImage" />
        <dc:title></dc:title>
      </cc:Work>
    </rdf:RDF>
  </metadata>
  <g
     transform="translate(25.217291,-117.44149)"
     style="display:inline"
     id="layer1">
    <g
       style="fill:none;fill-opacity:1;stroke:#000000;stroke-width:1.00012505;stroke-linecap:square;stroke-linejoin:miter;stroke-miterlimit:4;stroke-dasharray:none;stroke-opacity:1;paint-order:stroke markers fill"
       transform="translate(-140.60714,-65.767858)"
       id="layer1-4">
      <g
         style="fill:none;fill-opacity:1;stroke:#000000;stroke-width:2.83500004;stroke-linecap:square;stroke-linejoin:miter;stroke-miterlimit:4;stroke-dasharray:none;stroke-opacity:1;paint-order:stroke markers fill"
         transform="matrix(0.35277777,0,0,-0.35277777,154.3461,183.71285)"
         id="g1329">
        <path
           id="path1331"
           style="fill:none;fill-opacity:1;fill-rule:nonzero;stroke:#000000;stroke-width:2.7030952;stroke-linecap:square;stroke-linejoin:miter;stroke-miterlimit:4;stroke-dasharray:none;stroke-opacity:1;paint-order:stroke markers fill"
           d="M -0.31645158,-4.472474 C -40.491023,-4.2074086 -78.22089,-27.655209 -94.876151,-64.360093 c -8.147429,-17.952937 -11.266229,-38.276207 -8.245629,-57.801417 3.10546,-20.07251 14.019859,-35.84295 31.356853,-46.25106 16.878373,-10.13255 37.105343,-15.70655 56.503745,-18.21895 20.3127816,-2.62968 41.630524,-1.10698 60.225148,8.05875 31.650526,15.60167 49.690229,52.7995 44.928586,87.393397 -2.639212,19.171476 -14.252509,36.414076 -27.510547,49.999154 -13.785308,14.124745 -31.347321,26.267219 -50.914488,30.384314 -1.077424,0.225973 -1.5379512,-1.427348 -0.45576,-1.655228 16.521775,-3.476362 31.488436,-12.819441 43.934115,-23.982699 12.782254,-11.464555 24.076138,-25.736134 29.99625,-42.004285 11.635227,-31.970893 -2.173918,-71.205343 -28.911199,-91.326473 -31.536108,-23.73194 -76.591507,-18.56507 -111.185402,-4.83601 -18.280932,7.25592 -35.345233,19.05991 -42.525835,38.11888 -6.960346,18.47639 -6.111756,39.912366 -0.457667,58.607105 12.929089,42.74418 53.26003,71.9805133 97.82152942,71.6858902 1.10507483,-0.00763 1.10602831,1.7086231 0,1.7162508" />
      </g>
    </g>
  </g>
</svg>
