<?xml version="1.0" encoding="UTF-8" standalone="no"?>
<svg
   xmlns:dc="http://purl.org/dc/elements/1.1/"
   xmlns:cc="http://creativecommons.org/ns#"
   xmlns:rdf="http://www.w3.org/1999/02/22-rdf-syntax-ns#"
   xmlns:svg="http://www.w3.org/2000/svg"
   xmlns="http://www.w3.org/2000/svg"
   id="svg8405"
   version="1.1"
   viewBox="0 0 12.316002 13.339158"
   height="13.339158mm"
   width="12.316002mm">
  <defs
     id="defs8399" />
  <metadata
     id="metadata8402">
    <rdf:RDF>
      <cc:Work
         rdf:about="">
        <dc:format>image/svg+xml</dc:format>
        <dc:type
           rdf:resource="http://purl.org/dc/dcmitype/StillImage" />
        <dc:title></dc:title>
      </cc:Work>
    </rdf:RDF>
  </metadata>
  <g
     transform="translate(-107.99081,-179.20543)"
     id="layer1">
    <g
       transform="matrix(0.35277777,0,0,-0.35277777,108.5675,183.93809)"
       id="g1317">
      <path
         id="path1319"
         style="fill:#ffffff;fill-opacity:1;fill-rule:nonzero;stroke:none"
         d="m 0,0 c 2.115,4.968 5.619,8.997 10.282,11.73 0.999,0.586 0.094,2.143 -0.908,1.555 C 4.467,10.409 0.675,6.146 -1.554,0.909 -2.003,-0.145 -0.453,-1.063 0,0" />
    </g>
    <g
       transform="matrix(0.35277777,0,0,-0.35277777,113.25747,192.4137)"
       id="g1321">
      <path
         id="path1323"
         style="fill:#ffffff;fill-opacity:1;fill-rule:nonzero;stroke:none"
         d="m 0,0 c 6.39,0.366 12.75,0.244 19.121,-0.366 1.152,-0.112 1.145,1.689 0,1.8 C 12.75,2.044 6.389,2.166 0,1.8 -1.151,1.734 -1.159,-0.066 0,0" />
    </g>
    <g
       transform="matrix(0.35277777,0,0,-0.35277777,112.25893,188.01021)"
       id="g1325">
      <path
         id="path1327"
         style="fill:#ffffff;fill-opacity:1;fill-rule:nonzero;stroke:none"
         d="m 0,0 c 4.602,4.328 9.508,8.275 14.728,11.835 0.951,0.649 0.051,2.21 -0.909,1.555 C 8.474,9.743 3.44,5.706 -1.272,1.272 -2.118,0.477 -0.843,-0.794 0,0" />
    </g>
  </g>
</svg>
