<?xml version="1.0" encoding="UTF-8" standalone="no"?>
<svg
   xmlns:dc="http://purl.org/dc/elements/1.1/"
   xmlns:cc="http://creativecommons.org/ns#"
   xmlns:rdf="http://www.w3.org/1999/02/22-rdf-syntax-ns#"
   xmlns:svg="http://www.w3.org/2000/svg"
   xmlns="http://www.w3.org/2000/svg"
   id="svg2677"
   version="1.1"
   viewBox="0 0 31.297977 13.940311"
   height="13.940311mm"
   width="31.297977mm">
  <defs
     id="defs2671" />
  <metadata
     id="metadata2674">
    <rdf:RDF>
      <cc:Work
         rdf:about="">
        <dc:format>image/svg+xml</dc:format>
        <dc:type
           rdf:resource="http://purl.org/dc/dcmitype/StillImage" />
        <dc:title></dc:title>
      </cc:Work>
    </rdf:RDF>
  </metadata>
  <g
     transform="translate(-72.041489,-204.60723)"
     id="layer1">
    <g
       transform="matrix(0.35277777,0,0,-0.35277777,102.8312,204.72678)"
       id="g178">
      <path
         id="path180"
         style="fill:#000000;fill-opacity:1;fill-rule:nonzero;stroke:none"
         d="m 0,0 c -15.29,-1.143 -30.76,1.824 -45.959,-0.738 -13.829,-2.332 -25.457,-10.488 -31.36,-23.33 -0.801,-1.743 1.784,-3.269 2.59,-1.515 6.384,13.888 19.185,21.097 34.061,22.522 C -27.142,-1.764 -13.548,-4.013 0,-3 1.913,-2.857 1.929,0.144 0,0" />
    </g>
    <g
       transform="matrix(0.35277777,0,0,-0.35277777,72.115612,210.17242)"
       id="g182">
      <path
         id="path184"
         style="fill:#000000;fill-opacity:1;fill-rule:nonzero;stroke:none"
         d="m 0,0 c -0.409,-7.448 -0.221,-14.857 0.565,-22.275 0.127,-1.2 1.16,-1.778 2.257,-1.295 6.256,2.749 12.511,5.498 18.766,8.248 1.764,0.774 0.239,3.36 -1.514,2.59 C 13.819,-15.481 7.563,-18.23 1.308,-20.98 2.061,-21.412 2.813,-21.844 3.565,-22.275 2.779,-14.857 2.591,-7.448 3,0 3.106,1.929 0.105,1.923 0,0" />
    </g>
  </g>
</svg>
