<svg xmlns="http://www.w3.org/2000/svg" viewBox="0 0 33.61 110.86" width="25px">
	<defs>
		<style>
			.cls-1{fill:#fad505;}
		</style>
	</defs>
	<g id="Layer_2" dataName="Layer 2">
		<g id="Layer_1-2" dataName="Layer 1">
			<path class="cls-1" d="M12.83,2.89c-1.3,26.07-1.3,53,1.16,79,.36,3.81,6.37,3.85,6,0-2.46-26-2.46-52.9-1.16-79C19-1,13-1,12.83,2.89" />
			<path class="cls-1" d="M.83,80.75c8,8.49,9.14,23,19.21,29.7a3,3,0,0,0,4.11-1.07c2.08-4.55,2.92-9.85,4.16-14.66,1.59-6.16,3-12.44,5.12-18.45,1.27-3.65-4.52-5.22-5.79-1.6-2,5.65-3.33,11.53-4.82,17.31-1.14,4.42-2.26,10.9-3.85,14.37l4.1-1.08c-4.54-3-7.11-10-9.51-14.69S8.81,80.5,5.08,76.51C2.43,73.69-1.8,77.93.83,80.75" />
		</g>
	</g>
</svg>
