<?xml version="1.0" encoding="UTF-8" standalone="no"?>
<svg
   xmlns:dc="http://purl.org/dc/elements/1.1/"
   xmlns:cc="http://creativecommons.org/ns#"
   xmlns:rdf="http://www.w3.org/1999/02/22-rdf-syntax-ns#"
   xmlns:svg="http://www.w3.org/2000/svg"
   xmlns="http://www.w3.org/2000/svg"
   id="svg2622"
   version="1.1"
   viewBox="0 0 45.094807 27.376789"
   height="27.376789mm"
   width="45.094807mm">
  <defs
     id="defs2616" />
  <metadata
     id="metadata2619">
    <rdf:RDF>
      <cc:Work
         rdf:about="">
        <dc:format>image/svg+xml</dc:format>
        <dc:type
           rdf:resource="http://purl.org/dc/dcmitype/StillImage" />
        <dc:title></dc:title>
      </cc:Work>
    </rdf:RDF>
  </metadata>
  <g
     transform="translate(-150.56569,-170.6747)"
     id="layer1">
    <g
       transform="matrix(0.35277777,0,0,-0.35277777,151.07687,171.7814)"
       id="g1381">
      <path
         id="path1383"
         style="fill:#000000;fill-opacity:1;fill-rule:nonzero;stroke:none"
         d="m 0,0 c 22.243,-0.001 48.165,2.099 68.695,-8.184 9.426,-4.719 16.074,-12.104 21.807,-20.785 7.909,-11.973 15.612,-24.19 25.291,-34.844 1.301,-1.433 3.417,0.694 2.122,2.121 C 107.358,-50.071 99.54,-36.549 90.607,-23.73 85.103,-15.832 77.995,-9.292 69.264,-5.132 48.288,4.864 22.571,2.999 0,3 -1.93,3 -1.934,0 0,0" />
    </g>
    <g
       transform="matrix(0.35277777,0,0,-0.35277777,186.94583,196.7001)"
       id="g1385">
      <path
         id="path1387"
         style="fill:#000000;fill-opacity:1;fill-rule:nonzero;stroke:none"
         d="m 0,0 c 7.578,-1.268 15.157,-2.535 22.735,-3.804 0.947,-0.158 1.895,0.393 1.899,1.447 0.023,8.242 0.046,16.484 0.069,24.726 0.006,1.931 -2.994,1.933 -3,0 -0.023,-8.242 -0.046,-16.484 -0.069,-24.726 0.633,0.482 1.265,0.964 1.898,1.446 C 15.954,0.357 8.376,1.625 0.797,2.894 -1.091,3.209 -1.903,0.319 0,0" />
    </g>
  </g>
</svg>
