<?xml version="1.0" encoding="UTF-8" standalone="no"?>
<svg
   xmlns:dc="http://purl.org/dc/elements/1.1/"
   xmlns:cc="http://creativecommons.org/ns#"
   xmlns:rdf="http://www.w3.org/1999/02/22-rdf-syntax-ns#"
   xmlns:svg="http://www.w3.org/2000/svg"
   xmlns="http://www.w3.org/2000/svg"
   xmlns:sodipodi="http://sodipodi.sourceforge.net/DTD/sodipodi-0.dtd"
   xmlns:inkscape="http://www.inkscape.org/namespaces/inkscape"
   id="svg5124"
   version="1.1"
   viewBox="0 0 11.339831 18.423625"
   height="18.423626mm"
   width="11.339831mm"
   sodipodi:docname="handdrawn-arrow8.svg"
   inkscape:version="1.0 (6e3e5246a0, 2020-05-07)">
  <sodipodi:namedview
     inkscape:document-rotation="0"
     pagecolor="#ffffff"
     bordercolor="#666666"
     borderopacity="1"
     objecttolerance="10"
     gridtolerance="10"
     guidetolerance="10"
     inkscape:pageopacity="0"
     inkscape:pageshadow="2"
     inkscape:window-width="1366"
     inkscape:window-height="713"
     id="namedview10"
     showgrid="false"
     fit-margin-top="0"
     fit-margin-left="0"
     fit-margin-right="0"
     fit-margin-bottom="0"
     inkscape:zoom="5.7402793"
     inkscape:cx="26.090558"
     inkscape:cy="1.7603862"
     inkscape:window-x="0"
     inkscape:window-y="27"
     inkscape:window-maximized="1"
     inkscape:current-layer="g250" />
  <defs
     id="defs5118" />
  <metadata
     id="metadata5121">
    <RDF>
      <Work
         rdf:about="">
        <format>
					image/svg+xml
				</format>
        <type
           rdf:resource="http://purl.org/dc/dcmitype/StillImage" />
        <title />
      </Work>
    </RDF>
    <rdf:RDF>
      <cc:Work
         rdf:about="">
        <dc:format>image/svg+xml</dc:format>
        <dc:type
           rdf:resource="http://purl.org/dc/dcmitype/StillImage" />
        <dc:title></dc:title>
      </cc:Work>
    </rdf:RDF>
  </metadata>
  <g
     transform="translate(-128.93258,-137.12757)"
     id="layer1">
    <g
       transform="matrix(0.05268576,0.31263686,0.19618483,-0.03306119,139.34888,125.18474)"
       id="g250">
      <path
         sodipodi:nodetypes="ccccc"
         id="path252"
         style="fill:#fbd502;fill-opacity:1;fill-rule:nonzero;stroke:none;stroke-width:1.06909"
         d="m 24.365365,-30.712246 c 32.556437,-8.222085 22.109925,-6.578891 51.156898,-13.335061 1.80148,-1.19497 3.158815,5.00087 1.374568,6.185241 -16.732994,4.153747 -16.751896,4.001863 -33.803969,8.897806 -7.725408,1.926993 -15.699545,4.535706 -18.183287,4.948414" />
    </g>
    <g
       transform="matrix(0.35277777,0,0,-0.35277777,140.6761,149.39536)"
       id="g254">
      <path
         sodipodi:nodetypes="ccccccccccc"
         id="path256"
         style="fill:#fbd502;fill-opacity:1;fill-rule:nonzero;stroke:none"
         d="m -32.992298,5.4682241 9.459511,-13.0044749 c 1.703089,-2.3410504 4.819008,-8.9717132 7.882025,-9.8134842 1.851916,-0.509139 2.953533,1.027127 3.823576,2.364986 3.1096536,4.783324 7.9505066,15.35164554 10.5244426,20.4474301 0.87119301,1.723481 -2.094422,3.186271 -2.964806,1.46338 -1.601746,-3.1712859 -5.64757,-11.48093 -7.2487266,-14.6530238 -0.520337,-1.0298817 -1.213096,-3.6317213 -2.186017,-4.3256923 -2.597957,-1.853139 -3.396231,0.770987 -4.623164,2.4567698 -4.081363,5.6105568 -8.161328,11.2208945 -12.242102,16.8306423 -1.136251,1.561313 -3.562756,-0.202797 -2.424739,-1.766533" />
    </g>
  </g>
</svg>
