<?xml version="1.0" encoding="UTF-8" standalone="no"?>
<svg
   xmlns:dc="http://purl.org/dc/elements/1.1/"
   xmlns:cc="http://creativecommons.org/ns#"
   xmlns:rdf="http://www.w3.org/1999/02/22-rdf-syntax-ns#"
   xmlns:svg="http://www.w3.org/2000/svg"
   xmlns="http://www.w3.org/2000/svg"
   id="svg880"
   version="1.1"
   viewBox="0 0 119.9914 127.97958"
   height="127.97958mm"
   width="119.9914mm">
  <defs
     id="defs874" />
  <metadata
     id="metadata877">
    <rdf:RDF>
      <cc:Work
         rdf:about="">
        <dc:format>image/svg+xml</dc:format>
        <dc:type
           rdf:resource="http://purl.org/dc/dcmitype/StillImage" />
        <dc:title></dc:title>
      </cc:Work>
    </rdf:RDF>
  </metadata>
  <g
     transform="translate(57.955021,-88.058152)"
     id="layer1">
    <g
       style="fill:none;fill-opacity:1;stroke:#000000;stroke-width:2.83299589;stroke-linecap:round;stroke-miterlimit:4;stroke-dasharray:none;stroke-opacity:1"
       transform="matrix(0.46696736,0,0,-0.46696736,5.0843675,112.48385)"
       id="g1457">
      <g
         id="g904" />
    </g>
    <g
       style="fill:none;fill-opacity:1;stroke:#000000;stroke-width:2.83299589;stroke-linecap:round;stroke-miterlimit:4;stroke-dasharray:none;stroke-opacity:1"
       transform="matrix(0.46696736,0,0,-0.46696736,-20.10292,109.57488)"
       id="g1461" />
    <g
       style="fill:none;fill-opacity:1;stroke:#000000;stroke-width:2.83299589;stroke-linecap:round;stroke-miterlimit:4;stroke-dasharray:none;stroke-opacity:1"
       transform="matrix(0.46696736,0,0,-0.46696736,10.051598,104.69767)"
       id="g1465" />
    <g
       style="fill:none;fill-opacity:1;stroke:#000000;stroke-width:2.83299589;stroke-linecap:round;stroke-miterlimit:4;stroke-dasharray:none;stroke-opacity:1"
       transform="matrix(0.46696736,0,0,-0.46696736,37.748139,118.95934)"
       id="g1469" />
    <g
       style="fill:none;fill-opacity:1;stroke:#000000;stroke-width:2.83299589;stroke-linecap:round;stroke-miterlimit:4;stroke-dasharray:none;stroke-opacity:1"
       transform="matrix(0.46696736,0,0,-0.46696736,46.991041,135.80804)"
       id="g1473" />
    <g
       style="fill:none;fill-opacity:1;stroke:#000000;stroke-width:2.83299589;stroke-linecap:round;stroke-miterlimit:4;stroke-dasharray:none;stroke-opacity:1"
       transform="matrix(0.46696736,0,0,-0.46696736,47.074911,165.91373)"
       id="g1477" />
    <g
       style="fill:none;fill-opacity:1;stroke:#000000;stroke-width:2.83299589;stroke-linecap:round;stroke-miterlimit:4;stroke-dasharray:none;stroke-opacity:1"
       transform="matrix(0.46696736,0,0,-0.46696736,40.247388,189.58314)"
       id="g1481" />
    <g
       style="fill:none;fill-opacity:1;stroke:#000000;stroke-width:2.83299589;stroke-linecap:round;stroke-miterlimit:4;stroke-dasharray:none;stroke-opacity:1"
       transform="matrix(0.46696736,0,0,-0.46696736,13.629775,202.18488)"
       id="g1485" />
    <g
       style="fill:none;fill-opacity:1;stroke:#000000;stroke-width:2.83299589;stroke-linecap:round;stroke-miterlimit:4;stroke-dasharray:none;stroke-opacity:1"
       transform="matrix(0.46696736,0,0,-0.46696736,-20.9682,197.84447)"
       id="g1489" />
    <g
       style="fill:none;fill-opacity:1;stroke:#000000;stroke-width:2.83299589;stroke-linecap:round;stroke-miterlimit:4;stroke-dasharray:none;stroke-opacity:1"
       transform="matrix(0.46696736,0,0,-0.46696736,-42.986835,180.76961)"
       id="g1493" />
    <g
       style="fill:none;fill-opacity:1;stroke:#000000;stroke-width:2.83299589;stroke-linecap:round;stroke-miterlimit:4;stroke-dasharray:none;stroke-opacity:1"
       transform="matrix(0.46696736,0,0,-0.46696736,-50.746303,148.97661)"
       id="g1497" />
    <g
       style="fill:none;fill-opacity:1;stroke:#000000;stroke-width:2.83299589;stroke-linecap:round;stroke-miterlimit:4;stroke-dasharray:none;stroke-opacity:1"
       transform="matrix(0.46696736,0,0,-0.46696736,-41.747558,129.0858)"
       id="g1501">
      <g
         id="g927">
        <path
           transform="translate(46.351502,41.782192)"
           d="M -17.167,28.563 C -12.273,23.718 -8.952,18.424 -6.995,11.819 -5.653,7.292 -4.584,2.79 -2.59,-1.514"
           style="fill:none;fill-opacity:1;stroke:#000000;stroke-width:2.83299589;stroke-linecap:round;stroke-miterlimit:4;stroke-dasharray:none;stroke-opacity:1;fill-rule:nonzero"
           id="path1463" />
        <path
           transform="translate(110.92672,52.226627)"
           d="M -2.946,34.197 C -5.584,22.868 -4.074,11.431 -3,0"
           style="fill:none;fill-opacity:1;stroke:#000000;stroke-width:2.83299589;stroke-linecap:round;stroke-miterlimit:4;stroke-dasharray:none;stroke-opacity:1;fill-rule:nonzero"
           id="path1467" />
        <path
           transform="translate(170.23823,21.685585)"
           d="M 13.84,20.115 C 6.468,15.795 0.76,9.384 -2.59,1.514"
           style="fill:none;fill-opacity:1;stroke:#000000;stroke-width:2.83299589;stroke-linecap:round;stroke-miterlimit:4;stroke-dasharray:none;stroke-opacity:1;fill-rule:nonzero"
           id="path1471" />
        <path
           transform="translate(190.03169,-14.395526)"
           d="M 28.655,2.45 C 19.108,3.374 9.575,3.557 0,3"
           style="fill:none;fill-opacity:1;stroke:#000000;stroke-width:2.83299589;stroke-linecap:round;stroke-miterlimit:4;stroke-dasharray:none;stroke-opacity:1;fill-rule:nonzero"
           id="path1475" />
        <path
           transform="translate(190.2113,-78.866174)"
           d="M 30.603,-12.47 C 23.621,-12.799 18.208,-10.6 12.961,-6.146 9.262,-3.007 5.876,0.354 1.514,2.59"
           style="fill:none;fill-opacity:1;stroke:#000000;stroke-width:2.83299589;stroke-linecap:round;stroke-miterlimit:4;stroke-dasharray:none;stroke-opacity:1;fill-rule:nonzero"
           id="path1479" />
        <path
           transform="translate(175.59031,-129.55368)"
           d="M 12.43,-22.209 C 5.95,-17.208 5.763,-6.326 2.893,0.798"
           style="fill:none;fill-opacity:1;stroke:#000000;stroke-width:2.83299589;stroke-linecap:round;stroke-miterlimit:4;stroke-dasharray:none;stroke-opacity:1;fill-rule:nonzero"
           id="path1483" />
        <path
           transform="translate(118.5893,-156.54002)"
           d="m -10.872,-28.238 c 9.331,6.07 11.923,17.131 13.765,27.441"
           style="fill:none;fill-opacity:1;stroke:#000000;stroke-width:2.83299589;stroke-linecap:round;stroke-miterlimit:4;stroke-dasharray:none;stroke-opacity:1;fill-rule:nonzero"
           id="path1487" />
        <path
           transform="translate(44.498524,-147.24513)"
           d="m -9.459,-18.637 c 4.593,5.302 8.619,11.003 12.049,17.123"
           style="fill:none;fill-opacity:1;stroke:#000000;stroke-width:2.83299589;stroke-linecap:round;stroke-miterlimit:4;stroke-dasharray:none;stroke-opacity:1;fill-rule:nonzero"
           id="path1491" />
        <path
           transform="translate(-2.6538838,-110.67971)"
           d="m -21.662,-17.522 c 5.116,-1.087 9.697,-0.108 13.528,3.552 3.569,3.409 5.518,8.598 9.648,11.38"
           style="fill:none;fill-opacity:1;stroke:#000000;stroke-width:2.83299589;stroke-linecap:round;stroke-miterlimit:4;stroke-dasharray:none;stroke-opacity:1;fill-rule:nonzero"
           id="path1495" />
        <path
           transform="translate(-19.270608,-42.595718)"
           d="M -14.006,2.818 C -10.12,-0.798 -5.306,-2.797 0,-3"
           style="fill:none;fill-opacity:1;stroke:#000000;stroke-width:2.83299589;stroke-linecap:round;stroke-miterlimit:4;stroke-dasharray:none;stroke-opacity:1;fill-rule:nonzero"
           id="path1499" />
        <path
           d="M -18.209,14.892 C -13.534,8.57 -8.19,2.882 -2.121,-2.121"
           style="fill:none;fill-opacity:1;fill-rule:nonzero;stroke:#000000;stroke-width:2.83299589;stroke-linecap:round;stroke-miterlimit:4;stroke-dasharray:none;stroke-opacity:1"
           id="path1503" />
      </g>
    </g>
  </g>
</svg>
