<svg xmlns="http://www.w3.org/2000/svg" width="80.27" height="90.657" viewBox="0 0 80.27 90.657"><g transform="translate(-1138.183 -3896.617)"><path d="M1152.214,3939.008a24.77,24.77,0,0,0,5.934.89c.421.021.431-.486-.009-.536a24.076,24.076,0,0,1-5.634-1.2C1151.789,3937.9,1151.489,3938.793,1152.214,3939.008Z"/><path d="M1150.2,3956.06c2.079.111,4.012-.236,6.065-.192.033,0,.035-.038,0-.043-2.038-.253-4.044-.421-6.078-.608C1149.51,3955.155,1149.534,3956.024,1150.2,3956.06Z"/><path d="M1149.985,3961.121a2.115,2.115,0,0,0-1.227.522c-.257.329.212.551.573.515-.049.047.126,0,.241.005a3.366,3.366,0,0,0,.57-.1,13.369,13.369,0,0,0,1.493-.4,20.959,20.959,0,0,1,2.936-.711c.1-.013.087-.15-.027-.153A20.1,20.1,0,0,0,1149.985,3961.121Z"/><path d="M1217.569,3958.209c-1.157-3.309-4.7-5.407-8.482-6.87a2.959,2.959,0,0,0,1.346-.688c.209-.206-.088-.525-.347-.358a5.571,5.571,0,0,1-2.764.411q-.746-.25-1.48-.476.273-.527.512-1.081a.974.974,0,0,0,1.361-.484l.007-.021a5.784,5.784,0,0,0,1.408-.5,3.007,3.007,0,0,0,1.623-1.713c.061-.186-.243-.282-.324-.111a2.913,2.913,0,0,1-1.789,1.39,2.947,2.947,0,0,1-.648.128q.51-1.526.988-3.06a8.023,8.023,0,0,0,3.406-2.875c.158-.246-.238-.495-.43-.273a9.8,9.8,0,0,1-2.584,1.853q.39-1.305.75-2.618c1.767-.573,3.143-2.778,3.917-4.036.1-.165-.162-.334-.287-.182a15.523,15.523,0,0,1-2.244,2.231,10.693,10.693,0,0,1-1.044.709c.317-1.215.616-2.435.888-3.662,1.959-.41,3.52-2.744,4.287-4.2.013-.024-.021-.046-.04-.026a26.235,26.235,0,0,1-2.3,2.218,16.829,16.829,0,0,1-1.755,1.132c.245-1.154.473-2.313.674-3.479a20.608,20.608,0,0,0,2.186-1.09,22.152,22.152,0,0,0,2.055-1.265,29.588,29.588,0,0,1-1.684,6.945c-1.624,4.519-3.775,9.053-3.233,14.053.116,1.063,1.98,1.253,1.862.176-.631-5.76,2.354-10.959,4.023-16.216,1.613-5.075,1.224-9.917-.418-15.182-2.835-9.086-9.863-18.594-20.714-20.946-9.5-2.06-19.287-2.554-26.569,3.225a37.566,37.566,0,0,0-7.806,9c-.157-.168-.515-.149-.517.12,0,.223,0,.446.01.669-.814,1.285-1.576,2.578-2.294,3.843a37.183,37.183,0,0,0-5.126,16.494c-.006.262-.012.526-.019.789s.428.354.5.107c.223-.789.446-1.573.674-2.353a7.146,7.146,0,0,0,2.362,1.85,10.491,10.491,0,0,0,1.266,2.173.358.358,0,0,0,.255.141l-.041.075c-4.732-1.812-10.445-3.393-14.254-.931-4.048,2.618-4.029,8.989-4.782,13.012-1.036,5.537-2.886,11.675-.85,17.6,1.113,3.244,3.776,5.128,6.974,6.163a1.564,1.564,0,0,0,.808.24,29.652,29.652,0,0,0,8.336.862c1.151-.027.656-1.493-.491-1.465l-.082,0a.636.636,0,0,0,.224-.241c.62-1.137,1.705-2.4,1.708-3.773a50.011,50.011,0,0,0,2.487-13.9,120.276,120.276,0,0,1,2.238-17.589c.008-.039-.065-.08-.087-.041-.148.254-.287.511-.422.77-.494-.2-1.006-.406-1.53-.609a28.367,28.367,0,0,0,5.973-8.825c.1-.021.191-.041.292-.057.623-.093.65-.72.248-1.063.616-1.287,1.228-2.577,1.888-3.839.274-.094.555-.188.841-.292.553-.2.368-.839-.1-1.074a22.083,22.083,0,0,1,4.924-6.168,23.072,23.072,0,0,1,5.249-3.269,2.9,2.9,0,0,0,1.4.64c.166.043.386-.1.261-.267-.2-.269-.393-.551-.582-.833a19.458,19.458,0,0,1,9.288-1.394.587.587,0,0,0,.772.367c.175-.059.354-.107.533-.157a13.2,13.2,0,0,1,5.529,2.559.68.68,0,0,0,.872.013.6.6,0,0,0,1.03-.126,6.588,6.588,0,0,0,1.795.1c1.477-.224,1.684-.147,1.172,1.273a16.737,16.737,0,0,0-2.535-1.166c-.026-.009-.044.024-.02.036a19.843,19.843,0,0,1,4,2.806,3.633,3.633,0,0,0-.173.358c-.115.3.214.544.522.532.179-.015.359-.024.538-.03a18.058,18.058,0,0,1,2.041,2.559c-.167.139-.336.271-.5.416-.349.3-.028.765.435.754.263-.006.528.006.792.023q.384.688.709,1.4a4.626,4.626,0,0,0-.244.5c-.159.378.336.649.687.551a26.882,26.882,0,0,1,1.684,9.146,37.378,37.378,0,0,1-.134,3.993c-.226.254-.505.486-.751.742-.335.35.187.777.608.687a55.215,55.215,0,0,1-1.063,6c-.684,2.957-1.983,5.75-2.8,8.653q-.288-.082-.57-.161c.052-.287.1-.576.138-.867.007-.045-.076-.057-.093-.021a120.275,120.275,0,0,1-9.025,15.262,50.033,50.033,0,0,0-6.562,12.5c-.843,1.091-.758,2.748-.966,4.027a.642.642,0,0,0,.029.328l-.064-.051c-.888-.726-2.179.127-1.286.855a29.69,29.69,0,0,0,7.111,4.434,1.557,1.557,0,0,0,.786.3c3.16,1.146,6.419,1.291,9.288-.587,5.246-3.434,7.551-9.416,10.13-14.424C1215.236,3967.778,1219.16,3962.759,1217.569,3958.209Zm-62.821,6.388a.738.738,0,0,0-.034.082c-.007.025-.011.051-.018.075-.278.813-.585,1.616-.937,2.408a.593.593,0,0,0,.061.6c-.1.282-.206.567-.287.86a11.654,11.654,0,0,1-3.513-.163c-.34-.073-.36.327-.069.442a12.882,12.882,0,0,0,3.295.77,24.337,24.337,0,0,1-5.559-.555q-.084-.523-.149-1.045a4.354,4.354,0,0,1,.6-.262,15.211,15.211,0,0,1,3.036-.531c.113-.011.076-.13-.027-.154a8.293,8.293,0,0,0-3.4-.095c-.1.017-.208.034-.32.054-.088-.955-.13-1.905-.135-2.848a.2.2,0,0,0,.034.012,17.326,17.326,0,0,0,6.094.056c.114-.019.069-.166-.052-.155a35.7,35.7,0,0,1-6.049-.361c-.012,0-.02,0-.031,0a41.823,41.823,0,0,1,.346-4.952.672.672,0,0,0,.192.127,6.5,6.5,0,0,0,2.715.109c1.172-.05,2.341-.117,3.53-.1.219,0,.156-.28-.055-.307-1.078-.141-2.152-.217-3.228-.3a9.85,9.85,0,0,0-3.078-.122c.294-2.144.716-4.267,1.184-6.385a8.041,8.041,0,0,0,3.717.72,17.3,17.3,0,0,0,3.784-.238c.34-.058.21-.49-.155-.462a19.36,19.36,0,0,1-3.642-.085c-1.161-.129-2.328-.625-3.458-.691a.632.632,0,0,0-.079.006q.242-1.068.491-2.135a.487.487,0,0,0,.463.42,27.292,27.292,0,0,0,7.178.241c.048-.008.042-.072-.015-.077q-3.584-.336-7.176-.93a.37.37,0,0,0-.4.143q.282-1.209.561-2.418c2.031.268,4.062.567,6.093.812.373.045.361-.4-.007-.459-1.975-.339-3.946-.728-5.919-1.089q.172-.768.338-1.537a28.337,28.337,0,0,0,6.856,1.14c.248.012.344-.3.057-.368-2.244-.528-4.533-.9-6.73-1.649.118-.573.232-1.146.338-1.721a.785.785,0,0,0,.318.107c1.179.135,2.355.263,3.53.351a18.083,18.083,0,0,0,3.485-.224c-.494,2.5-.759,5.059-1.054,7.576C1156.857,3954.484,1156.4,3959.7,1154.748,3964.6Zm6.011-29.653c-.141.272-.274.548-.4.825-1.123-.023-2.267-.147-3.4-.242-1.16-.1-2.329-.554-3.458-.6-.37-.016-.523.327-.187.545a8.173,8.173,0,0,0,3.657.787,10.589,10.589,0,0,0,3.3-.3,26.874,26.874,0,0,0-1.741,5.7c-2.306-.159-4.735-.658-7.044-1.051a.788.788,0,0,0-.141-.012,47.735,47.735,0,0,0,.728-6.889c.013-.5-.9-.592-.958-.119a78.576,78.576,0,0,1-2.611,11.748c-.375.033-.439.436-.189.677-.579,2.072-1.156,4.142-1.646,6.23-1.215,5.168-2.367,10.6-1.245,16.154a11.8,11.8,0,0,1-1.279-.63,8.245,8.245,0,0,1-3.792-5.708c-1.231-5.482.534-11.09,1.473-16.224.669-3.657.873-8.133,3.585-11.016,2.759-2.932,8.786-1.619,13.425-.386-.045.078-.086.158-.131.237-.021.034.029.083.064.052.091-.077.176-.158.264-.237C1159.639,3934.638,1160.216,3934.8,1160.759,3934.944Zm48.556-10.038c.445.223.875.478,1.3.735-.3.39-.675.723-1.013,1.087Q1209.49,3925.818,1209.315,3924.906Zm-.586-2.391a9.013,9.013,0,0,1,1.78.055,6.025,6.025,0,0,1-1.449,1.166C1208.96,3923.327,1208.851,3922.92,1208.729,3922.515Zm-.739-2.092c.517-.046,1.054-.054,1.589-.06-.42.318-.829.647-1.232.984C1208.235,3921.036,1208.115,3920.728,1207.99,3920.423Zm2.4.506c.05.257.093.515.131.773a10.063,10.063,0,0,0-1.044-.062C1209.781,3921.4,1210.085,3921.162,1210.394,3920.929Zm.227,6.15c-.012.141-.024.281-.038.422-.095-.025-.19-.049-.29-.07C1210.4,3927.31,1210.509,3927.194,1210.621,3927.079Zm.088-3.349c.013.322.019.643.019.965-.247-.144-.5-.284-.749-.418A7.582,7.582,0,0,0,1210.709,3923.73Zm-.921,5.575c0-.135,0-.27-.009-.405-.009-.221-.022-.444-.037-.666C1210.609,3928.484,1210.228,3928.873,1209.788,3929.3Zm.021,1.563c.072.059.143.121.219.175-.072.027-.148.054-.223.079C1209.806,3931.037,1209.808,3930.953,1209.809,3930.868Zm.126,1.21c-.02.12-.044.239-.064.359-.023-.092-.051-.187-.086-.288v-.029Zm4.121-2.2a17.039,17.039,0,0,1-1.665.625c.17-1.088.307-2.192.391-3.3a.342.342,0,0,0,.262.048,7.3,7.3,0,0,0,2.717-1.927c.241-.224.465-.46.683-.7a21.152,21.152,0,0,1,.069,3.972C1215.721,3929.05,1214.905,3929.483,1214.056,3929.874Zm2.326-5.793a14.892,14.892,0,0,1-1.273,1.116,25.926,25.926,0,0,0-2.3,1.6,25.738,25.738,0,0,0-.159-5.246.249.249,0,0,0,.135.016,4.212,4.212,0,0,0,2.618-1.707c.125.4.247.809.358,1.21A23.085,23.085,0,0,1,1216.382,3924.081Zm-20.37-24.478c10.166,2.211,16.311,11.011,19.138,19.477a3.606,3.606,0,0,1-.26.432c-.555.78-1.567,1.05-2.307,1.633a19.013,19.013,0,0,0-.664-2.8,12.816,12.816,0,0,0-1.013-2.313,4.8,4.8,0,0,0,0-4.764c-.073-.109-.283-.07-.235.063a5.05,5.05,0,0,1-.408,3.654,18.919,18.919,0,0,0-4.092-4.254,6.957,6.957,0,0,0-.281-3.112c-.113-.331-.665-.261-.576.082a6.14,6.14,0,0,1,.115,2.471,33.442,33.442,0,0,0-3.009-1.93q.765-2.447,1.528-4.9c.029-.092-.128-.146-.162-.055q-.882,2.361-1.766,4.725c-1.106-.618-2.243-1.188-3.385-1.72a10.923,10.923,0,0,1,1.747-5.089c.057-.079-.082-.166-.144-.09a10.958,10.958,0,0,0-2.039,4.977c-1.351-.617-2.7-1.18-4-1.7-.965-.388-1.942-.747-2.93-1.065.567-1.408.934-2.924,1.364-4.383C1193.764,3899.139,1194.893,3899.36,1196.012,3899.6Zm-5.995,6.641a4.19,4.19,0,0,0-.266-.994.614.614,0,0,0-.665-.413,8.2,8.2,0,0,0-2,1.168,4.29,4.29,0,0,1-.128-1.766,37.42,37.42,0,0,1,6.154,1.857,8.659,8.659,0,0,1-1.41.52A13.2,13.2,0,0,0,1190.017,3906.244Zm-16.278,2.3c-.527-.068-1.052-.092-1.576-.127.46-.4.943-.793,1.452-1.159A3.91,3.91,0,0,0,1173.739,3908.548Zm-11.865,20a3.373,3.373,0,0,0-.658-.392q.27-.375.514-.763c.352-.231.686-.48,1.026-.722Q1162.318,3927.607,1161.874,3928.544Zm4.132-20.833c.137.934.286,1.866.4,2.8a11.333,11.333,0,0,1,.064,1.3,36.227,36.227,0,0,0-2.548,5.278,10.981,10.981,0,0,1-1.662-4.051A53.93,53.93,0,0,1,1166.006,3907.711Zm2.861,5.112c.548.579-.014.309-.62.406.13-.22.263-.44.4-.657C1168.713,3912.653,1168.783,3912.735,1168.867,3912.823Zm-3.851,7.392.335-.835a.289.289,0,0,0,.162-.4c.046-.111.092-.223.137-.335.237.2.48.39.722.568-.093.171-.183.343-.274.515A7.718,7.718,0,0,0,1165.016,3920.215Zm-1.355,4.331c-.184.065-.367.138-.547.215.063-.139.124-.279.186-.418C1163.42,3924.412,1163.543,3924.477,1163.661,3924.546Zm.419-1.162c.212-.282.416-.568.621-.855-.153.317-.307.633-.457.951C1164.19,3923.448,1164.135,3923.415,1164.08,3923.384Zm2.721-5.271c.086-.03.169-.067.254-.1-.04.066-.077.133-.116.2C1166.894,3918.177,1166.845,3918.148,1166.8,3918.113Zm1.437-1.94a16.442,16.442,0,0,1-1.9.845c.308-.7.629-1.4.975-2.084a14.417,14.417,0,0,1,1.046,1.066Zm.115-1.791a12.119,12.119,0,0,0,1.888-.728q-.628.687-1.2,1.419Q1168.711,3914.72,1168.353,3914.382Zm2.065-.922a.559.559,0,0,0,.034-.335,1.739,1.739,0,0,0-.708-.969c-.49-.433,2.07-.649,2.837-.7A19.982,19.982,0,0,0,1170.418,3913.46Zm-.46-2.721c.093-.118.183-.236.279-.352.171-.206.349-.407.533-.607l.78.72C1171.014,3910.561,1170.488,3910.65,1169.958,3910.739Zm5.94-4.9a.475.475,0,0,0,.078.085c.161.126.316.257.466.391-.34-.068-.679-.138-1.017-.214C1175.582,3906.016,1175.738,3905.926,1175.9,3905.842Zm.844-2.769a30.161,30.161,0,0,1-.221-3.613,22.485,22.485,0,0,1,3.954-.935,4.706,4.706,0,0,0-.656,3.628A15.843,15.843,0,0,0,1176.742,3903.073Zm9.078.978a6.959,6.959,0,0,1-1.662,1.774c-.173-.569-.353-1.137-.531-1.7a.49.49,0,0,0-.173-.241A17.631,17.631,0,0,1,1185.82,3904.051Zm-.536-2.035a23.181,23.181,0,0,0,1.169-3.754,50.008,50.008,0,0,1,5.885.637c-.552,1.406-1.186,2.818-1.6,4.267A29.176,29.176,0,0,0,1185.284,3902.016Zm-.568-.056a21.312,21.312,0,0,0-3.244-.022c-.293.022-.581.051-.867.089a8.339,8.339,0,0,1-.236-1.112,4.165,4.165,0,0,1,.663-2.464,31.927,31.927,0,0,1,5.046-.2A20.882,20.882,0,0,0,1184.716,3901.96ZM1181.5,3904c.428-.059.859-.092,1.29-.11a.393.393,0,0,0-.088.137c-.358.969-.866,1.87-1.295,2.807a23.147,23.147,0,0,1-.938-2.651C1180.813,3904.114,1181.155,3904.05,1181.5,3904Zm1.506,1.529c.086.348.178.7.271,1.044-.336.073-.67.154-1,.24C1182.516,3906.384,1182.767,3905.96,1183.008,3905.531Zm2.96.1c.029.172.054.345.068.517-.236.021-.471.045-.707.075C1185.547,3906.031,1185.764,3905.835,1185.968,3905.632Zm2.93.489c-.075-.005-.149-.012-.223-.016.064-.038.129-.076.2-.11C1188.883,3906.038,1188.889,3906.08,1188.9,3906.121Zm5.612,1.528a3.739,3.739,0,0,0-.1-1.047q.622.248,1.251.51C1195.287,3907.3,1194.9,3907.482,1194.51,3907.649Zm-18.187-8.122a13.085,13.085,0,0,0-.17,3.8,23.027,23.027,0,0,0-4.807,3.022c-.069-.407-.144-.813-.177-1.21-.077-.911-.08-1.822-.089-2.73A17.642,17.642,0,0,1,1176.323,3899.527Zm-6.256,3.758q.3-.286.62-.554a14.916,14.916,0,0,0-.219,4.347c-.158.136-.315.271-.469.407a17.619,17.619,0,0,0-2.88,3.31c-.263-1.13-.653-2.264-.938-3.294A42.8,42.8,0,0,1,1170.067,3903.285Zm-14.843,26.365a82.343,82.343,0,0,1,3.352-9.619,5.521,5.521,0,0,0,1.887,3.17c.139.118.3-.048.16-.163a5.934,5.934,0,0,1-2-3.107c.5-1.156,1.048-2.3,1.652-3.44.473-.89.983-1.778,1.511-2.663a11.316,11.316,0,0,0,1.837,4.015c-.391,1-.765,2-1.141,2.983a46.376,46.376,0,0,1-2.933,6.4,4.681,4.681,0,0,1-1.281-2.306c-.157-.592-1.077-.437-.986.139a5.626,5.626,0,0,0,1.458,3.068c.052.055.109.112.169.171-.419.638-1.626,1.581-1.644,2.312a2.5,2.5,0,0,0,.019.271A6.891,6.891,0,0,1,1155.224,3929.65Zm3.609,2.64a7.833,7.833,0,0,0,.765.182.292.292,0,0,0,.187-.546c-.353-.183-.713-.337-1.074-.482a.916.916,0,0,1,.228-.708,14.268,14.268,0,0,0,1.343-1.411,3.059,3.059,0,0,0,1.041.366c-.649,1.337-1.328,2.662-2.056,3.969C1159.149,3933.323,1158.958,3932.806,1158.833,3932.29Zm15.563-22.108c-.353.217-.692.448-1.024.684a.485.485,0,0,0-.156-.253l-1.369-1.245a13.167,13.167,0,0,1,2.469.259c.376.093.822-.135.69-.534a3.823,3.823,0,0,1-.229-2.184c.935.223,1.882.378,2.817.6.2.235.4.478.593.721-.074.031-.147.063-.221.1a1.484,1.484,0,0,0-.342-.451.038.038,0,1,0-.061.047,4.355,4.355,0,0,1,.3.448A29.543,29.543,0,0,0,1174.4,3910.182Zm4.563-.663.2-.082C1179.664,3910.072,1179.379,3909.906,1178.959,3909.519Zm-.344-1.9c.237-.1.39-.335.2-.587a5.442,5.442,0,0,0-1.953-1.666,17.244,17.244,0,0,1,3.158-1.087c.192,1,.57,1.951.859,2.935-.7.224-1.385.472-2.049.739C1178.761,3907.847,1178.689,3907.735,1178.615,3907.624Zm16.734.787c.393-.177.779-.362,1.154-.565-.006.552.106,1.086.13,1.68A11.318,11.318,0,0,0,1195.349,3908.411Zm2.356,1.959c.1-.9-.279-1.611-.193-2.451,1.2.546,2.388,1.138,3.534,1.787a.208.208,0,0,0-.084.028A5.172,5.172,0,0,1,1197.7,3910.37Zm3.56-.532-.005-.01a28.433,28.433,0,0,1,3.47,2.325,2.475,2.475,0,0,0-.23.837c-.019.289.351.4.569.271a1.5,1.5,0,0,0,.471-.432,14.185,14.185,0,0,1,4.507,6.652l0,.017c-.814.04-1.623.023-2.42.1-.008-.018-.016-.037-.025-.056a7.342,7.342,0,0,1,1.214-1.187.443.443,0,0,0-.315-.761c-.7-.052-1.392-.144-2.085-.217-.054-.084-.106-.168-.162-.251a6.974,6.974,0,0,1,.969-.635.429.429,0,0,0-.214-.808c-.882-.076-1.7-.17-1.1-1.244a.434.434,0,0,0-.262-.643,8.822,8.822,0,0,0-2.51-.21c-.053-.044-.1-.09-.158-.133q.21-.7.418-1.4a.326.326,0,0,0-.15-.368,1.386,1.386,0,0,0-1.386-.073C1200.962,3911.874,1201.385,3910.551,1201.265,3909.838Zm.167,2.492c.082-.016.169-.036.27-.065.994-.285.927.18.677.72Q1201.921,3912.643,1201.432,3912.33Zm3.342,2.16a3.8,3.8,0,0,0-.239.437c-.159-.172-.323-.341-.49-.507C1204.287,3914.436,1204.53,3914.458,1204.774,3914.49Zm2.182,3.784.475.061c-.1.095-.193.193-.285.292C1207.083,3918.509,1207.021,3918.391,1206.956,3918.274Zm-2.547,31.675c-.094.338-.176.68-.254,1.023-.163-.115-.321-.234-.48-.353.07-.3.135-.6.19-.9Zm-12.628,32.829a11.665,11.665,0,0,1-2.874-2.027c.115-.281.21-.568.3-.855a.593.593,0,0,0,.418-.438c.208-.84.458-1.663.736-2.474.011-.024.023-.048.033-.072a.492.492,0,0,0,.024-.089c1.7-4.876,4.539-9.278,7.24-13.745,1.311-2.169,2.675-4.356,3.815-6.63a17.97,17.97,0,0,0,2.615,2.315c.982.652,1.99,1.272,3,1.889a.773.773,0,0,0,.315.111q-.4.779-.788,1.566c-2.192-.758-4.229-1.866-6.326-2.827-.267-.123-.384.183-.18.326a28.271,28.271,0,0,0,6.113,3.306q-.342.709-.676,1.421c-1.78-.925-3.575-1.827-5.342-2.772-.329-.176-.61.165-.288.358,1.755,1.053,3.542,2.063,5.31,3.1-.349.749-.695,1.5-1.041,2.252a.366.366,0,0,0-.231-.36q-3.2-1.734-6.237-3.668c-.048-.031-.092.016-.058.052a27.268,27.268,0,0,0,5.815,4.213.487.487,0,0,0,.624-.046q-.459.995-.923,1.986c-.02-.017-.036-.037-.058-.053-.934-.642-2.159-.965-3.155-1.577a19.409,19.409,0,0,1-2.928-2.166c-.27-.247-.639.015-.406.269a17.279,17.279,0,0,0,2.842,2.509,8.036,8.036,0,0,0,3.377,1.713c-.93,1.959-1.9,3.9-2.982,5.768a9.876,9.876,0,0,0-2.506-1.792c-.9-.6-1.793-1.2-2.73-1.747-.184-.108-.407.077-.232.209.949.716,1.83,1.486,2.726,2.244a6.506,6.506,0,0,0,2.21,1.58.653.653,0,0,0,.23.018,41.909,41.909,0,0,1-2.765,4.123c-.009-.007-.013-.014-.023-.022a35.739,35.739,0,0,1-5-3.426c-.089-.083-.214.006-.136.09a17.343,17.343,0,0,0,4.846,3.7.216.216,0,0,0,.036.011c-.583.742-1.2,1.466-1.855,2.167-.077-.085-.151-.165-.22-.239a8.271,8.271,0,0,0-2.741-2.009c-.095-.044-.2.027-.116.1a15.149,15.149,0,0,1,2.072,2.282,4.421,4.421,0,0,1,.313.574q-.372.372-.759.733a24.3,24.3,0,0,1-4.732-2.972,12.866,12.866,0,0,0,3.077,1.414C1191.865,3983.257,1192.094,3982.928,1191.781,3982.778Zm20.355-12.849c-2.409,4.631-4.456,10.143-8.791,13.717a8.247,8.247,0,0,1-6.5,2.18,11.818,11.818,0,0,1-1.4-.287c4.29-3.694,6.716-8.694,8.928-13.52.894-1.949,1.709-3.939,2.523-5.93.345-.036.54-.394.265-.65a78.5,78.5,0,0,1,5.147-10.879c.245-.408-.533-.9-.83-.494a47.82,47.82,0,0,0-3.652,5.886.793.793,0,0,0-.119-.076c-2.064-1.106-4.288-2.2-6.207-3.493a26.824,26.824,0,0,0,2.121-5.567c.159.2.325.393.495.582a.593.593,0,0,0,.329.353,9.95,9.95,0,0,0,1.6,1.331,8.175,8.175,0,0,0,3.371,1.621c.4.035.49-.33.187-.545-.921-.654-2.124-1.01-3.1-1.646-.482-.314-.974-.624-1.459-.94a12.211,12.211,0,0,0,.658-1.08q.432.183.874.376a.42.42,0,0,0-.082.126c-.266.7,1.035.606,1.562.54,3.828,1.788,7.69,4.182,8,7.5C1216.437,3962.973,1213.851,3966.631,1212.136,3969.929Z"/><path d="M1208.41,3957.326a24.147,24.147,0,0,1-5.186-2.508c-.38-.231-.683.175-.337.418a24.76,24.76,0,0,0,5.232,2.937C1208.823,3958.449,1209.135,3957.558,1208.41,3957.326Z"/><path d="M1199.243,3972.872c.553.383,1.1-.289.529-.658-1.721-1.1-3.409-2.2-5.173-3.249-.031-.018-.053.014-.027.034C1196.22,3970.224,1197.534,3971.684,1199.243,3972.872Z"/><path d="M1194.677,3976.419a13.389,13.389,0,0,0,.933,1.231,3.4,3.4,0,0,0,.389.429c.092.069.2.212.193.144.262.25.769.362.769-.055a2.131,2.131,0,0,0-.649-1.165,20.166,20.166,0,0,0-3.4-3.052c-.092-.066-.184.034-.115.1A20.949,20.949,0,0,1,1194.677,3976.419Z"/></g></svg>