<svg xmlns="http://www.w3.org/2000/svg" width="58.801" height="56.949" viewBox="0 0 58.801 56.949"><g transform="translate(-88.652 -3410.617)"><path d="M144.359,3419.883a13.911,13.911,0,0,0-13.865-4.182,14.572,14.572,0,0,0-6.816,3.9c-1.842,1.837-4.564,5.441-3.626,8.165a.681.681,0,0,0,1.121.3c1.617-1.327,2.14-3.793,3.469-5.447a13.143,13.143,0,0,1,4.429-3.508,11.683,11.683,0,0,1,9.861-.163c9.079,4.17,7.257,16.246,2.738,23.153a30.533,30.533,0,0,1-3.2,4.06c.075-.214.144-.433.2-.659.025-.1-.119-.164-.163-.07a8.235,8.235,0,0,1-1.418,2.135c-.371.362-.751.715-1.136,1.064a18.992,18.992,0,0,1-6.043,2.911c-1.645.528-3.3,1.05-4.913,1.656-1.172.439-3.048.964-3.525,2.244a.358.358,0,0,0,.345.453,4.054,4.054,0,0,0,1.754-.681,20.168,20.168,0,0,1,2.538-1.091c1.826-.676,3.69-1.231,5.49-1.982l.261-.113c-4.322,3.345-8.934,6.41-12.76,10.255a3.829,3.829,0,0,0-.141-1.292.518.518,0,0,0-.991,0c-.357.989-.74,2.019-1.027,3.066-.813-1.464-1.707-2.885-2.544-4.331a37.886,37.886,0,0,0-3.832-5.29,4.872,4.872,0,0,0,1.786.113c.132-.018.125-.234,0-.259-.748-.149-1.492-.211-2.231-.383q-.4-.475-.81-.952c-1.458-1.706-2.944-3.39-4.415-5.088.092-.009.186-.02.278-.028,1.643-.146,3.287.164,4.907.053a.18.18,0,0,0,.048-.351,10.462,10.462,0,0,0-5.013-.134q-.269.039-.54.089c-1.645-1.9-3.264-3.828-4.8-5.815.125.055.251.107.375.163a31.044,31.044,0,0,1,4.253,2.67c.145.1.351-.1.245-.245-.921-1.263-2.595-1.959-3.987-2.56-.415-.179-.836-.347-1.259-.507q-.728-.953-1.427-1.926c-.712-1-1.419-2.039-2.088-3.123a11.294,11.294,0,0,0,4.135.561.179.179,0,0,0,0-.358,35.934,35.934,0,0,1-4.472-.76,25.79,25.79,0,0,1-3.053-7.146c.8.445,1.575.924,2.339,1.434a17.643,17.643,0,0,0,4,2.416.247.247,0,0,0,.239-.411,18.263,18.263,0,0,0-3.931-2.538,29.432,29.432,0,0,0-2.749-1.353,15.513,15.513,0,0,1-.336-3.01,4.638,4.638,0,0,0,3.447,2.755.157.157,0,0,0,.084-.3,5.315,5.315,0,0,1-3.512-3.237l0-.011a11.266,11.266,0,0,1,7.587-9.642,11.022,11.022,0,0,1,10.967,2.041,27.266,27.266,0,0,1,4.907,6.167c1.265,2.047,2.592,4.009,3.678,6.165.222.44.9.129.777-.327-1.5-5.692-4.024-11.358-8.552-15.3-3.894-3.388-9.893-3.253-14.372-1.3a14.4,14.4,0,0,0-8.313,11.53c-.664,5.319,2.023,10.819,4.809,15.158a80.826,80.826,0,0,0,7.8,9.95c-.083.051-.167.1-.247.153a.045.045,0,0,0,.046.077c.091-.051.186-.095.28-.141,1.43,1.6,2.886,3.186,4.324,4.772,2.058,2.268,3.928,4.836,6.148,6.935a21.779,21.779,0,0,1,4.7,6.711c.379.807,1.565.359,1.587-.43a17.354,17.354,0,0,1,.753-3.4c7.152-6.151,15.9-10.407,22.155-17.567a25.355,25.355,0,0,0,6.169-13.451C147.827,3428.159,147.166,3423.17,144.359,3419.883Z"/><path d="M134,3419.693a14.065,14.065,0,0,1-3.919,5.1,28.679,28.679,0,0,1-2.77,2.019c-.788.519-1.931.9-2.408,1.734a.316.316,0,0,0,.271.47c.966.008,1.863-.822,2.646-1.335a23.279,23.279,0,0,0,2.91-2.238,10.429,10.429,0,0,0,3.515-5.647C134.269,3419.657,134.062,3419.545,134,3419.693Z"/><path d="M137.316,3421.955a10.144,10.144,0,0,1-3.174,5.728,28.016,28.016,0,0,1-2.825,2.2c-.757.534-2.032,1.035-2.215,2.02a.566.566,0,0,0,.391.689c1.12.167,2.07-.894,2.93-1.522a20.315,20.315,0,0,0,3.007-2.57,7.652,7.652,0,0,0,2.188-6.55C137.6,3421.8,137.344,3421.808,137.316,3421.955Z"/><path d="M141.7,3424.167a17.611,17.611,0,0,1-4.539,8.54,30.251,30.251,0,0,1-3.385,3.1c-1.038.842-2.68,1.566-3.326,2.78a.362.362,0,0,0,.309.539c1.391.073,2.809-1.175,3.831-1.98a24.509,24.509,0,0,0,3.792-3.758,15.364,15.364,0,0,0,3.8-9.152C142.2,3423.958,141.75,3423.892,141.7,3424.167Z"/><path d="M130.76,3443.318c-.478.275-1.015.626-1.091,1.206-.012.1-.045-.007-.17.341a1.347,1.347,0,0,0-.082.606c.027.234.384.325.44.06a.957.957,0,0,1,.3-.51l.014-.015a.645.645,0,0,0,.355-.079c.521-.347,1.065-.672,1.617-.971,1.654-.9,3.4-1.627,5.064-2.5,3.324-1.748,6.659-4.259,7.075-8.277.014-.126-.192-.152-.219-.03-.912,4.159-5.207,6.365-8.748,8.013C133.8,3441.866,132.216,3442.477,130.76,3443.318Z"/></g></svg>