<svg xmlns="http://www.w3.org/2000/svg" width="53.792" height="74.228" viewBox="0 0 53.792 74.228"><g transform="translate(-93.453 -3777.389)"><path d="M145.447,3821.851c.983.857,2.451-.5,1.478-1.381q-.632-.625-1.272-1.242c-.38-.4-.753-.8-1.127-1.2a1.133,1.133,0,0,0,.019-1.645q-.448-.428-.871-.88a.751.751,0,0,0-.137-.261c-.751-.938-1.536-1.847-2.339-2.741-1.01-1.354-1.956-2.755-2.917-4.1a58.2,58.2,0,0,0-6.194-7.8,40.169,40.169,0,0,0-3.651-3.145.843.843,0,0,0-.208-.526,12.2,12.2,0,0,0-.834-.9c-2.113-2.941-4.5-5.92-7.962-7.035l-.626-.59c.514-.505-.294-1.265-.859-.818l-.2-.189-.009-.008a.286.286,0,0,0-.444-.354l-.1.094a.866.866,0,0,0-.153,0,.444.444,0,0,0-.661-.158,26.928,26.928,0,0,0-5.826,6.127c-.034.037-.069.07-.1.108a45.888,45.888,0,0,0-5.344,7.946c0-1.039.037-2.079.093-3.12.014-.261.032-.52.048-.78a.717.717,0,0,0,.067-1.1c.027-.429.054-.859.073-1.289a6.975,6.975,0,0,0-.184-2.985.376.376,0,0,0-.372-.243c-1.074-.242-2.27.53-3.134,1.066-.606.376-1.2.766-1.813,1.132-.174.1-.352.2-.532.3a.477.477,0,0,0-.535-.215c-1.1.336-1.112,2.445-1.214,3.315a40.868,40.868,0,0,0-.13,6.365,46.264,46.264,0,0,0,.716,6.477c.128.7.257,1.433.452,2.151-.762,1.3-1.491,2.623-2.173,3.965a.259.259,0,0,0-.319.175c-.042.232-.078.464-.115.7a47.291,47.291,0,0,0-2.524,6.158c-.372,1.147,1.076,1.781,1.921,1.284-.054,3.154.08,6.32.183,9.451.1,3,.187,5.994.233,8.992a13.9,13.9,0,0,0,.334,4.309c.238.624.505,1.21,1.32,1.068a.906.906,0,0,0,.649-.607c.874-2.335.387-5.343.3-7.777-.1-2.659-.226-5.318-.352-7.976-.159-3.374-.32-6.772-.666-10.146a14.422,14.422,0,0,0,.8-1.621c.153-.35.306-.712.457-1.08,2.8.1,5.676-.17,8.445-.229,3.7-.077,7.4-.235,11.1-.333,7.552-.2,15.153-.044,22.694-.426.342,4.716,1.413,9.4,2.117,14.076a120.089,120.089,0,0,1,1.386,15.162.963.963,0,0,0-.782-.343c-4.952.017-9.911.28-14.854.693a8.645,8.645,0,0,0-.509-1.935,24.278,24.278,0,0,1-.594-4.11c-.218-2.621-.209-5.254-.258-7.881a.644.644,0,0,0-.658-.615c-1.853.05-3.694.31-5.536.492-1.519.151-3.856.568-5.281-.117-.285-.136-.631.226-.359.436.087.066.176.125.268.182a.536.536,0,0,0-.5.411,39.2,39.2,0,0,0,.04,7.734c.072,1.279.176,2.556.261,3.834.063.953-.015,1.974.143,2.93-2.925.341-5.852.665-8.791.869a72.97,72.97,0,0,1-10.612-.514c-.163-.012-.177.184-.074.258,2.634,1.888,6.623,1.893,9.794,1.929a89.955,89.955,0,0,0,11.466-.884,226.464,226.464,0,0,1,26.057-1.774.94.94,0,0,0,.914-.563c.39.638,1.653.5,1.661-.406A94.214,94.214,0,0,0,145,3832.706a83.4,83.4,0,0,0-3.034-13.866C143.087,3819.883,144.294,3820.845,145.447,3821.851ZM126.371,3842a27.6,27.6,0,0,0,.631,4.109,4.1,4.1,0,0,0,.66,1.7l-.576.052a20.488,20.488,0,0,0-.613-2.386c-.322-1.236-.658-2.469-.966-3.709a50.314,50.314,0,0,1-1.138-7.279c.583-.038,1.165-.069,1.748-.08C126.086,3836.94,126.151,3839.474,126.371,3842Zm-.784,5.72c-2.135-4.166-2.465-8.611-2.852-13.116.441-.033.882-.067,1.323-.1a19.255,19.255,0,0,0,.231,6.579,41.192,41.192,0,0,0,.947,4.216,24.609,24.609,0,0,0,.747,2.66l-.339.032A.514.514,0,0,0,125.587,3847.72Zm-3.313-13.081a21.754,21.754,0,0,0,2.256,13.463q-1.282.127-2.56.266c-.123-.714-.373-1.426-.537-2.116a32.026,32.026,0,0,1-.646-4.035c-.263-2.457-.028-5.033-.583-7.454C120.895,3834.737,121.585,3834.691,122.274,3834.639Zm-4.756,14.233a18.658,18.658,0,0,0-.09-2.73c-.066-1.282-.176-2.557-.322-3.834-.3-2.614-.462-5.244-.861-7.845a.4.4,0,0,0-.04-.122,4.577,4.577,0,0,0,1.325.38,7.5,7.5,0,0,1,.529,2.107,33.528,33.528,0,0,1,.389,4.011c.176,2.379.2,4.765.2,7.148a.546.546,0,0,0,1.086,0c0-2.581-.017-5.174-.249-7.748a23.354,23.354,0,0,0-.669-3.844,2.993,2.993,0,0,0-.9-1.63,16.2,16.2,0,0,0,1.946.012,27.479,27.479,0,0,0-.124,7.911,35.553,35.553,0,0,0,.507,3.871,10.658,10.658,0,0,0,.487,1.944q-1.362.152-2.721.311Zm-15.92-54.729a28.244,28.244,0,0,0,2.654-1.225c-.042.484-.019.978-.032,1.473-.016.595-.024,1.189-.03,1.783a16.709,16.709,0,0,0-3.023,1.448c-.626.359-1.245.729-1.876,1.081a4.56,4.56,0,0,0-.607.415c.02-.393.041-.784.073-1.174a15.448,15.448,0,0,1,.323-2.2,5.275,5.275,0,0,1,.2-.6,2.237,2.237,0,0,0,.336-.109C100.292,3794.761,100.946,3794.46,101.6,3794.143Zm-2.441,15.8c-.264-2-.382-4.035-.473-6.053q-.087-1.908-.036-3.822a1.091,1.091,0,0,0,.486-.063c.654-.277,1.293-.58,1.93-.891,1.026-.5,2.062-.966,3.118-1.4,0,1.582.038,3.161.178,4.736-.923,1.6-1.816,3.218-2.7,4.839-.8,1.261-1.586,2.524-2.351,3.8C99.254,3810.7,99.207,3810.316,99.157,3809.946Zm19.612,6.64c-3.7.152-7.409.307-11.1.637-2.647.237-5.46.335-8.152.754a41.894,41.894,0,0,0,2.653-4.82c1.662-3.09,3.246-6.215,4.9-9.31,1.282-2.4,2.632-4.775,4.135-7.061a63.664,63.664,0,0,1,5.754-6.635,17.712,17.712,0,0,0,2.879,2.477,23.535,23.535,0,0,0,1.825,2.3c2.266,2.557,5.086,4.6,7.54,6.992,3.772,3.679,6.032,8.644,9.482,12.572a3.109,3.109,0,0,0,.772,1.755C132.587,3815.988,125.62,3816.3,118.769,3816.586Z"/><path d="M97.257,3786.386c1.09.11,1.947.854,3.029,1.052a3.111,3.111,0,0,1-2.231,2.005.163.163,0,1,0,.092.313,3.565,3.565,0,0,0,2.744-2.457c.057-.17-.1-.3-.259-.318a11.022,11.022,0,0,1-2.644-1.089,40.833,40.833,0,0,1,5.8-3.851.387.387,0,0,0-.316-.7,5.175,5.175,0,0,1-2.213.082c1.182-1,1.9-2.271,3.023-3.4.348-.347-.208-.869-.558-.522-1.312,1.3-2.057,2.878-3.721,3.88a.377.377,0,0,0,.2.7c.557.019,1.123.105,1.687.147a26.848,26.848,0,0,0-4.9,3.576C96.765,3786.037,96.956,3786.356,97.257,3786.386Z"/><path d="M116.824,3797.417c.044-.235.082-.473.107-.716.032-.292-.452-.336-.533-.068-.782,2.617-2.524,4.886-4.123,7.115-1.252,1.744-3.331,4.292-2.982,6.525.083.535.92.557,1.172.143a5.886,5.886,0,0,0,.432-.88,47.087,47.087,0,0,0,6.689-.374c2.581-.285,5.22-.181,7.779-.5a.74.74,0,0,0,.71-.944.768.768,0,0,0,.589-1.153A27.044,27.044,0,0,0,116.824,3797.417Zm6.454,9.329c-.1-.152-.2-.3-.3-.465-.152-.256-.286-.522-.415-.79a.114.114,0,0,0,.125-.111v-1.386a21.432,21.432,0,0,1,2.171,2.786A12.782,12.782,0,0,0,123.278,3806.746Zm-.836-3.02v1.506c-.2-.44-.384-.889-.572-1.33a14.493,14.493,0,0,0-.776-1.572C121.552,3802.788,122,3803.252,122.442,3803.726Zm-5.086,3.85c-2.1.347-4.152.8-6.209,1.289a15.488,15.488,0,0,1,.7-1.826,26.726,26.726,0,0,1,1.4-2.416,20.259,20.259,0,0,0,.6,3.2c.086.346.67.2.571-.148-.327-1.143-.664-2.307-.892-3.48.175-.273.351-.544.525-.816.2-.309.394-.617.585-.926a7.1,7.1,0,0,0,1.783,4.735.339.339,0,0,0,.542-.391,10.234,10.234,0,0,1-1.815-5.194,13.79,13.79,0,0,0,1.6-3.791c.826,1,1.729,1.926,2.649,2.839a.167.167,0,0,0,.03.1,19.637,19.637,0,0,1,1.874,4.109,16.479,16.479,0,0,0,.841,1.965c-.907.089-1.822.235-2.715.391a.3.3,0,0,0,.089-.433,20.817,20.817,0,0,1-2.731-7.746c-.025-.127-.257-.1-.242.031.319,2.789.641,5.671,2.335,8.065a.373.373,0,0,0,.2.144C118.487,3807.38,117.912,3807.485,117.356,3807.576Z"/><path d="M101.969,3830.5a9.833,9.833,0,0,0,1.521,4.144c1.391,2.266,4.614,2.03,7.014,2.358.84.115,1.44-.553,1.067-1.3-1.867-3.75.413-7.878.078-11.784a.907.907,0,0,0-1.345-.722,7.735,7.735,0,0,1-6.706.419c-.946-.4-1.78.8-1.025,1.31A26.952,26.952,0,0,0,101.969,3830.5Zm1.745-5.123a9.6,9.6,0,0,0,6.174-.159c-.1,3.36-1.383,6.591-.51,9.871-.778-.092-1.556-.184-2.327-.307a2.633,2.633,0,0,1-1.963-1.012C103.257,3831.2,103.733,3828.28,103.714,3825.38Z"/><path d="M129.417,3832.985c-.229.485.021,1.285.741,1.207a81.062,81.062,0,0,1,8.436-.382.847.847,0,0,0,.87-.814c-.188-2.8-.03-6.01-1.5-8.546-1.609-2.771-5.276-2.328-7.98-1.524a.627.627,0,1,0,.354,1.2c.3-.072.608-.143.923-.207a5.793,5.793,0,0,0-.937,3.1C130.061,3828.976,130.287,3831.138,129.417,3832.985Zm2.363-9.16c2-.335,4.125-.252,5.018,1.77.882,2,.81,4.4.887,6.583a51.214,51.214,0,0,0-6.38.234C131.815,3829.585,130.786,3826.538,131.78,3823.825Z"/></g></svg>