<svg xmlns="http://www.w3.org/2000/svg" width="42.965" height="42.958" viewBox="0 0 42.965 42.958"><defs><style>.a{fill:#f7f7f7;}</style></defs><g transform="translate(-1181.151 -178.362)"><path class="a" d="M1202.634,209.045h-4.313c-.721,0-.862-.106-1.127-.788-.9-2.3-1.731-4.634-2.725-6.894a42.682,42.682,0,0,0-2.377-4.422,12.272,12.272,0,1,1,22.69-8.016,11.14,11.14,0,0,1-1.482,7.7,49.5,49.5,0,0,0-4.631,10.007c-.214.6-.452,1.193-.669,1.793a.862.862,0,0,1-.91.621C1205.6,209.039,1204.119,209.045,1202.634,209.045Zm-2.316-13.813c-.3,0-.572.009-.839,0a2.3,2.3,0,1,1,2.382-2.362c.009.266,0,.532,0,.8h1.543c0-.322-.016-.61,0-.895a2.3,2.3,0,0,1,4.573-.137,2.26,2.26,0,0,1-1.734,2.514,10.055,10.055,0,0,1-1.285.128V207.51h.453c1.284.005,1.29.007,1.735-1.2a47.869,47.869,0,0,1,4.564-9.991,10.246,10.246,0,0,0,1.577-6.865,10.737,10.737,0,1,0-19.781,6.887,53.509,53.509,0,0,1,2.767,5.3c.809,1.784,1.429,3.653,2.141,5.481.056.145.18.365.285.372.533.038,1.071.018,1.615.018Zm3.055.034H1201.9v12.22h1.476Zm-3.046-1.575c0-.217,0-.388,0-.56a1.943,1.943,0,0,0-.008-.286.767.767,0,0,0-.791-.678.775.775,0,0,0-.729.747.75.75,0,0,0,.693.773C1199.743,193.711,1200,193.691,1200.327,193.691Zm4.609,0c.32,0,.575.02.827,0a.758.758,0,0,0,.7-.818.778.778,0,0,0-.723-.7.76.76,0,0,0-.8.722C1204.919,193.14,1204.936,193.393,1204.936,193.694Z"/><path class="a" d="M1198.85,218.251c-.257,0-.495.006-.734,0a.77.77,0,1,1,.015-1.53c1.966-.007,3.931,0,5.9-.005,1.007,0,2.014,0,3.021,0,.6,0,.953.293.949.773s-.356.754-.963.76c-.206,0-.412,0-.606,0-.81,2.133-2.069,3.109-3.925,3.067A3.921,3.921,0,0,1,1198.85,218.251Zm1.681.023a2.212,2.212,0,0,0,2.185,1.508,2.143,2.143,0,0,0,2-1.508Z"/><path class="a" d="M1202.616,212.116c-1.483,0-2.967,0-4.45,0-.576,0-.934-.34-.9-.818.031-.445.36-.713.907-.714q2.559-.006,5.12,0c1.244,0,2.489,0,3.733,0,.611,0,.961.273.973.747.013.491-.351.788-.98.789Q1204.818,212.119,1202.616,212.116Z"/><path class="a" d="M1202.618,215.183q-2.2,0-4.4,0c-.6,0-.953-.289-.953-.768s.348-.767.951-.767q4.4,0,8.8,0c.632,0,.994.3.979.791-.015.472-.364.743-.976.744Q1204.819,215.185,1202.618,215.183Z"/><path class="a" d="M1181.981,181.423a2.106,2.106,0,0,1,.322.109c1.5.747,3,1.491,4.494,2.251a.745.745,0,0,1,.366,1.115.7.7,0,0,1-.96.284q-2.319-1.142-4.626-2.31a.707.707,0,0,1-.39-.885A.774.774,0,0,1,1181.981,181.423Z"/><path class="a" d="M1224.106,182.358c-.092.111-.225.4-.446.513-1.51.785-3.035,1.542-4.564,2.292a.76.76,0,1,1-.681-1.359q2.277-1.158,4.571-2.282C1223.535,181.255,1224.111,181.622,1224.106,182.358Z"/><path class="a" d="M1181.824,196.84c-.19-.176-.513-.342-.594-.588-.075-.229.084-.551.185-.814.036-.094.2-.145.315-.2q2.134-1.068,4.272-2.131c.547-.272.969-.181,1.192.246s.051.841-.49,1.113q-2.151,1.086-4.312,2.156C1182.252,196.69,1182.1,196.735,1181.824,196.84Z"/><path class="a" d="M1218.825,192.926c.109.044.274.1.429.176q2.139,1.063,4.274,2.134c.54.272.716.682.494,1.112s-.647.526-1.192.254q-2.181-1.086-4.358-2.18a.753.753,0,0,1-.475-.892A.78.78,0,0,1,1218.825,192.926Z"/><path class="a" d="M1184.214,189.863c-.717,0-1.434,0-2.151,0-.563-.005-.905-.3-.909-.76s.337-.769.9-.771q2.173-.007,4.349,0c.55,0,.9.321.885.784a.782.782,0,0,1-.873.749c-.733.008-1.466,0-2.2,0Z"/><path class="a" d="M1221,189.863c-.719,0-1.438.007-2.157,0a.776.776,0,0,1-.869-.755.766.766,0,0,1,.849-.774q2.2-.014,4.411,0a.778.778,0,0,1,.869.756c.007.465-.339.772-.9.777C1222.475,189.868,1221.74,189.863,1221,189.863Z"/><path class="a" d="M1210.8,186.5l-1.276.651c-2.283-3.657-5.473-4.929-9.7-3.715l-.534-1.308C1203.029,180.331,1208.7,182.022,1210.8,186.5Z"/><path class="a" d="M1210.024,188.539l1.478-.427.313,1.705-1.509.156Z"/></g></svg>