<?xml version="1.0" encoding="UTF-8" standalone="no"?>
<svg
   xmlns:dc="http://purl.org/dc/elements/1.1/"
   xmlns:cc="http://creativecommons.org/ns#"
   xmlns:rdf="http://www.w3.org/1999/02/22-rdf-syntax-ns#"
   xmlns:svg="http://www.w3.org/2000/svg"
   xmlns="http://www.w3.org/2000/svg"
   id="svg4724"
   version="1.1"
   viewBox="0 0 10.18751 10.18921"
   height="10.18921mm"
   width="10.18751mm">
  <defs
     id="defs4718" />
  <metadata
     id="metadata4721">
    <rdf:RDF>
      <cc:Work
         rdf:about="">
        <dc:format>image/svg+xml</dc:format>
        <dc:type
           rdf:resource="http://purl.org/dc/dcmitype/StillImage" />
        <dc:title></dc:title>
      </cc:Work>
    </rdf:RDF>
  </metadata>
  <g
     transform="translate(-311.52813,-160.69761)"
     id="layer1">
    <path
       d="m 320.7723,167.8533 c -0.022,0.49742 -0.10546,0.76659 -0.17531,0.9458 -0.1711,0.44344 -0.52319,0.79586 -0.96732,0.96731 -0.17922,0.0695 -0.44979,0.15276 -0.94546,0.17498 -0.53726,0.0236 -0.6985,0.03 -2.05809,0.03 -1.35961,0 -1.52294,-0.006 -2.05845,-0.03 -0.49779,-0.0222 -0.76624,-0.10548 -0.94547,-0.17498 -0.22082,-0.0819 -0.4219,-0.21131 -0.58525,-0.38029 -0.16897,-0.16545 -0.29845,-0.36407 -0.37995,-0.58526 -0.0698,-0.17921 -0.15345,-0.45014 -0.17531,-0.94544 -0.0241,-0.53764 -0.0296,-0.69886 -0.0296,-2.05846 0,-1.35961 0.006,-1.52294 0.0296,-2.05811 0.022,-0.49741 0.10546,-0.76623 0.17531,-0.94544 0.0815,-0.22119 0.21098,-0.42192 0.38206,-0.58526 0.1651,-0.16898 0.36407,-0.2988 0.58526,-0.38029 0.17923,-0.0695 0.44979,-0.15311 0.94546,-0.17498 0.53727,-0.024 0.6985,-0.03 2.05809,-0.03 1.36173,0 1.52294,0.006 2.05812,0.03 0.49776,0.0219 0.76657,0.10548 0.9458,0.17498 0.22082,0.0815 0.42191,0.21131 0.58526,0.38029 0.16896,0.16545 0.29845,0.36407 0.37994,0.58526 0.0698,0.17921 0.15346,0.44979 0.17531,0.94544 0.0236,0.53728 0.0296,0.6985 0.0296,2.05811 0,1.3596 -0.006,1.51906 -0.0296,2.05634 m 0.91758,-4.16031 c -0.0241,-0.54116 -0.11147,-0.91369 -0.2367,-1.23613 -0.12948,-0.34255 -0.32845,-0.64876 -0.58949,-0.90346 -0.25471,-0.25894 -0.56303,-0.46003 -0.9017,-0.58703 -0.32422,-0.12559 -0.69464,-0.21343 -1.23579,-0.23706 -0.54575,-0.0261 -0.71861,-0.0317 -2.10219,-0.0317 -1.38361,0 -1.55647,0.006 -2.10011,0.0296 -0.54149,0.024 -0.91368,0.11147 -1.23613,0.23706 -0.34253,0.12912 -0.64876,0.32809 -0.90345,0.58914 -0.25894,0.25471 -0.46003,0.56304 -0.58737,0.90135 -0.12525,0.32456 -0.2131,0.69497 -0.23672,1.23613 -0.0262,0.54575 -0.0321,0.71861 -0.0321,2.1022 0,1.3836 0.006,1.55646 0.03,2.10009 0.0241,0.54116 0.11147,0.9137 0.23707,1.23614 0.12911,0.34219 0.3302,0.64875 0.58914,0.90381 0.25469,0.25859 0.56304,0.45967 0.9017,0.58702 0.3242,0.12524 0.69462,0.21273 1.23614,0.23707 0.54327,0.0236 0.71649,0.0296 2.09973,0.0296 1.38359,0 1.55681,-0.006 2.10008,-0.0296 0.54152,-0.0243 0.91368,-0.11183 1.23613,-0.23707 0.68474,-0.26458 1.22627,-0.80609 1.49085,-1.49083 0.12523,-0.32456 0.21307,-0.69498 0.23707,-1.23614 0.0235,-0.54363 0.0296,-0.71649 0.0296,-2.10009 0,-1.38359 -0.003,-1.55645 -0.0257,-2.10008"
       style="fill:#000000;fill-opacity:1;fill-rule:nonzero;stroke:none;stroke-width:0.35277775"
       id="path1579" />
    <path
       d="m 316.6239,167.49089 c -0.93734,0 -1.69793,-0.76024 -1.69793,-1.69756 0,-0.93804 0.76059,-1.69828 1.69793,-1.69828 0.93769,0 1.69791,0.76024 1.69791,1.69828 0,0.93732 -0.76022,1.69756 -1.69791,1.69756 m 0,-4.31518 c -1.44499,0 -2.61726,1.17228 -2.61726,2.61762 0,1.44497 1.17227,2.61725 2.61726,2.61725 1.44532,0 2.6176,-1.17228 2.6176,-2.61725 0,-1.44534 -1.17228,-2.61762 -2.6176,-2.61762"
       style="fill:#000000;fill-opacity:1;fill-rule:nonzero;stroke:none;stroke-width:0.35277775"
       id="path1583" />
    <path
       d="m 319.95617,163.07221 c 0,0.33725 -0.27342,0.61066 -0.61103,0.61066 -0.33761,0 -0.611,-0.27341 -0.611,-0.61066 0,-0.33761 0.27339,-0.61101 0.611,-0.61101 0.33761,0 0.61103,0.2734 0.61103,0.61101"
       style="fill:#000000;fill-opacity:1;fill-rule:nonzero;stroke:none;stroke-width:0.35277775"
       id="path1587" />
  </g>
</svg>
