<?xml version="1.0" encoding="UTF-8" standalone="no"?>
<svg xmlns:dc="http://purl.org/dc/elements/1.1/" xmlns:cc="http://creativecommons.org/ns#" xmlns:rdf="http://www.w3.org/1999/02/22-rdf-syntax-ns#" xmlns:svg="http://www.w3.org/2000/svg" xmlns="http://www.w3.org/2000/svg" xmlns:sodipodi="http://sodipodi.sourceforge.net/DTD/sodipodi-0.dtd" xmlns:inkscape="http://www.inkscape.org/namespaces/inkscape" inkscape:version="1.0 (6e3e5246a0, 2020-05-07)" sodipodi:docname="interact-like-icon.svg" id="svg4" version="1.1" viewBox="0 0 58.174 49.885" height="49.885" width="58.174">
	<metadata id="metadata10">
		<RDF>
			<Work rdf:about="">
				<format>
					image/svg+xml
				</format>
				<type rdf:resource="http://purl.org/dc/dcmitype/StillImage" />
				<title>
				</title>
			</Work>
		</RDF>
	</metadata>
	<defs id="defs8" />
	<namedview inkscape:current-layer="svg4" inkscape:window-maximized="1" inkscape:window-y="27" inkscape:window-x="0" inkscape:cy="24.634023" inkscape:cx="29.087" inkscape:zoom="11.346096" showgrid="false" id="namedview6" inkscape:window-height="713" inkscape:window-width="1366" inkscape:pageshadow="2" inkscape:pageopacity="0" guidetolerance="10" gridtolerance="10" objecttolerance="10" borderopacity="1" bordercolor="#666666" pagecolor="#ffffff" />
	<path id="path2" class="heart-fill" transform="translate(-299.967 -2545.173)" d="M329.029,2551.331c3.545-3.559,7.289-6.009,12.391-6.117,7.17-.151,13.128,5.195,15.37,10.991,2.927,7.568.938,14.261-4.422,19.592-6.676,6.64-14.005,12.635-21.221,18.71a4.245,4.245,0,0,1-4.065.063c-7.3-6.127-14.874-12.032-21.441-18.887-8.457-8.827-7.133-20.439,1.793-27.375C313.453,2543.63,322.385,2543.833,329.029,2551.331Zm.005,40.43c6.792-5.995,13.62-11.5,19.8-17.648,4.563-4.543,7.153-10.153,4.158-16.9-1.86-4.19-4.835-7.186-9.314-7.995a10.825,10.825,0,0,0-11.474,4.949c-1.022,1.5-2.039,3.009-3.181,4.7-.806-1.338-1.326-2.32-1.956-3.225-2.342-3.365-5.075-6.222-9.51-6.537-5.269-.374-8.957,2.107-11.529,6.515-2.768,4.746-2.9,9.548.133,14.155C312.067,2578.758,321.451,2584.123,329.034,2591.761Z" />
	<path id="path14" class="heart-fill" d="M 27.807588,45.282583 C 25.908657,43.498657 24.168015,41.989768 20.12671,38.624352 15.975216,35.167176 15.271823,34.55968 13.303104,32.731041 10.696214,30.30964 8.54714,27.87735 6.7718921,25.339111 5.46802,23.474843 4.8179814,22.134616 4.3425786,20.330436 4.0889491,19.367898 4.0710429,19.197008 4.0639475,17.671276 4.0580757,16.408685 4.092409,15.871712 4.2161002,15.291603 4.8232127,12.444258 6.4218004,9.4570648 8.4527012,7.3748998 10.129597,5.6556755 11.918361,4.6523704 14.153792,4.1771986 c 1.208911,-0.256971 3.433774,-0.2804713 4.604721,-0.048638 3.539446,0.7007685 6.454852,3.2133694 9.326143,8.0376044 0.502814,0.844809 0.941392,1.536685 0.974616,1.537503 0.03323,7.93e-4 0.953018,-1.31949 2.043985,-2.934015 2.134221,-3.1584393 2.712341,-3.8539122 3.98021,-4.7881465 1.896215,-1.3972345 4.017373,-2.0926953 6.386646,-2.0939806 2.429048,-0.00132 4.79226,0.7277366 6.786448,2.0936292 0.886283,0.6070472 2.288752,2.0256473 3.01822,3.052934 0.702603,0.9894539 1.888748,3.3296799 2.256979,4.4529479 0.533558,1.62759 0.670867,2.490901 0.672511,4.228307 0.0011,1.201978 -0.03721,1.768004 -0.158235,2.335605 -0.489402,2.295282 -1.625224,4.60043 -3.322209,6.742407 -1.743349,2.200501 -6.612759,6.726792 -15.118397,14.053092 -2.276316,1.960698 -4.614692,3.980785 -5.19639,4.489085 -0.581697,0.5083 -1.117772,0.974152 -1.191275,1.035227 -0.113235,0.09409 -0.328589,-0.07209 -1.410177,-1.088177 z" style="fill:#fff;stroke-width:0.088136" />
	<path id="path16" class="heart-fill" d="M 28.669726,45.984979 C 28.464184,45.803198 27.799019,45.198364 27.191582,44.640904 25.555696,43.139609 23.937861,41.74689 19.920852,38.381869 15.840059,34.963418 15.386385,34.570222 13.350287,32.687221 10.704239,30.240131 8.3905499,27.602251 6.6346855,25.030635 5.4959456,23.362852 4.8931158,22.104361 4.3936708,20.352204 4.1547989,19.514193 4.1445481,19.399748 4.1456477,17.58314 c 0.00103,-1.699764 0.02239,-1.976621 0.2074015,-2.688149 0.2979165,-1.145743 0.7507702,-2.321625 1.3443178,-3.49066 1.7452213,-3.4373417 4.2831559,-5.8541048 7.16272,-6.8207426 1.333386,-0.4476031 1.829166,-0.5156398 3.755663,-0.5153949 1.679586,2.133e-4 1.86884,0.016819 2.68815,0.2358666 0.484748,0.1296003 1.319687,0.4503354 1.855419,0.7127447 2.582594,1.2649898 4.571301,3.3767792 7.123721,7.5646152 0.376694,0.618054 0.715455,1.123734 0.752803,1.123734 0.116227,0 0.294103,-0.242614 1.906238,-2.600013 1.90157,-2.7806359 2.470066,-3.5376628 3.189584,-4.2473459 0.980168,-0.9667701 2.597994,-1.9378259 3.990411,-2.3951341 3.01998,-0.9918459 6.596223,-0.5500596 9.468022,1.1696193 1.273955,0.7628644 2.934032,2.3749929 3.820488,3.7101399 0.633626,0.9543418 1.810359,3.3539008 2.12103,4.3251398 0.518159,1.6199 0.575987,2.027173 0.581002,4.091852 0.0042,1.715093 -0.01508,1.970204 -0.2028,2.688149 -0.436921,1.671038 -1.188065,3.317739 -2.251385,4.935618 -0.906031,1.37856 -1.714441,2.30422 -3.810121,4.362734 -2.914056,2.862378 -6.185103,5.796151 -13.605354,12.202523 -2.351029,2.029792 -4.442272,3.842748 -4.647207,4.028792 -0.204935,0.186044 -0.413042,0.338261 -0.46246,0.338261 -0.04942,0 -0.258022,-0.14873 -0.463565,-0.33051 z" style="fill:#fff;stroke-width:0.088136" />
	<path id="path18" class="heart-fill" d="M 28.668608,45.986434 C 28.46245,45.805453 27.837672,45.239771 27.280211,44.72936 25.19249,42.817844 24.29423,42.045209 19.14409,37.731106 13.139668,32.701399 10.589418,30.224189 8.0121098,26.91795 6.0081227,24.347182 5.068286,22.657765 4.4370925,20.491629 4.1928512,19.65344 4.163387,19.416649 4.1245364,17.979752 4.0912991,16.750461 4.1142175,16.205717 4.2263371,15.560068 4.4253977,14.413763 4.8975741,13.041501 5.5641797,11.671963 7.3016994,8.1022385 9.9009276,5.5769454 12.860087,4.5835884 14.187582,4.1379627 14.690312,4.0688371 16.61575,4.067182 c 1.686635,-0.00145 1.865401,0.01421 2.68815,0.235481 0.484748,0.1303688 1.319687,0.4517325 1.855419,0.7141418 2.584015,1.2656854 4.567069,3.3706978 7.126345,7.5646152 0.377158,0.618054 0.71552,1.123734 0.751914,1.123734 0.112373,0 0.285236,-0.236331 1.901759,-2.600013 1.891982,-2.7664557 2.468228,-3.5331434 3.192328,-4.2473459 0.980168,-0.9667701 2.597994,-1.9378259 3.990411,-2.3951341 3.023442,-0.9929828 6.591358,-0.5519736 9.491012,1.1731283 1.248982,0.7430619 2.914589,2.3748748 3.828373,3.7506989 0.609239,0.9172898 1.7813,3.3168998 2.098305,4.2959438 0.505375,1.560815 0.578423,2.092771 0.571953,4.165116 -0.0056,1.778904 -0.02058,1.948311 -0.245364,2.76686 -0.623549,2.270623 -1.861534,4.568437 -3.530043,6.552089 -0.357435,0.424945 -1.477277,1.585898 -2.488537,2.579896 -2.911469,2.861769 -5.517679,5.206028 -12.63532,11.365348 -2.544929,2.202278 -4.935875,4.274054 -5.313215,4.603945 -0.377339,0.329891 -0.724261,0.599803 -0.770936,0.599803 -0.04668,0 -0.253538,-0.148075 -0.459696,-0.329055 z" style="fill:#fff;stroke-width:0.088136" />
</svg>
