<svg xmlns="http://www.w3.org/2000/svg" width="53.627" height="54.431" viewBox="0 0 53.627 54.431"><path d="M427.86,2543.624c10.616-.031,21.543,8.568,24.827,18.015a26.79,26.79,0,0,1-.664,20.448c-1.48,3.292.856,5.338.9,8.025.024,1.6,1.207,3.146,1.47,4.781a2.968,2.968,0,0,1-1.041,2.563,5.683,5.683,0,0,1-3.456.113,40.969,40.969,0,0,1-6.559-2.074c-3.55-1.514-6.458.832-9.462,1.647a24.05,24.05,0,0,1-18.388-2.188c-10.8-5.841-15.841-15.271-14.484-27.312a25.654,25.654,0,0,1,19.522-22.454C422.942,2544.564,425.413,2544.14,427.86,2543.624Zm22.174,49.684c-.453-1.3-.632-1.853-.836-2.4-1.455-3.88-2.648-7.573-.387-11.787,2.527-4.709,2.378-10.068.79-14.978-3.692-11.419-16.071-18.882-28.039-15.351-12.686,3.744-20.618,17.845-15.451,30.387,5.286,12.831,19.285,19,32.505,12.291a6.38,6.38,0,0,1,3.809-.2C444.81,2591.742,447.135,2592.513,450.034,2593.308Z" transform="translate(-400.783 -2543.624)"/></svg>