<svg xmlns="http://www.w3.org/2000/svg" width="58.039" height="50.157" viewBox="0 0 58.039 50.157"><path d="M523.49,2595.618c-1.283-5.365-2.522-10.5-3.74-15.651-.923-3.9-1.283-8.04-2.9-11.622-1.244-2.752-3.966-4.889-6.192-7.141-4.106-4.152-8.358-8.161-12.483-12.3a24.781,24.781,0,0,1-2.33-3.448h58.038C554.062,2548.382,526.429,2594.568,523.49,2595.618Zm1.758-9.475.707.553q9.858-16.449,19.717-32.9a4.109,4.109,0,0,0-2.645.458c-6.237,3.488-12.443,7.032-18.691,10.5-3.4,1.885-3.935,2.961-3.036,6.3C522.65,2576.077,523.935,2581.113,525.248,2586.143ZM504.515,2549.3a8.454,8.454,0,0,0,.806,1.179c3.934,3.771,7.8,7.626,11.9,11.205.778.679,2.682.672,3.789.253a48.334,48.334,0,0,0,6.3-3.3q7.866-4.4,15.709-8.836l-.154-.5Z" transform="translate(-495.844 -2545.461)"/></svg>