<svg xmlns="http://www.w3.org/2000/svg" width="58.174" height="49.885" viewBox="0 0 58.174 49.885"><path d="M329.029,2551.331c3.545-3.559,7.289-6.009,12.391-6.117,7.17-.151,13.128,5.195,15.37,10.991,2.927,7.568.938,14.261-4.422,19.592-6.676,6.64-14.005,12.635-21.221,18.71a4.245,4.245,0,0,1-4.065.063c-7.3-6.127-14.874-12.032-21.441-18.887-8.457-8.827-7.133-20.439,1.793-27.375C313.453,2543.63,322.385,2543.833,329.029,2551.331Zm.005,40.43c6.792-5.995,13.62-11.5,19.8-17.648,4.563-4.543,7.153-10.153,4.158-16.9-1.86-4.19-4.835-7.186-9.314-7.995a10.825,10.825,0,0,0-11.474,4.949c-1.022,1.5-2.039,3.009-3.181,4.7-.806-1.338-1.326-2.32-1.956-3.225-2.342-3.365-5.075-6.222-9.51-6.537-5.269-.374-8.957,2.107-11.529,6.515-2.768,4.746-2.9,9.548.133,14.155C312.067,2578.758,321.451,2584.123,329.034,2591.761Z" transform="translate(-299.967 -2545.173)"/></svg>