<svg xmlns="http://www.w3.org/2000/svg" width="17.639" height="17.624" viewBox="0 0 17.639 17.624"><defs><style>.a{fill:#a6a8ab;}</style></defs><g transform="translate(-1094.149 -223.318)"><path class="a" d="M1111.028,228.037l.594-.611h0a.583.583,0,0,0,.166-.41l-.005-2.807a.871.871,0,0,0-.257-.629.9.9,0,0,0-.626-.26l-2.883,0c-.006.006-.024,0-.036,0a.667.667,0,0,0-.381.2l-6.258,6.258a5.684,5.684,0,1,0-1.827,11.154c.106.006.211.009.317.009a5.683,5.683,0,0,0,5.482-7.19l.511-.512a.471.471,0,0,0,.137-.378l-.131-1.427,1.3.119a.474.474,0,0,0,.515-.514l-.118-1.3,1.3.119a.474.474,0,0,0,.514-.514l-.116-1.3,1.433.129A.47.47,0,0,0,1111.028,228.037Zm-1.894-.586a.474.474,0,0,0-.514.514l.117,1.3-1.3-.119a.474.474,0,0,0-.515.515l.119,1.3-1.3-.119a.474.474,0,0,0-.515.515l.138,1.51-.6.6a.293.293,0,0,0-.073.294,5.1,5.1,0,1,1-4.879-3.592,5.171,5.171,0,0,1,1.517.23.294.294,0,0,0,.294-.073l6.38-6.381c.012-.011.024-.022.037-.032l2.849,0h0a.291.291,0,0,1,.21.088.3.3,0,0,1,.084.211l.005,2.809h0l-.554.57Z"/><path class="a" d="M1097.086,235.56a1.731,1.731,0,1,0,2.448,0A1.731,1.731,0,0,0,1097.086,235.56Zm2.032,2.032a1.143,1.143,0,1,1,0-1.617,1.143,1.143,0,0,1,0,1.617Z"/></g></svg>