<svg xmlns="http://www.w3.org/2000/svg" width="78.248" height="83.056" viewBox="0 0 78.248 83.056"><g transform="translate(-1275.205 -3977.617)"><path d="M1352.6,3996.839c-2.98-11.84-13.348-18.642-25.117-19.191a27.181,27.181,0,0,0-16.063,4.194c-5,3.28-7.7,8.857-8.886,14.564a29.825,29.825,0,0,0,1.752,16.876,31.85,31.85,0,0,0,4.409,7.787,66.3,66.3,0,0,0-12,13.476.9.9,0,0,0-.133.352c-2.891-.158-6.274,1.69-8.842,3.595a53.2,53.2,0,0,0-8.228,7.816c-.788.9-2.834,2.782-3.283,4.362a2.874,2.874,0,0,1-.713.89.615.615,0,0,0-.275.674,10.791,10.791,0,0,0,3.042,5.28,7.4,7.4,0,0,0,2.448,1.513,12.439,12.439,0,0,0,2.462,1.589.575.575,0,0,0,.329.052.586.586,0,0,0,.4-.145c.427-.373.832-.766,1.229-1.166a14.126,14.126,0,0,0,2.2-1.745,68.4,68.4,0,0,0,8.139-8.026,56.983,56.983,0,0,0,4.671-6c.03,0,.055.016.084.02.225.03.333-.3.183-.439a12.884,12.884,0,0,0,1.613-3.362.726.726,0,0,0,.512-.314,22.26,22.26,0,0,1,3.151-3.612.959.959,0,0,0,.17-.041.164.164,0,0,0,.1-.218c.672-.627,1.367-1.233,2.069-1.83a3.16,3.16,0,0,0,.573-.012c.2-.021.293-.357.053-.39-.045-.007-.089-.012-.134-.017a33.7,33.7,0,0,0,6.327-6.383.643.643,0,0,0,.079-.651.42.42,0,0,0,.124-.025,16.978,16.978,0,0,0,4.7,2.661c6.347,2.309,13.715,1.49,19.769-1.294C1350.923,4022.439,1355.508,4008.381,1352.6,3996.839Zm-57.1,51.13,0,0-.007-.005c.09-.144-.1-.29-.237-.221-.012.013-.022.019-.032.029-.033-.022-.064-.044-.1-.067q.79-.7,1.631-1.4a.169.169,0,0,0,.135-.112c.018-.016.035-.03.052-.046.039-.031.08-.065.122-.1Q1296.306,4047.023,1295.505,4047.969Zm-2.451,2.777a7.064,7.064,0,0,0-.672-.356c.168-.184.336-.371.508-.55.05.009.1.014.153.021.012.285.025.571.037.856Zm-13.4-2.147a58.568,58.568,0,0,1,6.271-6.533c3.516-3.171,11.378-9.407,14.459-2.586a.491.491,0,0,0,.244.243,2.829,2.829,0,0,1-.1.988c-.044.1-.092.206-.141.307a5.651,5.651,0,0,0-2.149-2.026c-.229-.115-.429.219-.2.343a5.238,5.238,0,0,1,1.931,1.972.236.236,0,0,0,.214.113c-.225.414-.473.809-.7,1.17-.023.031-.046.061-.071.091a7.856,7.856,0,0,1-2.652-2.143c-.021-.027-.068.01-.048.037a9.782,9.782,0,0,0,2.292,2.572c-.35.377-.732.748-1.136,1.1a6.629,6.629,0,0,1-1.408-1.1,4.414,4.414,0,0,1-1-2.592.114.114,0,0,0-.228,0,4.883,4.883,0,0,0,2.087,4.164c-.312.26-.628.512-.944.757a13.821,13.821,0,0,1-1.083-1,6.353,6.353,0,0,1-1.287-2.539c-.018-.074-.122-.042-.109.03a6.935,6.935,0,0,0,.983,2.522,6.585,6.585,0,0,0,1.048,1.329c-.581.44-1.137.845-1.617,1.205a46.466,46.466,0,0,1-3.091-3.736c-.065-.079-.175.021-.134.1a15.436,15.436,0,0,0,2.747,4c-.116.092-.231.182-.331.267-.452.376-.879.776-1.291,1.19a9.169,9.169,0,0,1-3.045-3.462c-.076-.131-.257-.016-.2.115a8.818,8.818,0,0,0,2.749,3.859c-.592.632-1.152,1.293-1.692,1.973-.055-.043-.11-.091-.163-.125a.187.187,0,0,0-.249.061,27.714,27.714,0,0,1-3.258-3.813c-.082-.1-.24.029-.179.139a16.191,16.191,0,0,0,3.236,4.526c-.584.764-1.155,1.542-1.731,2.314a9.7,9.7,0,0,1-4.144-4.821.057.057,0,0,0-.109.032,9.349,9.349,0,0,0,3.862,5.308c-.458.607-.923,1.206-1.4,1.79a8.357,8.357,0,0,1-4.414-5.042.086.086,0,0,0-.165.045,8.232,8.232,0,0,0,4.061,5.6c-.184.212-.373.422-.564.628-.145-.062-.294-.127-.453-.2a11.119,11.119,0,0,1-2.123-1.4,13.432,13.432,0,0,1-2.834-3.318.113.113,0,0,0-.2.114,14.858,14.858,0,0,0,2.675,3.561,10.411,10.411,0,0,0,2.371,1.829q-.414.415-.849.808c-.163-.083-.323-.167-.482-.255a2.248,2.248,0,0,0,.365-.171.288.288,0,0,0,0-.491,14.694,14.694,0,0,0-2.625-.994c-.1-.046-.194-.1-.289-.149a24.742,24.742,0,0,1-2.861-2.965c-.476-.726-1.139-1.854-.83-2.286.028-.038.048-.077.072-.115C1278.013,4051.527,1278.854,4049.584,1279.656,4048.6Zm8.752,6.911a.309.309,0,0,0,.11-.043l-.354.36C1288.245,4055.721,1288.328,4055.616,1288.408,4055.51Zm.228-.162a.314.314,0,0,0,.038-.192c.58-.772,1.152-1.552,1.728-2.333a.351.351,0,0,0,.344-.148c.067.013.111-.028.087-.176a.372.372,0,0,0,.006-.137c.434-.018.653-.407,1.054-.5.17-.039.108-.261-.039-.279a1.312,1.312,0,0,0-.555.067q.458-.57.933-1.1a5.385,5.385,0,0,1,.63.4C1291.486,4052.453,1290.061,4053.9,1288.636,4055.348Zm4.8-5.021c.008-.176.016-.351.023-.526a.194.194,0,0,1,0-.024.272.272,0,0,0,.029-.171c.07-.236.254-.273.521-.4a1.525,1.525,0,0,0,.728-.828.52.52,0,0,0,.234-.026c.042.029.081.062.124.091-.38.44-.761.88-1.144,1.313C1293.783,4049.949,1293.608,4050.136,1293.436,4050.327Zm15.833-19.527a5.17,5.17,0,0,1-2.037-2.119c-.014-.03-.06-.009-.051.022a4.541,4.541,0,0,0,1.748,2.394c-.724.634-1.459,1.256-2.186,1.887-.037-.018-.076-.026-.114-.047a3.548,3.548,0,0,1-1.393-1.522c-.088-.162-.326-.019-.245.145a4.312,4.312,0,0,0,1.458,1.683c-.7.616-1.393,1.244-2.054,1.9-.036-.018-.074-.031-.11-.051a2.512,2.512,0,0,1-1.128-1.552.142.142,0,0,0-.274.075,2.9,2.9,0,0,0,.994,1.654c.07.053.151.107.237.162-.362.371-.715.752-1.052,1.149a6.622,6.622,0,0,1-1.1-.524,5.274,5.274,0,0,1-1.682-1.809.057.057,0,0,0-.1.056,5.765,5.765,0,0,0,1.591,2,5.471,5.471,0,0,0,.981.658c-.286.354-.564.718-.825,1.1a1.451,1.451,0,0,0-.909-.621c-.014,0-.024,0-.038,0-.153-.124-.311-.246-.466-.366a5.115,5.115,0,0,0-2.238-1.809,143.272,143.272,0,0,1,10.923-13.571,19.173,19.173,0,0,0,4.762,4.2.765.765,0,0,0-.437.315c-.018.026-.038.051-.057.077a5.684,5.684,0,0,1-2.671-1.841c-.085-.115-.28-.006-.2.115a5.906,5.906,0,0,0,2.671,2,20.5,20.5,0,0,1-1.624,1.959,2.283,2.283,0,0,1-.973-.187,2.506,2.506,0,0,1-1.289-1.754c-.027-.107-.185-.061-.164.046a2.677,2.677,0,0,0,2.045,2.291C1310.624,4029.569,1309.955,4030.192,1309.269,4030.8Zm36.108-9.134c-5.529,6.036-13.945,8.225-21.889,7.007-5.974-.915-10.033-5.041-13.931-9.284a25.61,25.61,0,0,1-1.562-2.158,29.985,29.985,0,0,1-3.954-9.987c-1.512-7.089-.018-15.39,4.649-21.05,8.025-9.728,25.408-9.063,34.666-1.673C1354.637,3993.524,1354.768,4011.415,1345.377,4021.666Z"/><path d="M1316.119,3988.242a17.639,17.639,0,0,0-5.552,7.817,9.673,9.673,0,0,0-.528,3.372c-3.076,9.154,2.225,20.836,12.107,22.89,10.529,2.187,20.907-3.443,24.156-13.712a18.951,18.951,0,0,0-12.228-23.68A20.428,20.428,0,0,0,1316.119,3988.242Zm15.836-2.327c9.855,1.6,15.185,11.871,13.171,21.077-2.045,9.335-10.56,14.4-19.7,14-12.867-.556-16.722-15.818-12.418-26.086.088-.208-.241-.394-.38-.223-.04.049-.073.1-.11.148a17.549,17.549,0,0,1,1.922-3.042C1318.458,3986.647,1325.757,3984.911,1331.955,3985.915Z"/><path d="M1312.353,3989.041a18.369,18.369,0,0,1,9.61-4.937c3.668-.708,7.393-.081,11.066-.487a.285.285,0,0,0,0-.569c-8.067-.951-15.934.279-21.862,6.094-5.291,5.189-6.4,11.757-4.014,18.632a.057.057,0,0,0,.109-.03C1305.239,4000.528,1307.02,3994.256,1312.353,3989.041Z"/><path d="M1337.831,3985.03c3.2,1.207,5.865,2.081,8.175,4.774a16.837,16.837,0,0,1,3.454,8.915,27.793,27.793,0,0,1-4.029,17.642c-8.964,14.436-30.077,9.277-37.477-3.745-.031-.055-.128-.018-.1.043,6.14,15.252,28.676,18.319,38.151,4.7,3.927-5.644,5.292-13.277,4.261-19.993-.935-6.092-5.593-12.789-12.347-12.95C1337.54,3984.407,1337.517,3984.912,1337.831,3985.03Z"/></g></svg>