<svg xmlns="http://www.w3.org/2000/svg" width="67.386" height="52.32" viewBox="0 0 67.386 52.32"><g transform="translate(-183.453 -3647.659)"><path d="M250.02,3697.061c-.285-.064-.573-.115-.865-.158.018-.062.036-.124.052-.187a1.088,1.088,0,0,0,1.6-.944c-.046-7.542-.46-15.072-.9-22.6-.22-3.794-.529-7.584-.756-11.38-.192-3.242-.278-6.521-.582-9.761.34-.325.687-.644,1.05-.947.843-.705-.06-1.825-.954-1.64a8.611,8.611,0,0,0-2.727-.178q-1.989-.015-3.98-.051c-2.669-.043-5.335-.108-8-.217-5.549-.227-11.094-.546-16.644-.751-5.571-.205-11.151-.5-16.727-.52-5.252-.017-10.657-.312-15.866.471-.006-.071-.009-.141-.015-.212a.3.3,0,0,0-.6,0c-.009.119-.015.239-.025.357a.54.54,0,0,0-.2.428l-.188-.129c-.154-.108-.325.128-.2.257.17.171.345.336.517.505-.459,7.651-.306,15.363-.15,23.019.169,8.312.34,16.627.409,24.941a.878.878,0,0,0,.877.9.181.181,0,0,0,.024.012,33.142,33.142,0,0,0,7.606,1.251c2.7.218,5.4.382,8.1.424,5.576.086,11.153-.023,16.728-.165,5.382-.135,10.763-.32,16.146-.437q4-.085,8.01-.082c2.7,0,5.581.384,8.253,0C251.153,3699.1,251.07,3697.293,250.02,3697.061Zm-6.37-2.484c0,.021-.008.04-.01.061a24.366,24.366,0,0,0-2.506-3.1,2.768,2.768,0,0,1,.611-1.5c.6.942,1.181,1.9,1.774,2.859a34.86,34.86,0,0,0,2.565,3.809c-.437,0-.874.006-1.309.015a12.819,12.819,0,0,0-1-1.873,1.021,1.021,0,0,0,.059-.276C243.843,3694.456,243.657,3694.457,243.65,3694.577Zm-15.259-22.242.669-.6c2.923-2.617,6.422-4.6,9.241-7.314a64.251,64.251,0,0,0,6.513-8.025,40.314,40.314,0,0,1,2.806-3.4c-.157,2.762-.09,5.557-.036,8.3.073,3.792.16,7.59.342,11.379.3,6.24.587,12.482.67,18.729-.753,1.116-.77,2.841-.8,4.4a12.964,12.964,0,0,1-1.031-1.161c-.8-1.042-1.507-2.158-2.2-3.27a56.279,56.279,0,0,0-4.518-6.471C236.409,3680.584,232.85,3675.87,228.391,3672.335Zm13.255,17.553a2.851,2.851,0,0,0-.724,1.426c-.4-.429-.812-.845-1.209-1.248-.257-.259-.517-.512-.78-.765a9.29,9.29,0,0,1,1-1.934C240.533,3688.188,241.1,3689.032,241.646,3689.888Zm-45.179-39.719c.077.661.185,1.72.192,1.843a6.448,6.448,0,0,0,.373,2.416c.06.129.262.062.26-.07a29.757,29.757,0,0,0-.474-3.682c-.007-.045-.027-.261-.069-.5,1.115.036,2.229.076,3.338.132l.523.025a5.643,5.643,0,0,1,.376,1.019,7.733,7.733,0,0,1,.009,2.207c0,.132.2.2.26.071a3.8,3.8,0,0,0-.317-3.281c2.968.144,5.938.248,8.908.345q-.01,1.432-.021,2.865a.07.07,0,0,0,.14,0l-.021-2.862,4.66.153v1.913a.07.07,0,0,0,.14,0v-1.907l2.07.072c3.547.131,7.1.216,10.643.28a25.093,25.093,0,0,0-2.475,4.729c-.019.048.064.083.085.035.759-1.709,1.947-3.152,2.858-4.755q2.4.042,4.8.075a32.8,32.8,0,0,1-2.21,2.982.116.116,0,0,0,.165.164,15.085,15.085,0,0,0,2.394-3.14c.128,0,.256,0,.384,0,2.669.036,5.338.082,8.007.119q1.991.028,3.982.04c.269,0,.553.015.842.03-.4.419-.777.851-1.149,1.292a8.185,8.185,0,0,1-3.4,1.56.013.013,0,0,0,.007.025,10.875,10.875,0,0,0,2.968-1.082c-.995,1.217-1.925,2.492-2.858,3.754a37.876,37.876,0,0,1-7.693,8.165c-3.131,2.351-6.056,4.831-8.993,7.414-1,.882-1.877,1.887-2.822,2.827-.713.708-1.259.574-2.163.236a30.832,30.832,0,0,1-8.042-5c-2.684-2.13-5.207-4.458-7.748-6.754a97.248,97.248,0,0,0-8.03-6.517c-2.043-1.488-4.157-2.877-6.252-4.293a10.92,10.92,0,0,0-.563-3.233c1.167.079,2.338.133,3.51.177a5.685,5.685,0,0,0,.777,3.572.139.139,0,0,0,.24-.141,7.63,7.63,0,0,1-.809-3.423C194.341,3650.1,195.4,3650.136,196.467,3650.169Zm-7.092-.3a23.006,23.006,0,0,1,.451,3.043c-1.138-.772-2.269-1.553-3.38-2.364-.539-.394-1.089-.77-1.64-1.146v-.022C186.317,3649.611,187.843,3649.764,189.375,3649.871Zm12.083,13.74c3.484,3.17,6.874,6.624,10.649,9.51-1.581,1.1-3.1,2.28-4.558,3.522-.023-.051-.1-.03-.088.027l.012.037c-2.1,1.791-4.106,3.7-6.059,5.664-.071-.067-.143-.136-.214-.205a.093.093,0,0,0-.131.132l.205.215q-.758.761-1.506,1.532-.654.673-1.3,1.355a2.9,2.9,0,0,0-.52-.052.07.07,0,0,0,0,.14,3.074,3.074,0,0,1,.39.049q-2.432,2.569-4.743,5.25c-.088.085-.177.168-.265.252-.008-.029-.019-.055-.026-.083a.14.14,0,0,0-.27.074c.021.076.047.148.069.223a49.776,49.776,0,0,1-6.964,5.714c.05-8.018-.159-16.026-.387-24.039-.214-7.568-.415-15.158-.894-22.717C190.058,3655.062,196.2,3658.827,201.458,3663.611Zm-12.889,33.294a2.288,2.288,0,0,0-1,.42.046.046,0,0,0,.047.08,2.554,2.554,0,0,1,.795-.3c-.169.216-.341.43-.51.647a.937.937,0,0,0-.058.09c-.644.025-1.289.067-1.935.132a.843.843,0,0,0,.2-.379c.006,0,.014,0,.021-.006a27.658,27.658,0,0,0,3.457-1.972C189.247,3696.041,188.908,3696.474,188.569,3696.905Zm.892.9.267-.343c.145.1.288.224.426.344C189.923,3697.8,189.692,3697.8,189.461,3697.8Zm44.8-.949c-5.384.115-10.763.349-16.142.563-5.4.213-10.81.387-16.22.407-2.7.01-5.4.032-8.1.018-1.056-.005-2.1-.028-3.144-.036a3.553,3.553,0,0,0-.727-.595q.974-1.244,1.969-2.477a1.526,1.526,0,0,1,.344,1.04c0,.18.288.18.279,0a1.786,1.786,0,0,0-.472-1.228c.528-.653,1.057-1.3,1.594-1.954a9.95,9.95,0,0,0,1.826,2.484c.126.129.324-.069.2-.2a9.574,9.574,0,0,1-1.822-2.512c.061-.05.121-.1.182-.153.948-.813,1.967-1.645,2.963-2.52l1.664,2.554c.082.126.285.007.2-.117l-1.739-2.548a28.064,28.064,0,0,0,2.94-2.943c.327.393.628.84.989,1.268.107.127.288-.034.219-.169a5.221,5.221,0,0,0-1-1.354,14.332,14.332,0,0,0,1.136-1.609.3.3,0,0,0-.414-.414c-.074.037-.147.079-.221.117.4-.421.794-.838,1.194-1.255q.336.353.674.7a12.3,12.3,0,0,0,1.621,1.614c.113.08.27-.078.191-.191a11.074,11.074,0,0,0-1.462-1.475l-.859-.824q1.1-1.14,2.22-2.251l1.065,1.146a5.409,5.409,0,0,0,1.234,1.206.141.141,0,0,0,.191-.191,4.722,4.722,0,0,0-1.067-1.107l-1.284-1.192q1.615-1.6,3.282-3.139a6.473,6.473,0,0,0,1.239,2.023c.122.132.328-.072.2-.2a6.249,6.249,0,0,1-1.326-1.928q2.254-2.073,4.6-4.016a37.685,37.685,0,0,0,4.1,2.7c1.736.978,4.2,2.525,6.212,1.5a8.872,8.872,0,0,0,2.1-1.944c.953-1,1.98-1.948,3.014-2.878q.943,1.068,1.868,2.15a.128.128,0,0,0-.081.067c-.21.4-.424.8-.666,1.184-.273.43-.672.771-.926,1.206a.14.14,0,0,0,.19.191,5.752,5.752,0,0,0,1.644-2.44c0-.005,0-.011,0-.015q.949,1.113,1.885,2.24a9.093,9.093,0,0,0-.557,3.28.14.14,0,0,0,.279,0,17.79,17.79,0,0,1,.513-3q1.593,1.922,3.165,3.863c-.014.2-.031.4-.064.6a5.524,5.524,0,0,1-.688,1.651.14.14,0,0,0,.241.141,3.981,3.981,0,0,0,.767-2.073q1.136,1.4,2.275,2.8h0a4.662,4.662,0,0,1-.834,1.956c-.043.079.081.15.121.07a4.923,4.923,0,0,0,.755-1.975q.558.685,1.119,1.369c.33.4.644.813.95,1.228a9.056,9.056,0,0,0-1.107,1.852c-2.426-2.322-5.065-4.433-7.336-6.906-.02-.022-.053.01-.033.033,2.261,2.495,4.9,4.639,7.316,6.981-.083.166-.166.333-.252.5s.168.3.241.141.134-.3.2-.457c.074.073.151.145.225.218.583.577,1.189,1.184,1.783,1.82a4.989,4.989,0,0,0-.079.738.14.14,0,0,0,.279,0c0-.168.007-.335.022-.5a22.579,22.579,0,0,1,2.472,3.144,2.88,2.88,0,0,1-.708.874.093.093,0,0,0,.132.132,3.719,3.719,0,0,0,.694-.823,12.844,12.844,0,0,1,.886,1.714c-.79.016-1.57.038-2.328.035C239.6,3696.755,236.927,3696.794,234.259,3696.852Z"/><path d="M205.234,3653.561v-2.787a.117.117,0,0,0-.234,0v2.787A.117.117,0,0,0,205.234,3653.561Z"/><path d="M218.7,3655.178a13.124,13.124,0,0,0,1.643-3.981c.03-.116-.152-.166-.18-.05a13.01,13.01,0,0,1-1.544,3.984C218.583,3655.182,218.663,3655.228,218.7,3655.178Z"/><path d="M237.875,3654.937a6.725,6.725,0,0,0,1.246-.87,5.223,5.223,0,0,0,1.179-1.219.164.164,0,0,0-.223-.224,7.115,7.115,0,0,0-1.137,1.01,6.209,6.209,0,0,1-1.276.941C237.426,3654.7,237.637,3655.061,237.875,3654.937Z"/></g></svg>