<svg xmlns="http://www.w3.org/2000/svg" width="69.262" height="82.119" viewBox="0 0 69.262 82.119"><g transform="translate(-579.453 -3445.498)"><path d="M613.419,3457.936a15.2,15.2,0,0,0-8.385.387,14.691,14.691,0,0,0-6.854,5.422c-5.627,7.508-5.861,16.956-2.162,25.365.993,2.258,2.3,4.374,3.4,6.58a69.589,69.589,0,0,1,3.36,7.913c.663,1.885.845,3.76,1.341,5.674a3.681,3.681,0,0,0,1.736,2.507.226.226,0,0,0,.115.189,9.588,9.588,0,0,0,6.078.6c1.17-.171,2.312-.494,3.463-.759a15.11,15.11,0,0,0,3.287-.718c.006,0,.01-.009.016-.011.838,1.1,1.837,2.112.855,3.317a.308.308,0,0,0-.315.311.137.137,0,0,0,0,.02c-1.431,1.312-3.778,1.727-5.629,1.943-2.665.31-10.086.332-8.069-4.236a.175.175,0,0,0-.3-.177,2.779,2.779,0,0,0,.052,3.75c-1.265,1.774-1.669,4.019-.434,5.8-.84,3.183,2.1,5.5,5.367,5.78a9.528,9.528,0,0,0,5.741-1.571c1.153-.748,3.216-2.851,3.01-4.506.1-.091.191-.183.282-.28,1.286-1.359,2.239-4.31,1.13-6.082,1.356-1.55.606-3.942-1.088-4.986a.35.35,0,0,0,.033-.081,48.25,48.25,0,0,0,.624-5.328,33.354,33.354,0,0,1,1.348-5.974c1.117-3.638,2.709-7.117,4.155-10.631,2.427-5.9,4.869-12.407,2.062-18.639A21.445,21.445,0,0,0,613.419,3457.936Zm3.931,64.959a5.635,5.635,0,0,1-1.7,1.941,8.525,8.525,0,0,1-4.639,1.559,6.327,6.327,0,0,1-4.337-1.108,3.64,3.64,0,0,1-1.238-2.908c.023.025.042.051.066.075,1.719,1.72,4.556,2.059,6.855,1.848a12.444,12.444,0,0,0,5.043-1.528C617.385,3522.815,617.37,3522.855,617.35,3522.9Zm2.391-4.917a4.475,4.475,0,0,1-1.308,2.558,9.837,9.837,0,0,1-6.073,2.575,8.752,8.752,0,0,1-5.9-1.139,3.153,3.153,0,0,1-.941-1.031c.012-.1.025-.209.039-.313.007-.051-.061-.092-.091-.038s-.044.09-.067.134c-.654-1.379-.315-3.165.075-4.643a4.119,4.119,0,0,0,.873.662c2.155,1.244,4.984,1.243,7.382,1a12.707,12.707,0,0,0,5.777-1.738A6.379,6.379,0,0,1,619.741,3517.978Zm-9.817-10.029c.007-.04.016-.078.022-.117a.444.444,0,0,0,.134.051,2.8,2.8,0,0,1,1.991.888c.407.623-1.755,1.067-2.029,1.118a.568.568,0,0,0-.232.108A14.231,14.231,0,0,1,609.924,3507.949Zm.927-1.123a5.014,5.014,0,0,1,.733-1.907,16.882,16.882,0,0,0,1.037,2.336c.054.1.113.2.172.292A4.24,4.24,0,0,0,610.851,3506.826Zm.528-2.432.009-.014.005.014Zm1.089,1.076c-.065-.207-.135-.413-.207-.619,1.018.813,1.229,2.146,1.421,3.532C613.355,3507.4,612.781,3506.47,612.468,3505.47Zm-2.8,6.059a.639.639,0,0,0,.051-.176c.01-.064.015-.126.021-.19a1.5,1.5,0,0,0,.266.329C609.9,3511.5,609.784,3511.518,609.672,3511.529Zm2.055-.313a.366.366,0,0,0-.034-.211.694.694,0,0,0-.058-.087c.981-.379,1.886-1.032,1.816-2.159,0-.039-.01-.076-.015-.113a2.318,2.318,0,0,1-.765,2.356C612.352,3511.081,612.037,3511.153,611.727,3511.216Zm1.152-.264a3.114,3.114,0,0,0,.95-1.566,9.157,9.157,0,0,0,.275,1.212c-.4.124-.787.243-1.143.335Zm10.693-21.623a99.928,99.928,0,0,0-3.894,9.907c-1.023,3.3-2.079,7.41-.965,10.791a.407.407,0,0,0-.055-.026,5.813,5.813,0,0,0-2.958.138,8.722,8.722,0,0,0-1.289-5.069,4.444,4.444,0,0,0-2.818-2.226c-.161-.794.146-1.138.668-1.854s1.075-1.725.264-2.451a3.657,3.657,0,0,0-1.146-.539c-.772-.293-.46-1.493-.455-2.184a11.337,11.337,0,0,1,.5-3.58c.61-1.949-.4-2.707-2.113-2.776.391-1.143,1.713-1.789,2.172-2.9.442-1.077-.468-2.274-1.1-3.07-.414-.523-.19-.519.034-1.249.242-.783.523-1.547.719-2.344.27-1.1.374-2.632-.7-3.32a.4.4,0,0,0-.585.45,6.229,6.229,0,0,1,.352,2.037,9.943,9.943,0,0,1-.577,2.268c-.18.567-.837,1.936-.308,2.47a6.988,6.988,0,0,1,1,1.306c.569.935.133,1.386-.486,2.085a4.853,4.853,0,0,0-1.52,2.718.451.451,0,0,0,.451.452c1.031-.052,2.239-.118,1.965,1.219-.159.772-.475,1.495-.587,2.281a22.653,22.653,0,0,0,.006,3.264c.006.788,0,1.187.793,1.5.6.239,1.614.345,1.084,1.456a10.7,10.7,0,0,1-.928,1.322,1.729,1.729,0,0,0-.234,1.379.582.582,0,0,0-.271.172c-1.7,2.085-3.123,5.7-2.2,8.4a.67.67,0,0,0,.155.245c-.534.014-1.077.008-1.638-.026a.244.244,0,0,0-.134-.078c-1.625-.366-1.88-2.168-2.037-3.573a21.132,21.132,0,0,0-.96-4.589,75.793,75.793,0,0,0-4.7-10.779,37.354,37.354,0,0,1-4.008-10.468,23.119,23.119,0,0,1,.633-10.877,21.44,21.44,0,0,1,5.936-9.434,12.409,12.409,0,0,1,8.781-2.95c6.648.206,13.132,5.15,15.943,11.02C629.435,3476.294,626.158,3483.336,623.572,3489.329Z"/><path d="M605.435,3487.873a2.036,2.036,0,0,1-1.4-.106c-.313-.142-.525-.447-.887-.444a.225.225,0,0,0-.224.223c.025.5.587.714,1,.87a2.523,2.523,0,0,0,1.661-.015A.274.274,0,0,0,605.435,3487.873Z"/><path d="M605.622,3484.607a4.574,4.574,0,0,1-.678-.96,6.459,6.459,0,0,1-.51-1.2,2.18,2.18,0,0,0-.469-1.032.327.327,0,0,0-.54.143c-.276.726.354,1.685.72,2.292a6.547,6.547,0,0,0,.722.951,3.962,3.962,0,0,0,.428.4c.151.127.287.059.469.13.154.059.23-.148.145-.251C605.779,3484.922,605.783,3484.771,605.622,3484.607Z"/><path d="M605.827,3478.683a11.621,11.621,0,0,1-.735-4.718.175.175,0,0,0-.342-.046,6.606,6.606,0,0,0,1.032,4.783C605.8,3478.726,605.838,3478.709,605.827,3478.683Z"/><path d="M609.529,3469.638c-1.5.861-1.6,2.869-1.236,4.373.046.189.364.152.342-.046a5.089,5.089,0,0,1,.168-2.093,12.575,12.575,0,0,1,1.033-1.927A.226.226,0,0,0,609.529,3469.638Z"/><path d="M616.288,3474.053a.176.176,0,0,0-.2-.256,5.78,5.78,0,0,0-1.712,1.277,16.369,16.369,0,0,0-1.8,1.826.025.025,0,0,0,.035.035c.6-.505,1.256-.941,1.876-1.424A7.655,7.655,0,0,0,616.288,3474.053Z"/><path d="M618.6,3479.7c-.881-.47-2.266.27-3.093.618a.15.15,0,0,0,.08.288c.462-.114.924-.222,1.4-.3a4.663,4.663,0,0,0,1.618-.264A.2.2,0,0,0,618.6,3479.7Z"/><path d="M616.728,3484.812a3.575,3.575,0,0,1-1.241-.238c-.418-.153-.856-.13-1.109-.577-.009-.015-.032,0-.024.013a4.237,4.237,0,0,0,.7,1.052,2.555,2.555,0,0,0,1.67.5C617.209,3485.579,617.211,3484.814,616.728,3484.812Z"/><path d="M613.876,3487.965c-.193-.1-.421.157-.241.313.7.606,1.431,1.187,2.1,1.826.395.38,1.006-.238.6-.6A10.8,10.8,0,0,0,613.876,3487.965Z"/><path d="M590.343,3493.72c-.866-.566-1.908-.18-2.875,0-1.456.273-2.926.575-4.4.736a.176.176,0,0,0-.047.343,8.3,8.3,0,0,0,3.59.2c1.145-.13,2.785.053,3.731-.633A.379.379,0,0,0,590.343,3493.72Z"/><path d="M587.879,3486.088a.327.327,0,0,0,0-.625c-1.154-.482-2.723-.172-3.971-.237a16.652,16.652,0,0,1-4.363-.7c-.082-.028-.127.092-.057.135a9.75,9.75,0,0,0,3.834,1.39C584.665,3486.234,586.607,3486.617,587.879,3486.088Z"/><path d="M581.146,3473.633c1.04.7,2.029,1.482,3.047,2.213.9.646,1.927,1.618,3.1,1.408a.35.35,0,0,0,.208-.512c-.559-.927-1.851-1.314-2.75-1.853a22.45,22.45,0,0,0-3.377-1.8C581.044,3472.957,580.881,3473.454,581.146,3473.633Z"/><path d="M586.912,3463.143c.608.808,1.514,2.288,2.652,2.263a.3.3,0,0,0,.259-.449c-.261-.539-.813-.834-1.239-1.237a17.877,17.877,0,0,1-1.384-1.563,7.9,7.9,0,0,0-2.862-2.515c-.166-.07-.377.137-.212.275A18.537,18.537,0,0,1,586.912,3463.143Z"/><path d="M594.576,3456.33a4.215,4.215,0,0,0-.694-2.649c-.541-1.182-1.184-2.289-1.784-3.437-.11-.211-.405-.058-.364.154a17.532,17.532,0,0,0,1.055,3.3,7.435,7.435,0,0,0,1.288,2.767A.3.3,0,0,0,594.576,3456.33Z"/><path d="M601.777,3452.439a.387.387,0,0,0,.452-.058c.53-.533.18-1.264.044-1.915-.211-1.012-.39-2.047-.5-3.074a.4.4,0,0,0-.8,0,13.639,13.639,0,0,0,.048,2.934C601.111,3451.01,601.043,3452.123,601.777,3452.439Z"/><path d="M611.1,3452.279c.586-.916.44-2.151.55-3.2a10.06,10.06,0,0,0-.119-3.487.125.125,0,0,0-.24,0c-.328,1.251-.6,2.474-.819,3.749a4.172,4.172,0,0,0,.069,2.942A.327.327,0,0,0,611.1,3452.279Z"/><path d="M618.781,3455.351c1-.822,1.451-2.781,1.858-3.982a20.308,20.308,0,0,0,1.087-4.862.275.275,0,0,0-.538-.073,20.358,20.358,0,0,1-1.5,4.535c-.533,1.209-1.652,2.758-1.59,4.1A.4.4,0,0,0,618.781,3455.351Z"/><path d="M630.728,3450.835c-.9,1.234-1.8,2.479-2.585,3.789-.677,1.132-1.778,2.638-1.75,3.988a.378.378,0,0,0,.638.264c1-.849,1.432-2.553,2.025-3.718.694-1.364,1.31-2.764,2.016-4.122A.2.2,0,0,0,630.728,3450.835Z"/><path d="M636.5,3456.828a13.645,13.645,0,0,0-2.894,3.346c-.594.784-1.222,1.541-1.837,2.308-.454.567-.773.822-.665,1.551a.392.392,0,0,0,.384.291c1.3-.021,2.245-2.246,2.851-3.2a13.341,13.341,0,0,0,2.181-4.278C636.525,3456.833,636.514,3456.82,636.5,3456.828Z"/><path d="M637.257,3468.534c.823-.855,1.729-1.637,2.577-2.464a.109.109,0,0,0-.022-.169c-.046-.033-.1-.08-.16-.122a.969.969,0,0,0,.113-.069.014.014,0,0,0-.014-.024c-.042.024-.082.05-.124.075a.438.438,0,0,0-.21-.089c-.054,0-.061.066-.025.094a.22.22,0,0,0,.149.047,20.884,20.884,0,0,0-2.682,1.858c-.795.657-1.96,1.588-2.137,2.665a.327.327,0,0,0,.475.366A11.357,11.357,0,0,0,637.257,3468.534Z"/><path d="M648.616,3473.866a16.459,16.459,0,0,0-5.373.733c-1.116.335-3.8,1.413-3.231,3a.354.354,0,0,0,.429.244,3.135,3.135,0,0,0,1.242-1,6.39,6.39,0,0,1,2.507-1.332,27.018,27.018,0,0,0,4.476-1.458A.1.1,0,0,0,648.616,3473.866Z"/><path d="M647.454,3485.113a12.2,12.2,0,0,0-5.718-.2c-1.085.134-4.064.575-4.123,2.046a.373.373,0,0,0,.274.361c.639.122,1.024-.306,1.6-.55a13.76,13.76,0,0,1,2.782-.737c1.722-.322,3.533-.145,5.186-.773A.075.075,0,0,0,647.454,3485.113Z"/><path d="M635.992,3494.368a.275.275,0,0,0-.211.5,12.723,12.723,0,0,0,7.52,2.14c.014,0,.02-.025,0-.028C640.685,3496.6,638.547,3494.854,635.992,3494.368Z"/></g></svg>