<svg xmlns="http://www.w3.org/2000/svg" width="810" height="493.726" viewBox="0 0 810 493.726">
	<defs>
		<style>
			.a{fill:none;stroke:#1f2122;stroke-miterlimit:10;stroke-width:1.5px;}.b{fill:#fbd502;}
		</style>
	</defs>
	<g transform="translate(-282.453 -1561.886)">
		<path class="a" d="M732.453,1825.362l221.686,221.686A26.679,26.679,0,0,0,973,2054.862h74.449" />
		<path class="a" d="M705.453,1832.636,514.746,2007.113a21.625,21.625,0,0,1-14.574,5.523H282.453" />
		<path class="a" d="M732.453,1816.362H870.437a14.523,14.523,0,0,0,10.27-4.254l40.992-40.992a14.523,14.523,0,0,1,10.27-4.254h160.484" />
		<path class="a" d="M700.841,1798.362l-86.18-86.18a14.381,14.381,0,0,0-10.167-4.211H532.471a14.382,14.382,0,0,1-10.168-4.211L475.846,1657.3a14.377,14.377,0,0,0-10.167-4.211H403.841" />
		<path class="a" d="M720,1784.862V1634.343a16.856,16.856,0,0,1,4.936-11.917l54.854-54.854a16.854,16.854,0,0,1,11.918-4.936h30.745" />
		<path class="a" d="M688.5,1816.362H540.278a14.067,14.067,0,0,0-9.944,4.119l-53.9,53.9a14.068,14.068,0,0,1-9.945,4.119H426.453" />
		<circle class="b" cx="45" cy="45" r="45" transform="translate(675 1771.362)" />
	</g>
</svg>
