<?xml version="1.0" encoding="UTF-8" standalone="no"?>
<svg
   xmlns:dc="http://purl.org/dc/elements/1.1/"
   xmlns:cc="http://creativecommons.org/ns#"
   xmlns:rdf="http://www.w3.org/1999/02/22-rdf-syntax-ns#"
   xmlns:svg="http://www.w3.org/2000/svg"
   xmlns="http://www.w3.org/2000/svg"
   id="svg4111"
   version="1.1"
   viewBox="0 0 10.372193 10.3696"
   height="10.3696mm"
   width="10.372193mm">
  <defs
     id="defs4105" />
  <metadata
     id="metadata4108">
    <rdf:RDF>
      <cc:Work
         rdf:about="">
        <dc:format>image/svg+xml</dc:format>
        <dc:type
           rdf:resource="http://purl.org/dc/dcmitype/StillImage" />
        <dc:title></dc:title>
      </cc:Work>
    </rdf:RDF>
  </metadata>
  <g
     transform="translate(-85.528189,-176.90959)"
     id="layer1">
    <path
       d="m 90.717903,186.41412 v 0.001 c 1.392766,0 2.785533,-0.001 4.1783,0.002 0.112888,3.5e-4 0.140758,-0.0328 0.140758,-0.14287 -0.0035,-2.78483 -0.0042,-5.56966 0,-8.35448 0,-0.1196 -0.03351,-0.14676 -0.149225,-0.14676 -2.789061,0.003 -5.578828,0.002 -8.368241,-7.1e-4 -0.103717,0 -0.128764,0.0307 -0.128411,0.13088 0.0035,2.78871 0.0035,5.57777 0,8.36648 0,0.11959 0.03387,0.14676 0.149224,0.14676 1.392767,-0.004 2.785534,-0.003 4.1783,-0.003 m -5.190419,-4.33105 c 0,-1.40405 0,-2.80776 3.53e-4,-4.21181 0,-0.60854 0.353483,-0.96062 0.964847,-0.96062 2.823633,0 5.647619,3.6e-4 8.471605,-3.5e-4 0.375356,0 0.672395,0.14146 0.838553,0.48613 0.05962,0.12453 0.09207,0.27411 0.09243,0.41204 0.0053,2.85821 0.0049,5.71641 0.0035,8.57391 -3.44e-4,0.526 -0.372887,0.89641 -0.900642,0.89677 -2.854678,0.001 -5.709355,0.001 -8.564033,0 -0.539043,-3.6e-4 -0.905227,-0.37219 -0.90558,-0.91511 0,-1.42699 0,-2.85362 0,-4.28096"
       style="fill:#000000;fill-opacity:1;fill-rule:nonzero;stroke:none;stroke-width:0.35277775"
       id="path1563" />
    <path
       d="m 93.303975,184.68262 h -0.856191 c -0.0035,-0.049 -0.0056,-0.0938 -0.0056,-0.13829 0,-0.5087 0,-1.01776 0,-1.52682 -0.0035,-0.47202 -0.281168,-0.82585 -0.702384,-0.90276 -0.549275,-0.10019 -1.019881,0.30127 -1.024114,0.87983 -0.0039,0.51647 0,1.03328 0,1.5494 v 0.13511 h -0.858662 v -3.40783 h 0.851958 c 0.0042,0.0621 0.0085,0.121 0.01235,0.17462 0.164395,-0.0568 0.31997,-0.12629 0.482953,-0.16474 1.046692,-0.24413 2.06622,0.52881 2.098675,1.60126 0.01799,0.59654 0.0035,1.19344 0.0035,1.80022"
       style="fill:#000000;fill-opacity:1;fill-rule:nonzero;stroke:none;stroke-width:0.35277775"
       id="path1567" />
    <path
       d="m 88.128585,181.23097 c 0.267052,0 0.528461,-0.002 0.789516,0.004 0.02293,3.5e-4 0.0628,0.0589 0.06385,0.0914 0.0067,0.17357 0.0042,0.34749 0.0042,0.5207 -3.44e-4,0.90629 0,1.81293 0,2.71921 v 0.11219 H 88.12961 Z"
       style="fill:#000000;fill-opacity:1;fill-rule:nonzero;stroke:none;stroke-width:0.35277775"
       id="path1571" />
    <path
       d="m 87.906017,180.15405 c -0.0035,-0.35525 0.287867,-0.64841 0.643467,-0.65052 0.355247,-0.002 0.650522,0.29104 0.649464,0.64417 0,0.35913 -0.285398,0.64629 -0.64382,0.65087 -0.352072,0.005 -0.646994,-0.28857 -0.649111,-0.64452"
       style="fill:#000000;fill-opacity:1;fill-rule:nonzero;stroke:none;stroke-width:0.35277775"
       id="path1575" />
  </g>
</svg>
