<?xml version="1.0" encoding="UTF-8" standalone="no"?>
<svg
   xmlns:dc="http://purl.org/dc/elements/1.1/"
   xmlns:cc="http://creativecommons.org/ns#"
   xmlns:rdf="http://www.w3.org/1999/02/22-rdf-syntax-ns#"
   xmlns:svg="http://www.w3.org/2000/svg"
   xmlns="http://www.w3.org/2000/svg"
   width="22.729134mm"
   height="10.54847mm"
   viewBox="0 0 22.729134 10.548472"
   version="1.1"
   id="svg3649">
  <defs
     id="defs3643">
    <clipPath
       id="clipPath903"
       clipPathUnits="userSpaceOnUse">
      <path
         id="path901"
         d="M 0,5947.362 H 1440 V 0 H 0 Z" />
    </clipPath>
    <clipPath
       id="clipPath903-0"
       clipPathUnits="userSpaceOnUse">
      <path
         id="path901-7"
         d="M 0,5947.362 H 1440 V 0 H 0 Z" />
    </clipPath>
    <clipPath
       id="clipPath903-09"
       clipPathUnits="userSpaceOnUse">
      <path
         id="path901-9"
         d="M 0,5947.362 H 1440 V 0 H 0 Z" />
    </clipPath>
  </defs>
  <metadata
     id="metadata3646">
    <rdf:RDF>
      <cc:Work
         rdf:about="">
        <dc:format>image/svg+xml</dc:format>
        <dc:type
           rdf:resource="http://purl.org/dc/dcmitype/StillImage" />
        <dc:title></dc:title>
      </cc:Work>
    </rdf:RDF>
  </metadata>
  <g
     id="layer1"
     transform="translate(-84.347711,-23.582705)">
    <g
       id="g1073"
       transform="matrix(0,0.13007227,0.13007227,0,86.765104,23.89722)">
      <path
         d="M 0,0 V -15.078 L 1.492,-14.511 54.529,9.117 76.26,0.51 V 15.317 L 1.465,45.809 0,46.417 V 31.533 L 37.228,16.507 Z M -2.418,-18.585 V 1.572 L 31.026,16.403 -2.418,29.902 V 50.038 L 2.385,48.046 78.679,16.944 V -3.05 L 54.584,6.494 2.414,-16.745 Z"
         style="fill:#231f20;fill-opacity:1;fill-rule:nonzero;stroke:none"
         id="path1075" />
    </g>
    <g
       id="g1077"
       transform="matrix(0,0.13007227,0.13007227,0,95.60773,23.89722)">
      <path
         d="m 0,0 v -15.292 l 56.51,18.069 0.726,0.308 v 15.892 l -31.262,8.485 31.262,8.599 V 51.876 L 0,70.335 V 55.043 L 33.111,44.363 0,34.981 V 20.057 L 33.234,10.563 Z M -2.418,-18.604 V 1.77 l 27.279,8.669 -27.279,7.793 V 36.81 l 27.186,7.703 -27.186,8.769 V 73.656 L 59.655,53.636 V 34.217 L 35.15,27.478 59.655,20.827 V 1.483 L 57.299,0.49 Z"
         style="fill:#231f20;fill-opacity:1;fill-rule:nonzero;stroke:none"
         id="path1079" />
    </g>
    <g
       id="g1081"
       transform="matrix(0,0.13007227,0.13007227,0,106.7622,30.768381)">
      <path
         d="m 0,0 c -3.35,0 -5.601,-2.076 -5.601,-5.168 0,-3.106 2.303,-5.276 5.601,-5.276 3.298,0 5.601,2.126 5.601,5.169 C 5.601,-2.071 3.403,0 0,0 m 0,-12.862 c -4.647,0 -8.02,3.236 -8.02,7.694 0,4.467 3.298,7.587 8.02,7.587 4.722,0 8.02,-3.164 8.02,-7.694 0,-4.397 -3.373,-7.587 -8.02,-7.587"
         style="fill:#231f20;fill-opacity:1;fill-rule:nonzero;stroke:none"
         id="path1083" />
    </g>
  </g>
  <style
     id="style3599"
     type="text/css">
	.st0{fill:#FFFFFF;}
	.st1{fill:#FBD502;}
	.st2{fill:#BBBBBB;}
	.st3{fill:#4D4E4E;}
	.st4{fill:#2CBFD1;}
	.st5{fill:#F9D405;}
</style>
  <style
     id="style3599-0"
     type="text/css">
	.st0{fill:#FFFFFF;}
	.st1{fill:#FBD502;}
	.st2{fill:#BBBBBB;}
	.st3{fill:#4D4E4E;}
	.st4{fill:#2CBFD1;}
	.st5{fill:#F9D405;}
</style>
  <style
     id="style3599-1"
     type="text/css">
	.st0{fill:#FFFFFF;}
	.st1{fill:#FBD502;}
	.st2{fill:#BBBBBB;}
	.st3{fill:#4D4E4E;}
	.st4{fill:#2CBFD1;}
	.st5{fill:#F9D405;}
</style>
</svg>
