<?xml version="1.0" encoding="UTF-8" standalone="no"?>
<svg
   xmlns:dc="http://purl.org/dc/elements/1.1/"
   xmlns:cc="http://creativecommons.org/ns#"
   xmlns:rdf="http://www.w3.org/1999/02/22-rdf-syntax-ns#"
   xmlns:svg="http://www.w3.org/2000/svg"
   xmlns="http://www.w3.org/2000/svg"
   id="svg5956"
   version="1.1"
   viewBox="0 0 47.668919 8.9117699"
   height="8.9117699mm"
   width="47.668919mm">
  <defs
     id="defs5950" />
  <metadata
     id="metadata5953">
    <rdf:RDF>
      <cc:Work
         rdf:about="">
        <dc:format>image/svg+xml</dc:format>
        <dc:type
           rdf:resource="http://purl.org/dc/dcmitype/StillImage" />
        <dc:title></dc:title>
      </cc:Work>
    </rdf:RDF>
  </metadata>
  <g
     transform="translate(-119.04054,-221.48459)"
     id="layer1">
    <path
       d="m 124.83915,223.0032 h 0.31503 l -0.12206,0.29421 -2.89419,7.09895 h -0.14252 -1.49261 l 0.85302,-2.153 -2.2038,-4.94595 -0.11148,-0.29421 h 0.31468 1.34055 l 1.4725,3.32069 1.34055,-3.32069 h 0.14217 z"
       style="fill:#000000;fill-opacity:1;fill-rule:nonzero;stroke:none;stroke-width:0.35277775"
       id="path1523" />
    <path
       d="m 129.16498,224.9421 c -0.0727,-0.19086 -0.18591,-0.33197 -0.34043,-0.42439 -0.15487,-0.0921 -0.32773,-0.14464 -0.51858,-0.1577 -0.19086,-0.0134 -0.38489,0.008 -0.58244,0.0639 -0.19756,0.0557 -0.37183,0.14181 -0.52317,0.25682 -0.15169,0.11536 -0.26846,0.25506 -0.35031,0.41945 -0.0825,0.16475 -0.10372,0.34572 -0.0646,0.54293 z m 1.73778,1.70815 c -0.15169,0.34219 -0.34078,0.65123 -0.56797,0.92816 -0.22684,0.27622 -0.48542,0.502 -0.7747,0.67627 -0.28998,0.17427 -0.60396,0.29281 -0.94297,0.3549 -0.33938,0.0628 -0.69604,0.0512 -1.07104,-0.0342 -0.33584,-0.0723 -0.64523,-0.20391 -0.92816,-0.39476 -0.28328,-0.19086 -0.52493,-0.42298 -0.72566,-0.69603 -0.20108,-0.27305 -0.35066,-0.57609 -0.44944,-0.90841 -0.0988,-0.33231 -0.13159,-0.6798 -0.0988,-1.0414 0.0526,-0.57255 0.21731,-1.04845 0.49389,-1.42663 0.27658,-0.37853 0.60854,-0.66005 0.9973,-0.8442 0.38806,-0.18415 0.80257,-0.27128 1.24355,-0.26176 0.44097,0.01 0.85584,0.11501 1.24424,0.31574 0.38806,0.20108 0.72073,0.49389 0.99695,0.87912 0.27658,0.38488 0.4445,0.86007 0.50377,1.42628 -0.61877,0.19121 -1.23578,0.37359 -1.85102,0.54787 -0.61595,0.17462 -1.23614,0.35383 -1.86126,0.53833 0.1778,0.21061 0.38347,0.35031 0.61701,0.41946 0.23354,0.0691 0.46425,0.0794 0.69109,0.0296 0.22719,-0.049 0.43956,-0.15134 0.63676,-0.30621 0.19756,-0.15416 0.3489,-0.35031 0.45403,-0.58738 z"
       style="fill:#000000;fill-opacity:1;fill-rule:nonzero;stroke:none;stroke-width:0.35277775"
       id="path1527" />
    <path
       d="m 133.13595,221.48459 v 0.33973 6.604 0.20955 h -1.50848 v -0.20955 -6.604 -0.33973 z"
       style="fill:#000000;fill-opacity:1;fill-rule:nonzero;stroke:none;stroke-width:0.35277775"
       id="path1531" />
    <path
       d="m 135.47363,221.48459 v 0.33973 6.604 0.20955 h -1.50847 v -0.20955 -6.604 -0.33973 z"
       style="fill:#000000;fill-opacity:1;fill-rule:nonzero;stroke:none;stroke-width:0.35277775"
       id="path1535" />
    <path
       d="m 139.00021,227.20725 c 0.18944,0 0.36901,-0.036 0.53905,-0.10795 0.16968,-0.0716 0.31679,-0.16934 0.44097,-0.29387 0.12418,-0.12382 0.2219,-0.27058 0.29386,-0.44097 0.072,-0.16968 0.10795,-0.34925 0.10795,-0.53869 0,-0.18944 -0.036,-0.36936 -0.10795,-0.53904 -0.072,-0.17004 -0.16968,-0.31715 -0.29386,-0.44098 -0.12418,-0.12417 -0.27129,-0.22225 -0.44097,-0.29386 -0.17004,-0.072 -0.34961,-0.10795 -0.53905,-0.10795 -0.18944,0 -0.369,0.036 -0.53904,0.10795 -0.16969,0.0716 -0.3168,0.16969 -0.44097,0.29386 -0.12418,0.12383 -0.22225,0.27094 -0.29387,0.44098 -0.072,0.16968 -0.10795,0.3496 -0.10795,0.53904 0,0.18944 0.036,0.36901 0.10795,0.53869 0.0716,0.17039 0.16969,0.31715 0.29387,0.44097 0.12417,0.12453 0.27128,0.22225 0.44097,0.29387 0.17004,0.072 0.3496,0.10795 0.53904,0.10795 m 0,-4.20405 c 0.39194,0 0.75953,0.0734 1.10243,0.22048 0.3429,0.14711 0.64206,0.34784 0.89676,0.6029 0.25471,0.2547 0.45579,0.55315 0.60255,0.89641 0.14711,0.34325 0.22048,0.71049 0.22048,1.10278 0,0.39158 -0.0734,0.75918 -0.22048,1.10243 -0.14676,0.3429 -0.34784,0.64135 -0.60255,0.89676 -0.2547,0.25471 -0.55386,0.45544 -0.89676,0.60255 -0.3429,0.1471 -0.71049,0.22048 -1.10243,0.22048 -0.39193,0 -0.75953,-0.0734 -1.10243,-0.22048 -0.34325,-0.14711 -0.64205,-0.34784 -0.89676,-0.60255 -0.25471,-0.25541 -0.45544,-0.55386 -0.60254,-0.89676 -0.14711,-0.34325 -0.22049,-0.71085 -0.22049,-1.10243 0,-0.39229 0.0734,-0.75953 0.22049,-1.10278 0.1471,-0.34326 0.34783,-0.64171 0.60254,-0.89641 0.25471,-0.25506 0.55351,-0.45579 0.89676,-0.6029 0.3429,-0.14711 0.7105,-0.22048 1.10243,-0.22048"
       style="fill:#000000;fill-opacity:1;fill-rule:nonzero;stroke:none;stroke-width:0.35277775"
       id="path1539" />
    <path
       d="m 150.16196,223.0032 h 0.29633 l -0.0917,0.28575 -1.72544,5.34916 h -0.1531 -1.5106 l -0.72496,-2.63383 -0.71472,2.63383 h -0.17357 -1.49048 l -0.061,-0.14322 -1.75577,-5.49169 h 0.30621 1.3783 l 0.90841,2.8582 0.81668,-2.8582 h 0.17356 1.40865 l 0.80645,2.84797 0.91898,-2.84797 h 0.15311 z"
       style="fill:#000000;fill-opacity:1;fill-rule:nonzero;stroke:none;stroke-width:0.35277775"
       id="path1543" />
    <path
       d="m 151.04306,228.09847 c 0.0699,0.0667 0.10477,0.14993 0.10477,0.24977 0,0.10654 -0.0349,0.19508 -0.10477,0.26458 -0.0699,0.0702 -0.1517,0.10513 -0.24483,0.10513 -0.0931,0 -0.17321,-0.0349 -0.23989,-0.10513 -0.0663,-0.0695 -0.0998,-0.15804 -0.0998,-0.26458 0,-0.0998 0.0335,-0.18309 0.0998,-0.24977 0.0667,-0.0663 0.14675,-0.0998 0.23989,-0.0998 0.0931,0 0.17498,0.0335 0.24483,0.0998"
       style="fill:#000000;fill-opacity:1;fill-rule:nonzero;stroke:none;stroke-width:0.35277775"
       id="path1547" />
    <path
       d="m 154.05631,223.41108 c 0.35454,-0.23989 0.78246,-0.36689 1.2834,-0.381 v 0.46178 c -0.60854,0 -1.09572,0.18803 -1.4605,0.56374 -0.36547,0.37606 -0.57326,0.89324 -0.62335,1.55258 v 3.02895 h -0.45085 v -5.59682 h 0.45085 v 1.40723 c 0.17885,-0.4512 0.44591,-0.79622 0.80045,-1.03646"
       style="fill:#000000;fill-opacity:1;fill-rule:nonzero;stroke:none;stroke-width:0.35277775"
       id="path1551" />
    <path
       d="m 160.63145,225.56496 c -0.0434,-0.64452 -0.26176,-1.16028 -0.65546,-1.54693 -0.39405,-0.38664 -0.90593,-0.57997 -1.53599,-0.57997 -0.63077,0 -1.15324,0.19509 -1.56845,0.58526 -0.41522,0.39053 -0.65159,0.90417 -0.70874,1.54164 z m -0.78951,-2.16464 c 0.39722,0.24694 0.69814,0.59266 0.90205,1.03681 0.2039,0.44415 0.30268,0.9525 0.29527,1.52541 h -4.88773 c 0.0219,0.45085 0.13264,0.84843 0.33337,1.19239 0.20038,0.34361 0.47272,0.61031 0.81633,0.8001 0.34396,0.1898 0.7306,0.28469 1.15993,0.28469 0.37959,0 0.73237,-0.066 1.05834,-0.19861 0.32561,-0.13229 0.60325,-0.32385 0.83255,-0.57468 l 0.25788,0.28999 c -0.26493,0.28645 -0.5842,0.50659 -0.95603,0.66075 -0.37253,0.15381 -0.77716,0.23072 -1.2139,0.23072 -0.52282,0 -0.99201,-0.11995 -1.40724,-0.35984 -0.41557,-0.23989 -0.73977,-0.57255 -0.97225,-0.99906 -0.23283,-0.42581 -0.34925,-0.9077 -0.34925,-1.44463 0,-0.53693 0.11818,-1.02094 0.35454,-1.44991 0.23636,-0.43004 0.56021,-0.76447 0.9719,-1.00472 0.41205,-0.24024 0.87948,-0.35983 1.4023,-0.35983 0.53728,0 1.00435,0.12347 1.40194,0.37042"
       style="fill:#000000;fill-opacity:1;fill-rule:nonzero;stroke:none;stroke-width:0.35277775"
       id="path1555" />
    <path
       d="m 164.61466,223.4593 c -0.44379,0 -0.84172,0.10054 -1.19238,0.30092 -0.35102,0.20073 -0.62477,0.4819 -0.82162,0.84314 -0.19721,0.36195 -0.29563,0.77223 -0.29563,1.22978 0,0.46602 0.0984,0.88124 0.29563,1.24637 0.19685,0.36548 0.4706,0.6484 0.82162,0.84878 0.35066,0.20038 0.74859,0.30092 1.19238,0.30092 0.37219,0 0.71614,-0.0681 1.03118,-0.20461 0.31502,-0.13582 0.58031,-0.32879 0.79516,-0.57961 l 0.26846,0.28998 c -0.25047,0.29351 -0.55668,0.51929 -0.91863,0.67663 -0.3616,0.15769 -0.75742,0.23636 -1.18675,0.23636 -0.52317,0 -0.99201,-0.11995 -1.40758,-0.35984 -0.41487,-0.23988 -0.74119,-0.57291 -0.97755,-0.99942 -0.23601,-0.4258 -0.35419,-0.90734 -0.35419,-1.44427 0,-0.53728 0.11818,-1.02094 0.35419,-1.45027 0.23636,-0.42968 0.56268,-0.76447 0.97755,-1.00436 0.41557,-0.24024 0.88441,-0.35983 1.40758,-0.35983 0.40111,0 0.77153,0.0681 1.11161,0.20355 0.34007,0.13653 0.63535,0.32985 0.88617,0.58032 l -0.25752,0.32244 c -0.48719,-0.45085 -1.06363,-0.67698 -1.72968,-0.67698"
       style="fill:#000000;fill-opacity:1;fill-rule:nonzero;stroke:none;stroke-width:0.35277775"
       id="path1559" />
  </g>
</svg>
