<svg xmlns="http://www.w3.org/2000/svg" width="35.976" height="35.945" viewBox="0 0 35.976 35.945"><defs><style>.a{fill:#fff;}</style></defs><g transform="translate(-632.546 -181.869)"><path class="a" d="M655.094,208.169a14.405,14.405,0,1,1,3.787-3.783q2.039,2.026,4.089,4.066c1.572,1.567,3.147,3.132,4.708,4.71a2.7,2.7,0,0,1-1.972,4.649,2.775,2.775,0,0,1-1.883-.87q-4.023-4.035-8.054-8.061C655.535,208.646,655.312,208.4,655.094,208.169Zm4.46-11.884a12.578,12.578,0,1,0-12.6,12.566A12.568,12.568,0,0,0,659.554,196.285Zm-3.036,10.772c.074.083.148.176.231.258q2.182,2.187,4.369,4.372,1.973,1.973,3.943,3.947a1.018,1.018,0,0,0,.958.385.845.845,0,0,0,.678-.613.958.958,0,0,0-.324-1.01q-4-4-8.005-8c-.2-.2-.409-.4-.586-.573Z"/><path class="a" d="M644.057,196.1a4.549,4.549,0,0,1-.217-6.681,4.5,4.5,0,0,1,6.272,0,4.554,4.554,0,0,1-.2,6.671c.075.052.143.106.217.151a6.217,6.217,0,0,1,3.124,5c.089.973-.239,1.315-1.226,1.315l-10.149,0c-.925,0-1.248-.328-1.178-1.245a6.222,6.222,0,0,1,3.065-5.033Zm7.272,4.625a4.451,4.451,0,0,0-8.718,0Zm-1.663-8.039a2.695,2.695,0,1,0-2.686,2.675A2.686,2.686,0,0,0,649.666,192.691Z"/></g></svg>