<svg xmlns="http://www.w3.org/2000/svg" width="64.696" height="69.507" viewBox="0 0 64.696 69.507"><g transform="translate(-795.605 -3995.617)"><path d="M856.253,4041.624c-2.7-.211-5.44-.135-8.148-.265-2.86-.136-5.718-.324-8.576-.49a128.084,128.084,0,0,0-17.279-.235c-4.431.342-8.829,1-13.267,1.276-3.862.238-8.13.184-11.818-1.229a.368.368,0,0,0,.068-.074c.818-1.176.6-2.613.664-4,.079-1.785.116-3.572.2-5.358.175-3.813.414-7.622.644-11.432.466-7.7,1.155-15.6.5-23.315,2.952,2.3,7,2.794,10.623,3.1a89.26,89.26,0,0,0,14.566-.385,131.247,131.247,0,0,1,15.729-.3c3.188.127,6.375.283,9.566.329q2.214.03,4.427-.044a14.461,14.461,0,0,0,4.4-.519.652.652,0,0,0-.172-1.274,26.184,26.184,0,0,0-4.224.136c-1.475.064-2.952.068-4.427.057-3.039-.023-6.076-.165-9.111-.284a124.2,124.2,0,0,0-15.253.258,133.809,133.809,0,0,1-13.755.62c-4.158-.081-8.724-.331-12.387-2.536-.311-.188-.674.264-.393.509.022.018.044.034.065.052-.748,7.84-1.109,15.739-1.7,23.6-.287,3.81-.58,7.619-.818,11.432q-.155,2.495-.26,4.993c-.057,1.38-.3,2.954.407,4.172-.167-.073-.336-.146-.5-.225a.278.278,0,0,0-.281.48c3.41,2.465,7.618,2.891,11.708,2.93,4.632.043,9.221-.663,13.824-1.08a115.869,115.869,0,0,1,17.307.167l.414.026c-.169,1.453-.25,2.887-.3,4.352-.049,1.516-.208,3.086-.127,4.607a19.972,19.972,0,0,0-2.143.526,25.134,25.134,0,0,1-4.536.534,25.64,25.64,0,0,1-4.51-.2c-.3-.042-.62-.081-.939-.122a4.437,4.437,0,0,0,2.906-1.292c.126-.131-.061-.308-.2-.2a5.362,5.362,0,0,1-4.644,1.068.085.085,0,0,0-.1.043,6.28,6.28,0,0,1-.8-.274c-.355-.152-.792.28-.449.582,2.324,2.052,5.779,2.206,8.73,2.264a20.33,20.33,0,0,0,5.067-.484c.139-.033.281-.067.422-.1a8.653,8.653,0,0,0-.964,2.851c-.155,1.2-.566,3.233.591,4a.376.376,0,0,0,.507-.133.984.984,0,0,0,.286-.844,12.209,12.209,0,0,1-.075-2.577,15.528,15.528,0,0,1,.688-3.636,2.188,2.188,0,0,0,1.109-.944.712.712,0,0,0,.508-.66c.008-.093.012-.188.018-.281a8.535,8.535,0,0,1,3.548-.886,10.352,10.352,0,0,1,4.974,1.507,13.567,13.567,0,0,1,3.065,2.351,16.353,16.353,0,0,0-.174,1.986q-.021,1.578-.041,3.158a3.916,3.916,0,0,0,.118,1.89,14.44,14.44,0,0,1-2.4.841,14.26,14.26,0,0,1-1.91.311,8.13,8.13,0,0,0,.21-3.545,40.637,40.637,0,0,0-.273-4.155.44.44,0,0,0-.88,0,40.916,40.916,0,0,0-.272,4.155,8.1,8.1,0,0,0,.213,3.552.422.422,0,0,0,.044.065c-.782.042-1.565.047-2.34.041-.37,0-.74-.014-1.109-.026,0-.279-.011-.559-.033-.846a29.986,29.986,0,0,1-.011-3.366,36.86,36.86,0,0,0-.087-6.808.21.21,0,0,0-.4,0c-.393,2.4-.7,4.775-.891,7.2a15.243,15.243,0,0,0-.046,3.749c-2.891-.172-5.773-.557-8.645-.9-.507-.061-1.015-.113-1.523-.163a.53.53,0,0,0,.1-.181,16.191,16.191,0,0,0,.821-6.479.209.209,0,0,0-.417,0c-.273,2.118-.945,4.139-1.3,6.233a.493.493,0,0,0,.069.361q-1.423-.127-2.849-.212a14.633,14.633,0,0,1,.205-6.338.163.163,0,0,0-.3-.126,8.007,8.007,0,0,0-.806,6.417c-1.3-.065-2.608-.11-3.912-.142a28.134,28.134,0,0,0,.346-4.053c.168-1.42.371-2.839.553-4.258.041-.318-.466-.368-.546-.074a37.824,37.824,0,0,0-.957,4.2,11.648,11.648,0,0,0-.269,4.162q-1.491-.03-2.981-.046l-.328,0c.209-1.15.141-2.38.265-3.542.167-1.547.35-3.088.569-4.628.049-.344-.443-.505-.536-.148-.36,1.39-.734,2.782-.984,4.2a13.375,13.375,0,0,0-.289,4.122c-1.137.006-2.274.035-3.411.076a14.642,14.642,0,0,0-.254-2.948,31.362,31.362,0,0,1,.164-4.312c.029-.294-.424-.337-.5-.069a17.178,17.178,0,0,0-.638,4.381,5.973,5.973,0,0,0,.386,2.98c-.875.035-1.749.075-2.622.115a26.385,26.385,0,0,0-6.867.75,6.824,6.824,0,0,0,.1-1.523,6.869,6.869,0,0,1,1.693-3.933c-.128,1.835.2,3.79,1.765,4.429.242.1.425-.26.248-.425-.51-.475-.638-1.742-.77-2.418a14.221,14.221,0,0,1-.2-2.567,13.022,13.022,0,0,1,2.33-1.451,17.16,17.16,0,0,1,2.02-.839c-.141.192-.267.4-.395.552-.018.023.012.055.033.034.178-.18.346-.366.514-.554a4.7,4.7,0,0,0-.366.457,4.874,4.874,0,0,0-.748,1.889,23.891,23.891,0,0,0-.111,4.547.7.7,0,0,0,1.389,0c-.064-2.3-.461-4.572.743-6.665a.45.45,0,0,0-.069-.529l-.03-.037a35.238,35.238,0,0,1,10.006-1.061c.048.033.094.067.144.1a.327.327,0,0,0,.476-.365,31.907,31.907,0,0,1-.942-3.974,8.315,8.315,0,0,1,.375-3.216.279.279,0,0,0,.255.161l3.422.121a8.382,8.382,0,0,0,3.008-.154.28.28,0,0,0,0-.536,8.4,8.4,0,0,0-3.008-.154l-3.422.121a.258.258,0,0,0-.086.021,5.485,5.485,0,0,1,.326-.639c.16-.264-.237-.587-.436-.336a7.7,7.7,0,0,0-1.554,4.611,6.073,6.073,0,0,0,.889,3.715,22.51,22.51,0,0,0-13.686,1.8,11.554,11.554,0,0,0-1.092.638.255.255,0,0,0-.5-.045c-.05.152-.1.319-.147.5a9.834,9.834,0,0,0-2.613,2.927c-.673,1.178-1.879,4.508-.359,5.439a.376.376,0,0,0,.449-.059c.027-.027.052-.054.077-.083,2.306.534,4.785.252,7.134.239,2.888-.016,5.772.073,8.659.106a131.323,131.323,0,0,1,14.178.8c2.815.339,5.642.687,8.478.821.035.051.067.1.106.151.18.236.608.208.64-.119.908.031,1.817.04,2.727.015,2.542-.073,6.951-.279,7.972-3.125.152-.423-.349-.674-.68-.523l-.182.083a10.119,10.119,0,0,0-.04-1.381q-.021-1.581-.041-3.158c0-.323-.025-.641-.054-.958a10.515,10.515,0,0,1,1.419,2.406,13.368,13.368,0,0,0-.087,1.421,6.97,6.97,0,0,0,.1,2.037.187.187,0,0,0,.357,0,6.69,6.69,0,0,0,.1-2,8.031,8.031,0,0,1,.156.887c.088.786,1.316.812,1.25,0a10.629,10.629,0,0,0-3.552-6.782c-.053-.386-.1-.772-.135-1.163a.116.116,0,0,0-.231,0c-.022.254-.052.506-.083.757a16.146,16.146,0,0,0-2.974-2.036c-2.273-1.21-6.576-2.3-8.777-.321.009-1.146-.094-2.311-.131-3.446-.051-1.618-.124-3.207-.309-4.813,2.508.155,5.016.323,7.525.467a70.573,70.573,0,0,0,9.1.255A.927.927,0,0,0,856.253,4041.624Z"/><path d="M860.09,4021.275c-.177-3.722-.478-7.436-.745-11.153-.264-3.666-.377-7.342-.695-11a.278.278,0,0,0-.556,0,85.276,85.276,0,0,0,.044,10.52c.15,3.718.346,7.434.5,11.152.149,3.525.212,7.054.1,10.58a103.4,103.4,0,0,1-1.134,10.97c-.133.972,1.274,1.433,1.518.419a53.4,53.4,0,0,0,1.11-10.439C860.375,4028.64,860.265,4024.953,860.09,4021.275Z"/><path d="M852.016,4033.1l-.327,0c-.044-4.62-.279-9.237-.411-13.856-.07-2.425-.2-4.846-.222-7.274-.021-2.519.161-5.039-.03-7.556a.07.07,0,0,0-.136-.019c-1.352,4.531-1.054,9.681-1.056,14.362,0,4.778.329,9.552.373,14.332-7.681-.093-15.351-.667-23.034-.718a92.51,92.51,0,0,0-12.406.663,33.675,33.675,0,0,0-9.678,2.421c.054-2.341-.129-4.71-.087-7.051.051-2.813.194-5.623.344-8.431a123.46,123.46,0,0,0,.313-15c2.081,1.559,4.66,1.761,7.231,1.8a65.759,65.759,0,0,0,10.3-1,73.12,73.12,0,0,1,9.622-.645c2.2.12,4.4.2,6.6.131.453-.014.926-.028,1.409-.052l1.825.043a61.737,61.737,0,0,0,7.244.068.9.9,0,0,0,0-1.805c-.986-.1-1.989-.122-2.994-.124.015-.122-.1-.265-.233-.212-.18.074-.362.145-.544.212-.835,0-1.668.01-2.492-.007-2.313-.049-4.626-.1-6.94-.13a85.636,85.636,0,0,0-12.383.5q-.57.077-1.139.157c-1.683-.069-3.366-.166-5.053-.348-4.229-.457-8.448-1.3-12.712-1.31-.051,0-.065.082-.012.091,4.222.722,8.473,1.321,12.724,1.853.573.072,1.147.131,1.72.184-1.712.237-3.427.46-5.15.623-2.9.273-6.348.372-9.088-.806-.024-.28-.049-.56-.078-.84a.116.116,0,0,0-.231,0c-.032.3-.061.595-.091.894a.227.227,0,0,0-.032.309c-.515,5.117-.816,10.288-1.157,15.415-.188,2.808-.353,5.618-.447,8.431a46.724,46.724,0,0,0,.091,7.98c.107.757,1.14.614,1.365.013,15.5-3.519,31.275-1.374,46.995-1.35A.973.973,0,0,0,852.016,4033.1Z"/><path d="M828.774,4047.623a8.787,8.787,0,0,0-3-.121c-1.144.023-2.281.117-3.422.205a.139.139,0,0,0,0,.278c1.141.087,2.278.183,3.422.2a8.763,8.763,0,0,0,3-.121A.233.233,0,0,0,828.774,4047.623Z"/><path d="M828.712,4049.756a22.343,22.343,0,0,0-2.463.6,5.663,5.663,0,0,1-3.812-.535.162.162,0,0,0-.163.28c1.7,1.129,5.007,1.571,6.585.006A.21.21,0,0,0,828.712,4049.756Z"/><path d="M822.1,4038.584c7.475.011,15.041.356,22.5-.109a.163.163,0,0,0,0-.325c-7.291-.455-14.684-.12-21.989-.11-7.492.011-15.017-.136-22.5.26a.013.013,0,0,0,0,.026C807.425,4038.713,814.778,4038.574,822.1,4038.584Z"/><path d="M853.106,4002.186a40.8,40.8,0,0,0-7.383-.071c-3.1.082-6.19.188-9.285.189-5.395,0-11.092-.207-16.2-2.148-.025-.009-.039.03-.017.042a17.914,17.914,0,0,0,6.768,2.107,68.242,68.242,0,0,0,8.69.641c3.108.068,6.219.017,9.326-.094a66.85,66.85,0,0,0,8.1-.443A.116.116,0,0,0,853.106,4002.186Z"/><path d="M855.154,4002.273a27.207,27.207,0,0,0-1.988,8.9,25.706,25.706,0,0,0,.835,9.7.139.139,0,0,0,.268-.074c-1.518-5.847-1.4-12.874.97-18.488C855.259,4002.261,855.175,4002.226,855.154,4002.273Z"/><path d="M857.243,4004.415c-.05,4.668-.224,9.333-.584,13.987-.364,4.721-1.1,9.383-1.6,14.085-.017.157.237.186.273.036a79.384,79.384,0,0,0,1.715-13.626c.307-4.82.381-9.653.339-14.482A.07.07,0,0,0,857.243,4004.415Z"/><path d="M798.9,4025.115c.032.187.311.131.318-.043.148-3.786.572-7.5,1.031-11.256.421-3.441.885-7.087-.045-10.485a.093.093,0,0,0-.178.05C801.741,4010.6,797.635,4017.891,798.9,4025.115Z"/><path d="M804.36,4008.656a.013.013,0,1,0-.024-.007,47.406,47.406,0,0,0-2.059,10.42,56.618,56.618,0,0,0-.232,11.3.185.185,0,0,0,.37,0c.41-3.564.1-7.228.3-10.813A51.585,51.585,0,0,1,804.36,4008.656Z"/></g></svg>