<svg xmlns="http://www.w3.org/2000/svg" width="40.302" height="39.617" viewBox="0 0 40.302 39.617"><defs><style>.a{fill:#fff;fill-rule:evenodd;}</style></defs><g transform="translate(-348.848 902.707)"><path class="a" d="M354.363-885.114l4.174.374,7.82-13.16.919.543-7.559,12.723L379.6-882.85l-8.174-14.462.928-.522,8.535,15.1,4.466.4a4.155,4.155,0,0,1,2.825,1.479,4.147,4.147,0,0,1,.954,3.038l-.981,10.931a4.163,4.163,0,0,1-1.478,2.826,4.154,4.154,0,0,1-2.946.96l-31.085-2.788a4.161,4.161,0,0,1-2.826-1.478,4.159,4.159,0,0,1-.953-3.039l.981-10.931a4.152,4.152,0,0,1,1.478-2.825,4.15,4.15,0,0,1,2.946-.961Zm25.927,8.658,2.769,5.717.418-5.447a1.278,1.278,0,0,1,.264-.774.645.645,0,0,1,.569-.212.7.7,0,0,1,.541.321,1.314,1.314,0,0,1,.144.818l-.551,7.2c-.062.8-.389,1.174-.983,1.114a1.069,1.069,0,0,1-.4-.113,1.042,1.042,0,0,1-.316-.259,2.192,2.192,0,0,1-.261-.4c-.079-.148-.157-.3-.236-.453l-2.7-5.641-.411,5.358a1.22,1.22,0,0,1-.278.77.676.676,0,0,1-.58.213.7.7,0,0,1-.543-.328,1.278,1.278,0,0,1-.152-.812l.541-7.058a2.209,2.209,0,0,1,.143-.7.965.965,0,0,1,.387-.425.881.881,0,0,1,.543-.124.842.842,0,0,1,.376.12.966.966,0,0,1,.263.247,2.336,2.336,0,0,1,.219.381c.072.153.148.314.225.482Zm-4.428.031-3.731-.376-.172,2.25,3.435.346a.787.787,0,0,1,.551.247.694.694,0,0,1,.148.52.7.7,0,0,1-.222.488.735.735,0,0,1-.584.139l-3.435-.346-.2,2.608,3.858.389a.81.81,0,0,1,.573.262.753.753,0,0,1,.158.559.7.7,0,0,1-.24.506.775.775,0,0,1-.6.144l-4.5-.454a1.015,1.015,0,0,1-.756-.347,1.324,1.324,0,0,1-.172-.891l.528-6.884a1.711,1.711,0,0,1,.156-.641.682.682,0,0,1,.36-.335,1.247,1.247,0,0,1,.586-.057l4.371.441a.808.808,0,0,1,.573.255.733.733,0,0,1,.153.535.711.711,0,0,1-.232.505A.784.784,0,0,1,375.862-876.425Zm-10.149,3.164-1.518-.153-.2,2.592a1.286,1.286,0,0,1-.3.818.717.717,0,0,1-.612.228.759.759,0,0,1-.582-.344,1.334,1.334,0,0,1-.165-.856l.541-7.056a1.225,1.225,0,0,1,.318-.849,1.044,1.044,0,0,1,.818-.182l2.124.214a5.092,5.092,0,0,1,1.438.309,2.185,2.185,0,0,1,.828.6,2.441,2.441,0,0,1,.486.943,3.478,3.478,0,0,1,.1,1.2,2.716,2.716,0,0,1-.932,2.042A3.2,3.2,0,0,1,365.713-873.261Zm-.081-4.234-1.115-.113-.215,2.8,1.116.113a3.012,3.012,0,0,0,.991-.04,1.111,1.111,0,0,0,.633-.389,1.442,1.442,0,0,0,.269-.8,1.523,1.523,0,0,0-.242-1.019A2.005,2.005,0,0,0,365.632-877.495Zm-8.1-2.376a4.08,4.08,0,0,1,2.138.8,3.73,3.73,0,0,1,1.254,1.78,6.24,6.24,0,0,1,.277,2.547,6.7,6.7,0,0,1-.4,1.9,4.184,4.184,0,0,1-.884,1.427,3.294,3.294,0,0,1-1.334.846,4.084,4.084,0,0,1-1.737.164,4.15,4.15,0,0,1-1.69-.519,3.548,3.548,0,0,1-1.191-1.105,4.427,4.427,0,0,1-.651-1.594,6.878,6.878,0,0,1-.112-1.942,6.5,6.5,0,0,1,.419-1.908,4.2,4.2,0,0,1,.9-1.419,3.278,3.278,0,0,1,1.32-.818A4,4,0,0,1,357.533-879.871Zm1.992,4.942a4.865,4.865,0,0,0-.156-1.772,2.493,2.493,0,0,0-.743-1.2,2.146,2.146,0,0,0-1.206-.5,2.033,2.033,0,0,0-.932.116,1.99,1.99,0,0,0-.771.537,3,3,0,0,0-.558.972,5.123,5.123,0,0,0-.282,1.378,5.356,5.356,0,0,0,.067,1.431,3.155,3.155,0,0,0,.416,1.1,2.2,2.2,0,0,0,.687.693,2.048,2.048,0,0,0,.9.3,2.037,2.037,0,0,0,1.2-.238,2.332,2.332,0,0,0,.931-1.014A4.67,4.67,0,0,0,359.525-874.929Zm9.858-27.778a2.327,2.327,0,0,1,2.327,2.327,2.327,2.327,0,0,1-2.327,2.327,2.327,2.327,0,0,1-2.327-2.327A2.327,2.327,0,0,1,369.383-902.707Zm15.788,22.5-30.992-2.781a2.028,2.028,0,0,0-1.484.469,2.024,2.024,0,0,0-.726,1.364l-.981,10.938a2.023,2.023,0,0,0,.469,1.483,2.019,2.019,0,0,0,1.371.727l30.993,2.781a2.03,2.03,0,0,0,1.483-.469,2.019,2.019,0,0,0,.725-1.364L387.011-878a2.031,2.031,0,0,0-.469-1.484A2.025,2.025,0,0,0,385.171-880.211Z"/></g></svg>