<?xml version="1.0" encoding="UTF-8" standalone="no"?>
<svg
   xmlns:dc="http://purl.org/dc/elements/1.1/"
   xmlns:cc="http://creativecommons.org/ns#"
   xmlns:rdf="http://www.w3.org/1999/02/22-rdf-syntax-ns#"
   xmlns:svg="http://www.w3.org/2000/svg"
   xmlns="http://www.w3.org/2000/svg"
   id="svg838"
   version="1.1"
   viewBox="0 0 1.7742467 3.6734452"
   height="3.6734452mm"
   width="1.7742467mm">
  <defs
     id="defs832" />
  <metadata
     id="metadata835">
    <rdf:RDF>
      <cc:Work
         rdf:about="">
        <dc:format>image/svg+xml</dc:format>
        <dc:type
           rdf:resource="http://purl.org/dc/dcmitype/StillImage" />
        <dc:title></dc:title>
      </cc:Work>
    </rdf:RDF>
  </metadata>
  <g
     transform="translate(-268.98851,-191.59779)"
     id="layer1">
    <path
       style="stroke-width:0.26458332"
       id="path8"
       d="m 269.79867,195.27124 a 1.9216687,1.9216687 0 0 1 -0.195,-0.0434 0.873125,0.873125 0 0 1 -0.61383,-0.84666 c -0.003,-0.21881 0,-0.43762 0,-0.65644 q 0,-0.74083 0,-1.48166 a 0.631825,0.631825 0 0 1 0.52043,-0.635 0.63843958,0.63843958 0 0 1 0.7493,0.56356 c 0.005,0.0595 0.005,0.11959 0.006,0.17912 q 0,0.81413 0,1.62825 a 0.43523958,0.43523958 0 0 1 -0.37042,0.44212 0.43603333,0.43603333 0 0 1 -0.50271,-0.40481 c -0.006,-0.26644 -0.003,-0.53314 -0.003,-0.79958 q 0,-0.26193 0,-0.52361 a 0.35983333,0.35983333 0 0 1 0.003,-0.0608 0.10583333,0.10583333 0 0 1 0.10371,-0.0871 0.10742083,0.10742083 0 0 1 0.10584,0.0857 0.3000375,0.3000375 0 0 1 0.003,0.0529 q 0,0.64585 0.003,1.29117 a 0.22251458,0.22251458 0 0 0 0.15875,0.22596 0.22225,0.22225 0 0 0 0.28786,-0.2159 q 0,-0.653 0,-1.30546 c 0,-0.14473 0,-0.28945 0,-0.43392 a 0.42677292,0.42677292 0 0 0 -0.32755,-0.42333 0.41777708,0.41777708 0 0 0 -0.51594,0.39688 c -0.004,0.3884 0,0.77681 0,1.16416 0,0.33232 -0.003,0.66464 0.003,0.99695 a 0.63949792,0.63949792 0 0 0 0.38867,0.61066 0.66145833,0.66145833 0 0 0 0.94298,-0.6014 q 0,-0.86254 0,-1.72508 a 0.11086042,0.11086042 0 0 1 0.0794,-0.12144 0.10847917,0.10847917 0 0 1 0.13626,0.1143 c 0,0.15875 0,0.31538 0,0.47334 0,0.42545 0.003,0.85116 0,1.27661 a 0.873125,0.873125 0 0 1 -0.72628,0.84667 c -0.0233,0.004 -0.0463,0.009 -0.0693,0.0132 z"
       class="a" />
  </g>
</svg>
