<svg xmlns="http://www.w3.org/2000/svg" width="43.714" height="41.525" viewBox="0 0 43.714 41.525"><defs><style>.a{fill:#fff;}</style></defs><g transform="translate(-906.98 -179.079)"><path class="a" d="M948.836,179.079H918.3a1.859,1.859,0,0,0-1.858,1.858v8.422l-1.4-2.094a2.159,2.159,0,0,0-2.915-.656l-2.873,1.727a4.212,4.212,0,0,0-1.925,2.5c-1.048,3.816-.271,10.39,9.379,20.041,7.673,7.666,13.395,9.73,17.338,9.73a10.165,10.165,0,0,0,2.7-.353,4.22,4.22,0,0,0,2.5-1.923l1.725-2.875a2.16,2.16,0,0,0-.656-2.912l-6.879-4.585a2.171,2.171,0,0,0-2.906.471l-2,2.575a.7.7,0,0,1-.892.189l-.381-.21a22.94,22.94,0,0,1-5.968-4.687c-.341-.341-.65-.661-.94-.966h28.483a1.856,1.856,0,0,0,1.858-1.85V180.937A1.859,1.859,0,0,0,948.836,179.079Zm-22.272,33.182.37.2a2.147,2.147,0,0,0,2.751-.567l2-2.575a.708.708,0,0,1,.947-.153l6.878,4.585a.7.7,0,0,1,.214.947L938,217.577a2.766,2.766,0,0,1-1.633,1.268c-3.445.947-9.474.146-18.624-9.005s-9.949-15.179-9-18.621a2.766,2.766,0,0,1,1.268-1.633l2.875-1.726a.705.705,0,0,1,.948.214l4.587,6.878a.707.707,0,0,1-.154.948l-2.575,2a2.146,2.146,0,0,0-.567,2.75l.2.37a33.225,33.225,0,0,0,11.237,11.238Zm22.673-8.782a.4.4,0,0,1-.4.393h-29.8a18.327,18.327,0,0,1-2.432-3.545l-.21-.382a.7.7,0,0,1,.188-.891l2.575-2a2.17,2.17,0,0,0,.472-2.906l-1.732-2.6V180.937a.4.4,0,0,1,.4-.4h30.535a.4.4,0,0,1,.284.116.392.392,0,0,1,.116.285v22.542Z"/><path class="a" d="M946.326,182.453l-12.18,9.237a.985.985,0,0,1-1.156,0l-12.175-9.237a.729.729,0,1,0-.881,1.161l12.177,9.237a2.453,2.453,0,0,0,2.915,0l12.18-9.237a.728.728,0,0,0-.88-1.161Z"/><path class="a" d="M927.349,192.912l-7.465,7.994a.729.729,0,0,0,1.066.994l7.465-8a.729.729,0,0,0-1.066-.99Z"/><path class="a" d="M939.836,192.912a.729.729,0,0,0-1.066.994l7.463,7.994a.729.729,0,0,0,1.066-.994Z"/></g></svg>