<svg xmlns="http://www.w3.org/2000/svg" width="94.702" height="69.016" viewBox="0 0 94.702 69.016"><g transform="translate(-912.453 -3914.593)"><path d="M929.239,3981.27a.036.036,0,1,0,0-.071A.036.036,0,1,0,929.239,3981.27Z"/><path d="M1006.189,3952.37c.043-.085.084-.173.13-.258a14.542,14.542,0,0,1,.836-2.506c-.177-.191-.351-.383-.521-.579l-.037-.041c-5.389.478-8.357-5.629-10.882-9.455a51.414,51.414,0,0,0-4.462-6.521,6.649,6.649,0,0,0-.8-1.217,6.141,6.141,0,0,0-3-2.813,23.1,23.1,0,0,1,3.794-9.657.694.694,0,0,0-.595-1.036c-4.288.019-8.323,1.519-10.83,5.115-.391-.322-.79-.633-1.2-.938-12.814-13.348-38.288-7.782-51.392,2.363a23.405,23.405,0,0,0-8.272,12.5,6.261,6.261,0,0,1-.462.432,5.8,5.8,0,0,0-3.292-2.829c-1.721-.469-2.473,1.391-2.756,2.7a.134.134,0,0,0,.258.071c.568-1.557,1.618-2.739,3.144-1.446a5.783,5.783,0,0,1,1.653,2.8.751.751,0,0,0,.92.522l.02-.008a29.959,29.959,0,0,0-.063,10.155,33.553,33.553,0,0,0,2.692,8.57.506.506,0,0,0,.3.639,48.207,48.207,0,0,0,2.376,4.367c.111.183.229.374.35.569a11.354,11.354,0,0,0,2.566,3.837c.312.417.634.83.967,1.233l0,0c-.272.4.2.78.57.652a16.853,16.853,0,0,0,1.887,1.828c2.529,3.159,4.219,6.7,3.486,11.339-.059.371.387.654.546.272.005-.015.01-.029.016-.044a52.56,52.56,0,0,0,6.283-.173c1.911-.139,3.766.392,5.617.416.094.023.187.043.28.074,0,.048-.012.094-.016.142-.017.193.279.222.328.045.006-.026.016-.053.023-.078a.51.51,0,0,0,.536-.191,1.5,1.5,0,0,0,.249.078.351.351,0,0,0,.348-.006.4.4,0,0,0,.249-.442.426.426,0,0,0-.138-.379,5.315,5.315,0,0,1-.262-1.706c.1-.414.217-.824.353-1.227.16-.435.318-.87.469-1.307,0-.016,0-.029.007-.045a7.312,7.312,0,0,1,1.493-1.623l.007,0a.264.264,0,0,0,.329-.266,15.213,15.213,0,0,1,7.422-2.694c5.333-.393,8.578,4.6,11.2,8.44a.265.265,0,0,0,.018.438c2.115,1.447,5.14.954,7.988.46.219.014.437.029.655.042.863-.175,1.732-.331,2.6-.5a9.564,9.564,0,0,1,1.086-.029.727.727,0,0,0,.6-.295,2.736,2.736,0,0,1,.559,0c1.46-4.995,2.88-9.757,6.226-13.935a18.331,18.331,0,0,1,8.916-5.955.2.2,0,0,0,.193-.066c.686-.214,1.383-.4,2.09-.552a.261.261,0,0,0,.369-.08,31.274,31.274,0,0,1,4.329-.562c-.008-.164-.017-.329-.019-.491a10.092,10.092,0,0,1,.1-1.344c.043-.307.1-.609.172-.908a5.751,5.751,0,0,0,.3-.7c.351-1.007.608-2.038.868-3.071.178-.7.623-1.452.228-2.123Zm-2.749,7.583a.73.73,0,0,0,.111.383c-.205-.02-.408-.036-.612-.051A3.9,3.9,0,0,0,1003.44,3959.953Zm-3.543.358c-.108-.164-.225-.319-.332-.456a2.506,2.506,0,0,0-1.333-.884c-.107-.027-.183.134-.078.184a2.292,2.292,0,0,1,1.028,1,1.843,1.843,0,0,1,.1.232,17.776,17.776,0,0,0-1.927.348c-.268-.764-.5-1.544-.738-2.309a.2.2,0,0,0-.387.1,17.255,17.255,0,0,0,.5,2.369,17.9,17.9,0,0,0-2.654.976c-.107-.223-.23-.439-.336-.669a7.944,7.944,0,0,1-.716-2.729.167.167,0,0,0-.334,0,8.588,8.588,0,0,0,.313,2.407,7.9,7.9,0,0,0,.425,1.3,19.341,19.341,0,0,0-2.058,1.216,31.452,31.452,0,0,1-1.389-3.164c-.045-.12-.234-.071-.194.053a32.009,32.009,0,0,0,1.29,3.317,22.786,22.786,0,0,0-5.191,5.133c-.139-.357-.389-.7-.526-1.037-.213-.514-.379-1.043-.569-1.565-.117-.319-.614-.193-.516.142.173.594.328,1.192.527,1.777a2.661,2.661,0,0,0,.662,1.275,27.931,27.931,0,0,0-1.572,2.537,7.846,7.846,0,0,1-.59-.942,12.127,12.127,0,0,1-.955-2.988c-.054-.258-.42-.141-.385.107a10.572,10.572,0,0,0,1.489,4.654c-.246.484-.477.978-.7,1.478-.29-.212-.592-.415-.859-.653a4.3,4.3,0,0,1-1.3-2.026.234.234,0,0,0-.451.124,4.7,4.7,0,0,0,.945,2.12,5.968,5.968,0,0,0,1.293,1.3,31.765,31.765,0,0,0-1.221,3.617,44.766,44.766,0,0,1-1.916-4.149c-.031-.078-.152-.052-.129.035.435,1.673.765,3.556,1.826,4.968-.11.45-.211.9-.3,1.357a22.926,22.926,0,0,0-2.575.169,34.269,34.269,0,0,0-4.354.221c-.421.046-.929.086-1.42.181-.04-.918-.134-1.834-.214-2.752a.034.034,0,0,0-.067,0c-.082.959-.181,1.916-.217,2.877a2.666,2.666,0,0,0-.609.278l-.752.054a.736.736,0,0,0-.06-.2c-.121-.234-.251-.462-.38-.692.024-.452-.033-.92-.03-1.362a8.831,8.831,0,0,1,.427-2.705c.046-.142-.184-.242-.245-.1a9.442,9.442,0,0,0-.654,2.426c-.032.225-.071.47-.1.719-.233-.373-.476-.741-.728-1.1a.233.233,0,0,0,.087-.2,9.642,9.642,0,0,1,.423-4.136c.044-.1-.132-.176-.183-.076a9.11,9.11,0,0,0-.759,3.826,18.556,18.556,0,0,0-1.858-2.1,9.942,9.942,0,0,1,.978-4.02c.033-.076-.073-.145-.116-.068a10.905,10.905,0,0,0-1.339,3.65,14.264,14.264,0,0,0-2.511-1.816,13.943,13.943,0,0,0,.691-1.7c.286-.626.6-1.236.871-1.871.015-.036-.042-.057-.061-.026-.4.655-.857,1.276-1.279,1.917a3.6,3.6,0,0,0-.709,1.432,11.955,11.955,0,0,0-2.686-.987,6.733,6.733,0,0,0,.574-2.939.034.034,0,0,0-.067,0,5.873,5.873,0,0,1-.6,1.942c-.144.3-.33.585-.491.88a11.763,11.763,0,0,0-1.722-.181.323.323,0,0,0,.136-.111,2.33,2.33,0,0,0,.192-1.249,12.288,12.288,0,0,1,.272-1.84c.029-.14-.179-.248-.245-.1a16.369,16.369,0,0,0-.642,1.663c-.154.481-.387,1.066-.095,1.53a.3.3,0,0,0,.12.111,12.6,12.6,0,0,0-1.918.119l-.056.009a.382.382,0,0,0-.089-.183,2.122,2.122,0,0,1-.578-1.939.2.2,0,0,0-.387-.106,2.6,2.6,0,0,0,.256,2.382,11.961,11.961,0,0,0-2.067.7c-.016-.224-.042-.447-.054-.658-.041-.789-.1-1.578-.152-2.368a.168.168,0,0,0-.335,0l-.153,2.368c-.02.324-.07.679-.067,1.02a12.361,12.361,0,0,0-2.294,1.538,5.094,5.094,0,0,1-.316-.443,3.427,3.427,0,0,1-.4-2.1c.017-.191-.282-.223-.328-.044a4.391,4.391,0,0,0,.4,3.191,8.751,8.751,0,0,0-1.366,1.747,7.87,7.87,0,0,1-.891-.989,3.626,3.626,0,0,1-.293-2.122c.007-.076-.112-.089-.132-.017a4.458,4.458,0,0,0-.114,2.175,2.577,2.577,0,0,0,1.031,1.61,19.1,19.1,0,0,0-.809,2.465c-.232-.515-.567-1.019-.786-1.49a6.989,6.989,0,0,0-1.589-2.412.068.068,0,0,0-.105.082c.41.949.739,1.946,1.128,2.907a4.406,4.406,0,0,0,1.131,2.053c-.006.044-.018.088-.023.131-3.019-1.8-8.741.16-12.018.667a11.771,11.771,0,0,0,.856-4.618,47.579,47.579,0,0,0,1.914-4.724.067.067,0,0,0-.123-.051c-.552,1.1-1.207,2.154-1.821,3.225-.032.055-.067.112-.1.169a11.175,11.175,0,0,0-.284-1.286c.373-.52.7-1.077,1.039-1.585a20.978,20.978,0,0,0,1.98-3.715c.071-.177-.221-.3-.3-.13a21.251,21.251,0,0,1-1.988,3.158c-.316.427-.692.836-1.064,1.253a14.411,14.411,0,0,0-.67-1.508.527.527,0,0,0-.049-.583c-.07-.09-.143-.175-.215-.265a16.664,16.664,0,0,0,1.338-2.29,27.333,27.333,0,0,0,1.7-4.113c.034-.106-.138-.181-.184-.076a31.359,31.359,0,0,1-1.788,3.5,19.363,19.363,0,0,1-1.674,2.224c-.171-.207-.343-.411-.517-.614-.307-.417-.628-.821-.96-1.216.429-.758.923-1.477,1.354-2.235a15.565,15.565,0,0,0,1.985-4.557.1.1,0,0,0-.194-.052,16.89,16.89,0,0,1-2.761,4.6c-.288.389-.7.9-1.068,1.455-.34-.383-.679-.763-1.017-1.136a26.069,26.069,0,0,0,3.256-7.245.1.1,0,0,0-.194-.053,35.886,35.886,0,0,1-3.659,6.622c-.718-.834-1.422-1.725-2.171-2.538a48.88,48.88,0,0,1,4.172-7.608c.024-.034-.025-.062-.052-.04a19.44,19.44,0,0,0-4.894,6.687c-.237-.335-.473-.668-.7-1.018-.192-.3-.372-.609-.555-.916a36.048,36.048,0,0,0,3.455-6.659c.15-.35-.356-.659-.519-.3a36.8,36.8,0,0,1-3.363,6.234q-.77-1.362-1.418-2.784c2.119-1.886,3.335-4.566,4.475-7.147a.033.033,0,0,0-.058-.033c-1.435,2.123-2.8,4.625-4.777,6.338q-.561-1.315-1.019-2.676c1.928-1.858,2.92-4.547,4.683-6.571a.067.067,0,0,0-.095-.094c-1.845,1.746-3.114,3.945-4.9,5.725-.279-.905-.521-1.82-.735-2.742a21.8,21.8,0,0,0,4.521-5.892c.018-.033-.027-.069-.053-.041a53,53,0,0,1-4.654,5.1c-.063-.3-.111-.609-.163-.914.264-.311.5-.656.723-.956a21.967,21.967,0,0,0,1.768-2.9.033.033,0,0,0-.057-.033,26.625,26.625,0,0,1-1.855,2.449,7.1,7.1,0,0,1-.711.681c-.079-.557-.136-1.113-.176-1.668a11.693,11.693,0,0,0,1.678-2.905c.041-.106-.136-.181-.184-.076a10.908,10.908,0,0,1-1.523,2.363,24.475,24.475,0,0,1,.055-3.287,9.2,9.2,0,0,0,1.642-1.95c.07-.111-.1-.2-.174-.1a8.7,8.7,0,0,1-1.4,1.479,23.453,23.453,0,0,1,.8-4.018,3.471,3.471,0,0,0,1.09-2.762.468.468,0,0,0-.026-.109,24.549,24.549,0,0,1,8.26-10c13.011-9.295,36.7-12.893,49.292-1.122a.216.216,0,0,0,.226.055.818.818,0,0,0,1.422.168c1.914-2.812,5.028-4.133,8.289-4.513-.363.632-.712,1.3-1.033,1.994a.392.392,0,0,0-.378.324c-.418,1.541-1.01,3.014-1.555,4.513a9.635,9.635,0,0,0-.6,2.164,1.027,1.027,0,0,0,0,1.758q.4.22.776.456a.466.466,0,0,0-.088.422c.018.062.045.123.069.183a2.047,2.047,0,0,1,.785-.025c.72.94,1.777,1.837,2.162,2.342a.912.912,0,0,0,.423.311,3.4,3.4,0,0,0,.87.776,49,49,0,0,1,4.356,7.7c1.622,2.513,4.123,4.491,6.061,6.766a5,5,0,0,0,4.757.545,13.41,13.41,0,0,0-1.175,3c-.16.568-.362,1.219-.551,1.9a16.417,16.417,0,0,0-.767,3.9,3.382,3.382,0,0,1-.976,1.058v-.181a.133.133,0,0,0-.266,0v.364h0a.237.237,0,0,0-.124.212A18.374,18.374,0,0,0,999.9,3960.311Z"/><path d="M957.327,3942.7a107.867,107.867,0,0,1-1.43-10.935,21.5,21.5,0,0,1,5.41,2.98c.057.038.125-.035.092-.091a10.8,10.8,0,0,0-5.527-4.23,25.609,25.609,0,0,1,.151-2.871c.005-.038-.059-.046-.065-.01a27.1,27.1,0,0,0-.337,2.807,7.726,7.726,0,0,0-2.2-.353c-.075-1.007-.131-2.019-.136-3.039,0-.294-.468-.374-.526-.071a26.8,26.8,0,0,0-.4,3.2,4.961,4.961,0,0,0-1.625.578c-2.8,1.621-6.086,6.561-3.267,9.593,1.562,1.679,3.66,2.325,5.785,2.934.017.138.035.276.051.414.557,4.537.12,9.769,1.03,14.436-1.983-1.036-3.937-3.449-5.94-4.217a.5.5,0,0,0-.617.616,9.655,9.655,0,0,0,7.119,5.826,15.526,15.526,0,0,0,.546,1.5c.264.614,1.168.259,1.183-.321.009-.4,0-.808-.014-1.211a4.929,4.929,0,0,0,.579-.148c.04.69.1,1.377.2,2.06a.4.4,0,0,0,.774,0c.124-.873.2-1.762.262-2.658a5.155,5.155,0,0,0,.558-.425,10.263,10.263,0,0,0,2.014-13.532A7.762,7.762,0,0,0,957.327,3942.7Zm-1.787-11.029a78.546,78.546,0,0,0,.639,10.6c-.414-.141-.835-.271-1.259-.4-.409-3.471-1.024-6.9-1.373-10.37A6.069,6.069,0,0,1,955.54,3931.674Zm-5.395,8.563c-3.925-2-1.227-7.109,1.936-8.386.071-.029.143-.045.214-.07a68.6,68.6,0,0,0,.722,9.54A17.37,17.37,0,0,1,950.145,3940.237Zm6.336,18.249c-.2-1.95-.552-3.9-.7-5.847-.232-2.962-.386-5.93-.657-8.889.424.136.843.285,1.253.452.285,2.835.576,5.656.7,8.511.078,1.851.022,3.72.052,5.579A2.587,2.587,0,0,1,956.481,3958.486Zm3.038-2.671a9.072,9.072,0,0,1-1.005,1.4,90.944,90.944,0,0,0-.91-12.433c.107.059.217.114.321.178C961.669,3947.229,961.477,3952.523,959.519,3955.815Z"/><path d="M938.037,3975.65c-1.121,1.979-2.58,3.7-3.309,5.889-.19.57.732.827.9.247.619-2.114,1.938-3.942,2.65-6.034C938.331,3975.607,938.111,3975.518,938.037,3975.65Z"/><path d="M987.2,3964.519a2.856,2.856,0,0,1-.165-1.848c.024-.166-.219-.243-.257-.07a3.369,3.369,0,0,0,.037,2.081,1.815,1.815,0,0,0,1.281,1.128c.192.013.239-.221.14-.344C987.936,3965.092,987.47,3964.965,987.2,3964.519Z"/></g></svg>