<svg xmlns="http://www.w3.org/2000/svg" width="85.004" height="80.366" viewBox="0 0 85.004 80.366"><g transform="translate(-219.453 -3473.617)"><path d="M286.489,3553.187a38.33,38.33,0,0,0,.148-5.855c.051-2.236.158-4.47.283-6.7.242-4.347.585-8.689.883-13.032q.06-.913.124-1.83.552-.131,1.1-.248c.148-.03.108-.241-.031-.249-.347-.02-.69-.03-1.032-.037.509-7.535.926-15.365-.417-22.787a.4.4,0,0,0,.446.006c2.106-1.381,3.75-3.521,5.385-5.411a87.53,87.53,0,0,0,6.159-7.941c2.53-3.712,6.945-10.312,3.874-14.851-.009-.015-.022-.021-.033-.034.153-.083.3-.168.448-.263a.18.18,0,0,0-.087-.333,17.425,17.425,0,0,0-3.367.518c-1.382.246-2.77.453-4.153.7a26.433,26.433,0,0,0-7.609,2.505,36.328,36.328,0,0,0-7.552,5.607c-1.169,1.068-2.288,2.188-3.4,3.308a26,26,0,0,0-2.469,2.59.368.368,0,0,0-.208-.111c-4.2-.741-8.4-1.4-12.624-1.956-2.7-.457-5.409-.922-8.122-1.327a131.6,131.6,0,0,0-13.741-1.22c-4.3-.186-8.615-.322-12.924-.249a32.814,32.814,0,0,0-4.9.429c-.739.125-1.732.206-2.027,1.01-.049.131.1.245.217.218,2.513-.582,5.362-.38,7.934-.393,3.527-.018,7.054.1,10.579.257a8.441,8.441,0,0,0-4.054.772.488.488,0,0,0,.116.887,11.436,11.436,0,0,0,4.08.009c1.693-.091,3.388-.1,5.082-.081,1.16.015,2.317.047,3.475.087a.132.132,0,0,0-.008.03c-.01.065-.022.133-.034.2-1.17,2.214-2.533,4.3-3.6,6.587a14.722,14.722,0,0,0-1.435,5.008c-1.829-.628-3.661-1.246-5.5-1.838-2.808-.9-5.664-1.642-8.478-2.526-2.518-.791-5-1.917-7.548-2.563-.116-.028-.254.112-.172.224,1.4,1.877,3.985,2.7,6.074,3.54,2.89,1.17,5.954,1.942,8.914,2.918,2.629.869,5.209,1.877,7.824,2.791l.023.014a1.235,1.235,0,0,0,.368.122c.5.173,1,.343,1.509.507a102.312,102.312,0,0,0,10.889,2.932.635.635,0,0,0,.321-1.228c-1.978-.646-3.949-1.32-5.916-2a4.451,4.451,0,0,0,.124-.785,11.694,11.694,0,0,1,1.312-4.294c1.267-2.667,2.915-5.243,3.337-8.213.037-.263-.332-.471-.468-.189-1.266,2.615-3.261,4.841-4.7,7.36a22.433,22.433,0,0,0-1.245,2.538c.03-.248.064-.5.108-.74a28.348,28.348,0,0,1,3.979-10.049.286.286,0,0,0,.02-.04c.32.023.64.043.959.068,3.11.242,6.21.579,9.309.924l.272.047c3.044.519,6.238,1.279,9.335,1.088a.459.459,0,0,0,.277-.109c.263.023.526.048.789.07a4.84,4.84,0,0,0-.277.56.512.512,0,0,0,.691.693,11.293,11.293,0,0,0,3.431-2.916c1.094-1.149,2.2-2.29,3.327-3.4a37.666,37.666,0,0,1,7.469-5.869,28.968,28.968,0,0,1,7.591-2.726,38.263,38.263,0,0,0,5.873-1.424.318.318,0,0,0,.028.087c1.092,2.018.458,4.446-.271,6.48a34.062,34.062,0,0,1-4.491,7.957,85.478,85.478,0,0,1-6.058,7.5,49,49,0,0,0-4.6,5.246c-.024-.123-.044-.247-.07-.37a.2.2,0,0,0-.4.052c.024,4.356.217,8.706.108,13.064-.089,3.581-.287,7.162-.513,10.739a36.934,36.934,0,0,0-4.214.4c-2.5.37-4.949.515-7.463.653a.948.948,0,0,0-.644.281c-.073-.516-.153-1.031-.235-1.546.571-.187,1.16-.615,1.7-.827a32.534,32.534,0,0,1,4.008-1.175c2.438-.6,4.781-1.019,6.952-2.351a.23.23,0,0,0-.172-.42c-2.5.578-5.108.761-7.647,1.108a18.474,18.474,0,0,0-4.055,1c-.394.148-.778.319-1.156.5a25.963,25.963,0,0,0-1.79-6.043c.239-.133.479-.263.716-.4.269-.155.1-.617-.208-.513-.273.091-.542.188-.813.282-.026-.054-.053-.108-.08-.162a.307.307,0,0,0-.561.228c.012.048.021.1.032.145a91.345,91.345,0,0,0-10.747,4.63,35.509,35.509,0,0,0-5.722,3.565c-1.384,1.074-3.772,2.609-4,4.483a.4.4,0,0,0,.2.372c-1.3,2.85-1.724,6.159-2.442,9.186-.416,1.756-.793,3.518-1.264,5.261-.223.825-.478,1.639-.748,2.449a9.986,9.986,0,0,0-.76,2.389.536.536,0,0,0,.509.549c-.289.4-.545.817-.786,1.168a.255.255,0,0,0,.346.346c.938-.645,2.347-1.4,2.628-2.6a.31.31,0,0,0-.374-.373,2.151,2.151,0,0,0-.736.336,19.667,19.667,0,0,0,.97-3.089,57.832,57.832,0,0,0,1.314-5.677c.591-3.259,1.262-6.567,1.626-9.859a.33.33,0,0,0,.092-.017,4.734,4.734,0,0,0,1.874-1.467,23.75,23.75,0,0,1,2.529-2.166,51.044,51.044,0,0,1,5.5-3.517c3.3-1.885,6.816-3.346,10.161-5.138.487,2.3.868,4.594,1.173,6.894a3.067,3.067,0,0,1-.23.439.427.427,0,0,0,.374.638c.366,2.984.617,5.984.826,9.026.223,3.221.411,6.443.716,9.657.225,2.371.267,4.97,1.322,7.119a3.781,3.781,0,0,0-.574.162c-.568.217-.708,1.124,0,1.279a11.486,11.486,0,0,0,2.346.065,20.661,20.661,0,0,1,2.987.3c1.739.278,3.487.73,5.194,1.162a.337.337,0,0,0,.389-.444A.58.58,0,0,0,286.489,3553.187Zm-37.173-59.993c-.852,2.156-1.875,5.029-1.716,7.412l-1.558-.545c.057-.68-.069-1.428.026-2.067a29.623,29.623,0,0,1,.925-3.729c.008-.03.018-.058.026-.087a3.564,3.564,0,0,0,.555,1.268.307.307,0,0,0,.569-.15,31.986,31.986,0,0,1,.059-4.036c.2-1.322.522-2.616.657-3.95a.374.374,0,0,0-.006-.1q1.916.077,3.827.2A18.294,18.294,0,0,0,249.316,3493.194Zm31.058,58.307a19.4,19.4,0,0,0-3.878-.6c.157-2.477-.494-4.979-.744-7.459-.323-3.219-.518-6.452-.758-9.678-.076-1.019-.171-2.036-.273-3.053a1.052,1.052,0,0,0,.41-.009,73.579,73.579,0,0,1,8.95-1.088.534.534,0,0,0,0-1.067,37.127,37.127,0,0,0-9.479.14.743.743,0,0,0-.1.027c-.026-.219-.057-.438-.085-.656a1.022,1.022,0,0,0,.449.12c3.911.133,7.807-1.08,11.62-2.058q-.048.738-.093,1.475c-.288,4.344-.62,8.685-.864,13.032q-.174,3.112-.261,6.227a27.291,27.291,0,0,0,.091,6.332.491.491,0,0,0,.06.151A19.087,19.087,0,0,0,280.374,3551.5Z"/><path d="M220.628,3491.725a25.271,25.271,0,0,1-.26-2.84,16.419,16.419,0,0,0-.738-4.659c-.018-.051-.105-.047-.1.013a45.817,45.817,0,0,1-.05,5.078c-.015,1.474-.219,3.492.753,4.713.227.286.624.021.65-.27A7.9,7.9,0,0,0,220.628,3491.725Z"/><path d="M259.347,3504.349c-3.244,2.661-5.8,6.479-8.021,10.011-1.158,1.844-2.236,3.736-3.287,5.641-.909,1.644-2.281,3.474-2.4,5.394-.022.344.388.427.607.252,1.465-1.171,2.175-3.315,3.046-4.934q1.547-2.874,3.242-5.665c2.205-3.623,4.866-6.888,7.173-10.425C259.859,3504.391,259.534,3504.2,259.347,3504.349Z"/><path d="M244.762,3549.353a24.123,24.123,0,0,0-.857-3.344c-.369-1.393-.637-2.814-.95-4.22-.44-1.969-.92-4.619-2.423-6.15a.832.832,0,0,0-.473-1.2c-3.774-1.192-7.9-.233-11.6-1.6.674-.333,1.284-.9,1.951-1.255a41.931,41.931,0,0,1,5.216-2.18q2.856-1.053,5.68-2.2c1.442-.584,3.149-1.1,4.249-2.238a.255.255,0,0,0-.243-.425,49.5,49.5,0,0,0-4.957,1.717c-2.043.676-4.1,1.292-6.124,2.025-1.43.52-7.931,2.339-6.956,4.653a.321.321,0,0,0,.285.166c.035,0,.066-.008.1-.011a.576.576,0,0,0,.216.825c3.722,1.723,7.919.927,11.765,2.1a.839.839,0,0,0,.286.033c.277.919.669,1.8.956,2.719a30.2,30.2,0,0,1,.844,3.8c.407,2.3.5,5.321,1.99,7.224A.614.614,0,0,0,244.762,3549.353Z"/><path d="M293.891,3493.177c2.418-4.336,3.71-9.185,6.129-13.521a.676.676,0,0,0-.583-1c-1.014.05-2.054.107-3.1.193.028-.027.057-.056.084-.084a.077.077,0,0,0-.092-.12c-.128.077-.254.157-.379.237-.184.016-.367.032-.55.051a.585.585,0,0,0-.982-.328c-.168.169-.339.335-.508.5-4.322.591-8.506,1.963-11.19,5.67-.087.121.088.291.208.207l.646-.442c-.054.052-.107.1-.159.154-.017.017-.036.033-.054.051l-.011.012c-.1.1-.2.2-.3.294a.585.585,0,0,0,.749.889c.226.06.445.13.661.206a.513.513,0,0,0,.066.557.563.563,0,0,0,.76.191c.147-.065.29-.133.433-.205a12.579,12.579,0,0,1,3.278,2.541c.155.161.3.327.445.5-.33.446.182,1.145.693.889.3.421.586.855.859,1.3.452.727.7,1.46,1.494,1.87a.384.384,0,0,0,.557-.236c0-.03,0-.061,0-.092A.631.631,0,0,0,293.891,3493.177Zm1.8-7.921c.154-.13.3-.264.45-.4-.078.192-.158.387-.236.58A.7.7,0,0,0,295.691,3485.256Zm-7.31,1.438a.042.042,0,0,1,.014.013c-.034.071-.065.142-.1.213-.175-.122-.353-.237-.534-.349q.237-.123.472-.251A.448.448,0,0,0,288.381,3486.694Zm-3.238-1.273c-.18-.051-.362-.1-.545-.137.99-.714,1.939-1.482,2.907-2.225Zm6.935-4.5a.5.5,0,0,0-.048.025c.057-.095.111-.192.166-.29l.182-.033C292.277,3480.723,292.178,3480.824,292.078,3480.923Zm-2.471,7.084c-.151-.147-.306-.287-.463-.423a26.517,26.517,0,0,1,1.724-2.7.486.486,0,0,0,.123-.25c.043-.046.084-.09.129-.135a10.694,10.694,0,0,0,2.989-3.349.518.518,0,0,0,.052-.144c.246-.239.49-.48.735-.719,1.129-.112,2.265-.181,3.4-.238-.261.51-.509,1.023-.749,1.542a.577.577,0,0,0-.542,0c-2.76,1.477-4.713,4.049-6.874,6.242a.547.547,0,0,0-.118.572Zm2.2,2.367.048-.028a.514.514,0,0,0,.675.313,9.463,9.463,0,0,0,1.007-.493,8.014,8.014,0,0,1-.976,1.321.018.018,0,0,1-.009.01A8.331,8.331,0,0,0,291.8,3490.374Z"/><path d="M288.893,3495.586a.594.594,0,0,0-.8-.8c-.153.074-.314.149-.475.228a.6.6,0,0,0-.462.051l-.046.025a2.849,2.849,0,0,0-1.75.583,1.828,1.828,0,0,0-.6,1.532c-.013.028-.031.053-.043.08a.334.334,0,0,0,.1.423,5.931,5.931,0,0,0,.2.763c-.134.6.549,1.213,1.066.669a6.5,6.5,0,0,0,.578-.7c.343-.289.691-.574,1.015-.886A6.325,6.325,0,0,0,288.893,3495.586Z"/><path d="M278.605,3503.3a1.6,1.6,0,0,0-.83,1.516.472.472,0,0,0,.47.47,8.021,8.021,0,0,0,.837-.009.638.638,0,0,0,.817-.035l.151-.149a3,3,0,0,0,.332-.129,8.912,8.912,0,0,0,2.25-1.9.565.565,0,0,0-.253-.933c-.881-.357-2.374-1.148-3.278-.437A1.8,1.8,0,0,0,278.605,3503.3Z"/><path d="M270.657,3511.351c-.015.025-.031.048-.049.073a.307.307,0,0,0,.417.416l.076-.052a4.474,4.474,0,0,0,2.379.047,7.894,7.894,0,0,0,2.427-1.983.61.61,0,0,0-.427-1.031c-.322-.041-.764-.16-1.22-.244a.687.687,0,0,0-.506-.072,1.738,1.738,0,0,0-1.081.171,1.686,1.686,0,0,0-.687,1.048c-.044.041-.087.084-.13.127a4,4,0,0,0-1.135,1.156A.455.455,0,0,0,270.657,3511.351Z"/><path d="M266.111,3513.747a7.047,7.047,0,0,0-4.013,1.951.643.643,0,0,0-.143.724,3.16,3.16,0,0,0-.194.547.536.536,0,0,0,.647.647,6.392,6.392,0,0,0,4.392-2.975C267.105,3514.159,266.6,3513.659,266.111,3513.747Z"/><path d="M281.236,3488.968a.562.562,0,0,0-.814-.614,5.817,5.817,0,0,0-1.856,1.35c-.132.1-.261.2-.384.306a.434.434,0,0,0-.157.379,6.687,6.687,0,0,0-.973,2.379.282.282,0,0,0,.469.268,6.048,6.048,0,0,0,1.3-1.765,4.265,4.265,0,0,1,.59-.817,5.858,5.858,0,0,0,1.809-1.086A.263.263,0,0,0,281.236,3488.968Z"/><path d="M269.363,3499c-.118.087-.233.177-.344.275a.454.454,0,0,0,.319.77,5.271,5.271,0,0,0,2.545-.563,8.6,8.6,0,0,0,1.6-2.085.509.509,0,0,0-.226-.724.613.613,0,0,0-.82-.334,4.754,4.754,0,0,0-1.523,1.2,8.607,8.607,0,0,0-1.376,1.03A.513.513,0,0,0,269.363,3499Z"/><path d="M262.877,3506.027a.374.374,0,0,0,.429.135,4.78,4.78,0,0,0,.847-.4c.038.209.3.381.468.174a3.352,3.352,0,0,0,.392-.627,21.27,21.27,0,0,0,1.866-1.181.625.625,0,0,0-.3-1.16,7.518,7.518,0,0,0-.866.053.312.312,0,0,0-.367.069,1.527,1.527,0,0,0-.967.632c-.021.034-.034.067-.051.1a7.514,7.514,0,0,0-1.866,1.178A.6.6,0,0,0,262.877,3506.027Z"/><path d="M260.738,3510.067c-.1,0-.206-.009-.307-.016a.327.327,0,0,0-.458-.277c-.193.085-.39.16-.588.234a4.143,4.143,0,0,0-.5.033,5.312,5.312,0,0,0-1.868.937.735.735,0,0,0-.347.568,8.8,8.8,0,0,0-.609.737.428.428,0,0,0,.071.516q.448.472.9.948a.473.473,0,0,0,.558.075,14.886,14.886,0,0,0,3.563-2.755A.591.591,0,0,0,260.738,3510.067Zm-2.232,1.968a.428.428,0,0,1-.361-.192,3.357,3.357,0,0,1,1.063-.579c.052-.014.1-.023.158-.032C259.088,3511.511,258.8,3511.781,258.506,3512.035Z"/><path d="M252.271,3516.721c-.076-.16-.324-.05-.281.113a1.6,1.6,0,0,0,.3.586c-.022.025-.046.05-.068.077a.976.976,0,0,0,.252,1.42.4.4,0,0,0,.658-.179,1.471,1.471,0,0,0,.075-.979c.032-.026.063-.051.093-.077a1.2,1.2,0,0,0,.459-.734.439.439,0,0,0-.526-.471c-.286.076-.373.381-.561.578-.028.028-.058.057-.087.084A1.237,1.237,0,0,1,252.271,3516.721Z"/></g></svg>