<svg xmlns="http://www.w3.org/2000/svg" width="82.423" height="65.434" viewBox="0 0 82.423 65.434"><path d="M1182.921,3406.115a9.978,9.978,0,0,0-1.29-2.609,7.609,7.609,0,0,0-3.257-2.21,11.967,11.967,0,0,0-1.766-.634.349.349,0,0,0-.354.574c1.527,1.71,3.382,3.116,4.113,5.32a4.945,4.945,0,0,1-.543,4.224c-1.467,2.414-4.261,4.043-6.989,5.315a40.948,40.948,0,0,0-.972-11.911,38.3,38.3,0,0,0-5.957-13.654c-.013-.2-.03-.391-.056-.592a.381.381,0,0,0-.573-.268,29.6,29.6,0,0,0-8.85-7.915c-8.391-4.819-19.623-4.617-28.221-.4-8.118,3.982-12.566,12.163-15.262,20.422a56.512,56.512,0,0,0-2.844,12.9,25.425,25.425,0,0,0-.069,3.277,18.473,18.473,0,0,1-2.78-1.667,12.015,12.015,0,0,1-5.1-7.988,5.73,5.73,0,0,1,.921-3.924c1.043-1.538,3.059-2.209,4.866-2.541a.161.161,0,0,0-.046-.317c-4.015.234-6.972,2.435-7.077,6.361-.105,3.849,2.137,7.7,4.914,10.378a20.573,20.573,0,0,0,4.939,3.485,8.986,8.986,0,0,0,2.232,3.765,7.774,7.774,0,0,0,1.455,1.1c.068.041.122-.059.061-.1a8.621,8.621,0,0,1-3.014-4.4q1.121.528,2.3.95a31.059,31.059,0,0,0,3.459,6.718,30.674,30.674,0,0,0,17.868,12.247l.01,0a.2.2,0,0,0,.037.008,34.014,34.014,0,0,0,6.257.985,30.919,30.919,0,0,0,4.336-.033c.005.05.011.1.015.15.057.566.88.615.963.137a7,7,0,0,0,1.595.247.385.385,0,0,0,.1-.754c-.081-.021-.159-.045-.239-.067a31.305,31.305,0,0,0,3.42-.736.3.3,0,0,0,.315.035c.2-.091.389-.192.58-.3a29.584,29.584,0,0,0,14.416-9.674,27.6,27.6,0,0,0,5.646-12.907c.517-.231,1.031-.466,1.533-.711,3.319-1.618,7.018-3.852,8.556-7.212A7.121,7.121,0,0,0,1182.921,3406.115Zm-11.206,10.488-.327.142c.008-.046.018-.091.025-.137a4.607,4.607,0,0,0,.024-1.107.4.4,0,0,0-.808,0,8.245,8.245,0,0,1-.364,1.722c-.885.374-1.781.723-2.685,1.055.07-.828.126-1.651.172-2.457.089-1.547.136-3.09.126-4.626a10.424,10.424,0,0,0,3.14-3.789c.078-.175.153-.358.222-.548.223,1.319.387,2.643.489,3.96A35.119,35.119,0,0,1,1171.715,3416.6Zm-22.654,24.766a21.422,21.422,0,0,0,2.411-5.06q2.317-.4,4.591-1c.733-.2,1.452-.421,2.167-.662a10.9,10.9,0,0,1-1.281,1.888,22.291,22.291,0,0,1-2.654,2.3.223.223,0,0,0,.142.378c-.584.386-1.163.783-1.707,1.211A30.1,30.1,0,0,1,1149.061,3441.369Zm-2.558.381q-.248-2.4-.509-4.793,2.171-.147,4.324-.467a19.735,19.735,0,0,1-2.486,5.03.579.579,0,0,0-.035.064C1147.367,3441.648,1146.935,3441.7,1146.5,3441.75Zm-20.363-5.717a13.471,13.471,0,0,1-1.324-1.481c.569.174,1.143.336,1.718.488a17.8,17.8,0,0,0,1.562,2.559A13.942,13.942,0,0,1,1126.14,3436.033Zm-2.216-2.751a64.481,64.481,0,0,1-3.266-6.272c-.141-.282-.271-.566-.4-.85.7.232,1.4.435,2.081.621.57.155,1.146.3,1.722.429a35.346,35.346,0,0,0,1.32,5.108c.17.492.367,1,.589,1.523Q1124.948,3433.569,1123.924,3433.282Zm-4.279-8.692c1.082.189,2.173.342,3.266.463.272.03.545.056.818.083.054.387.113.771.176,1.155-.293-.062-.586-.124-.878-.191a27.975,27.975,0,0,1-3.163-.905C1119.789,3424.994,1119.715,3424.792,1119.645,3424.59Zm-.891.171q-.656-.279-1.289-.611.582.134,1.171.251C1118.675,3424.521,1118.713,3424.641,1118.754,3424.761Zm4.642-32.647a14.636,14.636,0,0,0,2.132,1.308,43.154,43.154,0,0,0-2.288,9.816,19.678,19.678,0,0,1-3.843-1.255A44.035,44.035,0,0,1,1123.4,3392.114Zm-4.767,9.481a6.962,6.962,0,0,1-3.268-3.387,38.652,38.652,0,0,1,5.42-9.326,7.114,7.114,0,0,0,1.941,2.679A41.678,41.678,0,0,0,1118.629,3401.595Zm47.863,17.079c-1.533.533-3.089,1-4.66,1.422,0-.3-.005-.6-.011-.906-.027-1.532-.111-3.064-.232-4.593a24.808,24.808,0,0,0,5.286-2.669c-.023,2.036-.148,4.069-.32,6.069C1166.536,3418.222,1166.513,3418.449,1166.492,3418.674Zm-7.611,14.594q-1.549.516-3.121.94c-1.29.35-2.6.633-3.911.867a45.126,45.126,0,0,0,1.3-6.774c.03-.24.049-.481.076-.722a51.283,51.283,0,0,0,7.309-1.79,27.31,27.31,0,0,1-1.582,7.307C1158.932,3433.154,1158.9,3433.21,1158.881,3433.268Zm-34.764-14.681c-.069-1.225-.129-2.453-.173-3.683,2.038.7,4.107,1.323,6.156,1.851,1,.256,2,.471,3,.655q.4,2.331.923,4.633c-3.25-.291-6.5-.658-9.746-.981C1124.215,3420.235,1124.163,3419.409,1124.117,3418.587Zm.05-14.35a44.535,44.535,0,0,0,7.726,1.01,83.186,83.186,0,0,0,1.006,10.946,57.855,57.855,0,0,1-5.706-1.385c-.428-.127-1.693-.534-3.286-1.077A77.566,77.566,0,0,1,1124.167,3404.237Zm10.71-23.233a15.179,15.179,0,0,1,4.261-1.022,18.975,18.975,0,0,0-3.6,4.762q-.513-.166-1.026-.335c-.734-.242-1.454-.53-2.174-.823A28.8,28.8,0,0,1,1134.877,3381Zm16.039,2.853a19.755,19.755,0,0,1,2.668,3.13,23.734,23.734,0,0,1,1.284,2.1,12.218,12.218,0,0,1-3.114,2.507,18.152,18.152,0,0,1-2.063,1.044,42.612,42.612,0,0,0-2.853-5.913,8.583,8.583,0,0,0,1.621-.642,7.087,7.087,0,0,0,2.325-2.048C1150.826,3383.983,1150.871,3383.921,1150.916,3383.857Zm1.422,33.341c.056,1.569.079,3.148.057,4.729a75.624,75.624,0,0,1-8.046.566q-.252-2.187-.5-4.376a58.564,58.564,0,0,0,8.482-1.015C1152.335,3417.134,1152.337,3417.166,1152.338,3417.2Zm-17.228,4.937q-.492-2.254-.9-4.538a47.951,47.951,0,0,0,8.674.55q.245,2.176.494,4.352c-1.8.01-3.6-.036-5.388-.149C1137.029,3422.289,1136.07,3422.215,1135.11,3422.135Zm-2.052-25.068q.066-.726.154-1.462c.846.1,1.692.177,2.53.229a39.392,39.392,0,0,0,5.044-.016c.174,2.774.4,5.545.648,8.312a57.064,57.064,0,0,1-8.6.314A65.282,65.282,0,0,1,1133.058,3397.067Zm7.456-17.145c-.076,2.033-.1,4.068-.086,6.1a33.384,33.384,0,0,1-4.275-1.085,18.9,18.9,0,0,1,3.536-5C1139.962,3379.93,1140.237,3379.921,1140.514,3379.922Zm-.08,6.87c.033,2.65.136,5.3.288,7.947a35.058,35.058,0,0,1-7.39-.065,32.75,32.75,0,0,1,2.518-9.1A28.916,28.916,0,0,0,1140.434,3386.792Zm1.3,8.948a27.969,27.969,0,0,0,7.292-1.628,61.424,61.424,0,0,1,1.514,6.488c.106.574.2,1.15.3,1.726q-1.3.348-2.6.645-2.9.665-5.832,1.041Q1142.039,3399.876,1141.733,3395.74Zm-.219,9.264q.294,3.138.621,6.265.3,2.889.625,5.774a46.953,46.953,0,0,1-8.76-.654,86.5,86.5,0,0,1-1.149-11.1A56.85,56.85,0,0,0,1141.514,3405Zm3.843,11.905c-.544.046-1.086.077-1.63.1q-.318-2.87-.621-5.741-.333-3.187-.619-6.38a61.455,61.455,0,0,0,8.492-1.7,115.4,115.4,0,0,1,1.3,12.754A64.253,64.253,0,0,1,1145.357,3416.909Zm7.879-4.549c-.264-3.158-.617-6.338-1.121-9.49.184-.054.368-.105.551-.16a36.963,36.963,0,0,0,5.985-2.34,115.808,115.808,0,0,1,1.624,11.509c.064.638.122,1.275.175,1.915-1.566.551-3.169,1-4.756,1.4-.739.185-1.482.354-2.228.514Q1153.375,3414.029,1153.236,3412.36Zm-1.262-10.351c-.393-2.314-.871-4.61-1.474-6.864-.132-.5-.279-.982-.439-1.461a16.413,16.413,0,0,0,5.031-3.382c.088-.088.175-.181.263-.275a41.184,41.184,0,0,1,3.108,9.442A35.293,35.293,0,0,1,1151.974,3402.009Zm-6.027-15a41.306,41.306,0,0,1,2.278,4.679c.165.448.318.9.467,1.354a30.877,30.877,0,0,1-7.039,1.6q-.279-3.864-.507-7.733c.258.038.518.077.777.108a13.4,13.4,0,0,0,3.988-.075C1145.925,3386.969,1145.938,3386.994,1145.947,3387.011Zm-4.846-.877q-.18-3.1-.333-6.206.525.011,1.061.057c1.18,1.655,2.871,4.709,3.679,6.2A14.849,14.849,0,0,1,1141.1,3386.134Zm-6.532-1.043c.215.088.434.171.653.254a30.836,30.836,0,0,0-2.758,9.21c-.664-.095-1.326-.2-1.982-.343a24.366,24.366,0,0,1-3.811-1.095,33.357,33.357,0,0,1,1.9-4.1,31.621,31.621,0,0,1,3.412-5C1132.846,3384.4,1133.724,3384.747,1134.569,3385.091Zm-8.167,8.749a23.093,23.093,0,0,0,5.932,1.644,62.736,62.736,0,0,0-.463,8.439c0,.158.007.315.008.473q-2.28-.129-4.561-.446c-.913-.128-1.968-.282-3.07-.5A41.935,41.935,0,0,1,1126.4,3393.84Zm6.314,32.215c.8.1,1.593.188,2.391.269q.181.651.372,1.3a69.48,69.48,0,0,1-10.553-1.125q-.108-.627-.2-1.256C1127.391,3425.5,1130.06,3425.724,1132.716,3426.055Zm3.424.368c2.467.224,4.944.356,7.424.364.1,0,.2,0,.307,0,.029.26.06.52.09.779q-1.533.071-3.056.1-2.2.041-4.422-.01Q1136.3,3427.037,1136.14,3426.423Zm8.7.352a49.314,49.314,0,0,0,7.38-.726c-.018.244-.038.487-.059.731-2.4.37-4.82.6-7.236.735C1144.9,3427.268,1144.87,3427.022,1144.842,3426.775Zm7.23.992a48.457,48.457,0,0,1-.921,5.743c-.132.589-.286,1.175-.453,1.757-1.6.246-3.214.414-4.832.516q-.4-3.645-.826-7.29C1147.386,3428.354,1149.74,3428.124,1152.072,3427.767Zm8.566-3.29c-.006.094-.014.187-.02.281a48.8,48.8,0,0,1-7.286,1.829c.024-.252.044-.5.065-.758a52.3,52.3,0,0,0,7.273-2.012C1160.659,3424.037,1160.652,3424.257,1160.638,3424.477Zm-7.048-2.714c.028-1.632,0-3.266-.068-4.9q1.715-.363,3.411-.811c1.2-.316,2.41-.67,3.611-1.08.128,1.8.2,3.6.206,5.408A70.312,70.312,0,0,1,1153.59,3421.763Zm12.138-20.337a37.291,37.291,0,0,1,1.147,9.16c-.12.085-.238.17-.359.251a24.911,24.911,0,0,1-5.029,2.573c-.164-1.78-.378-3.556-.618-5.326-.373-2.75-.762-5.488-1.32-8.193a15.28,15.28,0,0,0,4.509-3.638A51.413,51.413,0,0,1,1165.728,3401.426Zm-.979-6.159a7.979,7.979,0,0,0,1.078-2.908,38.118,38.118,0,0,1,4.845,11.69,8.058,8.058,0,0,1-.755,3.325,8.648,8.648,0,0,1-2.064,2.451,39.438,39.438,0,0,0-1.492-9.95A47.768,47.768,0,0,0,1164.749,3395.267Zm-4.986,3.473c-.136.082-.275.16-.414.239-.314-1.419-.676-2.829-1.118-4.225a32.569,32.569,0,0,0-2.265-5.446,6.136,6.136,0,0,0,1.48-3.648c.2.193.4.386.6.588a28.974,28.974,0,0,1,5.644,9.075A13.32,13.32,0,0,1,1159.763,3398.74Zm-4.339-10.4a24.055,24.055,0,0,0-2.841-3.927,17.068,17.068,0,0,0-1.238-1.243,5.64,5.64,0,0,0,.539-1.283,19.834,19.834,0,0,1,5.076,3.32A28.448,28.448,0,0,1,1155.424,3388.344Zm-4.8-5.785a17.277,17.277,0,0,0-3.859-2.361c1.252.339,2.506.675,3.727,1.119.192.07.379.151.57.226-.083.219-.156.444-.253.653C1150.755,3382.319,1150.693,3382.44,1150.627,3382.559Zm-.406.667c-.075.117-.154.232-.233.347a6.156,6.156,0,0,1-2.331,1.941,6.962,6.962,0,0,1-1.241.475q-.566-.981-1.151-1.967a32.49,32.49,0,0,0-2.857-4.294.492.492,0,0,0-.109-.436c.286,0,.57.009.855.019A19.721,19.721,0,0,1,1150.221,3383.226Zm-18.578.075c-.182-.073-.363-.147-.545-.219a18.738,18.738,0,0,1,2.012-1.258Q1132.348,3382.537,1131.643,3383.3Zm-.363.4a29.1,29.1,0,0,0-4.547,6.856c-.342.718-.654,1.449-.944,2.187a13.394,13.394,0,0,1-2.092-1.171c.038-.066.074-.133.112-.2a26.869,26.869,0,0,1,6.85-7.974C1130.864,3383.5,1131.07,3383.606,1131.28,3383.7Zm-10.589,19.452a24.179,24.179,0,0,0,2.465.822q-.107,1.021-.178,2.046a73.357,73.357,0,0,0-.087,7.359c-1.545-.536-3.273-1.159-4.812-1.761l0-.184a37.347,37.347,0,0,1,1.186-8.915C1119.734,3402.757,1120.215,3402.965,1120.691,3403.155Zm-2.588,10.379a.287.287,0,0,0,.015-.1c-.015-.277-.02-.555-.028-.833l.38.167c1.45.643,2.946,1.237,4.462,1.785.066,1.613.158,3.221.254,4.819q.047.8.107,1.6-.946-.09-1.89-.174c-.919-.08-1.849-.186-2.781-.323A48.583,48.583,0,0,1,1118.1,3413.534Zm8.158,18.278a32.307,32.307,0,0,1-1.161-4.376,62.627,62.627,0,0,0,10.68,1.189l.006.018a38.63,38.63,0,0,0,2.929,7.165,74.371,74.371,0,0,1-7.993-.913c-1.187-.2-2.356-.456-3.515-.741A23.833,23.833,0,0,1,1126.261,3431.812Zm13.388,3.727a36.285,36.285,0,0,1-2.867-6.886c1.594.033,3.185.024,4.766-.015q1.258-.03,2.526-.092.422,3.647.828,7.3-.8.037-1.591.055c-1.158.025-2.319.009-3.478-.035C1139.772,3435.754,1139.708,3435.647,1139.649,3435.539Zm3.662,1.539q.859-.016,1.719-.061.259,2.376.505,4.754a9.952,9.952,0,0,1-2.227-1.456,15.2,15.2,0,0,1-2.739-3.246C1141.483,3437.09,1142.4,3437.1,1143.311,3437.078Zm16.322-2.934q.9-.342,1.785-.729c-.2.248-.413.494-.633.732a22.916,22.916,0,0,1-2.291,2.128A14.453,14.453,0,0,0,1159.633,3434.144Zm1.864-1.837q-.666.27-1.342.517c.122-.341.232-.673.328-.987a30.6,30.6,0,0,0,1.177-6.432,27.021,27.021,0,0,0,4.118-1.845,24.051,24.051,0,0,1-3.2,8.269C1162.219,3432,1161.861,3432.157,1161.5,3432.307Zm.238-7.943c.019-.319.036-.637.049-.956.55-.208,1.1-.422,1.643-.648.872-.361,1.773-.716,2.688-1.071-.032.2-.061.4-.1.6A22.627,22.627,0,0,1,1161.735,3424.364Zm5.526-3.118c.113-.045.228-.09.343-.133-.12.1-.244.206-.369.307Zm-7.84-36.109a29.316,29.316,0,0,1,5.773,6.267,7.274,7.274,0,0,1-.859,2.891,31.52,31.52,0,0,0-5.574-8.764,18.753,18.753,0,0,0-6.163-4.308A25.764,25.764,0,0,1,1159.421,3385.137Zm-28.784-3.666a30.307,30.307,0,0,1,3.932-1.262,18.9,18.9,0,0,0-4.4,2.515c-.42-.154-.841-.3-1.268-.424-.045-.014-.068.049-.032.074.315.211.644.407.98.6a28.359,28.359,0,0,0-6.5,7.519c-.116.189-.225.384-.338.576a10.042,10.042,0,0,1-.83-.755,9.069,9.069,0,0,1-1.257-1.6A24.006,24.006,0,0,1,1130.637,3381.471Zm-16.1,18.81q.334-.887.7-1.762a6.736,6.736,0,0,0,3.27,3.594q-.375,1.524-.625,3.068l0-.044c-.005-.05-.082-.052-.082,0,0,.21-.006.42-.009.629a33.718,33.718,0,0,0-.343,5.6c-2.231-.9-3.908-1.712-3.735-2.075.007-.015,0-.036-.022-.03-.715.229.123,1.018.387,1.217a17.032,17.032,0,0,0,3.406,1.847c0,.027,0,.055.005.082-.068,1.36-.118,2.72-.106,4.084a27.272,27.272,0,0,0,.3,3.823,33.145,33.145,0,0,1-3.919-.909,32.83,32.83,0,0,1-.85-5.427C1112.575,3409.39,1113.511,3404.745,1114.534,3400.281Zm-3.791,18.014a24.878,24.878,0,0,1,.066-3.344,39.589,39.589,0,0,1,1.082-6.3,31.729,31.729,0,0,0,.6,10.342C1111.9,3418.781,1111.314,3418.55,1110.743,3418.295Zm4.886,6.461q-.287-.612-.541-1.239c.225.068.45.137.678.2a7.457,7.457,0,0,0,.635.538,11.793,11.793,0,0,0,2.706,1.48c.226.586.471,1.168.741,1.746a60.292,60.292,0,0,0,2.767,5.433q-.916-.256-1.833-.507A29.878,29.878,0,0,1,1115.629,3424.756Zm6.184,8.715c.5.213,1.013.41,1.529.594a19.655,19.655,0,0,0,1.539,2.015A29.37,29.37,0,0,1,1121.813,3433.471Zm12.494,7.211a13.941,13.941,0,0,0-2.765-1.327,11.068,11.068,0,0,1-2.339-2.021,12.893,12.893,0,0,1-1.37-1.969c.87.207,1.74.4,2.6.578a54.7,54.7,0,0,0,9,1.089c.352.567.718,1.124,1.119,1.657a14.8,14.8,0,0,0,3.276,3.23A32.137,32.137,0,0,1,1134.307,3440.682Zm25.558-3.749a27.4,27.4,0,0,1-3.108,1.832c.551-.392,1.1-.791,1.63-1.2a23.551,23.551,0,0,0,4.959-5.025,15.56,15.56,0,0,0,3.148-1.932A28.017,28.017,0,0,1,1159.865,3436.933Zm9.412-10.976a25.908,25.908,0,0,1-2.262,3.927.15.15,0,0,0-.175-.049,26.773,26.773,0,0,0-2.506,1.132,25.726,25.726,0,0,0,2.689-8.175,12.062,12.062,0,0,0,2.8-2.552q.739-.3,1.472-.6A27.034,27.034,0,0,1,1169.277,3425.957Z" transform="translate(-1100.807 -3378.166)"/></svg>