<svg width="29.322mm" height="28.292mm" version="1.1" viewBox="0 0 29.322 28.292" xmlns="http://www.w3.org/2000/svg">
 <g transform="translate(-98.732 -132.42)">
  <path d="m113.54 132.63v4.869c0 0.28364 0.44097 0.28399 0.44097 0v-4.869c0-0.28364-0.44097-0.28434-0.44097 0"/>
  <path d="m110.8 135.29h5.6099c0.28364 0 0.28434-0.44097 0-0.44097h-5.6099c-0.28398 0-0.28434 0.44097 0 0.44097"/>
  <path d="m125.4 141.31v4.1282c0 0.28363 0.44098 0.28434 0.44098 0v-4.1282c0-0.28363-0.44098-0.28434-0.44098 0"/>
  <path d="m123.18 143.44h4.6574c0.28363 0 0.28434-0.44097 0-0.44097h-4.6574c-0.28363 0-0.28434 0.44097 0 0.44097"/>
  <path d="m116.87 155.95v4.5512c0 0.28399 0.44097 0.28434 0.44097 0v-4.5512c0-0.28399-0.44097-0.28434-0.44097 0"/>
  <path d="m114.55 158.39h5.1865c0.28363 0 0.28434-0.44098 0-0.44098h-5.1865c-0.28399 0-0.28434 0.44098 0 0.44098"/>
  <path d="m100.63 153.79v4.022c0 0.28399 0.44097 0.28434 0.44097 0v-4.022c0-0.28398-0.44097-0.28433-0.44097 0"/>
  <path d="m98.945 155.93c1.4118-0.06 2.8254-0.0265 4.233 0.10054 0.28257 0.0254 0.28081-0.41557 0-0.44097-1.4076-0.127-2.8212-0.16052-4.233-0.10054-0.28292 0.012-0.28433 0.45296 0 0.44097"/>
 </g>
</svg>
