<svg width="12.614mm" height="12.614mm" version="1.1" viewBox="0 0 12.614 12.614" xmlns="http://www.w3.org/2000/svg">
 <g transform="translate(-118.43 -89.61)">
  <path d="m124.73 90.115c-3.1993 0-5.8021 2.6028-5.8021 5.8021 0 3.1997 2.6028 5.8025 5.8021 5.8025s5.8021-2.6028 5.8021-5.8025c0-3.1993-2.6028-5.8021-5.8021-5.8021m0 12.109c-3.4777 0-6.307-2.8293-6.307-6.307 0-3.4773 2.8293-6.307 6.307-6.307s6.3066 2.8296 6.3066 6.307c0 3.4777-2.8289 6.307-6.3066 6.307"/>
  <path d="m125.14 95.4h1.3409v0.96979h-1.3409v1.5152h-1.0216v-1.5152h-1.3448v-0.96979h1.3448v-1.452h1.0216z"/>
 </g>
</svg>
