<svg width="76.171mm" height="107.87mm" version="1.1" viewBox="0 0 76.171 107.87" xmlns="http://www.w3.org/2000/svg">
 <g transform="translate(-60.945 -48.737)">
  <path d="m61.569 49.519h18.804c0.62124 0 1.2171 0.24659 1.6566 0.68615l17.47 17.47c0.43921 0.43921 0.68616 1.035 0.68616 1.6563v71.813c0 0.62124 0.24659 1.2171 0.68615 1.6563l12.306 12.307c0.43991 0.43921 1.0354 0.6858 1.657 0.6858h21.239" fill="none" stroke="#000" stroke-miterlimit="10" stroke-width=".35278"/>
  <g>
   <path d="m62.611 49.569c0 0.46003-0.37324 0.83291-0.83326 0.83291-0.46003 0-0.83291-0.37288-0.83291-0.83291 0-0.46002 0.37288-0.83291 0.83291-0.83291 0.46002 0 0.83326 0.37289 0.83326 0.83291"/>
   <path d="m93.349 60.813c0 0.46003-0.37323 0.83291-0.83326 0.83291-0.46002 0-0.83291-0.37288-0.83291-0.83291 0-0.46002 0.37289-0.83326 0.83291-0.83326 0.46003 0 0.83326 0.37324 0.83326 0.83326"/>
   <path d="m137.12 155.77c0 0.46037-0.37323 0.8329-0.83291 0.8329-0.46037 0-0.83361-0.37253-0.83361-0.8329 0-0.46003 0.37324-0.83291 0.83361-0.83291 0.45968 0 0.83291 0.37288 0.83291 0.83291"/>
   <path d="m101.04 118.39c0 0.46002-0.37288 0.83291-0.8329 0.83291-0.46038 0-0.83326-0.37289-0.83326-0.83291 0-0.46038 0.37288-0.83291 0.83326-0.83291 0.46002 0 0.8329 0.37253 0.8329 0.83291"/>
  </g>
 </g>
</svg>
