<?xml version="1.0" encoding="UTF-8" standalone="no"?>
<svg
   xmlns:dc="http://purl.org/dc/elements/1.1/"
   xmlns:cc="http://creativecommons.org/ns#"
   xmlns:rdf="http://www.w3.org/1999/02/22-rdf-syntax-ns#"
   xmlns:svg="http://www.w3.org/2000/svg"
   xmlns="http://www.w3.org/2000/svg"
   id="svg3576"
   version="1.1"
   viewBox="0 0 40.510528 59.808284"
   height="59.808285mm"
   width="40.510529mm">
  <defs
     id="defs3570" />
  <metadata
     id="metadata3573">
    <rdf:RDF>
      <cc:Work
         rdf:about="">
        <dc:format>image/svg+xml</dc:format>
        <dc:type
           rdf:resource="http://purl.org/dc/dcmitype/StillImage" />
        <dc:title></dc:title>
      </cc:Work>
    </rdf:RDF>
  </metadata>
  <g
     transform="translate(-164.19822,-131.4276)"
     id="layer1">
    <g
       transform="matrix(0.35277777,0,0,-0.35277777,176.03899,188.77808)"
       id="g1089"
       style="display:inline">
      <path
         id="path1091"
         style="fill:#ffffff;fill-opacity:1;fill-rule:nonzero;stroke:none"
         d="m 0,0 h 1.896 c 0.291,0 0.567,0.057 0.827,0.169 0.26,0.112 0.485,0.266 0.68,0.46 0.19,0.192 0.346,0.42 0.458,0.678 0.113,0.26 0.171,0.536 0.171,0.83 0,0.291 -0.058,0.568 -0.171,0.827 C 3.749,3.224 3.593,3.449 3.403,3.644 3.208,3.836 2.983,3.989 2.723,4.102 2.463,4.215 2.187,4.271 1.896,4.271 H 0 Z m -3.057,7.326 h 4.953 c 0.718,0 1.39,-0.136 2.016,-0.41 C 4.537,6.645 5.085,6.275 5.559,5.81 6.029,5.343 6.401,4.793 6.677,4.162 6.949,3.529 7.085,2.855 7.085,2.137 7.085,1.591 7.004,1.07 6.844,0.579 6.685,0.085 6.464,-0.369 6.176,-0.788 5.889,-1.208 5.551,-1.577 5.159,-1.897 4.766,-2.216 4.331,-2.477 3.85,-2.675 L 6.565,-6.967 H 3.014 L 0.637,-3.094 H 0 v -3.853 h -3.057 z" />
    </g>
    <g
       transform="matrix(0.35277777,0,0,-0.35277777,183.72791,188.78496)"
       id="g1093"
       style="display:inline">
      <path
         id="path1095"
         style="fill:#ffffff;fill-opacity:1;fill-rule:nonzero;stroke:none"
         d="m 0,0 c 0.295,0 0.571,0.057 0.832,0.169 0.256,0.112 0.485,0.267 0.675,0.458 0.195,0.194 0.346,0.42 0.459,0.681 0.116,0.257 0.171,0.535 0.171,0.827 0,0.293 -0.055,0.569 -0.171,0.829 C 1.853,3.225 1.702,3.449 1.507,3.642 1.317,3.836 1.088,3.989 0.832,4.102 0.571,4.215 0.295,4.271 0,4.271 H -1.896 V 0 Z m 0,7.326 c 0.719,0 1.391,-0.138 2.016,-0.41 C 2.642,6.645 3.193,6.271 3.663,5.798 4.137,5.325 4.51,4.778 4.782,4.152 5.054,3.525 5.19,2.854 5.19,2.135 5.19,1.416 5.054,0.744 4.782,0.118 4.51,-0.507 4.137,-1.057 3.663,-1.528 3.193,-2 2.642,-2.373 2.016,-2.646 1.391,-2.919 0.719,-3.055 0,-3.055 H -1.896 V -6.947 H -4.949 V 7.326 Z" />
    </g>
    <g
       transform="matrix(0.35277777,0,0,-0.35277777,191.34844,190.13063)"
       id="g1097"
       style="display:inline">
      <path
         id="path1099"
         style="fill:#ffffff;fill-opacity:1;fill-rule:nonzero;stroke:none"
         d="M 0,0 C 0.586,0 1.134,0.11 1.647,0.33 2.16,0.55 2.61,0.849 2.995,1.229 3.379,1.608 3.682,2.053 3.904,2.565 4.121,3.078 4.234,3.62 4.234,4.193 4.234,4.778 4.121,5.327 3.904,5.84 3.682,6.353 3.379,6.802 2.995,7.188 2.61,7.572 2.16,7.876 1.647,8.095 1.134,8.314 0.586,8.426 0,8.426 -0.571,8.426 -1.115,8.314 -1.627,8.095 -2.141,7.876 -2.583,7.572 -2.964,7.188 -3.345,6.802 -3.644,6.353 -3.861,5.84 -4.083,5.327 -4.191,4.778 -4.191,4.193 -4.191,3.62 -4.083,3.078 -3.861,2.565 -3.644,2.053 -3.345,1.608 -2.964,1.229 -2.583,0.849 -2.141,0.55 -1.627,0.33 -1.115,0.11 -0.571,0 0,0 m 0,11.561 c 1.01,0 1.961,-0.195 2.855,-0.58 C 3.745,10.595 4.529,10.064 5.201,9.393 5.873,8.721 6.401,7.939 6.786,7.048 7.174,6.157 7.365,5.205 7.365,4.193 7.365,3.182 7.174,2.233 6.786,1.348 6.401,0.462 5.873,-0.312 5.201,-0.977 4.529,-1.644 3.745,-2.169 2.855,-2.554 1.961,-2.94 1.01,-3.133 0,-3.133 c -1.01,0 -1.958,0.193 -2.843,0.579 -0.886,0.385 -1.663,0.91 -2.327,1.577 -0.664,0.665 -1.193,1.439 -1.578,2.325 -0.384,0.885 -0.578,1.834 -0.578,2.845 0,1.012 0.194,1.964 0.578,2.855 0.385,0.891 0.914,1.673 1.578,2.345 0.664,0.671 1.441,1.202 2.327,1.588 0.885,0.385 1.833,0.58 2.843,0.58" />
    </g>
    <g
       transform="matrix(0.35277777,0,0,-0.35277777,188.848,140.1764)"
       id="g1101"
       style="display:inline">
      <path
         id="path1103"
         style="fill:#ffffff;fill-opacity:1;fill-rule:nonzero;stroke:none"
         d="m 0,0 c -0.343,-1.2 -0.852,-2.422 -1.513,-3.631 -0.273,-0.502 -0.247,-0.979 0.079,-1.461 0.476,-0.7 0.945,-1.404 1.415,-2.109 0.394,-0.588 0.786,-1.177 1.182,-1.763 -0.544,-0.534 -1.047,-1.038 -1.547,-1.55 -0.563,0.379 -1.127,0.755 -1.692,1.132 -0.717,0.478 -1.435,0.955 -2.148,1.44 -0.505,0.342 -1.009,0.369 -1.54,0.078 -1.158,-0.634 -2.42,-1.156 -3.749,-1.55 -0.512,-0.152 -0.822,-0.485 -0.921,-0.991 -0.297,-1.515 -0.601,-3.028 -0.912,-4.539 l -0.021,-0.11 c -0.026,-10e-4 -0.053,-10e-4 -0.083,-0.002 -0.458,-0.013 -0.929,-0.008 -1.385,-0.002 -0.235,0.003 -0.469,0.006 -0.711,0.006 -0.112,0.568 -0.226,1.134 -0.342,1.7 -0.185,0.916 -0.371,1.831 -0.542,2.749 -0.124,0.665 -0.47,1.059 -1.091,1.238 -1.222,0.352 -2.453,0.864 -3.661,1.521 -0.505,0.276 -0.984,0.253 -1.461,-0.07 -0.687,-0.467 -1.378,-0.927 -2.069,-1.388 -0.606,-0.403 -1.212,-0.807 -1.815,-1.215 -0.508,0.52 -1.021,1.034 -1.552,1.553 0.396,0.588 0.789,1.178 1.183,1.768 0.468,0.704 0.937,1.407 1.411,2.107 0.326,0.481 0.351,0.959 0.078,1.461 -0.648,1.191 -1.177,2.472 -1.575,3.805 -0.149,0.5 -0.476,0.803 -0.972,0.901 -1.244,0.247 -2.486,0.5 -3.729,0.753 l -0.938,0.193 c -0.057,0.732 -0.055,1.457 0.008,2.163 0.784,0.162 1.57,0.321 2.355,0.48 l 1.906,0.386 c 0.996,0.197 1.118,0.301 1.45,1.235 l 0.093,0.26 c 0.414,1.134 0.936,2.267 1.396,3.266 0.178,0.387 0.329,0.908 -0.087,1.516 -0.489,0.718 -0.971,1.441 -1.453,2.162 -0.367,0.551 -0.734,1.103 -1.125,1.683 0.516,0.507 1.029,1.018 1.549,1.55 0.617,-0.416 1.237,-0.829 1.857,-1.243 0.679,-0.452 1.358,-0.904 2.033,-1.361 0.468,-0.316 0.951,-0.341 1.437,-0.073 1.152,0.634 2.431,1.164 3.802,1.577 0.51,0.153 0.818,0.487 0.918,0.993 0.176,0.902 0.357,1.802 0.539,2.702 0.124,0.614 0.248,1.228 0.376,1.874 0.005,0.026 0.01,0.05 0.014,0.072 0.024,0 0.051,0 0.081,0.001 0.444,0.006 0.888,0.003 1.33,-0.001 0.255,-0.003 0.509,-0.005 0.772,-0.006 0.12,-0.613 0.244,-1.224 0.367,-1.835 0.178,-0.88 0.357,-1.761 0.523,-2.643 0.121,-0.639 0.456,-1.018 1.056,-1.193 1.241,-0.361 2.5,-0.886 3.742,-1.56 0.465,-0.252 0.929,-0.225 1.381,0.078 0.592,0.399 1.185,0.794 1.779,1.19 0.713,0.474 1.426,0.95 2.136,1.429 0.53,-0.54 1.053,-1.06 1.554,-1.545 C 1.167,15.18 1.167,15.178 1.166,15.177 0.686,14.475 0.215,13.767 -0.256,13.059 -0.647,12.471 -1.039,11.883 -1.435,11.299 -1.759,10.819 -1.784,10.341 -1.509,9.838 -0.87,8.667 -0.339,7.387 0.066,6.033 0.217,5.533 0.544,5.229 1.04,5.133 1.796,4.984 2.553,4.832 3.31,4.68 4.067,4.527 4.826,4.375 5.583,4.227 l 0.049,-0.01 c 0.025,-0.005 0.049,-0.01 0.071,-0.014 0,-0.021 0,-0.044 10e-4,-0.07 C 5.711,3.743 5.708,3.353 5.705,2.962 5.703,2.654 5.701,2.347 5.702,2.004 5.105,1.889 4.51,1.769 3.915,1.649 3.035,1.472 2.154,1.295 1.271,1.134 0.59,1.011 0.186,0.649 0,0 M 9.138,5.104 C 9.124,5.897 8.785,6.288 7.969,6.453 L 7.219,6.605 C 5.799,6.894 4.379,7.182 2.946,7.443 2.945,7.444 2.935,7.459 2.916,7.505 2.482,8.562 2.013,9.694 1.521,10.823 c -0.02,0.045 -0.025,0.069 -0.027,0.071 0.003,0.006 0.009,0.021 0.026,0.045 0.856,1.267 1.702,2.54 2.548,3.814 l 0.292,0.439 c 0.439,0.66 0.414,1.111 -0.091,1.725 -0.86,1.043 -1.816,2.003 -2.842,2.854 -0.708,0.586 -1.112,0.606 -1.88,0.092 l -1.238,-0.825 c -0.988,-0.658 -1.976,-1.316 -2.995,-1.978 -1.122,0.482 -2.249,0.954 -3.417,1.439 -0.231,1.188 -0.47,2.373 -0.709,3.559 l -0.291,1.447 c -0.157,0.781 -0.519,1.116 -1.294,1.192 -1.381,0.137 -2.769,0.137 -4.127,0 -0.77,-0.077 -1.13,-0.404 -1.282,-1.167 l -0.211,-1.05 c -0.266,-1.32 -0.531,-2.64 -0.777,-3.978 -0.001,0 -0.015,-0.01 -0.06,-0.029 -0.991,-0.408 -2.16,-0.892 -3.318,-1.394 -0.043,-0.018 -0.065,-0.023 -0.067,-0.026 -0.006,0.003 -0.022,0.01 -0.05,0.029 -1.264,0.854 -2.536,1.697 -3.807,2.541 l -0.5,0.332 c -0.596,0.395 -1.066,0.372 -1.619,-0.082 -1.096,-0.894 -2.1,-1.898 -2.988,-2.981 -0.483,-0.59 -0.506,-1.042 -0.088,-1.671 l 0.605,-0.911 c 0.754,-1.134 1.507,-2.267 2.287,-3.406 0,0 -0.002,-0.014 -0.018,-0.05 C -26.945,9.635 -27.448,8.426 -27.826,7.508 -27.849,7.452 -27.86,7.44 -27.863,7.451 -28.963,7.24 -30.061,7.02 -31.159,6.8 l -1.655,-0.331 c -0.752,-0.15 -1.222,-0.441 -1.239,-1.425 -0.022,-1.272 -0.02,-2.591 0.004,-3.924 0.018,-1.002 0.611,-1.254 1.187,-1.368 l 1.686,-0.337 c 1.098,-0.22 2.197,-0.439 3.318,-0.648 0.001,-10e-4 0.014,-0.018 0.038,-0.078 0.432,-1.055 0.899,-2.186 1.383,-3.292 0.025,-0.057 0.029,-0.082 0.03,-0.082 -0.002,-0.003 -0.008,-0.022 -0.033,-0.059 -0.933,-1.382 -1.854,-2.771 -2.777,-4.16 l -0.08,-0.12 c -0.402,-0.607 -0.377,-1.083 0.087,-1.648 0.88,-1.071 1.843,-2.041 2.863,-2.88 0.728,-0.599 1.119,-0.619 1.902,-0.097 l 0.635,0.422 c 1.18,0.788 2.36,1.574 3.539,2.362 0.012,0.008 0.023,0.016 0.035,0.024 0.561,-0.243 1.124,-0.481 1.687,-0.719 0.577,-0.243 1.153,-0.486 1.724,-0.716 0.307,-1.471 0.6,-2.946 0.893,-4.42 l 0.123,-0.615 c 0.162,-0.814 0.573,-1.167 1.375,-1.179 0.695,-0.011 1.387,-0.017 2.069,-0.017 0.627,0 1.246,0.005 1.853,0.014 0.976,0.015 1.271,0.496 1.413,1.214 l 0.309,1.539 c 0.23,1.147 0.46,2.295 0.663,3.438 0,0 0.013,0.009 0.051,0.025 1.291,0.53 2.364,0.982 3.377,1.422 0.013,0.005 0.024,0.009 0.029,0.011 0.007,-0.004 0.017,-0.01 0.03,-0.018 1.408,-0.948 2.822,-1.885 4.236,-2.824 l 0.097,-0.064 c 0.582,-0.386 1.059,-0.364 1.596,0.073 1.129,0.92 2.155,1.949 3.049,3.059 0.112,0.139 0.184,0.289 0.248,0.422 0.025,0.051 0.051,0.104 0.079,0.158 l 0.116,0.213 -0.106,0.22 C 4.648,-9.55 4.625,-9.494 4.601,-9.44 4.542,-9.306 4.48,-9.167 4.39,-9.029 3.514,-7.704 2.632,-6.383 1.751,-5.062 l -0.238,0.357 c -0.007,0.011 -0.014,0.02 -0.021,0.03 0.249,0.575 0.492,1.154 0.736,1.732 0.239,0.568 0.479,1.136 0.685,1.679 1.566,0.325 3.133,0.637 4.701,0.949 l 0.333,0.065 c 0.58,0.116 1.175,0.368 1.192,1.367 0.022,1.319 0.021,2.659 -10e-4,3.987" />
    </g>
    <g
       transform="matrix(0.35277777,0,0,-0.35277777,185.93707,139.08568)"
       id="g1105"
       style="display:inline">
      <path
         id="path1107"
         style="fill:#ffffff;fill-opacity:1;fill-rule:nonzero;stroke:none"
         d="M 0,0 C -0.003,-1.127 -0.442,-2.183 -1.236,-2.972 -2.027,-3.758 -3.081,-4.19 -4.207,-4.19 h -0.011 c -1.129,0.003 -2.185,0.441 -2.973,1.235 -0.789,0.793 -1.222,1.852 -1.219,2.981 0.006,2.315 1.893,4.195 4.209,4.195 h 0.009 C -3.067,4.218 -2.012,3.778 -1.221,2.983 -0.431,2.188 0.003,1.128 0,0 m -4.19,6.872 h -0.017 c -1.84,0 -3.562,-0.706 -4.851,-1.99 -1.291,-1.287 -2.004,-3.013 -2.005,-4.86 -0.002,-1.842 0.708,-3.569 2,-4.862 1.292,-1.293 3.019,-2.005 4.862,-2.005 1.844,0 3.568,0.71 4.856,1.999 1.29,1.292 1.999,3.022 1.997,4.871 -0.005,3.83 -3.009,6.838 -6.842,6.847" />
    </g>
    <g
       transform="matrix(0.35277777,0,0,-0.35277777,203.40665,164.63623)"
       id="g1109"
       style="display:inline">
      <path
         id="path1111"
         style="fill:#ffffff;fill-opacity:1;fill-rule:nonzero;stroke:none"
         d="m 0,0 h -13.878 c -1.033,3.039 -2.741,5.837 -5.063,8.141 -3.161,3.136 -7.218,5.161 -11.563,5.833 2.411,1.219 4.439,3.084 5.862,5.364 0.245,0.01 0.487,0.042 0.733,0.04 h 6.519 c 4.594,0.031 9.009,-1.769 12.273,-5.001 C -1.854,11.146 -0.013,6.746 0,2.153 Z m -16.433,-6.693 v -2.153 h -14.121 c -1.023,3.04 -2.722,5.841 -5.039,8.148 -3.131,3.12 -7.151,5.139 -11.46,5.826 2.415,1.216 4.448,3.079 5.874,5.359 0.28,0.012 0.556,0.047 0.837,0.045 h 6.519 c 4.594,0.031 9.009,-1.768 12.273,-5.001 1.613,-1.597 2.875,-3.481 3.744,-5.531 l 1.086,-3.691 c 0.177,-0.986 0.284,-1.988 0.287,-3.002 m -16.701,-10.984 h -41.218 v 2.154 c 0.003,1.008 0.109,2.005 0.285,2.986 l 1.082,3.691 c 0.869,2.056 2.134,3.945 3.751,5.546 2.79,2.764 6.425,4.469 10.291,4.89 0.13,0.014 0.258,0.032 0.389,0.043 0.528,0.045 1.058,0.072 1.592,0.068 h 1.492 3.574 1.454 c 0.561,0.004 1.119,-0.022 1.672,-0.073 0.038,-0.003 0.075,-0.009 0.113,-0.013 3.929,-0.386 7.629,-2.112 10.454,-4.923 2.406,-2.393 4.024,-5.425 4.703,-8.697 0.011,-0.052 0.026,-0.102 0.037,-0.153 0.217,-1.101 0.33,-2.228 0.329,-3.365 z m -57.8,8.831 v 2.153 c 0.003,1.001 0.108,1.989 0.281,2.961 l 1.073,3.691 c 0.87,2.066 2.14,3.964 3.764,5.572 3.263,3.233 7.678,5.032 12.272,5.001 h 5.114 c 0.005,-0.009 0.012,-0.017 0.017,-0.026 h 1.539 c 0.249,0.002 0.497,-0.016 0.746,-0.026 1.422,-2.268 3.445,-4.122 5.847,-5.337 -4.345,-0.672 -8.402,-2.697 -11.563,-5.832 -2.326,-2.308 -4.035,-5.112 -5.068,-8.157 z m -16.516,8.805 v 2.152 c 0.013,4.594 1.854,8.993 5.117,12.225 3.263,3.232 7.679,5.032 12.272,5.001 h 6.519 c 0.284,0.002 0.562,-0.033 0.843,-0.046 1.422,-2.26 3.441,-4.105 5.836,-5.317 -4.345,-0.672 -8.402,-2.697 -11.563,-5.833 -2.333,-2.314 -4.046,-5.127 -5.078,-8.182 z m 9.673,35.948 c 0.006,6.083 4.936,11.012 11.019,11.019 4.515,0 8.385,-2.721 10.088,-6.609 -4.898,-2.387 -8.282,-7.399 -8.282,-13.214 0.001,-0.687 0.055,-1.361 0.146,-2.022 -0.635,-0.114 -1.283,-0.194 -1.952,-0.194 -6.086,0 -11.019,4.934 -11.019,11.02 m 27.536,2.214 c 4.533,0 8.416,-2.743 10.107,-6.656 -4.873,-2.397 -8.235,-7.396 -8.235,-13.194 0.001,-0.672 0.055,-1.333 0.143,-1.981 -0.655,-0.123 -1.324,-0.208 -2.015,-0.208 -6.086,0 -11.019,4.935 -11.019,11.021 0.004,4.068 2.216,7.611 5.497,9.519 0,-0.002 0,-0.004 0,-0.006 1.089,0.63 2.294,1.078 3.576,1.306 l -0.003,0.015 c 0.634,0.114 1.283,0.184 1.949,0.184 m 18.637,-9.029 c 0.537,-0.1 1.057,-0.247 1.563,-0.421 0.134,-0.047 0.267,-0.095 0.398,-0.146 0.465,-0.181 0.914,-0.391 1.347,-0.631 3.373,-1.884 5.657,-5.485 5.657,-9.623 0,-3.419 -1.558,-6.475 -4.003,-8.497 -0.004,-0.003 -0.008,-0.006 -0.012,-0.01 -0.259,-0.213 -0.528,-0.413 -0.805,-0.602 -0.04,-0.027 -0.081,-0.053 -0.121,-0.079 -0.541,-0.358 -1.115,-0.671 -1.718,-0.932 -0.052,-0.021 -0.103,-0.044 -0.155,-0.064 -0.273,-0.113 -0.551,-0.215 -0.835,-0.306 -0.093,-0.03 -0.188,-0.055 -0.283,-0.083 -0.257,-0.075 -0.517,-0.144 -0.782,-0.201 -0.06,-0.013 -0.123,-0.02 -0.185,-0.032 -0.002,0.002 -0.003,0.005 -0.005,0.007 -0.352,-0.072 -0.71,-0.126 -1.073,-0.163 -0.052,-0.005 -0.106,-0.005 -0.159,-0.009 -0.3,-0.027 -0.602,-0.044 -0.909,-0.046 -0.306,0.002 -0.608,0.019 -0.908,0.046 -0.053,0.004 -0.106,0.004 -0.159,0.009 -0.363,0.037 -0.721,0.091 -1.073,0.163 -0.001,-0.002 -0.003,-0.003 -0.004,-0.005 -5.047,1.009 -8.85,5.462 -8.85,10.804 0.005,4.545 2.759,8.445 6.688,10.129 0.017,0.007 0.033,0.016 0.05,0.024 0.273,0.115 0.555,0.214 0.839,0.307 0.41,0.132 0.824,0.254 1.253,0.338 0.708,0.144 1.439,0.221 2.189,0.222 0.703,0 1.389,-0.073 2.055,-0.199 m 14.478,9.029 c 0.674,0 1.331,-0.071 1.972,-0.187 0.594,-0.113 1.175,-0.265 1.731,-0.467 0.013,-0.005 0.026,-0.01 0.039,-0.015 0.591,-0.218 1.158,-0.483 1.696,-0.795 10e-4,0.005 10e-4,0.011 0.002,0.016 3.327,-1.898 5.575,-5.468 5.58,-9.57 0,-0.246 -0.021,-0.486 -0.038,-0.727 -0.017,0.01 -0.036,0.017 -0.053,0.026 -0.244,-3.807 -2.421,-7.088 -5.561,-8.872 0.09,0.046 0.186,0.076 0.277,0.12 -0.353,-0.211 -0.717,-0.405 -1.094,-0.576 0.068,0.038 0.128,0.089 0.196,0.127 -1.454,-0.707 -3.086,-1.104 -4.811,-1.104 -0.217,0 -0.428,0.02 -0.642,0.032 -0.189,0.013 -0.381,0.017 -0.567,0.038 -0.184,0.02 -0.362,0.054 -0.543,0.082 -0.05,0.009 -0.098,0.022 -0.148,0.03 0.089,0.653 0.143,1.316 0.143,1.992 0,5.815 -3.382,10.826 -8.278,13.214 1.696,3.902 5.573,6.636 10.099,6.636 m 16.433,8.846 c 6.084,-0.007 11.013,-4.936 11.02,-11.019 0,-6.086 -4.934,-11.02 -11.02,-11.02 -0.639,0 -1.258,0.073 -1.867,0.177 0.09,0.654 0.143,1.319 0.144,1.998 0,5.848 -3.421,10.884 -8.364,13.255 1.702,3.888 5.572,6.609 10.087,6.609 m 18.185,-29.98 c -3.161,3.136 -7.218,5.16 -11.563,5.832 4.793,2.426 8.083,7.391 8.089,13.129 0,8.124 -6.586,14.71 -14.711,14.71 -6.145,0 -11.399,-3.772 -13.599,-9.125 -0.917,0.18 -1.864,0.28 -2.834,0.28 -6.145,0 -11.399,-3.774 -13.599,-9.125 -0.948,0.192 -1.929,0.293 -2.934,0.293 -1.021,0 -2.017,-0.104 -2.98,-0.302 -2.197,5.356 -7.454,9.134 -13.602,9.134 -1.003,0 -1.982,-0.103 -2.928,-0.293 -2.206,5.337 -7.454,9.097 -13.589,9.097 -8.124,0 -14.71,-6.586 -14.71,-14.71 0.006,-5.738 3.296,-10.704 8.089,-13.129 -4.346,-0.672 -8.402,-2.696 -11.564,-5.833 -3.955,-3.924 -6.185,-9.261 -6.199,-14.834 v -4.085 c 0,-1.021 0.938,-1.758 1.956,-1.758 h 14.803 c -0.141,-0.977 -0.24,-1.962 -0.242,-2.961 v -4.085 c 0,-1.022 0.937,-1.759 1.956,-1.759 h 14.873 c -0.145,-0.985 -0.244,-1.98 -0.246,-2.986 v -4.086 c 0,-1.021 0.937,-1.759 1.956,-1.759 h 44.766 c 0.484,-0.021 0.955,0.154 1.308,0.484 0.354,0.332 0.558,0.791 0.569,1.275 v 4.086 c 0.001,1.006 -0.096,2.001 -0.237,2.986 h 14.982 c 1.019,0 1.956,0.737 1.956,1.759 v 4.085 c -0.003,1.012 -0.103,2.011 -0.249,3.002 H 1.735 c 1.019,0 1.956,0.738 1.956,1.758 V 2.153 C 3.678,7.725 1.448,13.063 -2.508,16.987" />
    </g>
  </g>
</svg>
