<svg width="5.0033mm" height="1.3661mm" version="1.1" viewBox="0 0 5.0033 1.3661" xmlns="http://www.w3.org/2000/svg">
 <g transform="translate(-85.56 -107.89)">
  <g transform="matrix(.35278 0 0 -.35278 85.845 108.6)">
   <path d="m0 0h0.499c0.077 0 0.149 0.015 0.219 0.045 0.068 0.029 0.128 0.07 0.178 0.121 0.051 0.051 0.091 0.11 0.122 0.179 0.029 0.068 0.044 0.141 0.044 0.218s-0.015 0.15-0.044 0.218c-0.031 0.069-0.071 0.128-0.122 0.179-0.05 0.051-0.11 0.092-0.178 0.121-0.07 0.03-0.142 0.045-0.219 0.045h-0.499zm-0.806 1.931h1.305c0.189 0 0.367-0.036 0.531-0.108 0.165-0.072 0.31-0.169 0.435-0.292 0.124-0.123 0.222-0.267 0.295-0.434 0.071-0.166 0.107-0.344 0.107-0.534 0-0.144-0.021-0.281-0.063-0.411s-0.101-0.249-0.176-0.36c-0.076-0.11-0.165-0.207-0.269-0.292-0.103-0.084-0.217-0.152-0.344-0.204l0.714-1.132h-0.935l-0.626 1.021h-0.168v-1.015h-0.806z" fill="#231f20"/>
  </g>
  <g transform="matrix(.35278 0 0 -.35278 87.871 108.61)">
   <path d="m0 0c0.078 0 0.15 0.015 0.22 0.045 0.067 0.029 0.128 0.069 0.177 0.12 0.051 0.052 0.091 0.11 0.122 0.18 0.03 0.067 0.044 0.14 0.044 0.217 0 0.078-0.014 0.151-0.044 0.219-0.031 0.069-0.071 0.128-0.122 0.179-0.049 0.051-0.11 0.091-0.177 0.121-0.07 0.029-0.142 0.044-0.22 0.044h-0.499v-1.125zm0 1.931c0.189 0 0.367-0.036 0.531-0.109 0.165-0.071 0.311-0.17 0.435-0.295 0.125-0.124 0.222-0.268 0.295-0.433 0.071-0.165 0.107-0.342 0.107-0.532 0-0.189-0.036-0.366-0.107-0.531-0.073-0.165-0.17-0.309-0.295-0.433-0.124-0.125-0.27-0.223-0.435-0.295-0.164-0.073-0.342-0.108-0.531-0.108h-0.499v-1.026h-0.805v3.762z" fill="#231f20"/>
  </g>
  <g transform="matrix(.35278 0 0 -.35278 89.879 108.96)">
   <path d="m0 0c0.154 0 0.299 0.029 0.435 0.087 0.134 0.058 0.253 0.137 0.354 0.236 0.102 0.101 0.182 0.218 0.24 0.353 0.057 0.135 0.087 0.278 0.087 0.428 0 0.155-0.03 0.299-0.087 0.435-0.058 0.135-0.138 0.253-0.24 0.355-0.101 0.101-0.22 0.181-0.354 0.239-0.136 0.057-0.281 0.087-0.435 0.087-0.15 0-0.294-0.03-0.429-0.087-0.134-0.058-0.252-0.138-0.352-0.239-0.1-0.102-0.179-0.22-0.237-0.355-0.057-0.136-0.086-0.28-0.086-0.435 0-0.15 0.029-0.293 0.086-0.428 0.058-0.135 0.137-0.252 0.237-0.353 0.1-0.099 0.218-0.178 0.352-0.236 0.135-0.058 0.279-0.087 0.429-0.087m0 3.046c0.267 0 0.518-0.051 0.753-0.152 0.234-0.102 0.44-0.242 0.618-0.419 0.177-0.177 0.316-0.383 0.417-0.618 0.103-0.235 0.153-0.486 0.153-0.753 0-0.266-0.05-0.516-0.153-0.75-0.101-0.233-0.24-0.437-0.417-0.612-0.178-0.176-0.384-0.314-0.618-0.416-0.235-0.101-0.486-0.152-0.753-0.152-0.266 0-0.516 0.051-0.749 0.152-0.233 0.102-0.438 0.24-0.613 0.416-0.175 0.175-0.315 0.379-0.415 0.612-0.102 0.234-0.154 0.484-0.154 0.75 0 0.267 0.052 0.518 0.154 0.753 0.1 0.235 0.24 0.441 0.415 0.618s0.38 0.317 0.613 0.419c0.233 0.101 0.483 0.152 0.749 0.152" fill="#231f20"/>
  </g>
 </g>
</svg>
