<?xml version="1.0" encoding="UTF-8" standalone="no"?>
<svg
   xmlns:dc="http://purl.org/dc/elements/1.1/"
   xmlns:cc="http://creativecommons.org/ns#"
   xmlns:rdf="http://www.w3.org/1999/02/22-rdf-syntax-ns#"
   xmlns:svg="http://www.w3.org/2000/svg"
   xmlns="http://www.w3.org/2000/svg"
   xmlns:sodipodi="http://sodipodi.sourceforge.net/DTD/sodipodi-0.dtd"
   xmlns:inkscape="http://www.inkscape.org/namespaces/inkscape"
   width="40.511mm"
   height="40.747mm"
   version="1.1"
   viewBox="0 0 40.511 40.747"
   id="svg16"
   sodipodi:docname="rpo-icon-alt3.svg"
   inkscape:version="0.92.3 (2405546, 2018-03-11)">
  <metadata
     id="metadata22">
    <rdf:RDF>
      <cc:Work
         rdf:about="">
        <dc:format>image/svg+xml</dc:format>
        <dc:type
           rdf:resource="http://purl.org/dc/dcmitype/StillImage" />
      </cc:Work>
    </rdf:RDF>
  </metadata>
  <defs
     id="defs20" />
  <sodipodi:namedview
     pagecolor="#ffffff"
     bordercolor="#666666"
     borderopacity="1"
     objecttolerance="10"
     gridtolerance="10"
     guidetolerance="10"
     inkscape:pageopacity="0"
     inkscape:pageshadow="2"
     inkscape:window-width="1221"
     inkscape:window-height="735"
     id="namedview18"
     showgrid="false"
     inkscape:zoom="1.5324236"
     inkscape:cx="-17.846015"
     inkscape:cy="77.002208"
     inkscape:window-x="0"
     inkscape:window-y="27"
     inkscape:window-maximized="0"
     inkscape:current-layer="svg16" />
  <g
     transform="translate(-83.594 -51.173)"
     id="g14">
    <g
       transform="matrix(.35278 0 0 -.35278 108.24 59.922)"
       id="g4">
      <path
         style="stroke-width:1.33334172"
         d="M 76.525391 0 C 75.606218 0 74.690495 0.045384841 73.785156 0.13671875 C 72.758483 0.23938606 72.27884 0.67601961 72.076172 1.6933594 L 71.794922 3.09375 C 71.440253 4.8537611 71.085815 6.6144263 70.757812 8.3984375 C 70.75648 8.3984375 70.737735 8.4102134 70.677734 8.4355469 C 69.356393 8.9795503 67.797916 9.6255842 66.253906 10.294922 C 66.196573 10.318922 66.166729 10.326078 66.164062 10.330078 C 66.156063 10.326078 66.13499 10.316349 66.097656 10.291016 C 64.412312 9.1523414 62.716162 8.0276841 61.021484 6.9023438 L 60.355469 6.4609375 C 59.560797 5.9342675 58.934604 5.9649754 58.197266 6.5703125 C 56.735923 7.76232 55.396898 9.1009127 54.212891 10.544922 C 53.568887 11.331594 53.538366 11.932812 54.095703 12.771484 L 54.902344 13.986328 C 55.907683 15.498338 56.911165 17.010621 57.951172 18.529297 C 57.951172 18.529297 57.949068 18.547703 57.927734 18.595703 C 57.22373 20.221047 56.552831 21.832633 56.048828 23.056641 C 56.018161 23.131308 56.004 23.147479 56 23.132812 C 54.533324 23.414148 53.069478 23.706665 51.605469 24 L 49.398438 24.441406 C 48.395765 24.641408 47.768761 25.029789 47.746094 26.341797 C 47.71676 28.037808 47.719953 29.796874 47.751953 31.574219 C 47.775953 32.910227 48.56598 33.246437 49.333984 33.398438 L 51.582031 33.847656 C 53.04604 34.140991 54.511183 34.432269 56.005859 34.710938 C 56.007193 34.71227 56.02464 34.734453 56.056641 34.814453 C 56.632644 36.221129 57.255053 37.730402 57.900391 39.205078 C 57.933724 39.281079 57.940073 39.314453 57.941406 39.314453 C 57.93874 39.318453 57.929818 39.343244 57.896484 39.392578 C 56.652477 41.235256 55.424034 43.087441 54.193359 44.939453 L 54.087891 45.099609 C 53.551887 45.908948 53.584454 46.543537 54.203125 47.296875 C 55.376466 48.724884 56.661476 50.018045 58.021484 51.136719 C 58.992157 51.93539 59.512634 51.961629 60.556641 51.265625 L 61.404297 50.703125 C 62.97764 49.652452 64.549084 48.60536 66.121094 47.554688 C 66.137094 47.544021 66.151969 47.532151 66.167969 47.521484 C 66.915973 47.845486 67.667297 48.163133 68.417969 48.480469 C 69.187307 48.804471 69.955459 49.128878 70.716797 49.435547 C 71.126133 51.396893 71.517534 53.362779 71.908203 55.328125 L 72.072266 56.148438 C 72.288267 57.233777 72.834957 57.704703 73.904297 57.720703 C 74.830969 57.73537 75.754724 57.744141 76.664062 57.744141 C 77.500068 57.744141 78.325427 57.736609 79.134766 57.724609 C 80.436107 57.704609 80.828244 57.062808 81.017578 56.105469 L 81.429688 54.054688 C 81.736355 52.525345 82.043785 50.994713 82.314453 49.470703 C 82.314453 49.470703 82.332147 49.45688 82.382812 49.435547 C 84.104157 48.728876 85.53409 48.127686 86.884766 47.541016 C 86.902099 47.534349 86.917161 47.528057 86.923828 47.525391 C 86.933162 47.530724 86.945557 47.540115 86.962891 47.550781 C 88.840236 48.814789 90.725983 50.062445 92.611328 51.314453 L 92.740234 51.400391 C 93.516239 51.915061 94.153136 51.885405 94.869141 51.302734 C 96.374483 50.07606 97.741586 48.704619 98.933594 47.224609 C 99.082928 47.039275 99.180291 46.839444 99.265625 46.662109 C 99.298959 46.594109 99.33376 46.523172 99.371094 46.451172 L 99.525391 46.167969 L 99.382812 45.873047 C 99.346813 45.799713 99.317156 45.726297 99.285156 45.654297 C 99.206489 45.475629 99.123907 45.28947 99.003906 45.105469 C 97.835899 43.338791 96.659049 41.577751 95.484375 39.816406 L 95.167969 39.339844 C 95.158635 39.325177 95.148005 39.314115 95.138672 39.300781 C 95.470674 38.53411 95.795758 37.760906 96.121094 36.990234 C 96.439762 36.232896 96.760488 35.475958 97.035156 34.751953 C 99.123169 34.318617 101.21205 33.902331 103.30273 33.486328 L 103.74609 33.400391 C 104.51943 33.245723 105.31327 32.910133 105.33594 31.578125 C 105.36527 29.819447 105.36332 28.032397 105.33398 26.261719 C 105.31532 25.204379 104.8634 24.682892 103.77539 24.462891 L 102.77539 24.259766 C 100.88205 23.87443 98.988804 23.49058 97.078125 23.142578 C 97.076792 23.141245 97.064396 23.121881 97.039062 23.060547 C 96.460393 21.651205 95.833739 20.142062 95.177734 18.636719 C 95.151068 18.576718 95.145245 18.543682 95.142578 18.541016 C 95.146578 18.533016 95.155068 18.514422 95.177734 18.482422 C 96.319075 16.793078 97.446212 15.095162 98.574219 13.396484 L 98.962891 12.810547 C 99.548228 11.930541 99.515134 11.330391 98.841797 10.511719 C 97.695123 9.1210431 96.420743 7.8397519 95.052734 6.7050781 C 94.108728 5.9237399 93.570881 5.8966937 92.546875 6.5820312 L 90.896484 7.6835938 C 89.579143 8.5609325 88.261019 9.4376408 86.902344 10.320312 C 85.406334 9.6776423 83.903046 9.0490144 82.345703 8.4023438 C 82.037701 6.8183338 81.719059 5.2375933 81.400391 3.65625 L 81.013672 1.7265625 C 80.804337 0.6852226 80.320449 0.23805272 79.287109 0.13671875 C 78.366437 0.045384841 77.444563 0 76.525391 0 z M 75.1875 4.7109375 C 75.779504 4.7029374 76.3716 4.7075573 76.960938 4.7128906 C 77.300939 4.7168907 77.639565 4.7193698 77.990234 4.7207031 C 78.150235 5.5380416 78.314515 6.3513438 78.478516 7.1660156 C 78.71585 8.3393564 78.9564 9.5153991 79.177734 10.691406 C 79.339069 11.543412 79.783979 12.047915 80.583984 12.28125 C 82.238661 12.762586 83.918208 13.462656 85.574219 14.361328 C 86.194223 14.69733 86.813345 14.661815 87.416016 14.257812 C 88.205354 13.72581 88.995104 13.199878 89.787109 12.671875 C 90.737782 12.039871 91.688093 11.404296 92.634766 10.765625 C 93.341437 11.48563 94.039027 12.179501 94.707031 12.826172 C 94.705698 12.827505 94.706411 12.828745 94.705078 12.830078 C 94.065074 13.766084 93.436598 14.710291 92.808594 15.654297 C 92.287257 16.438302 91.764331 17.223282 91.236328 18.001953 C 90.804325 18.641957 90.772003 19.278548 91.138672 19.949219 C 91.990677 21.510562 92.698278 23.218093 93.238281 25.023438 C 93.439616 25.690107 93.875772 26.094655 94.537109 26.222656 C 95.545116 26.421324 96.555113 26.623504 97.564453 26.826172 C 98.573793 27.030173 99.58441 27.234306 100.59375 27.431641 L 100.66016 27.445312 C 100.69349 27.451979 100.72457 27.457557 100.75391 27.462891 C 100.75391 27.490891 100.75453 27.521974 100.75586 27.556641 C 100.76519 28.076644 100.76181 28.595851 100.75781 29.117188 C 100.75515 29.527856 100.75257 29.937195 100.75391 30.394531 C 99.957897 30.547866 99.164432 30.70914 98.371094 30.869141 C 97.197753 31.105142 96.023044 31.340019 94.845703 31.554688 C 93.937697 31.718688 93.398392 32.201067 93.150391 33.066406 C 92.693054 34.666416 92.014151 36.296193 91.132812 37.908203 C 90.768811 38.577541 90.803612 39.214751 91.238281 39.857422 C 91.872952 40.790761 92.498329 41.727963 93.125 42.667969 C 93.650337 43.451974 94.173169 44.238193 94.701172 45.019531 C 93.975834 45.731536 93.305343 46.403267 92.638672 47.085938 C 91.888 46.580601 91.136151 46.078842 90.382812 45.576172 C 89.426807 44.938835 88.468251 44.302921 87.517578 43.65625 C 86.844241 43.200247 86.172848 43.164732 85.464844 43.552734 C 83.920834 44.398073 82.238808 45.093804 80.466797 45.619141 C 79.784126 45.821809 79.370282 46.266735 79.238281 46.941406 C 78.842279 48.961419 78.436154 50.977508 78.021484 52.992188 L 77.994141 53.138672 C 77.959474 53.140005 77.922813 53.141245 77.882812 53.142578 C 77.272143 53.159912 76.645113 53.152531 76.037109 53.144531 C 75.723774 53.140531 75.410559 53.136719 75.087891 53.136719 C 74.938556 52.379381 74.78748 51.623812 74.632812 50.869141 C 74.386145 49.6478 74.138158 48.429086 73.910156 47.205078 C 73.744822 46.318406 73.283083 45.793355 72.455078 45.554688 C 70.825735 45.085351 69.184896 44.401396 67.574219 43.525391 C 66.900881 43.157388 66.262957 43.188471 65.626953 43.619141 C 64.710947 44.241811 63.788526 44.856033 62.867188 45.470703 C 62.059182 46.00804 61.251271 46.54584 60.447266 47.089844 C 59.769928 46.396506 59.086911 45.711536 58.378906 45.019531 C 58.90691 44.235526 59.429741 43.448781 59.955078 42.662109 C 60.579082 41.723437 61.203934 40.784902 61.835938 39.851562 C 62.270606 39.210226 62.305409 38.573634 61.941406 37.904297 C 61.077401 36.316287 60.370514 34.609376 59.839844 32.832031 C 59.641176 32.16536 59.206259 31.759574 58.544922 31.628906 C 56.886245 31.299571 55.229609 30.962335 53.572266 30.625 L 52.322266 30.369141 C 52.246265 29.393134 52.248031 28.425714 52.332031 27.484375 C 53.377371 27.268374 54.425983 27.055751 55.472656 26.84375 L 58.013672 26.330078 C 59.34168 26.06741 59.504596 25.928935 59.947266 24.683594 L 60.072266 24.335938 C 60.624269 22.823928 61.320257 21.31443 61.933594 19.982422 C 62.170929 19.466419 62.371076 18.771608 61.816406 17.960938 C 61.164402 17.003598 60.521577 16.039464 59.878906 15.078125 C 59.38957 14.343454 58.900243 13.607323 58.378906 12.833984 C 59.066911 12.15798 59.751976 11.476916 60.445312 10.767578 C 61.267984 11.322248 62.09325 11.871825 62.919922 12.423828 C 63.825261 13.026499 64.730854 13.628944 65.630859 14.238281 C 66.254863 14.659617 66.898871 14.693272 67.546875 14.335938 C 69.082885 13.490599 70.789176 12.785045 72.617188 12.234375 C 73.297191 12.030374 73.70651 11.584827 73.839844 10.910156 C 74.074512 9.7074823 74.315926 8.5066482 74.558594 7.3066406 C 74.723928 6.4879688 74.889879 5.6699324 75.060547 4.8085938 C 75.067214 4.7739269 75.074745 4.7422241 75.080078 4.7128906 C 75.112078 4.7128906 75.1475 4.7122708 75.1875 4.7109375 z M 76.542969 19.78125 C 74.08962 19.78125 71.792896 20.721583 70.074219 22.433594 C 68.352875 24.149605 67.401724 26.451381 67.400391 28.914062 C 67.397724 31.370078 68.345682 33.672474 70.068359 35.396484 C 71.791037 37.120495 74.093432 38.070313 76.550781 38.070312 C 79.009463 38.070312 81.308046 37.122974 83.025391 35.404297 C 84.745401 33.681619 85.690167 31.375505 85.6875 28.910156 C 85.680833 23.803457 81.675152 19.79325 76.564453 19.78125 L 76.542969 19.78125 z M 76.550781 23.316406 L 76.5625 23.316406 C 78.062509 23.320406 79.468764 23.90679 80.523438 24.966797 C 81.576776 26.026804 82.156344 27.43935 82.152344 28.943359 C 82.148344 30.446036 81.56258 31.854243 80.503906 32.90625 C 79.449233 33.954257 78.044312 34.53125 76.542969 34.53125 L 76.527344 34.53125 C 75.022001 34.52725 73.615126 33.941486 72.564453 32.882812 C 71.512446 31.825474 70.9335 30.413546 70.9375 28.908203 C 70.9455 25.821517 73.462762 23.316406 76.550781 23.316406 z M 120.58984 57.970703 C 112.39646 57.970703 105.39038 62.99934 102.45703 70.136719 C 101.23436 69.896717 99.971076 69.763672 98.677734 69.763672 C 90.484349 69.763672 83.480227 74.794976 80.546875 81.929688 C 79.282867 81.673686 77.974774 81.539062 76.634766 81.539062 C 75.273424 81.539062 73.944164 81.677405 72.660156 81.941406 C 69.730804 74.800028 62.722776 69.763672 54.525391 69.763672 C 53.188049 69.763672 51.882435 69.900962 50.621094 70.154297 C 47.679742 63.038252 40.682005 58.025391 32.501953 58.025391 C 21.669885 58.025391 12.888672 66.806604 12.888672 77.638672 C 12.896672 85.289387 17.283121 91.909224 23.673828 95.142578 C 17.879125 96.038584 12.471886 98.737231 8.2558594 102.91992 C 2.9824928 108.15195 0.0089011592 115.26851 -0.009765625 122.69922 L -0.009765625 128.14648 C -0.009765625 129.50783 1.2403145 130.49023 2.5976562 130.49023 L 22.335938 130.49023 C 22.147936 131.79291 22.016339 133.10549 22.013672 134.4375 L 22.013672 139.88477 C 22.013672 141.24744 23.262419 142.23047 24.621094 142.23047 L 44.451172 142.23047 C 44.257837 143.54381 44.125714 144.8696 44.123047 146.21094 L 44.123047 151.66016 C 44.123047 153.0215 45.373747 154.00586 46.732422 154.00586 L 106.41992 154.00586 C 107.06526 154.03386 107.69339 153.79937 108.16406 153.35938 C 108.63607 152.91671 108.90721 152.30549 108.92188 151.66016 L 108.92188 146.21094 C 108.9232 144.8696 108.79542 143.54381 108.60742 142.23047 L 128.58203 142.23047 C 129.94071 142.23047 131.19141 141.24744 131.19141 139.88477 L 131.19141 134.4375 C 131.18741 133.08816 131.05403 131.75689 130.85938 130.43555 L 150.49414 130.43555 C 151.85282 130.43555 153.10156 129.45181 153.10156 128.0918 L 153.10156 122.64453 C 153.08423 115.21515 150.11064 108.09727 144.83594 102.86523 C 140.62124 98.683879 135.21134 95.983896 129.41797 95.087891 C 135.80868 91.853204 140.19708 85.234699 140.20508 77.583984 C 140.20508 66.751916 131.42325 57.970703 120.58984 57.970703 z M 120.58984 62.890625 C 128.70189 62.899958 135.27387 69.473267 135.2832 77.583984 C 135.2832 85.698702 128.70456 92.277344 120.58984 92.277344 C 119.73784 92.277344 118.91161 92.179683 118.09961 92.041016 C 118.21961 91.16901 118.28968 90.282292 118.29102 89.376953 C 118.29102 81.579571 113.73133 74.864478 107.14062 71.703125 C 109.40997 66.519092 114.56981 62.890625 120.58984 62.890625 z M 32.501953 62.945312 C 38.521991 62.945312 43.682444 66.573781 45.953125 71.757812 C 39.422417 74.940499 34.910156 81.623571 34.910156 89.376953 C 34.91149 90.292959 34.984135 91.190927 35.105469 92.072266 C 34.258797 92.224267 33.393959 92.332031 32.501953 92.332031 C 24.387235 92.332031 17.810547 85.75339 17.810547 77.638672 C 17.818547 69.527954 24.391235 62.954646 32.501953 62.945312 z M 54.525391 74.685547 C 60.569429 74.685547 65.747272 78.343181 68.001953 83.560547 C 61.504579 86.756567 57.021484 93.421632 57.021484 101.15234 C 57.022818 102.04835 57.093603 102.93092 57.210938 103.79492 C 56.337599 103.95892 55.44673 104.07227 54.525391 104.07227 C 46.410673 104.07227 39.832031 97.491671 39.832031 89.376953 C 39.837365 83.952919 42.787415 79.229563 47.162109 76.685547 L 47.162109 76.693359 C 48.614119 75.853354 50.220343 75.255174 51.929688 74.951172 L 51.925781 74.931641 C 52.77112 74.77964 53.637385 74.685547 54.525391 74.685547 z M 98.677734 74.685547 C 99.576407 74.685547 100.45392 74.780879 101.30859 74.935547 C 102.1006 75.086214 102.8739 75.289259 103.61523 75.558594 L 103.66797 75.578125 C 104.45597 75.868793 105.21235 76.222669 105.92969 76.638672 C 105.93102 76.632005 105.93031 76.623853 105.93164 76.617188 C 110.36767 79.147869 113.36443 83.907585 113.37109 89.376953 C 113.37109 89.704955 113.34298 90.024368 113.32031 90.345703 C 113.29765 90.33237 113.27267 90.322547 113.25 90.310547 C 112.92466 95.386579 110.02263 99.761948 105.83594 102.14062 C 105.95594 102.0793 106.08374 102.03914 106.20508 101.98047 C 105.73441 102.2618 105.24876 102.52005 104.74609 102.74805 C 104.83676 102.69738 104.91715 102.63075 105.00781 102.58008 C 103.06913 103.52275 100.89376 104.05078 98.59375 104.05078 C 98.304415 104.05078 98.021663 104.02577 97.736328 104.00977 C 97.484327 103.99243 97.22847 103.98698 96.980469 103.95898 C 96.735134 103.93232 96.499147 103.88694 96.257812 103.84961 C 96.191146 103.83761 96.127214 103.81926 96.060547 103.80859 C 96.179214 102.93792 96.25 102.05368 96.25 101.15234 C 96.25 93.398966 91.740932 86.717223 85.212891 83.533203 C 87.474238 78.330504 92.64303 74.685547 98.677734 74.685547 z M 76.634766 86.458984 C 77.572105 86.458984 78.486994 86.556608 79.375 86.724609 C 80.091005 86.857944 80.784313 87.053155 81.458984 87.285156 C 81.637652 87.347823 81.813613 87.412468 81.988281 87.480469 C 82.608285 87.721804 83.207819 88.002264 83.785156 88.322266 C 88.282518 90.834281 91.328125 95.63498 91.328125 101.15234 C 91.328125 105.71104 89.250255 109.7864 85.990234 112.48242 C 85.984901 112.48642 85.979943 112.49076 85.974609 112.49609 C 85.629274 112.7801 85.269726 113.04683 84.900391 113.29883 C 84.847057 113.33483 84.793568 113.36963 84.740234 113.4043 C 84.018896 113.88163 83.253224 114.29848 82.449219 114.64648 C 82.379885 114.67448 82.31152 114.70576 82.242188 114.73242 C 81.878185 114.88309 81.507575 115.01734 81.128906 115.13867 C 81.004905 115.17867 80.878621 115.21267 80.751953 115.25 C 80.409284 115.35 80.06232 115.44158 79.708984 115.51758 C 79.628984 115.53491 79.545558 115.54455 79.462891 115.56055 C 79.460224 115.55788 79.457745 115.55345 79.455078 115.55078 C 78.985742 115.64678 78.509394 115.7202 78.025391 115.76953 C 77.956057 115.7762 77.883167 115.77592 77.8125 115.78125 C 77.412497 115.81725 77.010898 115.83913 76.601562 115.8418 C 76.193561 115.83913 75.790628 115.81725 75.390625 115.78125 C 75.319958 115.77592 75.248401 115.7762 75.177734 115.76953 C 74.693731 115.7202 74.217383 115.64678 73.748047 115.55078 C 73.746714 115.55345 73.74352 115.55593 73.742188 115.55859 C 67.012812 114.21325 61.941406 108.27506 61.941406 101.15234 C 61.948073 95.09231 65.620675 89.891832 70.859375 87.646484 C 70.882042 87.637151 70.903114 87.625901 70.925781 87.615234 C 71.289784 87.4619 71.666253 87.331032 72.044922 87.207031 C 72.591592 87.03103 73.14284 86.86786 73.714844 86.755859 C 74.65885 86.563858 75.634759 86.460318 76.634766 86.458984 z M 116.30078 99.677734 L 124.99414 99.677734 C 131.11951 99.636401 137.00539 102.03634 141.35742 106.3457 C 145.70812 110.65373 148.16235 116.52049 148.17969 122.64453 L 148.17969 125.51367 L 129.67578 125.51367 C 128.29844 121.46165 126.0218 117.73218 122.92578 114.66016 C 118.71109 110.4788 113.30118 107.77882 107.50781 106.88281 C 110.7225 105.25747 113.42687 102.77049 115.32422 99.730469 C 115.65089 99.717135 115.97278 99.675068 116.30078 99.677734 z M 28.097656 99.732422 L 36.791016 99.732422 C 37.169685 99.729755 37.539394 99.775635 37.914062 99.792969 C 39.810074 102.80632 42.50196 105.2668 45.695312 106.88281 C 39.901944 107.77882 34.492037 110.4788 30.277344 114.66016 C 27.166657 117.74551 24.883821 121.495 23.507812 125.56836 L 4.9121094 125.56836 L 4.9121094 122.69922 C 4.9294428 116.57385 7.3836809 110.70975 11.734375 106.40039 C 16.085069 102.09103 21.973618 99.691088 28.097656 99.732422 z M 50.121094 111.4707 L 56.939453 111.4707 C 56.94612 111.4827 56.956224 111.49386 56.962891 111.50586 L 59.013672 111.50586 C 59.345674 111.50319 59.677764 111.52768 60.009766 111.54102 C 61.905778 114.56503 64.602001 117.03624 67.804688 118.65625 C 62.011318 119.55226 56.601412 122.25357 52.386719 126.43359 C 49.285366 129.51095 47.008201 133.24857 45.630859 137.30859 L 26.933594 137.30859 L 26.933594 134.4375 C 26.937594 133.10282 27.077926 131.78624 27.308594 130.49023 L 28.740234 125.56836 C 29.900242 122.81368 31.592467 120.28269 33.757812 118.13867 C 38.108507 113.82798 43.995722 111.42937 50.121094 111.4707 z M 94.390625 111.4707 L 103.08203 111.4707 C 109.2074 111.42937 115.09524 113.82798 119.44727 118.13867 C 121.59795 120.26802 123.28078 122.78032 124.43945 125.51367 L 125.88672 130.43555 C 126.12272 131.75022 126.26553 133.08549 126.26953 134.4375 L 126.26953 137.30859 L 107.44141 137.30859 C 106.0774 133.25523 103.81201 129.52133 100.72266 126.44531 C 96.547959 122.28529 91.188729 119.59374 85.443359 118.67773 C 88.66338 117.05639 91.374045 114.57127 93.275391 111.53125 C 93.648726 111.51525 94.015956 111.46804 94.390625 111.4707 z M 72.230469 123.24609 L 80.923828 123.24609 C 81.671833 123.24076 82.415006 123.27575 83.152344 123.34375 C 83.203011 123.34775 83.254021 123.35599 83.304688 123.36133 C 88.543386 123.876 93.475497 126.17776 97.242188 129.92578 C 100.45021 133.11647 102.60833 137.15879 103.51367 141.52148 C 103.52834 141.59082 103.54783 141.65661 103.5625 141.72461 C 103.85184 143.19262 104.00329 144.69493 104.00195 146.21094 L 104.00195 149.08398 L 49.042969 149.08398 L 49.042969 146.21094 C 49.046969 144.86693 49.18916 143.53848 49.423828 142.23047 L 50.867188 137.30859 C 52.02586 134.56724 53.711174 132.04874 55.867188 129.91406 C 59.58721 126.22871 64.435145 123.95587 69.589844 123.39453 C 69.763178 123.37586 69.932754 123.35256 70.107422 123.33789 C 70.811426 123.27789 71.518464 123.24076 72.230469 123.24609 z "
         transform="matrix(0.74999527,0,0,-0.74999527,-69.862237,24.800159)"
         id="path2" />
    </g>
    <g
       transform="matrix(.35278 0 0 -.35278 105.33 58.831)"
       id="g8" />
    <g
       transform="matrix(.35278 0 0 -.35278 122.8 84.382)"
       id="g12" />
  </g>
</svg>
