<svg xmlns="http://www.w3.org/2000/svg" width="65.334" height="64.9" viewBox="0 0 65.334 64.9"><g transform="translate(-692.099 -3872.442)"><path d="M756.162,3894.956a45.717,45.717,0,0,1-11.486.894c-3-.059-6.048-.37-9.071-.424a.713.713,0,0,0-.044-.278c-2.748-7.587-5.5-15.385-9.636-22.349a.75.75,0,0,0-1.359.178,68.629,68.629,0,0,1-3.571,9.957c-.153.359-.308.722-.466,1.086-.453.765-.917,1.524-1.377,2.28a65.518,65.518,0,0,0-3.349,5.858c-.095.2-.2.421-.317.651a5.692,5.692,0,0,1-3.239,1.638c-2.119-.257-4.221-.6-6.319-.987q-2.154-.4-4.3-.849a81.619,81.619,0,0,0-8.471-2.875.848.848,0,0,0-.949,1.235,43.322,43.322,0,0,0,11.673,13.18,3.053,3.053,0,0,0,.914,1.49.169.169,0,0,0,.281-.163c-.037-.178-.086-.354-.141-.529,1.6,1.176,3.247,2.269,4.922,3.27-4.219,8.039-8,16.63-9.809,25.563l-.156.1a.447.447,0,0,0-.112.669c-.3.068-.594.129-.894.185a.145.145,0,0,0,0,.278,7.43,7.43,0,0,0,1.081.085.284.284,0,0,0,.348-.005,16.342,16.342,0,0,0,4.414-.955,41.817,41.817,0,0,0,7.379-3.347,73.825,73.825,0,0,0,11.955-8.285c6.654,5.983,14.1,11.409,22.491,14.629.032.013.061.016.091.026.051.052.1.109.151.159a.072.072,0,0,0,.12-.031c.005-.028.007-.054.011-.081a.859.859,0,0,0,.757-.409c.036.041.07.084.107.126.254.289.671-.022.6-.35-.839-3.962-2.828-7.45-4.6-11.053-.365-1.2-.724-2.4-1.062-3.612-1.069-3.819-2.962-8.589-1.144-12.485a7.556,7.556,0,0,1,1.511-2.113c1.294-.923,2.587-1.847,3.861-2.8l.074-.057c.29-.175.577-.347.857-.518a40.766,40.766,0,0,0,9.266-7.281A1.027,1.027,0,0,0,756.162,3894.956Zm-61.437-3.071c.259.076.515.16.772.24a24.249,24.249,0,0,0,3.378,1.347.088.088,0,0,0-.043.1,42.717,42.717,0,0,0,1.163,4.871A41.446,41.446,0,0,1,694.725,3891.885Zm13.077,38.987a32.47,32.47,0,0,1-3.915,2.116l-.036-.086Q705.831,3931.9,707.8,3930.872Zm15.507-10.639.02-.02c.014.02.03.038.043.057C723.352,3920.257,723.33,3920.245,723.309,3920.233Zm-19.781,12.916c-.294.127-.588.248-.885.366l.837-.424C703.5,3933.111,703.51,3933.13,703.528,3933.149Zm39.76.141a.217.217,0,0,0,.075-.4c-1.606-.955-3.2-1.5-4.341-3.08a9.334,9.334,0,0,1-1.518-5.121.24.24,0,0,0-.48,0,10.3,10.3,0,0,0,1.853,6.2q-1.86-1.107-3.656-2.328a.515.515,0,0,0,.091-.321,4.293,4.293,0,0,0,.7.23.193.193,0,0,0,.148-.351c-2.707-1.883-3.941-5.072-2.43-8.185a.072.072,0,0,0-.125-.072,7.027,7.027,0,0,0-.618,5.751q-.762-.523-1.531-1.034a.173.173,0,0,0-.032-.041,7.051,7.051,0,0,1-2.317-6.973c.046-.3-.4-.434-.463-.127a9.434,9.434,0,0,0,.311,5.436,20.334,20.334,0,0,1-3.246-2.819,17.448,17.448,0,0,1-.26-2.554.168.168,0,0,0-.336,0c-.012.573-.008,1.219.035,1.887a11.388,11.388,0,0,1-.828-1.177.979.979,0,0,0-1.521-.2c-.97.979-1.958,1.938-2.954,2.886a13.412,13.412,0,0,1-.411-2.2.144.144,0,0,0-.288,0,9.1,9.1,0,0,0,.231,2.642q-1.329,1.254-2.69,2.475c-.314.191-.63.379-.944.569a5.747,5.747,0,0,1-1.13-4.456c.027-.15-.193-.216-.23-.064a5.726,5.726,0,0,0,.884,4.805q-1.992,1.189-4,2.35c-.163.095-.327.188-.49.282a6.038,6.038,0,0,1-.084-.741,28.882,28.882,0,0,1,.237-4.268c0-.027-.04-.032-.047-.007a18.593,18.593,0,0,0-.669,4.691c0,.191-.009.416-.006.653-1.168.674-2.338,1.348-3.5,2.032a5.231,5.231,0,0,1-.36-3.711.24.24,0,0,0-.463-.127,5.231,5.231,0,0,0,.3,4.146q-1.425.84-2.834,1.706a4.5,4.5,0,0,1-.28-1.2,7.766,7.766,0,0,1,.718-3.372c.03-.078-.093-.125-.131-.056a6.155,6.155,0,0,0-.825,4.946q-1.021.636-2.03,1.292c2.25-8.8,6.466-17.032,10.787-24.972a.8.8,0,0,0-.283-1.081c-.523-.313-1.042-.637-1.561-.967a36.824,36.824,0,0,0-2.308-4.414c-.091-.165-.324-.02-.249.145.554,1.218,1.043,2.513,1.681,3.7a57.779,57.779,0,0,1-4.945-3.663,14.986,14.986,0,0,1-.181-4.9c0-.026-.041-.032-.048-.006a12.752,12.752,0,0,0-.3,4.467q-1.152-.978-2.246-2.02c-.693-2.021-1.536-3.99-2.128-6.059.906.288,1.827.538,2.748.771,1.183.4,2.375.769,3.589,1.061a26.947,26.947,0,0,0,3.209.583c1.249.3,2.5.586,3.756.855,1.186.253,3.181.959,4.024-.308a.8.8,0,0,0,.1-.662c.708-.929.927-2.366,1.417-3.421.049-.1.1-.208.15-.313a44.592,44.592,0,0,0,4.132-8.087q.288-.663.574-1.333a31.775,31.775,0,0,0,2.178-5.628c.22-.647.431-1.3.626-1.95,3.575,6.422,6.1,13.46,8.613,20.337-.556.008-1.11.026-1.664.059a1.056,1.056,0,0,0,0,2.111l.769.046a3.253,3.253,0,0,0,1.531,3.258.192.192,0,0,0,.193-.332,3.777,3.777,0,0,1-1.325-2.9q1.092.063,2.188.107c.038,2.068.487,4.649,2.514,5.564a.241.241,0,0,0,.29-.377,8.421,8.421,0,0,1-2.278-5.168c1.421.053,2.844.089,4.267.116-.038,1.492.016,3.5,1.327,4.21a.217.217,0,0,0,.295-.295,13.46,13.46,0,0,1-.929-1.994,8.713,8.713,0,0,1-.221-1.912q1.8.031,3.584.059c.213,0,.426.005.638.008a2.479,2.479,0,0,0,1.5,2.888c.158.066.239-.177.111-.262a2.743,2.743,0,0,1-1.3-2.623c1.29.009,2.582-.013,3.872-.078a5.76,5.76,0,0,0,.809,1.762c.168.183.439-.088.272-.271a4.27,4.27,0,0,1-.705-1.51c1.167-.068,2.331-.174,3.488-.335a52.345,52.345,0,0,1-7.177,5.121,20.714,20.714,0,0,0-5.054,3.962c-.527.317-1.054.633-1.579.954-1.233.755-3.494,1.579-3.569,3.254a1.054,1.054,0,0,0,1.329,1.013,1.38,1.38,0,0,0,.452-.268c-.107.35-.221.7-.352,1.041-.467,1.229-1.256,2.341-1.623,3.6-.1.336.342.469.526.222a11.417,11.417,0,0,0,1.4-2.833,18.1,18.1,0,0,0,.443,3.28,16.16,16.16,0,0,0-.063,5.5c.08.482.837.283.741-.2a16.7,16.7,0,0,1-.3-3.794c.372,1.3.83,2.578,1.3,3.79a12.411,12.411,0,0,0-.41,7.358.24.24,0,0,0,.47-.064c.036-1.6-.274-3.167-.161-4.788a14.119,14.119,0,0,1,.29-2.023c.183.461.367.913.546,1.351a66.321,66.321,0,0,0,3.816,8.094l.043.112a13.915,13.915,0,0,1-2.356-2.757c-.014-.023-.055-.008-.044.018a11.17,11.17,0,0,0,2.556,3.556c.08.079.17.171.269.267l.293.743.047.129Q744.235,3933.757,743.288,3933.29Zm-4.239-21.788q-.093-.556-.17-1.117a.409.409,0,0,0,.006-.059c.162-.114.32-.22.458-.314A10.185,10.185,0,0,0,739.049,3911.5Z"/><path d="M712.128,3903.127a.024.024,0,0,0-.048,0c-.094,1.2-.128,2.393-.16,3.594a17.228,17.228,0,0,0,.045,3.633.144.144,0,0,0,.277,0,14.642,14.642,0,0,0,.06-3.119C712.265,3905.863,712.236,3904.5,712.128,3903.127Z"/></g></svg>