<svg xmlns="http://www.w3.org/2000/svg" width="81.575" height="74.043" viewBox="0 0 81.575 74.043"><g transform="translate(-425.878 -3507.574)"><path d="M436.319,3564.424a.214.214,0,0,0,.354-.093,2.459,2.459,0,0,0-.151-1.458c-.166-.733-.293-1.485-.389-2.228a.183.183,0,0,0-.365,0,7.63,7.63,0,0,0,.04,1.9A3.339,3.339,0,0,0,436.319,3564.424Z"/><path d="M436.257,3567.9a3.5,3.5,0,0,0,.286,1.738c.18.4.445,1.042.963,1.053a.2.2,0,0,0,.2-.2c.011-.339-.265-.616-.432-.891a4.465,4.465,0,0,1-.59-1.7A.213.213,0,0,0,436.257,3567.9Z"/><path d="M439.58,3575.9c.2.016.256-.235.15-.363-.3-.364-.71-.592-.986-.979a4.952,4.952,0,0,1-.6-1.5.122.122,0,0,0-.234,0,2.277,2.277,0,0,0,.238,1.845A1.864,1.864,0,0,0,439.58,3575.9Z"/><path d="M446.892,3576.529a5.507,5.507,0,0,0-1.591-.049,7.653,7.653,0,0,1-2.075-.338c-.067-.022-.1.076-.047.112.934.588,2.805,1.453,3.8.6A.2.2,0,0,0,446.892,3576.529Z"/><path d="M451.507,3577.162c-.076.01-.113.135-.02.149a14.457,14.457,0,0,0,2.719.322c.684-.023,1.867-.076,2.177-.791.057-.129.026-.329-.145-.356-.647-.108-1.366.32-2.032.393C453.3,3576.977,452.408,3577.042,451.507,3577.162Z"/><path d="M460.278,3576.881a15.686,15.686,0,0,0,2.261.161,3.911,3.911,0,0,0,2.031-.153.2.2,0,0,0,0-.339,3.911,3.911,0,0,0-2.031-.153,15.652,15.652,0,0,0-2.261.161A.169.169,0,0,0,460.278,3576.881Z"/><path d="M468.024,3577a14.658,14.658,0,0,0,2.293.173c.656.026,1.582.229,2.082-.3a.216.216,0,0,0,0-.3c-.448-.476-1.2-.337-1.8-.312a16.214,16.214,0,0,0-2.578.183A.291.291,0,0,0,468.024,3577Z"/><path d="M476.337,3576.42a5.848,5.848,0,0,0,2.175.079c.548-.091,1.426-.155,1.685-.717a.2.2,0,0,0-.117-.29c-.457-.118-.816.168-1.251.31a5.285,5.285,0,0,1-2.371.18C476.176,3575.943,476.044,3576.36,476.337,3576.42Z"/><path d="M483.658,3576.474l2.593.061a.334.334,0,0,0,0-.668l-2.593.061A.273.273,0,0,0,483.658,3576.474Z"/><path d="M494.232,3575.478c-.483.07-.932.24-1.407.339a11.465,11.465,0,0,1-1.908.156.228.228,0,0,0,0,.455c1.125.042,2.62.221,3.52-.595C494.613,3575.674,494.421,3575.451,494.232,3575.478Z"/><path d="M498.732,3575.814a8.891,8.891,0,0,0,1.409-.428c.311-.136.782-.361.8-.74a.169.169,0,0,0-.167-.167c-.317-.008-.617.315-.879.479a8.775,8.775,0,0,1-1.264.607C498.48,3575.626,498.588,3575.85,498.732,3575.814Z"/><path d="M501.03,3573.09a.258.258,0,0,0,.516,0c.074-.836.128-1.663.145-2.5.012-.6.171-1.313-.253-1.8a.212.212,0,0,0-.3,0c-.424.484-.265,1.194-.253,1.8C500.9,3571.427,500.957,3572.254,501.03,3573.09Z"/><path d="M429.639,3531.581a6.783,6.783,0,0,0-.1,3.706.2.2,0,0,0,.379,0,6.784,6.784,0,0,0-.1-3.706A.092.092,0,0,0,429.639,3531.581Z"/><path d="M431.834,3548.242a8.521,8.521,0,0,0-.376-1.646c-.062-.183-.383-.167-.356.048.067.557.107,1.116.169,1.674.028.268.062.532.1.8.049.365.148.347.315.707.058.126.257.06.254-.069a3.36,3.36,0,0,0,.053-.56C431.931,3548.879,431.88,3548.562,431.834,3548.242Z"/><path d="M433.657,3553.33a.271.271,0,0,0-.192-.193c-.019-.1-.035-.191-.049-.288-.012-.073-.112-.044-.119.017a1.593,1.593,0,0,1-.046.3.267.267,0,0,0-.137.238,2.914,2.914,0,0,0,2.257,2.794.229.229,0,0,0,.176-.416A4.047,4.047,0,0,1,433.657,3553.33Z"/><path d="M441.526,3556.691a4.928,4.928,0,0,1-2.427-.26c-.079-.047-.141.054-.09.119a2.466,2.466,0,0,0,1.748.829,14.966,14.966,0,0,0,1.586.051,2.375,2.375,0,0,0,1.5-.22.23.23,0,0,0,0-.392C443.243,3556.386,442.229,3556.667,441.526,3556.691Z"/><path d="M452.6,3557.314a4.4,4.4,0,0,0-2.052.267,3.852,3.852,0,0,1-2.652-.088c-.045-.023-.094.036-.055.073a2.671,2.671,0,0,0,2.049.8,6.171,6.171,0,0,0,2.765-.64A.229.229,0,0,0,452.6,3557.314Z"/><path d="M460.4,3557.255a6.941,6.941,0,0,0-3.228.132.153.153,0,0,0,0,.292,6.941,6.941,0,0,0,3.228.132A.29.29,0,0,0,460.4,3557.255Z"/><path d="M478.99,3557.839a8,8,0,0,0-1.562.267c-.676.127-1.384.129-2.068.207a.258.258,0,0,0,0,.515c1.2.133,2.821.226,3.781-.626A.214.214,0,0,0,478.99,3557.839Z"/><path d="M484.455,3557.688a6.208,6.208,0,0,0-2.11.306.061.061,0,0,0,0,.116,6.231,6.231,0,0,0,2.11.3,3.652,3.652,0,0,0,1.917-.154.244.244,0,0,0,0-.419A3.663,3.663,0,0,0,484.455,3557.688Z"/><path d="M494.174,3557.8a3.566,3.566,0,0,0-1.71-.19c-.691.011-1.377.045-2.065.09a.349.349,0,0,0,0,.7c.688.046,1.374.08,2.065.091a3.578,3.578,0,0,0,1.71-.19A.29.29,0,0,0,494.174,3557.8Z"/><path d="M500.655,3556.3a11.2,11.2,0,0,1-3.049,1.045.2.2,0,0,0,0,.379,3.916,3.916,0,0,0,2.1-.039,1.553,1.553,0,0,0,1.285-1.127A.229.229,0,0,0,500.655,3556.3Z"/><path d="M502.654,3550.74a13.339,13.339,0,0,0-.021,1.811,12.237,12.237,0,0,1-.425,2.357.122.122,0,0,0,.222.094c.647-1.191,1.234-3.012.584-4.31A.2.2,0,0,0,502.654,3550.74Z"/><path d="M502.669,3542.447a3.05,3.05,0,0,0-.2.988c.005.5.01,1,.015,1.5.01.917.06,1.826.117,2.742a.243.243,0,0,0,.486,0c.057-.916.107-1.825.116-2.742q.006-.6.013-1.2a4.326,4.326,0,0,0-.2-1.293A.183.183,0,0,0,502.669,3542.447Z"/><path d="M502.471,3535.5a.292.292,0,0,0-.349.046c-.424.5-.118,1.1-.008,1.694.17.92.358,1.8.584,2.7a.152.152,0,0,0,.292,0,6.8,6.8,0,0,0,.1-2.542C503.014,3536.789,503.088,3535.823,502.471,3535.5Z"/><path d="M502.57,3532.8c.184.373.715.047.549-.32a10.48,10.48,0,0,1-.6-3.469c-.018-.175-.274-.295-.368-.1a1.829,1.829,0,0,0-.285.617,6.67,6.67,0,0,0,.05,1.271A6.306,6.306,0,0,0,502.57,3532.8Z"/><path d="M465.39,3561.564c-.286.268-.734.255-1.026.529-.143.134.069.343.215.214.294-.262.744-.239,1.047-.508C465.787,3561.657,465.548,3561.416,465.39,3561.564Z"/><path d="M476.077,3519.679a.2.2,0,0,0-.395,0l-.059.957c-.015.246-.05.528.148.706a.157.157,0,0,0,.215,0c.2-.178.164-.46.149-.706Z"/><path d="M482.738,3521.3a1.232,1.232,0,0,0,.074-.667c0-.32-.007-.639-.01-.957a.182.182,0,0,0-.364,0c0,.279,0,.558-.008.838a1.518,1.518,0,0,0,.072.786A.138.138,0,0,0,482.738,3521.3Z"/><path d="M506.711,3555.8a44.367,44.367,0,0,0,.129-15.439c-.386-2.867-.866-5.724-1.348-8.577-.319-1.879-.516-3.771-.716-5.662a31.005,31.005,0,0,1,.094-3.853c.046-.493-.574-.579-.833-.268a.677.677,0,0,0-.675-.475c-6.554,0-13.115-.152-19.673-.15-.172-.911-.2-1.855-.339-2.768a.327.327,0,0,0-.4-.23,5.954,5.954,0,0,1-1.874.375,13,13,0,0,0-.667-4.649c-.32-1.326-.565-2.669-.941-3.981a2.544,2.544,0,0,0-1.612-2.01,10.315,10.315,0,0,0-3.57-.537,59.128,59.128,0,0,0-7.007.533q-.7-.031-1.387-.026a41.121,41.121,0,0,0-10.19,1.5c-.645.1-1.289.2-1.933.312a6.652,6.652,0,0,0-3.149,1.211c-.136.1-.264.218-.389.334a5.236,5.236,0,0,0-2.667,3.2c-.485,1.947.572,3.787,1.722,5.271a3.719,3.719,0,0,1-1.2.04.951.951,0,0,0-.38-.051c-.129.035-.215.206-.349.213a.27.27,0,0,0-.266.266,18.3,18.3,0,0,0,.029,2.534q-4.5.126-9.01.2c-3.6.057-7.192.226-10.788.419l-.008-.05a.03.03,0,0,0-.058,0c0,.018-.006.036-.009.054-.382.02-.763.039-1.146.061a.227.227,0,0,0,0,.454c.278.016.555.026.832.04a3.87,3.87,0,0,0-.762.306.154.154,0,0,0,0,.262,4.7,4.7,0,0,0,.831.421v.019a82.516,82.516,0,0,0-.134,18.042,45.128,45.128,0,0,0,1.685,10.089,12.367,12.367,0,0,0,.592,1.519,9.433,9.433,0,0,0,1.212,2.112,6.791,6.791,0,0,0,1.708,1.536c-.041.2-.08.4-.114.6h0c-.1-.193-.372-.023-.289.168.07.16.131.322.194.483a38.669,38.669,0,0,0,.265,9.141,85.235,85.235,0,0,0,1.952,10.968,1.03,1.03,0,0,0,.99.754,38.279,38.279,0,0,0,5-.489c.389-.058.783-.1,1.179-.144.988-.057,1.975-.1,2.966-.1l3.014,0a25.1,25.1,0,0,0,8.845,1.783,101.144,101.144,0,0,0,15.294-.944c10.532-1.145,21.869,2.277,31.911-2.152a1.316,1.316,0,0,0,2.011-1.4c-.083-.294-.159-.588-.231-.883a34.712,34.712,0,0,0-.786-8.5c-.111-.612-.224-1.224-.335-1.836-.071-2.018-.131-4.04-.3-6.051a9.914,9.914,0,0,0,1.748-1.031,1.036,1.036,0,0,0,.725-.646A2.17,2.17,0,0,0,506.711,3555.8Zm-33.846,4.42.1-.1q0,.969-.008,1.938l-.121,0-.765.01c-.024-.559-.024-1.122-.023-1.687,0-.607,0-1.25-.049-1.886a2.443,2.443,0,0,0,.979-.766c0,.672-.008,1.343-.011,2.014l-.006.006-.287.275C472.544,3560.151,472.742,3560.349,472.865,3560.222Zm-7.655,6.606a4.538,4.538,0,0,1-1.249-2.6,25,25,0,0,1-.425-3.581l-.006-.082a.469.469,0,0,0,.21-.779c0-.016,0-.031,0-.046l.8.058a2.267,2.267,0,0,0,1.041-.069.137.137,0,0,0,0-.236,2.211,2.211,0,0,0-.911-.078c-.317,0-.636.037-.953.066a1.253,1.253,0,0,0-.3-.622c-.039-.591-.088-1.183-.17-1.767.716.108,1.406.331,2.113.469v.016a20.982,20.982,0,0,1,.981,5.749c-.224.241-.449.48-.668.727a3.026,3.026,0,0,1-.754.626c-.156.089-.02.309.138.236a3.4,3.4,0,0,0,.8-.545,2.658,2.658,0,0,0,.488-.576c-.005.507-.032,1.014-.086,1.521a.287.287,0,0,0,.286.287l.115,0a3.583,3.583,0,0,1-.709,1.192c-.09.1.054.248.151.151a3.871,3.871,0,0,0,.844-1.333c.583.021,1.174.056,1.766.077a7.015,7.015,0,0,0,.367,1.2c.023.06.129.057.12-.016-.046-.366-.139-.77-.184-1.173a12.123,12.123,0,0,0,2.579-.165c.008.451.063.913.076,1.338a.061.061,0,0,0,.121,0c.014-.443.071-.928.076-1.4.155-.036.311-.074.465-.121a.312.312,0,0,0,.215-.38c-.05-.147-.093-.294-.133-.441.185.383.367.766.537,1.156q0,.672,0,1.343c-.857.079-1.714.163-2.567.278a18.917,18.917,0,0,1-2.838.123A3.713,3.713,0,0,1,465.21,3566.828Zm9.7-48.131q.021,1.063.042,2.126c0,.218.007.445.016.675q-2.15.064-4.3.173c-4.524.232-9.036.621-13.56.871a22.429,22.429,0,0,0-.056-2.578.41.41,0,0,0-.408-.408,10.492,10.492,0,0,1-2.522-.122l-.126-.015c.373-1.534.036-3.5,1.23-4.6a4.411,4.411,0,0,1,2.031-.723,27.556,27.556,0,0,1,2.848-.384c1.556-.152,3.115-.242,4.675-.321.032.044.061.088.092.131.087.117.3.053.25-.1,0-.015-.009-.028-.014-.042q.851-.042,1.7-.084c2.1-.107,4.211-.193,6.318-.179.012.114.026.228.04.341a.122.122,0,0,0,.243,0c.012-.113.02-.226.027-.337.472.005.945.015,1.416.032.026.024.054.047.079.071.035.159.072.32.109.479-.1.254-.2.508-.285.767-.033.1.121.164.166.071.071-.145.144-.288.216-.431.341,1.412.729,2.816.934,4.253-.283-.005-.566,0-.848.023A.319.319,0,0,0,474.908,3518.7Zm-18.62,3.889c-.363.019-.725.035-1.088.051a3.8,3.8,0,0,1-.445-2.286,11.376,11.376,0,0,0,1.5.047A10.751,10.751,0,0,1,456.288,3522.586Zm16.746-10.231c-.712,0-1.423.006-2.133.024a.123.123,0,0,0,0-.017c-.1-.409-.194-.817-.3-1.222l.173.015a11.406,11.406,0,0,1,2.2.757C472.992,3512.059,473.014,3512.207,473.034,3512.355Zm-11.051-.686q.888-.022,1.768-.065a11.028,11.028,0,0,0,.589,1.125c-.765.05-1.53.1-2.294.167A2.392,2.392,0,0,0,461.983,3511.669Zm-.443.011a7.721,7.721,0,0,0,.175,1.244c-.5.043-.993.089-1.489.142-.288-.417-.673-.8-.986-1.182.71-.078,1.422-.142,2.133-.2Zm-5.29,1.5c-.441-.165-.888-.312-1.337-.453.106-.064.218-.12.332-.176.22-.053.442-.1.665-.149a2.522,2.522,0,0,0,1.3.644.108.108,0,0,0,.092-.161,2.271,2.271,0,0,0-.93-.578c.78-.149,1.567-.267,2.358-.363.05.08.087.14.1.163a6.22,6.22,0,0,0,.769,1.03l-.176.02a18.782,18.782,0,0,0-3.033.487A.311.311,0,0,0,456.25,3513.178Zm-3.633,2.5c-.027.306-.039.613-.044.918,0,.179,0,.358,0,.535a3.809,3.809,0,0,1-.4.106c.117-.529.234-1.057.356-1.584A.906.906,0,0,0,452.617,3515.676Zm.534-2.518c.12-.041.236-.08.353-.118a4.632,4.632,0,0,0-.827,2.13l-.032-.008C452.8,3514.493,452.968,3513.825,453.151,3513.158Zm11.079-1.58c.892-.053,1.782-.128,2.674-.238.024.2.045.4.072.584.016.111.167.068.178-.024a4.253,4.253,0,0,0,.034-.595,19.489,19.489,0,0,1,2.92-.184c.133.419.246.846.358,1.272-1.4.044-2.8.121-4.2.212l-1.427.091C464.656,3512.313,464.443,3511.946,464.23,3511.578Zm12.591-.453a4.093,4.093,0,0,1,.351.664,8.815,8.815,0,0,0-.7-.677,2.641,2.641,0,0,0,.064-.36A1.988,1.988,0,0,1,476.821,3511.125Zm-.756-.336c-.066-.051-.133-.1-.2-.149.09,0,.176,0,.261.006C476.106,3510.694,476.082,3510.74,476.065,3510.789Zm-2.254,1.58-.371-.009c0-.073-.015-.145-.019-.219C473.553,3512.213,473.684,3512.29,473.811,3512.369Zm-23.448,2.57c.013-.019.029-.034.041-.052a13.3,13.3,0,0,0-.157,2.334c-.026,0-.052-.012-.079-.018A2.512,2.512,0,0,1,450.363,3514.939Zm1.528,3.579c.052-.232.1-.463.154-.7a1.89,1.89,0,0,0,.547-.15c.016.365.04.731.066,1.1a5.514,5.514,0,0,1-1.21.249A.7.7,0,0,0,451.891,3518.518Zm.917.751a.159.159,0,0,0,.169-.07,2.325,2.325,0,0,0,.7-.461.137.137,0,0,0-.133-.228c-.172.043-.345.094-.518.146.019-.446.024-.894.036-1.342a1.34,1.34,0,0,0,.117-.159.129.129,0,0,0-.106-.2c.017-.407.043-.813.094-1.216a.246.246,0,0,0,.059-.39c.026-.155.057-.307.093-.459a3.365,3.365,0,0,1,1.086-1.8c.562.212,1.131.414,1.692.644h.006a4.194,4.194,0,0,0-1.282.684c-1.4,1.143-.837,3.329-1.119,4.969a10.81,10.81,0,0,0-1.177-.037C452.622,3519.328,452.716,3519.3,452.808,3519.269Zm23.24-4.566c0-.014-.007-.028-.009-.042l.017.032Zm.093.154a5.771,5.771,0,0,1,.392,1.038c-.055.016-.106.037-.164.051l-.021.01q-.123-.53-.252-1.057C476.111,3514.886,476.126,3514.87,476.141,3514.857Zm.285,1.294c.053-.01.107-.026.16-.038a6.919,6.919,0,0,1,.173,1.158,1.466,1.466,0,0,0,.029.18c-.041,0-.08.012-.121.016-.081-.441-.174-.88-.274-1.316A.107.107,0,0,0,476.426,3516.151Zm.433,1.552a1.322,1.322,0,0,0,.92.8c-.321-.039-.642-.075-.962-.1q-.046-.342-.106-.684C476.759,3517.713,476.81,3517.705,476.859,3517.7Zm1.6.826a.313.313,0,0,0,.419-.149,1.125,1.125,0,0,0,.3-.254,2.925,2.925,0,0,0,.644.6c-.533-.04-1.069-.1-1.606-.171A1.537,1.537,0,0,0,478.456,3518.529Zm-27.373.808a3.185,3.185,0,0,0,.367.073c-.128.017-.256.04-.384.065A.9.9,0,0,0,451.083,3519.337Zm-.005.882a6.276,6.276,0,0,1,.92-.081,23.6,23.6,0,0,1,2.413.181,2.885,2.885,0,0,0,.469,2.333l-.4.019c-.341.014-.683.024-1.025.038a4.174,4.174,0,0,0-.041-1.05,1.158,1.158,0,0,0-.85-1.016.076.076,0,0,0-.058.138c.446.284.475.876.48,1.356a3.457,3.457,0,0,1-.083.592l-1.4.052c-.106-.345-.227-.685-.3-1.042A6.568,6.568,0,0,1,451.078,3520.219Zm-18.8,37.006c.024.091.052.182.083.269a.208.208,0,0,0-.094.083,6.058,6.058,0,0,1-.485-.387A2.854,2.854,0,0,0,432.276,3557.225Zm40.613,7.731.061.046v.1C472.931,3565.053,472.909,3565,472.889,3564.956Zm.06-.17-.175-.081a3.539,3.539,0,0,0-.471-.743.069.069,0,0,0-.027-.02,11.712,11.712,0,0,1-.2-1.615l.752.011c.04,0,.079,0,.12,0Q472.95,3563.563,472.949,3564.786Zm-.959-6.361a6.983,6.983,0,0,0-.231-1.3c.2-.021.33-.31.417-.474a1.571,1.571,0,0,0,.21-.679c0-.177-.261-.173-.273,0a1.07,1.07,0,0,1-.145.423.284.284,0,0,0-.31-.167l-.253.042a.29.29,0,0,0-.432.076l-.873.161c.043-.3.068-.614.119-.891.921.063,1.844.111,2.769.128-.005.591-.007,1.18-.012,1.769A2.333,2.333,0,0,1,471.99,3558.425Zm-.282-1.652c-.015.019-.03.04-.043.06-.005-.017-.013-.034-.019-.052Zm-7.729-1.977c-.169-.137-.337-.274-.5-.417a.061.061,0,0,0-.085.086c.1.113.207.223.315.333-.263,0-.528.01-.792.021a.122.122,0,0,0,0,.243c.374.018.749.041,1.122.066a9.912,9.912,0,0,1,1.314,1.459c.132.2.45.008.314-.182a6.535,6.535,0,0,0-1.241-1.25c1.011.072,2.023.159,3.034.247a.14.14,0,0,0-.012.057q-.008.5-.014.994a.151.151,0,0,0,.3,0q-.006-.5-.014-.994a.128.128,0,0,0-.008-.035c.775.067,1.55.13,2.326.184-.114.3-.208.6-.3.908-.005.022-.011.044-.017.065a15.226,15.226,0,0,1-3.7.327c-.118-.007-.145.188-.028.209a11.517,11.517,0,0,0,3.6-.033,2.465,2.465,0,0,0-.057.449.122.122,0,0,0,.226.062,1.841,1.841,0,0,0,.242-.568c.332-.049.666-.1,1-.152a17.871,17.871,0,0,1,.413,4.094,13.5,13.5,0,0,0,.445,3.87l-.033.007c0-.026-.006-.052-.01-.077a.092.092,0,0,0-.177,0c-.006.04-.01.082-.016.123a11.443,11.443,0,0,1-2.633.192,1.691,1.691,0,0,1,.224-.764c.056-.094-.067-.173-.143-.11a1.155,1.155,0,0,0-.4.866c-.517-.015-1.034-.038-1.545-.048a4.362,4.362,0,0,0,.106-.753c.01-.215-.332-.216-.334,0a4.075,4.075,0,0,1-.041.517,20.013,20.013,0,0,0-1.161-7.178c.11.016.221.031.331.04s.172-.179.062-.225a6.879,6.879,0,0,0-2.856-.457,9.854,9.854,0,0,0-.718-2.619c-.066-.15-.277-.038-.249.1a24.317,24.317,0,0,1,.369,4.086c-.032,0-.063,0-.1,0a112.618,112.618,0,0,1-15.458.874,55.654,55.654,0,0,1-9.061-.581c-1.66-.3-3.9-.565-5.067-1.96a.537.537,0,0,0-.341-.727c-.72-.249-.968-1.01-1.337-1.6a12.308,12.308,0,0,1-1.277-3.4,58.732,58.732,0,0,1-1.4-9.846c-.453-5.315-.3-10.732-1.018-16.023a9.807,9.807,0,0,0,1.8.306,9.7,9.7,0,0,0-.415,2.4.243.243,0,0,0,.485,0,14.317,14.317,0,0,1,.264-2.37c1.516.1,3.1,0,4.346.039,3.259.1,6.518.144,9.777.087q2.556-.047,5.113-.123c-2.556,3.6-5.881,6.575-8.826,9.843-2.585,2.867-5.3,6.392-5.768,10.338-.025.213.3.234.358.048,2.655-8.252,9.789-13.215,14.391-20.234,4.778-.141,9.553-.344,14.329-.541,6.565-.27,13.127-.592,19.7-.725,6.153-.126,12.293.037,18.442.16.043.165.086.329.121.493.139.669.288,1.34.381,2.017.042.311.477.195.506-.069a7.84,7.84,0,0,0,0-1.93c-.021-.156-.039-.322-.06-.492l.458.008a1.082,1.082,0,0,0,.387-.06c-.515,4.758.4,9.716,1.072,14.4-.078,3.482.5,6.971.634,10.446.006.154.012.313.017.473a37.74,37.74,0,0,1-.864,6.572,20.271,20.271,0,0,1-3.327,1.3,48.816,48.816,0,0,1-9.893,1.8c-.488.05-.977.1-1.466.144a35.541,35.541,0,0,0-4.623-.056c-3.473.215-6.923.6-10.4.747-.138-.019-.278-.031-.414-.056a.64.64,0,0,0-.494.1q-.012-2.44-.029-4.884a.3.3,0,0,0-.3-.3C470.176,3555.17,467.087,3554.774,463.979,3554.8Zm18.788-35.657c.1.742.152,1.5.285,2.239q-.867,0-1.734.008c.009-.2-.016-.415-.019-.606a5.4,5.4,0,0,0-.118-1.134.122.122,0,0,0-.233,0,5.4,5.4,0,0,0-.117,1.134c0,.191-.029.405-.019.609q-2.673.021-5.346.1c.009-.223.013-.446.028-.662.038-.6.032-1.213.038-1.82.295,0,.591.011.887.031a.44.44,0,0,0,.161.013c.4.032.8.079,1.2.13a7.078,7.078,0,0,0-.092.851c-.017.406-.15.95.108,1.3a.185.185,0,0,0,.314,0c.258-.348.127-.892.109-1.3a7.2,7.2,0,0,0-.084-.805c.332.043.664.086.995.123a3.289,3.289,0,0,1,.248.972c.03.329-.144.65-.016.957a.154.154,0,0,0,.223.09c.545-.376.253-1.35-.024-1.977A8,8,0,0,0,482.767,3519.139Zm-32.025,1.135a4.537,4.537,0,0,0,.213,2.526c-.553.02-1.106.037-1.658.054a6.06,6.06,0,0,0,.049-.991,5.474,5.474,0,0,0-.134-1.33C449.722,3520.479,450.229,3520.367,450.742,3520.274Zm-3.135.341a.746.746,0,0,0,.243-.138,3.8,3.8,0,0,0,.944.083,5.784,5.784,0,0,1,.071,1.3c-.013.325-.125.674-.154,1.009l-1.251.038A19.63,19.63,0,0,1,447.607,3520.615Zm-14.777,38.232c.333.173.677.33,1.029.473.038.015.078.028.117.044a11.98,11.98,0,0,0,1.872,1c2.83,1.259,6.313,1.451,9.361,1.69a71.826,71.826,0,0,0,10.247-.14,39.14,39.14,0,0,0,7.232-.884c.009.3.015.6.029.9.094,1.886.369,4.389,1.939,5.671a3.576,3.576,0,0,0,1.779.7c-.557,1.351-1.48,2.527-1.969,3.894-.061.171.185.25.277.117a17.119,17.119,0,0,0,2.013-3.969l.025,0a11.339,11.339,0,0,0,3.127,0c.908-.171,1.84-.236,2.759-.321a10.455,10.455,0,0,0,1.251-.133,3.493,3.493,0,0,0,.379-.116c.027-.009.3-.1.132-.052a.35.35,0,0,0-.093-.684h-.013a.175.175,0,0,0-.041,0c.193-.059-.089-.022-.247-.045a2.212,2.212,0,0,0-.415-.018q0-.78,0-1.56a.65.65,0,0,0,.184.032c.178,0,.171-.257,0-.273a.7.7,0,0,1-.183-.081q0-1.374,0-2.75a1.168,1.168,0,0,0,.213-.041.107.107,0,0,0,0-.205,1.108,1.108,0,0,0-.213-.043c0-.242,0-.482,0-.725l.023.019c1.881,1.247,4.7,1.375,6.861,1.45a78.608,78.608,0,0,0,11.571-.431,55.182,55.182,0,0,0,8.368-1.47,7.424,7.424,0,0,0-.044,3.215,11.256,11.256,0,0,0,.867,3.288.031.031,0,0,0,.056-.007,12.664,12.664,0,0,0,.151-3.281,10.221,10.221,0,0,0-.433-3.386c.423-.125.842-.261,1.258-.405-.492,5.292-1.033,10.912.143,16.15l-.007,0c-.067.03-.137.056-.2.085a8.353,8.353,0,0,0-1.8.372.332.332,0,0,0-.213.217c-4.156.6-8.4.756-12.574.951q-2.418.114-4.837.2a81.053,81.053,0,0,0-10.92,0c-1.283.114-2.585.258-3.9.409q-6.567.109-13.138.12c-2.156,0-4.32-.033-6.484-.043q-.783-.2-1.555-.45a.78.78,0,0,0-.625-.732,10.286,10.286,0,0,0-1.685-.168c-.167-.076-.335-.15-.5-.23a.261.261,0,0,0-.371.233c-2.252.086-4.58.656-6.829.905-.144-.363-.3-.809-.447-1.082a18.584,18.584,0,0,1-1.482-3.155q-.424-1.965-.773-3.949a65.852,65.852,0,0,0-.954-7.929C433.042,3561.1,432.945,3559.975,432.83,3558.847Zm2.993,19.439c.025.046.047.094.069.142l-.035,0C435.847,3578.382,435.836,3578.334,435.823,3578.286Z"/><path d="M437.342,3529.838c.137-.28-.277-.525-.419-.245-1.055,2.075-2.114,4.148-3.215,6.2-.746,1.388-1.729,2.773-2.523,4.2-.108-.556-.217-1.1-.376-1.661a.046.046,0,0,0-.088,0,6.893,6.893,0,0,0-.107,2.788c-.149.328-.284.656-.4.989a.184.184,0,0,0,.3.177c.105-.107.2-.226.3-.34a4.027,4.027,0,0,0,.275.654.214.214,0,0,0,.388-.051,3.678,3.678,0,0,0-.063-1.365,41.244,41.244,0,0,0,2.482-4.535C435.1,3534.405,436.219,3532.12,437.342,3529.838Z"/><path d="M458.521,3526.162c.117-.157-.146-.307-.261-.153a174.517,174.517,0,0,1-12.537,14.194c-4.127,4.413-8.4,8.991-11.341,14.308a.183.183,0,0,0,.315.184,146.114,146.114,0,0,1,12.118-14.989A162.568,162.568,0,0,0,458.521,3526.162Z"/><path d="M463.591,3529.742c.034-.02,0-.07-.031-.053-4.985,2.6-9.086,6.673-12.6,11a85.079,85.079,0,0,0-5.1,7.054,47.814,47.814,0,0,0-4.222,7.284.182.182,0,0,0,.314.184c1.437-2.2,2.626-4.564,4.041-6.782a86.125,86.125,0,0,1,5.306-7.4C454.77,3536.7,458.71,3532.489,463.591,3529.742Z"/><path d="M472.849,3526.588c-1.63,4.563-4.544,8.562-7.564,12.3-1.508,1.867-3.1,3.664-4.712,5.44a54.361,54.361,0,0,0-4.44,4.985c-.147.211.161.4.334.257a46.632,46.632,0,0,0,4.857-5.255c1.594-1.828,3.154-3.691,4.629-5.617,2.829-3.694,5.525-7.628,7.014-12.075C472.992,3526.546,472.876,3526.515,472.849,3526.588Z"/><path d="M479.235,3529.776c.067-.139-.136-.262-.209-.122-1.423,2.7-2.939,5.337-4.458,7.977a42.83,42.83,0,0,0-3.939,7.583c-.079.241.257.349.389.163a66.054,66.054,0,0,0,4.061-7.447C476.5,3535.229,477.914,3532.527,479.235,3529.776Z"/><path d="M478.783,3547a53.718,53.718,0,0,0,5.005-6.446c1.915-2.562,3.757-5.183,5.755-7.682.047-.059-.031-.144-.086-.085a82.812,82.812,0,0,0-5.506,6.429,72.7,72.7,0,0,0-5.549,7.491A.243.243,0,0,0,478.783,3547Z"/><path d="M484.984,3552.161c5.522-6.519,9.119-14.979,15.935-20.36.015-.012-.005-.036-.021-.026-3.632,2.149-6.2,5.327-8.7,8.681-2.733,3.666-5.058,7.615-7.543,11.448C484.519,3552.1,484.828,3552.346,484.984,3552.161Z"/><path d="M492.761,3553.2c2.958-3.025,6.23-6.8,7.226-11.007a.122.122,0,0,0-.235-.064c-1.382,4.337-5.268,6.919-7.324,10.813A.213.213,0,0,0,492.761,3553.2Z"/><path d="M441.956,3572.324c1.778-2.364,3.365-4.905,5.106-7.3.061-.083-.079-.192-.143-.111-1.793,2.294-4,4.6-5.277,7.232A.182.182,0,0,0,441.956,3572.324Z"/><path d="M450.232,3571.43c2.293-1.632,3.749-4.713,4.3-7.413.078-.381-.494-.544-.585-.162-.7,2.918-2.48,4.8-4.091,7.2C449.711,3571.279,450.009,3571.589,450.232,3571.43Z"/><path d="M457.537,3572.858c.7-1.135,1.144-2.433,1.749-3.623.725-1.427,1.528-2.813,2.32-4.2a.121.121,0,0,0-.209-.122c-1.489,2.364-3.593,5.03-4.249,7.782A.214.214,0,0,0,457.537,3572.858Z"/><path d="M477.75,3571.761a23.454,23.454,0,0,1,5.074-7.242.091.091,0,0,0-.128-.128,23.722,23.722,0,0,0-5.279,7.231A.181.181,0,1,0,477.75,3571.761Z"/><path d="M489.11,3572.361c2.375-1.953,3.468-5.343,6.62-6.322.032-.01.027-.063-.009-.059-3.3.355-5.079,3.783-6.9,6.16C488.689,3572.316,488.963,3572.481,489.11,3572.361Z"/><path d="M496.88,3570.158a7.559,7.559,0,0,1,.942-3.1c.016-.034-.034-.066-.052-.03a7.736,7.736,0,0,0-1.133,3.126C496.628,3570.313,496.879,3570.315,496.88,3570.158Z"/></g></svg>