<svg xmlns="http://www.w3.org/2000/svg" width="97.527" height="80.745" viewBox="0 0 97.527 80.745"><path d="M1074.172,3521.537c-1.938-1.349-4.889-.93-7.13-1.108a53.473,53.473,0,0,1-5.46-.575c1.042-.665,2.108-1.292,3.14-1.971a22.286,22.286,0,0,0,2.576-2.419c.374-.341-.022-.905-.468-.8a13.712,13.712,0,0,0-2.861.6,40.163,40.163,0,0,0-3.542,2.023c-.227.141-.45.288-.675.431.876-1.387,1.746-2.778,2.588-4.2,1.09-1.837,3.1-4.333,2.735-6.584a.437.437,0,0,0-.54-.307c-2.153.842-3.162,3.836-4.183,5.728a62.218,62.218,0,0,0-3.154,7.035q-1.044.708-2.076,1.432c.381-1.065.754-2.133,1.138-3.206.958-2.678,2.822-5.294,3.232-8.092a.635.635,0,0,0-.923-.709c-2.411,1.346-3.23,4.372-4.125,6.839a34.325,34.325,0,0,0-1.714,6.881q-1.161.84-2.313,1.693c.487-1.326.947-2.661,1.413-4,.718-2.053.679-4.046,1.179-6.135a.486.486,0,0,0-.805-.468,12.807,12.807,0,0,0-3.283,3.173,22.307,22.307,0,0,0-1.9,4.98c-.465,1.665-.768,3.354-1.077,5.054-.042.232-.063.542-.11.847q-1.283.981-2.564,1.962c-8.87-15.394-30.129-25.112-46.654-16.7-15.337,7.81-21.748,27.586-19.117,43.706,1.3,7.99,5.971,15.511,11.855,21.17a28.8,28.8,0,0,0,3.945,3.377c5.875,4.412,14.485,7.817,21.609,5.288a31.23,31.23,0,0,0,13.129-4.145c8.183-4.915,14.042-14.375,17.4-23.076a34.323,34.323,0,0,0-.807-26.99q1.674-1.3,3.35-2.593a2.806,2.806,0,0,0,.517.311c.488.228.613.049,1.059.427a8.921,8.921,0,0,0,2.139,1.265c3.052,1.387,8.07,2.144,10.942.083a.594.594,0,0,0-.14-1.071c-2.86-1.2-6.169-.614-9.183-1.325a28.41,28.41,0,0,1-3.092-1.414q1.839-1.406,3.7-2.786a38.881,38.881,0,0,1,7.146,1.713c2.412.79,4.624,1.848,7.186,1.443.514-.081.467-.755.13-.994-2.174-1.544-4.942-2-7.492-2.7a29.783,29.783,0,0,0-4.909-.957q1.9-1.364,3.842-2.664a18.038,18.038,0,0,0,6.227,1.8c2.426.341,5.933,1.221,8.119-.272A.6.6,0,0,0,1074.172,3521.537Zm-29.716,34.7a52.136,52.136,0,0,1-7.778,14.861,33.659,33.659,0,0,1-10.654,9.976c-6.631,3.769-15.416,4.335-23.023,2.252-4.942-1.743-9.266-5.16-12.824-8.928a39.345,39.345,0,0,1-7.69-11.877,47.629,47.629,0,0,1-2.044-8.049,33.418,33.418,0,0,1,18.5-37.024c.022-.011.007-.044-.016-.038a25.4,25.4,0,0,0-4.286,1.461,25.156,25.156,0,0,1,18.109-5.175,41.7,41.7,0,0,1,26.223,13.989,29.309,29.309,0,0,1,2.436,3.387c-.5.378-.991.758-1.488,1.135-3.013,2.284-6.069,4.546-9.2,6.7-3.186-8.078-13.289-10.4-21.774-8.007a23.481,23.481,0,0,0-13.055,9.135c-3.49,5.116-3.6,11.082-1.213,16.651q.172.395.36.782a.406.406,0,0,0,.356.246c.063.159.118.319.185.477a17.992,17.992,0,0,0,12.5,10c14.232,3.266,24.245-11.667,23.639-24.479a16.374,16.374,0,0,0-.171-1.675c3.213-2.181,6.3-4.54,9.283-6.822.671-.512,1.338-1.03,2.006-1.545A31.132,31.132,0,0,1,1044.456,3556.237Zm-30.61-8.982c-.038.043-.078.084-.111.13s-.067.079-.1.119a3.587,3.587,0,0,0-.647,1.264c-.145.059-.288.122-.433.18a.858.858,0,0,0-.49.46,6.541,6.541,0,0,1,.62-2.816,5.118,5.118,0,0,1,1.833-.308c.059,0,.112.01.171.012C1014.406,3546.615,1014.12,3546.93,1013.846,3547.255Zm-1.562,3.181c-.019-.047-.028-.1-.045-.146a.736.736,0,0,0,.276.164c-.029.086-.059.172-.093.258C1012.375,3550.621,1012.325,3550.533,1012.284,3550.436Zm2.631,2.87a4.939,4.939,0,0,1-4.267-.132,2.479,2.479,0,0,1-1.543-3.078.4.4,0,0,0,.512-.07c.718-.813,1.005-1.851,1.776-2.626a3.488,3.488,0,0,1,1.035-.706C1010.977,3549.32,1011.593,3552.557,1014.915,3553.306Zm.241-.277a7.343,7.343,0,0,1-2.4-1.789.308.308,0,0,0,.276-.1c.236-.287.485-.559.737-.826.264-.056.528-.11.789-.172a1.385,1.385,0,0,0,.721.134c.681-.062,1.373-.127,2.072-.189a5.158,5.158,0,0,1-.527,1.44,4.112,4.112,0,0,1-1.59,1.618A.146.146,0,0,0,1015.156,3553.029Zm10.616-16.264a31.375,31.375,0,0,0-8.841,7.056c-.351.379-.7.759-1.048,1.14-.115-.037-.226-.08-.347-.11-2.288-.563-6.307.977-6.757,3.571-1.369,1.791-1.511,4.02.73,5.679a6.07,6.07,0,0,0,8.4-1.536,5.738,5.738,0,0,0,1.061-2.618,32.3,32.3,0,0,1,9.461.357,1.664,1.664,0,0,0,.581.023,34.2,34.2,0,0,1-1.535,4.809c-3.7,9.242-13.51,14.612-22.925,10.173a16.546,16.546,0,0,1-8.531-9.634,15.825,15.825,0,0,1-.816-4.585,17.427,17.427,0,0,1,3.705-11.185,22.234,22.234,0,0,1,14.153-7.517c4.862-.649,10.272.267,13.708,4.024.065.072.125.146.187.218A1.893,1.893,0,0,0,1025.772,3536.765Zm3.863,9.621a10.952,10.952,0,0,1-1.03-2.441c.34-.211.679-.42,1.015-.636A18.472,18.472,0,0,1,1029.635,3546.386Zm-1.5-5.749a19.042,19.042,0,0,1,.09-2.182,11.056,11.056,0,0,1,.725,1.644Q1028.54,3540.369,1028.131,3540.637Z" transform="translate(-976.926 -3506.608)"/></svg>