<svg width="9.6599mm" height="10.095mm" version="1.1" viewBox="0 0 9.6599 10.095" xmlns="http://www.w3.org/2000/svg">
 <g transform="translate(-125.95 -219.38)">
  <g transform="matrix(.35278 0 0 -.35278 130.79 223.06)">
   <path d="m0 0c0.494 0.563 0.972 1.081 1.416 1.625 0.23 0.283 0.495 0.388 0.846 0.384 0.937-0.01 1.874-7e-3 2.811-3e-3 0.596 3e-3 0.778 0.184 0.779 0.771 2e-3 1.842 2e-3 3.683 0 5.525-1e-3 0.591-0.179 0.765-0.779 0.766-3.41 1e-3 -6.821 1e-3 -10.232-1e-3 -0.597 0-0.761-0.171-0.762-0.775v-5.462c0-0.66 0.162-0.823 0.819-0.824 1.032-2e-3 2.063-6e-3 3.095 2e-3 0.343 3e-3 0.597-0.11 0.801-0.4 0.376-0.532 0.78-1.044 1.206-1.608m-0.036 10.258c1.747 0 3.494 1e-3 5.242 0 1.029-1e-3 1.821-0.741 1.83-1.77 0.018-1.988 0.015-3.977 1e-3 -5.965-7e-3 -0.907-0.803-1.679-1.712-1.69-0.905-0.01-1.81-9e-3 -2.715 3e-3 -0.223 3e-3 -0.372-0.069-0.513-0.235-0.533-0.624-1.076-1.24-1.618-1.856-0.345-0.392-0.708-0.389-1.028 0.024-0.464 0.599-0.919 1.205-1.364 1.817-0.131 0.181-0.275 0.252-0.499 0.25-0.947-0.012-1.894-6e-3 -2.841-5e-3 -1.117 2e-3 -1.856 0.739-1.858 1.858-2e-3 1.926-2e-3 3.852 0 5.777 1e-3 1.015 0.78 1.79 1.803 1.792 1.757 2e-3 3.515 0 5.272 0" fill="#f6d207"/>
  </g>
  <g transform="matrix(.35278 0 0 -.35278 130.09 222.29)">
   <path d="m0 0c0.404 0 0.698-0.149 0.923-0.469 0.262-0.37 0.535-0.729 0.826-1.108 0.084-0.111 0.169-0.223 0.256-0.337 0.102 0.116 0.203 0.229 0.303 0.341 0.342 0.386 0.666 0.749 0.977 1.13 0.246 0.302 0.55 0.444 0.955 0.444 7e-3 0 0.013-1e-3 0.019-1e-3 0.926-9e-3 1.852-6e-3 2.778-2e-3 0.537 2e-3 0.647 0.11 0.647 0.608 2e-3 1.841 2e-3 3.683 0 5.524 0 0.501-0.104 0.603-0.616 0.603-3.41 2e-3 -6.821 2e-3 -10.231 0-0.504 0-0.599-0.098-0.599-0.613-1e-3 -1.821-1e-3 -3.641 0-5.462 0-0.567 0.092-0.659 0.656-0.66l0.532-1e-3c0.854-2e-3 1.707-3e-3 2.561 3e-3zm1.986-2.43-0.121 0.16c-0.127 0.169-0.252 0.333-0.376 0.495-0.292 0.381-0.568 0.742-0.832 1.118-0.166 0.234-0.375 0.334-0.667 0.331-0.855-7e-3 -1.709-6e-3 -2.564-4e-3l-0.533 1e-3c-0.743 1e-3 -0.981 0.242-0.981 0.987-1e-3 1.821-1e-3 3.641 0 5.462 0 0.693 0.242 0.939 0.924 0.94 3.412 1e-3 6.822 1e-3 10.232 0 0.686-1e-3 0.942-0.252 0.942-0.929 2e-3 -1.842 2e-3 -3.684 0-5.526 0-0.677-0.256-0.93-0.941-0.933-0.958-4e-3 -1.885-8e-3 -2.813 2e-3 -0.324-2e-3 -0.528-0.09-0.718-0.323-0.315-0.387-0.641-0.753-0.986-1.141-0.143-0.16-0.288-0.322-0.434-0.489zm-2.391 1.258c0.269 0 0.46-0.099 0.619-0.317 0.443-0.608 0.901-1.219 1.361-1.813 0.126-0.163 0.252-0.247 0.376-0.251 0.156-6e-3 0.305 0.125 0.401 0.235l0.054 0.061c0.524 0.594 1.048 1.19 1.562 1.792 0.176 0.206 0.374 0.297 0.64 0.293 0.906-0.012 1.817-0.013 2.711-3e-3 0.82 0.01 1.545 0.724 1.55 1.528 0.016 2.22 0.016 4.17 0 5.963-9e-3 0.931-0.71 1.607-1.668 1.607l-3.603 1e-3h-3.236c-1.225 0-2.449 1e-3 -3.675-1e-3 -0.934-1e-3 -1.638-0.701-1.639-1.629-2e-3 -1.925-2e-3 -3.85 0-5.775 1e-3 -1.029 0.666-1.695 1.694-1.696l0.61-1e-3c0.743-2e-3 1.486-4e-3 2.23 6e-3zm2.365-2.707h-0.02c-0.225 7e-3 -0.435 0.134-0.623 0.377-0.463 0.597-0.922 1.21-1.366 1.821-0.101 0.139-0.195 0.18-0.366 0.182-0.744-9e-3 -1.489-7e-3 -2.234-5e-3l-0.609 1e-3c-1.207 1e-3 -2.019 0.814-2.02 2.021-2e-3 1.925-2e-3 3.851 0 5.776 1e-3 1.114 0.845 1.954 1.965 1.956 1.225 1e-3 2.45 0 3.675 0h6.839c1.127-1e-3 1.984-0.831 1.994-1.932 0.016-1.793 0.016-3.745 1e-3 -5.967-8e-3 -0.992-0.865-1.84-1.873-1.852-0.896-0.011-1.811-0.01-2.719 2e-3 -0.163 2e-3 -0.275-0.045-0.388-0.178-0.515-0.604-1.04-1.2-1.565-1.796l-0.054-0.061c-0.201-0.229-0.416-0.345-0.637-0.345" fill="#f6d207"/>
  </g>
  <g transform="matrix(.35278 0 0 -.35278 130.79 227.34)">
   <path d="m0 0c1.116 0 2.232-0.03 3.347 7e-3 1.603 0.055 3.079-1.118 3.119-3.021 0.015-0.725 8e-3 -1.451 1e-3 -2.177-4e-3 -0.421-0.266-0.705-0.618-0.692-0.347 0.013-0.567 0.279-0.569 0.698-3e-3 0.706 3e-3 1.411-2e-3 2.115-6e-3 1.154-0.75 1.896-1.898 1.896h-6.819c-1.153 0-1.901-0.744-1.902-1.89 0-0.706 2e-3 -1.411-1e-3 -2.115-2e-3 -0.437-0.237-0.71-0.595-0.703-0.346 7e-3 -0.569 0.268-0.572 0.694-4e-3 0.789-0.013 1.578 4e-3 2.367 0.033 1.509 1.268 2.771 2.78 2.807 1.241 0.031 2.483 7e-3 3.725 7e-3z" fill="#f6d207"/>
  </g>
  <g transform="matrix(.35278 0 0 -.35278 129.57 227.7)">
   <path d="m0 0h6.82c1.245 0 2.054-0.808 2.061-2.058 2e-3 -0.379 2e-3 -0.758 1e-3 -1.137 0-0.326 0-0.652 1e-3 -0.978 1e-3 -0.157 0.042-0.522 0.411-0.536 0.114-4e-3 0.214 0.033 0.292 0.107 0.1 0.096 0.156 0.246 0.158 0.423v0.074c6e-3 0.688 0.013 1.4-2e-3 2.099-0.017 0.839-0.323 1.562-0.883 2.093-0.544 0.514-1.297 0.791-2.067 0.768-0.774-0.026-1.559-0.02-2.319-0.013-0.29 2e-3 -0.58 5e-3 -0.87 6e-3v-8e-3h-0.164c-0.381 0-0.763 2e-3 -1.144 5e-3 -0.845 5e-3 -1.719 9e-3 -2.577-0.011-1.414-0.035-2.59-1.222-2.62-2.648-0.015-0.671-0.011-1.356-6e-3 -2.018l2e-3 -0.345c1e-3 -0.157 0.043-0.524 0.412-0.531 0.112-8e-3 0.208 0.032 0.28 0.102 0.095 0.093 0.148 0.249 0.149 0.438 2e-3 0.457 1e-3 0.914 1e-3 1.37v0.744c1e-3 1.228 0.83 2.054 2.064 2.054m9.311-5.036c-9e-3 0-0.019 1e-3 -0.028 1e-3 -0.44 0.016-0.724 0.354-0.726 0.861-2e-3 0.326-1e-3 0.653-1e-3 0.98 1e-3 0.378 1e-3 0.756-1e-3 1.134-6e-3 1.069-0.671 1.733-1.735 1.733h-6.82c-1.055 0-1.737-0.678-1.738-1.727v-0.744c0-0.457 1e-3 -0.914-1e-3 -1.371-2e-3 -0.282-0.087-0.514-0.247-0.67-0.135-0.132-0.314-0.204-0.514-0.195-0.442 9e-3 -0.729 0.344-0.733 0.855l-2e-3 0.345c-4e-3 0.665-9e-3 1.351 6e-3 2.027 0.035 1.598 1.354 2.929 2.939 2.967 0.863 0.021 1.74 0.016 2.587 0.011 0.328-2e-3 0.655-4e-3 0.982-4e-3l0.16 7e-3c0.346 0 0.691-3e-3 1.037-6e-3 0.756-6e-3 1.538-0.013 2.305 0.013 0.859 0.028 1.696-0.283 2.302-0.857 0.617-0.584 0.966-1.409 0.985-2.324 0.015-0.703 9e-3 -1.417 2e-3 -2.108v-0.074c-3e-3 -0.266-0.094-0.498-0.259-0.655-0.134-0.129-0.311-0.199-0.5-0.199" fill="#f6d207"/>
  </g>
  <g transform="matrix(.35278 0 0 -.35278 129.95 225.47)">
   <path d="m0 0c0.01-1.365 1.044-2.381 2.413-2.371 1.246 0.01 2.296 1.085 2.288 2.341-9e-3 1.325-1.06 2.387-2.356 2.382-1.3-6e-3 -2.355-1.064-2.345-2.352m2.345 3.513c1.959 2e-3 3.55-1.596 3.545-3.561-6e-3 -1.912-1.617-3.511-3.539-3.512-1.955-2e-3 -3.534 1.592-3.538 3.572-3e-3 1.916 1.593 3.498 3.532 3.501" fill="#f6d207"/>
  </g>
  <g transform="matrix(.35278 0 0 -.35278 130.78 224.69)">
   <path d="m0 0h-0.01c-0.589-3e-3 -1.142-0.235-1.556-0.655-0.408-0.413-0.631-0.957-0.626-1.532 4e-3 -0.617 0.234-1.18 0.648-1.586 0.409-0.402 0.97-0.623 1.58-0.623h0.02c1.161 9e-3 2.134 1.006 2.126 2.177-8e-3 1.225-0.986 2.219-2.182 2.219m0.036-4.723c-0.697 0-1.338 0.254-1.809 0.717-0.476 0.467-0.74 1.112-0.746 1.817-4e-3 0.662 0.251 1.288 0.721 1.764 0.476 0.481 1.11 0.748 1.787 0.751h0.011c1.375 0 2.499-1.138 2.509-2.543 9e-3 -1.347-1.113-2.494-2.45-2.505-8e-3 0-0.016-1e-3 -0.023-1e-3m-0.046 5.884c-0.895-1e-3 -1.74-0.351-2.38-0.985-0.639-0.634-0.99-1.469-0.989-2.353 4e-3 -1.88 1.516-3.408 3.371-3.408h3e-3c1.825 1e-3 3.371 1.535 3.376 3.349 3e-3 0.909-0.35 1.763-0.992 2.406-0.638 0.64-1.484 0.991-2.384 0.991zm2e-3 -7.073c-2.035 0-3.693 1.675-3.697 3.735-2e-3 0.971 0.383 1.888 1.085 2.584s1.628 1.079 2.61 1.08h5e-3c0.987 0 1.916-0.385 2.615-1.086 0.704-0.705 1.09-1.642 1.087-2.638-6e-3 -1.99-1.701-3.673-3.701-3.675z" fill="#f6d207"/>
  </g>
  <g transform="matrix(.35278 0 0 -.35278 133.9 223.47)">
   <path d="m0 0c0.482 0.553 0.956 1.06 1.386 1.601 0.258 0.324 0.565 0.444 0.958 0.425 0.189-9e-3 0.379-5e-3 0.569 0 0.321 8e-3 0.531 0.194 0.575 0.509 0.013 0.093 0.014 0.188 0.014 0.283 1e-3 1.81 2e-3 3.62 0 5.43 0 0.635-0.189 0.821-0.833 0.823-0.684 3e-3 -1.368-0.01-2.052 7e-3 -0.5 0.013-0.814 0.44-0.588 0.819 0.1 0.168 0.354 0.333 0.545 0.342 0.809 0.036 1.622 0.047 2.43 1e-3 0.986-0.055 1.666-0.787 1.676-1.791 0.018-1.957 0.017-3.915 0-5.872-0.01-1.003-0.807-1.77-1.818-1.743-0.422 0.012-0.699-0.111-0.959-0.439-0.443-0.562-0.933-1.086-1.405-1.624-0.368-0.418-0.744-0.412-1.076 0.023-0.287 0.376-0.568 0.758-0.846 1.141-0.224 0.31-0.173 0.636 0.127 0.855 0.257 0.188 0.59 0.135 0.808-0.138 0.157-0.197 0.303-0.403 0.489-0.652" fill="#f6d207"/>
  </g>
  <g transform="matrix(.35278 0 0 -.35278 133.56 223.21)">
   <path d="m0 0c-0.081 0-0.161-0.026-0.234-0.08-0.23-0.168-0.263-0.391-0.091-0.627 0.277-0.382 0.557-0.763 0.844-1.138 0.131-0.173 0.264-0.262 0.393-0.267 0.14-2e-3 0.279 0.081 0.43 0.254 0.128 0.145 0.257 0.289 0.385 0.433 0.341 0.382 0.694 0.777 1.014 1.183 0.288 0.365 0.611 0.515 1.092 0.502 0.446-0.012 0.862 0.145 1.17 0.442 0.306 0.295 0.476 0.699 0.48 1.138 0.018 1.991 0.018 3.966 0 5.869-8e-3 0.925-0.62 1.58-1.521 1.631-0.716 0.039-1.483 0.039-2.414-2e-3 -0.13-5e-3 -0.338-0.138-0.412-0.262-0.082-0.139-0.052-0.256-0.011-0.329 0.08-0.145 0.257-0.238 0.463-0.243 0.448-0.012 0.896-0.01 1.345-8e-3 0.234 1e-3 0.47 2e-3 0.704 1e-3 0.735-3e-3 0.995-0.261 0.995-0.987 2e-3 -1.81 1e-3 -3.62 0-5.43 0-0.102-1e-3 -0.205-0.015-0.306-0.056-0.396-0.33-0.639-0.734-0.649-0.193-5e-3 -0.387-9e-3 -0.58 0-0.359 0.019-0.606-0.091-0.823-0.364-0.304-0.382-0.623-0.74-0.96-1.12-0.142-0.159-0.286-0.321-0.431-0.486l-0.132-0.153-0.29 0.391c-0.111 0.151-0.211 0.287-0.316 0.419-0.099 0.124-0.225 0.188-0.351 0.188m0.923-2.438h-0.022c-0.232 8e-3 -0.448 0.141-0.642 0.395-0.288 0.378-0.57 0.76-0.848 1.144-0.278 0.383-0.214 0.808 0.162 1.083 0.329 0.24 0.763 0.17 1.033-0.168 0.108-0.136 0.21-0.275 0.324-0.43l0.048-0.064c0.1 0.113 0.199 0.225 0.298 0.336 0.334 0.376 0.65 0.731 0.949 1.106 0.282 0.355 0.628 0.511 1.094 0.488 0.185-9e-3 0.37-6e-3 0.556-1e-3 0.241 6e-3 0.386 0.133 0.418 0.368 0.013 0.086 0.013 0.174 0.013 0.261 1e-3 1.81 2e-3 3.62 0 5.43 0 0.547-0.113 0.658-0.67 0.66-0.234 2e-3 -0.468 0-0.702-1e-3 -0.452-1e-3 -0.903-3e-3 -1.354 8e-3 -0.322 9e-3 -0.605 0.166-0.741 0.412-0.113 0.206-0.108 0.445 0.017 0.654 0.132 0.222 0.436 0.411 0.678 0.421 0.942 0.042 1.719 0.043 2.446 2e-3 1.067-0.06 1.819-0.863 1.83-1.953 0.018-1.906 0.018-3.883 0-5.876-5e-3 -0.527-0.211-1.014-0.58-1.37-0.372-0.359-0.876-0.546-1.406-0.533-0.379 9e-3 -0.601-0.093-0.826-0.378-0.327-0.414-0.683-0.813-1.027-1.199-0.129-0.143-0.257-0.287-0.384-0.431-0.212-0.242-0.436-0.364-0.664-0.364" fill="#f6d207"/>
  </g>
  <g transform="matrix(.35278 0 0 -.35278 127.66 223.47)">
   <path d="m0 0c0.185 0.247 0.332 0.452 0.488 0.649 0.213 0.268 0.552 0.327 0.809 0.149 0.268-0.185 0.345-0.555 0.146-0.837-0.297-0.421-0.602-0.837-0.923-1.24-0.277-0.346-0.673-0.339-0.974 3e-3 -0.487 0.551-0.99 1.092-1.444 1.67-0.26 0.33-0.534 0.46-0.956 0.441-0.737-0.034-1.303 0.31-1.627 0.977-0.116 0.237-0.186 0.521-0.187 0.785-0.016 1.978-0.012 3.955-7e-3 5.933 2e-3 0.847 0.653 1.626 1.492 1.686 0.879 0.062 1.766 0.042 2.649 0.03 0.353-5e-3 0.579-0.272 0.577-0.59-1e-3 -0.295-0.255-0.562-0.601-0.571-0.694-0.019-1.388-0.01-2.083-0.012-0.688-2e-3 -0.858-0.172-0.858-0.857-1e-3 -1.798-1e-3 -3.597 0-5.396 1e-3 -0.638 0.165-0.835 0.805-0.783 0.677 0.055 1.163-0.163 1.559-0.717 0.328-0.458 0.734-0.86 1.135-1.32" fill="#f6d207"/>
  </g>
  <g transform="matrix(.35278 0 0 -.35278 126.68 223.12)">
   <path d="m0 0c0.426 0 0.73-0.154 1.006-0.505 0.342-0.435 0.72-0.858 1.085-1.266 0.118-0.132 0.236-0.265 0.353-0.397 0.119-0.135 0.256-0.203 0.387-0.205 0.121 4e-3 0.238 0.071 0.337 0.196 0.289 0.363 0.589 0.765 0.917 1.232 0.069 0.098 0.097 0.215 0.076 0.33-0.02 0.114-0.084 0.213-0.181 0.279-0.188 0.13-0.43 0.083-0.588-0.117-0.106-0.132-0.206-0.269-0.318-0.419l-0.289-0.387-0.132 0.152c-0.124 0.143-0.249 0.279-0.372 0.414-0.279 0.306-0.542 0.595-0.773 0.918-0.362 0.506-0.785 0.701-1.413 0.649-0.366-0.03-0.598 0.021-0.753 0.164-0.2 0.184-0.228 0.484-0.228 0.782-1e-3 1.542-1e-3 3.084 0 4.626v0.77c0 0.779 0.239 1.017 1.02 1.02h0.61c0.49-1e-3 0.98-1e-3 1.47 0.012 0.243 6e-3 0.441 0.19 0.442 0.409 1e-3 0.202-0.129 0.422-0.417 0.426l-0.256 3e-3c-0.782 0.012-1.591 0.023-2.379-0.033-0.737-0.053-1.338-0.736-1.34-1.524-5e-3 -1.994-9e-3 -3.948 7e-3 -5.93 1e-3 -0.236 0.063-0.497 0.17-0.716 0.297-0.61 0.809-0.917 1.474-0.885 0.028 1e-3 0.057 2e-3 0.085 2e-3m2.822-2.699c-0.222 0-0.443 0.112-0.622 0.315-0.117 0.132-0.235 0.263-0.352 0.395-0.369 0.412-0.75 0.839-1.099 1.282-0.23 0.293-0.45 0.393-0.82 0.379-0.791-0.038-1.428 0.343-1.781 1.068-0.127 0.261-0.201 0.573-0.204 0.856-0.015 1.984-0.012 3.939-7e-3 5.934 3e-3 0.955 0.74 1.784 1.645 1.848 0.801 0.058 1.617 0.046 2.406 0.035l0.256-4e-3c0.423-5e-3 0.741-0.329 0.738-0.754-2e-3 -0.4-0.336-0.722-0.759-0.733-0.494-0.013-0.987-0.012-1.479-0.012h-0.608c-0.598-2e-3 -0.696-0.099-0.696-0.694v-0.77c-1e-3 -1.542-1e-3 -3.084 0-4.626 0-0.297 0.039-0.465 0.123-0.543 0.081-0.074 0.242-0.099 0.505-0.077 0.738 0.059 1.279-0.19 1.705-0.785 0.22-0.308 0.477-0.59 0.749-0.888 0.081-0.089 0.162-0.177 0.243-0.268l0.047 0.063c0.114 0.154 0.216 0.293 0.324 0.428 0.265 0.335 0.698 0.411 1.03 0.183 0.168-0.117 0.28-0.291 0.316-0.491 0.036-0.201-0.01-0.405-0.13-0.575-0.331-0.472-0.636-0.88-0.929-1.247-0.159-0.2-0.367-0.313-0.585-0.319z" fill="#f6d207"/>
  </g>
  <g transform="matrix(.35278 0 0 -.35278 128.08 225.68)">
   <path d="m0 0c3e-3 0.659-0.529 1.201-1.174 1.195-0.634-5e-3 -1.17-0.54-1.171-1.171-2e-3 -0.653 0.536-1.199 1.178-1.195 0.637 4e-3 1.165 0.533 1.167 1.171m-1.168 2.358c1.307 1e-3 2.358-1.06 2.358-2.378 0-1.28-1.067-2.318-2.38-2.316-1.308 2e-3 -2.347 1.061-2.341 2.387 4e-3 1.261 1.076 2.307 2.363 2.307" fill="#f6d207"/>
  </g>
  <g transform="matrix(.35278 0 0 -.35278 127.67 225.32)">
   <path d="m0 0h-7e-3c-0.546-4e-3 -1.008-0.466-1.01-1.008 0-0.277 0.109-0.538 0.308-0.736 0.192-0.191 0.44-0.296 0.701-0.296h6e-3c0.552 3e-3 1.002 0.456 1.004 1.008 2e-3 0.28-0.106 0.543-0.305 0.74-0.189 0.188-0.436 0.292-0.697 0.292m-8e-3 -2.366c-0.347 0-0.678 0.138-0.931 0.391-0.261 0.26-0.405 0.603-0.404 0.968 2e-3 0.717 0.613 1.328 1.333 1.334 0.351-0.013 0.684-0.136 0.938-0.388 0.26-0.259 0.403-0.605 0.401-0.972-3e-3 -0.731-0.6-1.329-1.329-1.333zm5e-3 3.692v-0.163c-1.188 0-2.195-0.982-2.2-2.145-2e-3 -0.604 0.226-1.167 0.643-1.586 0.408-0.411 0.953-0.637 1.536-0.638h3e-3c0.602 0 1.165 0.231 1.585 0.651 0.405 0.405 0.628 0.938 0.629 1.503 0 0.594-0.228 1.151-0.642 1.569-0.414 0.417-0.966 0.646-1.553 0.646h-1e-3zm-0.018-4.858h-4e-3c-0.67 1e-3 -1.297 0.261-1.767 0.734-0.478 0.481-0.74 1.126-0.737 1.818 5e-3 1.361 1.138 2.469 2.526 2.469h1e-3c0.675 0 1.309-0.263 1.784-0.742 0.476-0.479 0.738-1.118 0.737-1.799 0-0.652-0.257-1.267-0.724-1.734-0.483-0.481-1.127-0.746-1.816-0.746" fill="#f6d207"/>
  </g>
  <g transform="matrix(.35278 0 0 -.35278 134.3 225.68)">
   <path d="m0 0c5e-3 0.649-0.536 1.201-1.177 1.199-0.639-1e-3 -1.164-0.526-1.168-1.166-4e-3 -0.663 0.518-1.2 1.168-1.2 0.63 0 1.172 0.538 1.177 1.167m-1.191-2.332c-1.316 1e-3 -2.345 1.046-2.344 2.38 1e-3 1.267 1.062 2.311 2.351 2.315 1.304 3e-3 2.36-1.053 2.369-2.371 8e-3 -1.272-1.069-2.325-2.376-2.324" fill="#f6d207"/>
  </g>
  <g transform="matrix(.35278 0 0 -.35278 133.88 225.32)">
   <path d="m0 0h-2e-3c-0.551-1e-3 -1.002-0.452-1.006-1.004-1e-3 -0.282 0.105-0.545 0.3-0.741 0.188-0.19 0.439-0.295 0.705-0.295h1e-3c0.535 0 1.009 0.47 1.013 1.005 2e-3 0.269-0.109 0.536-0.304 0.733-0.194 0.195-0.445 0.302-0.707 0.302m-2e-3 -2.366h-1e-3c-0.353 0-0.686 0.139-0.936 0.39-0.257 0.259-0.397 0.604-0.395 0.974 4e-3 0.731 0.601 1.327 1.331 1.328h3e-3c0.35 0 0.683-0.141 0.938-0.398 0.257-0.258 0.402-0.61 0.399-0.966-5e-3 -0.72-0.619-1.328-1.339-1.328m-0.015-0.839h1e-3c0.601 0 1.166 0.234 1.589 0.66 0.406 0.408 0.627 0.941 0.623 1.499-8e-3 1.22-0.994 2.21-2.199 2.21h-6e-3c-1.206-4e-3 -2.188-0.969-2.189-2.152 0-1.242 0.958-2.216 2.181-2.217m1e-3 -0.326h-2e-3c-1.406 1e-3 -2.506 1.118-2.506 2.543 1e-3 1.363 1.128 2.474 2.514 2.478h7e-3c1.384 0 2.516-1.135 2.525-2.533 5e-3 -0.647-0.25-1.262-0.717-1.732-0.486-0.488-1.132-0.756-1.821-0.756" fill="#f6d207"/>
  </g>
  <g transform="matrix(.35278 0 0 -.35278 133.93 226.94)">
   <path d="m0 0c0.704 0 1.417 0.078 2.108-0.016 1.429-0.195 2.419-1.354 2.484-2.794 0.019-0.409 0.012-0.82 5e-3 -1.231-5e-3 -0.345-0.265-0.623-0.575-0.635-0.306-0.012-0.587 0.257-0.603 0.607-0.016 0.357-2e-3 0.715-7e-3 1.073-0.018 1.125-0.742 1.843-1.871 1.849-1.052 5e-3 -2.104 1e-3 -3.156 1e-3 -0.094 0-0.19-6e-3 -0.284 5e-3 -0.351 0.043-0.595 0.313-0.577 0.633 0.018 0.317 0.256 0.544 0.614 0.55 0.62 0.01 1.241 2e-3 1.862 2e-3z" fill="#f6d207"/>
  </g>
  <g transform="matrix(.35278 0 0 -.35278 133.93 226.94)">
   <path d="m0 0zm0.31-0.981c0.411 0 0.821-1e-3 1.232-3e-3 1.215-6e-3 2.013-0.795 2.033-2.009 2e-3 -0.145 1e-3 -0.289 0-0.433-1e-3 -0.212-2e-3 -0.424 7e-3 -0.635 0.012-0.254 0.213-0.465 0.434-0.453 0.226 0.01 0.414 0.223 0.418 0.476 7e-3 0.421 0.013 0.826-5e-3 1.221-0.061 1.374-1.025 2.46-2.343 2.639-0.461 0.063-0.949 0.046-1.42 0.03-0.223-7e-3 -0.445-0.015-0.666-0.015h-0.163v0.045l-0.388 1e-3c-0.436 1e-3 -0.872 2e-3 -1.309-5e-3 -0.262-3e-3 -0.44-0.159-0.453-0.396-0.014-0.234 0.169-0.429 0.434-0.461 0.062-7e-3 0.125-5e-3 0.188-4e-3l1.094 1e-3c0.302 1e-3 0.605 1e-3 0.907 1e-3m3.692-3.859c-0.388 0-0.727 0.344-0.746 0.764-0.01 0.217-8e-3 0.434-7e-3 0.652 1e-3 0.142 2e-3 0.283 0 0.425-0.017 1.036-0.672 1.683-1.709 1.688-0.712 4e-3 -1.424 4e-3 -2.137 2e-3l-1.089-1e-3c-0.078-1e-3 -0.156-2e-3 -0.232 7e-3 -0.434 0.053-0.744 0.398-0.721 0.804 0.023 0.408 0.341 0.697 0.774 0.704 0.438 7e-3 0.877 5e-3 1.316 4e-3l0.712-1e-3v-0.043c0.164 2e-3 0.327 8e-3 0.491 0.013 0.486 0.017 0.987 0.034 1.476-0.032 1.477-0.202 2.556-1.414 2.625-2.949 0.018-0.404 0.012-0.814 6e-3 -1.21-7e-3 -0.461-0.329-0.811-0.733-0.826-8e-3 -1e-3 -0.017-1e-3 -0.026-1e-3" fill="#f6d207"/>
  </g>
  <g transform="matrix(.35278 0 0 -.35278 127.64 226.93)">
   <path d="m0 0c0.579 0 1.158 2e-3 1.737-1e-3 0.446-2e-3 0.707-0.215 0.719-0.578 0.01-0.352-0.291-0.61-0.732-0.611-1.073-3e-3 -2.148-0.036-3.22 8e-3 -1.118 0.045-2.035-0.829-1.941-1.945 0.027-0.314 0.012-0.632 1e-3 -0.947-0.014-0.37-0.283-0.652-0.6-0.649-0.321 4e-3 -0.585 0.289-0.58 0.661 7e-3 0.557-0.025 1.122 0.062 1.667 0.212 1.331 1.407 2.346 2.755 2.388 0.599 0.019 1.199 3e-3 1.799 3e-3z" fill="#f6d207"/>
  </g>
  <g transform="matrix(.35278 0 0 -.35278 127.24 226.98)">
   <path d="m0 0c-0.225 0-0.45-2e-3 -0.673-9e-3 -1.284-0.04-2.401-1.008-2.599-2.25-0.063-0.398-0.061-0.82-0.059-1.227 0-0.139 1e-3 -0.278-1e-3 -0.417-1e-3 -0.145 0.048-0.278 0.141-0.372 0.076-0.079 0.174-0.122 0.278-0.123h4e-3c0.228 0 0.421 0.219 0.431 0.491l2e-3 0.061c0.011 0.286 0.021 0.583-2e-3 0.866-0.048 0.563 0.139 1.096 0.524 1.499 0.403 0.42 0.983 0.651 1.586 0.623 0.774-0.031 1.565-0.023 2.331-0.015 0.294 3e-3 0.588 6e-3 0.882 7e-3 0.196 1e-3 0.36 0.06 0.463 0.166 0.072 0.075 0.109 0.171 0.106 0.277-0.011 0.345-0.309 0.419-0.557 0.42-0.405 2e-3 -0.81 2e-3 -1.214 1e-3l-0.522-4e-3c-0.187 0-0.375 2e-3 -0.563 3e-3 -0.184 2e-3 -0.371 3e-3 -0.558 3e-3m-2.909-4.725h-8e-3c-0.19 2e-3 -0.371 0.081-0.508 0.222-0.153 0.156-0.236 0.371-0.233 0.605 2e-3 0.136 1e-3 0.273 0 0.41-2e-3 0.421-4e-3 0.856 0.064 1.28 0.222 1.395 1.473 2.48 2.91 2.525 0.416 0.014 0.837 0.01 1.245 7e-3 0.137-2e-3 0.273-3e-3 0.41-3e-3l0.671 4e-3c0.406 0 0.811 0 1.217-1e-3 0.529-3e-3 0.867-0.285 0.881-0.737 6e-3 -0.193-0.064-0.376-0.198-0.514-0.165-0.17-0.412-0.264-0.696-0.265-0.293-1e-3 -0.586-4e-3 -0.88-7e-3 -0.769-8e-3 -1.565-0.016-2.347 0.015-0.51 0.02-0.999-0.17-1.337-0.523-0.32-0.335-0.474-0.777-0.435-1.246 0.026-0.303 0.014-0.609 3e-3 -0.905l-2e-3 -0.061c-0.016-0.454-0.348-0.806-0.757-0.806" fill="#f6d207"/>
  </g>
 </g>
</svg>
