<svg xmlns="http://www.w3.org/2000/svg" width="51.072" height="44.262" viewBox="0 0 51.072 44.262"><defs><style>.a{fill:#fff;}</style></defs><g transform="translate(-914.079 416.144)"><path class="a" d="M939.615-394.864h-5.107a.851.851,0,0,0-.852.851.85.85,0,0,0,.09.38l1.613,3.226v3.2a4.255,4.255,0,0,0,4.256,4.256,4.255,4.255,0,0,0,4.255-4.256v-3.4A4.26,4.26,0,0,0,939.615-394.864Zm-3.73,1.7h3.73a2.56,2.56,0,0,1,2.408,1.7h-5.287Zm6.283,5.958a2.553,2.553,0,0,1-2.553,2.554,2.553,2.553,0,0,1-2.554-2.554v-2.553h5.107Z"/><path class="a" d="M943.019-382.948H936.21a4.262,4.262,0,0,0-4.256,4.256v5.958a.852.852,0,0,0,.851.852h13.619a.852.852,0,0,0,.851-.852v-5.958A4.261,4.261,0,0,0,943.019-382.948Zm2.554,9.363h-1.7v-2.553a.851.851,0,0,0-.851-.851.851.851,0,0,0-.851.851v2.553h-5.107v-2.553a.851.851,0,0,0-.851-.851.851.851,0,0,0-.851.851v2.553h-1.7v-5.107a2.554,2.554,0,0,1,2.554-2.553h6.809a2.553,2.553,0,0,1,2.554,2.553Z"/><path class="a" d="M923.442-394.864h-3.405a2.553,2.553,0,0,0-2.553,2.553v5.107a4.255,4.255,0,0,0,4.256,4.256A4.256,4.256,0,0,0,926-387.2v-5.107A2.553,2.553,0,0,0,923.442-394.864Zm.851,7.66a2.553,2.553,0,0,1-2.553,2.554,2.554,2.554,0,0,1-2.554-2.554v-2.553h5.107Zm0-4.256h-5.107v-.851a.851.851,0,0,1,.851-.851h3.405a.851.851,0,0,1,.851.851Z"/><path class="a" d="M925.145-382.948h-6.81a4.262,4.262,0,0,0-4.256,4.256v5.958a.852.852,0,0,0,.851.852h13.619a.852.852,0,0,0,.851-.852v-5.958A4.26,4.26,0,0,0,925.145-382.948Zm2.553,9.363H926v-2.553a.851.851,0,0,0-.851-.851.852.852,0,0,0-.852.851v2.553h-5.107v-2.553a.851.851,0,0,0-.851-.851.851.851,0,0,0-.851.851v2.553h-1.7v-5.107a2.553,2.553,0,0,1,2.553-2.553h6.81a2.553,2.553,0,0,1,2.553,2.553Z"/><path class="a" d="M965.061-389.282h0l-1.882-3.764a6.361,6.361,0,0,0-8.534-2.845,6.367,6.367,0,0,0-2.845,2.845l-1.882,3.764a.851.851,0,0,0,.381,1.142h0l2.991,1.5a4.232,4.232,0,0,0,4.728,3.67,4.232,4.232,0,0,0,3.671-3.67v0l2.99-1.491A.851.851,0,0,0,965.061-389.282Zm-5.018,2.078a2.553,2.553,0,0,1-2.554,2.554,2.553,2.553,0,0,1-2.553-2.554v-2.553h5.107Zm1.7-1.377v-2.027a.852.852,0,0,0-.851-.852h-6.809a.853.853,0,0,0-.852.852v2.027l-1.411-.705,1.5-3a4.657,4.657,0,0,1,6.25-2.083,4.655,4.655,0,0,1,2.083,2.083l1.5,3Z"/><path class="a" d="M960.894-382.948h-6.809a4.261,4.261,0,0,0-4.256,4.256v5.958a.852.852,0,0,0,.851.852H964.3a.852.852,0,0,0,.851-.852v-5.958A4.262,4.262,0,0,0,960.894-382.948Zm2.554,9.363h-1.7v-2.553a.851.851,0,0,0-.851-.851.851.851,0,0,0-.851.851v2.553h-5.107v-2.553a.851.851,0,0,0-.851-.851.852.852,0,0,0-.852.851v2.553h-1.7v-5.107a2.553,2.553,0,0,1,2.554-2.553h6.809a2.554,2.554,0,0,1,2.554,2.553Z"/><path class="a" d="M928.983-410.929a7.661,7.661,0,0,0-7.243-5.215,7.661,7.661,0,0,0-7.644,7.677,7.66,7.66,0,0,0,5.215,7.244l1.667,3.335a.853.853,0,0,0,1.142.382.861.861,0,0,0,.382-.382l1.667-3.335A7.66,7.66,0,0,0,928.983-410.929Zm-1.5,4.043a5.96,5.96,0,0,1-4.137,4.136.855.855,0,0,0-.533.44l-1.069,2.138-1.069-2.138a.855.855,0,0,0-.533-.44A5.957,5.957,0,0,1,916-410.09a5.958,5.958,0,0,1,7.341-4.137A5.959,5.959,0,0,1,927.479-406.886Z"/><path class="a" d="M946.858-410.929a7.661,7.661,0,0,0-7.243-5.215,7.662,7.662,0,0,0-7.645,7.677,7.662,7.662,0,0,0,5.215,7.244l1.668,3.335a.852.852,0,0,0,1.141.382.851.851,0,0,0,.382-.382l1.668-3.335A7.661,7.661,0,0,0,946.858-410.929Zm-1.5,4.043a5.956,5.956,0,0,1-4.137,4.136.853.853,0,0,0-.532.44l-1.069,2.138-1.069-2.138a.857.857,0,0,0-.533-.44,5.957,5.957,0,0,1-4.137-7.34,5.957,5.957,0,0,1,7.34-4.137A5.957,5.957,0,0,1,945.353-406.886Z"/><path class="a" d="M964.733-410.929a7.662,7.662,0,0,0-7.244-5.215,7.662,7.662,0,0,0-7.644,7.677,7.662,7.662,0,0,0,5.215,7.244l1.668,3.335a.851.851,0,0,0,1.141.382.855.855,0,0,0,.382-.382l1.668-3.335A7.662,7.662,0,0,0,964.733-410.929Zm-1.5,4.043a5.956,5.956,0,0,1-4.137,4.136.855.855,0,0,0-.533.44l-1.069,2.138-1.069-2.138a.852.852,0,0,0-.533-.44,5.958,5.958,0,0,1-4.137-7.34,5.958,5.958,0,0,1,7.341-4.137A5.957,5.957,0,0,1,963.228-406.886Z"/><path class="a" d="M961.07-411.213a2.717,2.717,0,0,0-3.581-.164,2.717,2.717,0,0,0-3.581.161,2.657,2.657,0,0,0,0,3.757l3.581,3.584,3.581-3.581A2.657,2.657,0,0,0,961.07-411.213Zm-1.2,2.554v0l-2.378,2.381-2.377-2.377a.954.954,0,0,1,0-1.35.954.954,0,0,1,1.35,0l1.027,1.027,1.028-1.027a.954.954,0,0,1,1.35,0A.956.956,0,0,1,959.867-408.659Z"/><path class="a" d="M924.676-411.066h.3l-.116.278-2.74,6.721h-1.548l.807-2.038-2.086-4.683-.106-.278h1.568l1.394,3.144,1.269-3.144h1.259Z"/><path class="a" d="M943.558-411.066h.281l-.087.27-1.633,5.065h-1.576l-.686-2.494-.677,2.494H937.6l-.058-.136-1.662-5.2h1.595l.86,2.706.773-2.706h1.5l.763,2.7.87-2.7h1.314Z"/></g></svg>