<?xml version="1.0" encoding="UTF-8" standalone="no"?>
<svg
   xmlns:dc="http://purl.org/dc/elements/1.1/"
   xmlns:cc="http://creativecommons.org/ns#"
   xmlns:rdf="http://www.w3.org/1999/02/22-rdf-syntax-ns#"
   xmlns:svg="http://www.w3.org/2000/svg"
   xmlns="http://www.w3.org/2000/svg"
   id="svg15624"
   version="1.1"
   viewBox="0 0 51.788551 70.627098"
   height="70.627098mm"
   width="51.788551mm">
  <defs
     id="defs15618" />
  <metadata
     id="metadata15621">
    <rdf:RDF>
      <cc:Work
         rdf:about="">
        <dc:format>image/svg+xml</dc:format>
        <dc:type
           rdf:resource="http://purl.org/dc/dcmitype/StillImage" />
        <dc:title></dc:title>
      </cc:Work>
    </rdf:RDF>
  </metadata>
  <g
     transform="translate(-101.52752,-8.0454465)"
     id="layer1">
    <g
       transform="matrix(0.35277777,0,0,-0.35277777,117.81251,73.636984)"
       id="g985">
      <path
         id="path987"
         style="fill:#ffffff;fill-opacity:1;fill-rule:nonzero;stroke:none"
         d="m 0,0 v -3.055 h -4.312 v -11.218 h -3.055 v 11.218 h -4.312 V 0 Z" />
    </g>
    <g
       transform="matrix(0.35277777,0,0,-0.35277777,121.39659,73.636984)"
       id="g989">
      <path
         id="path991"
         style="fill:#ffffff;fill-opacity:1;fill-rule:nonzero;stroke:none"
         d="M 0,0 H 10.601 V -3.055 H 3.055 v -2.553 h 4.49 v -3.056 h -4.49 v -2.554 h 7.546 v -3.055 H 0 Z" />
    </g>
    <g
       transform="matrix(0.35277777,0,0,-0.35277777,132.84105,76.735175)"
       id="g993">
      <path
         id="path995"
         style="fill:#ffffff;fill-opacity:1;fill-rule:nonzero;stroke:none"
         d="M 0,0 2.216,-2.216 1.099,-3.335 C 0.406,-4.04 -0.383,-4.58 -1.267,-4.951 c -0.885,-0.373 -1.827,-0.554 -2.825,-0.54 -1.012,0 -1.96,0.192 -2.845,0.579 -0.884,0.387 -1.659,0.911 -2.326,1.577 -0.666,0.666 -1.19,1.441 -1.576,2.325 -0.387,0.885 -0.579,1.833 -0.579,2.845 0,1.012 0.192,1.964 0.579,2.855 0.386,0.892 0.91,1.67 1.576,2.336 0.667,0.665 1.442,1.192 2.326,1.578 0.885,0.384 1.833,0.579 2.845,0.579 0.985,0 1.926,-0.187 2.825,-0.56 C -0.369,8.25 0.419,7.718 1.099,7.026 L 2.216,5.928 0,3.711 l -1.117,1.1 c -0.4,0.412 -0.856,0.718 -1.367,0.917 -0.513,0.2 -1.049,0.306 -1.608,0.32 -0.573,0 -1.115,-0.111 -1.628,-0.33 C -6.23,5.498 -6.677,5.195 -7.056,4.811 -7.435,4.424 -7.736,3.976 -7.956,3.463 -8.175,2.95 -8.284,2.408 -8.284,1.835 c 0,-0.572 0.109,-1.114 0.328,-1.627 0.22,-0.511 0.521,-0.958 0.9,-1.337 0.379,-0.379 0.826,-0.68 1.336,-0.899 0.513,-0.219 1.055,-0.328 1.628,-0.328 0.572,0 1.111,0.105 1.617,0.318 0.506,0.214 0.958,0.519 1.358,0.919 z" />
    </g>
    <g
       transform="matrix(0.35277777,0,0,-0.35277777,138.18609,76.588067)"
       id="g997">
      <path
         id="path999"
         style="fill:#ffffff;fill-opacity:1;fill-rule:nonzero;stroke:none"
         d="M 0,0 V -5.908 H -3.055 V 8.365 H 0 V 2.457 H 5.349 V 8.365 H 8.404 V -5.908 H 5.349 V 0 Z" />
    </g>
    <g
       transform="matrix(0.35277777,0,0,-0.35277777,122.99238,39.060969)"
       id="g1001">
      <path
         id="path1003"
         style="fill:#ffffff;fill-opacity:1;fill-rule:nonzero;stroke:none"
         d="m 0,0 c 0.008,2.798 1.129,5.479 3.118,7.447 1.987,1.969 4.678,3.066 7.476,3.047 h 3.972 C 17.359,10.511 20.043,9.412 22.023,7.442 24.003,5.472 25.115,2.793 25.111,0 V -1.312 H 0 Z m -1.057,-3.561 h 27.273 c 0.295,-0.012 0.582,0.094 0.798,0.295 0.215,0.203 0.34,0.482 0.346,0.777 V 0 c 0.004,3.389 -1.345,6.64 -3.747,9.032 -2.401,2.392 -5.657,3.728 -9.047,3.71 H 10.594 C 7.2,12.762 3.938,11.428 1.527,9.037 -0.882,6.646 -2.241,3.394 -2.249,0 v -2.489 c 0,-0.622 0.571,-1.072 1.192,-1.072" />
    </g>
    <g
       transform="matrix(0.35277777,0,0,-0.35277777,127.43981,28.1359)"
       id="g1005">
      <path
         id="path1007"
         style="fill:#ffffff;fill-opacity:1;fill-rule:nonzero;stroke:none"
         d="m 0,0 c 3.708,0 6.714,-3.006 6.714,-6.714 0,-3.707 -3.006,-6.714 -6.714,-6.714 -3.708,0 -6.713,3.007 -6.713,6.714 C -6.71,-3.008 -3.707,-0.005 0,0 m 0,-15.677 c 4.95,0 8.963,4.014 8.963,8.963 0,4.95 -4.013,8.962 -8.963,8.962 -4.95,0 -8.962,-4.012 -8.962,-8.962 0.005,-4.947 4.015,-8.957 8.962,-8.963" />
    </g>
    <g
       transform="matrix(0.35277777,0,0,-0.35277777,136.12904,44.094244)"
       id="g1009">
      <path
         id="path1011"
         style="fill:#ffffff;fill-opacity:1;fill-rule:nonzero;stroke:none"
         d="m 0,0 -18.552,-0.004 -15.946,0.002 c -4.878,0.002 -9.761,0 -14.644,0.008 -3.552,0.008 -4.752,1.194 -4.754,4.708 -0.004,16.324 -0.004,32.648 0,48.973 0,3.199 1.29,4.505 4.449,4.507 16.433,0.006 32.87,0.006 49.305,-0.002 C 3.304,58.19 4.525,56.979 4.525,53.563 4.535,37.184 4.533,20.803 4.529,4.423 4.529,1.284 3.216,0.002 0,0 m -21.121,-22.005 v -0.002 c -0.025,-1.901 -1.614,-3.461 -3.543,-3.474 h -0.025 c -1.921,0 -3.516,1.536 -3.558,3.433 -0.02,0.935 0.369,1.866 1.068,2.56 0.703,0.697 1.662,1.054 2.591,1.054 1.901,-0.057 3.488,-1.693 3.467,-3.571 m -6.005,99.64 c -0.713,0.678 -1.121,1.599 -1.12,2.532 0.002,1.897 1.578,3.473 3.51,3.512 h 0.066 c 1.903,0 3.486,-1.512 3.547,-3.402 0.06,-1.874 -1.49,-3.542 -3.386,-3.643 -0.056,-0.004 -0.11,-0.004 -0.167,-0.004 -0.889,0 -1.775,0.359 -2.45,1.005 M 3.49,-34.843 c 0.667,-0.683 1.039,-1.598 1.026,-2.511 -0.029,-1.898 -1.653,-3.483 -3.553,-3.483 H 0.919 c -0.948,0.014 -1.834,0.4 -2.496,1.088 -0.656,0.682 -1.004,1.571 -0.981,2.505 0.049,1.946 1.741,3.514 3.586,3.488 0.903,-0.01 1.8,-0.405 2.462,-1.087 m -50.291,-2.405 c 0.027,-1.917 -1.512,-3.524 -3.428,-3.585 -0.035,0 -0.07,-0.002 -0.105,-0.002 -1.845,0 -3.458,1.521 -3.547,3.372 -0.046,0.934 0.313,1.876 0.989,2.587 0.682,0.717 1.616,1.126 2.562,1.126 1.919,0 3.501,-1.569 3.529,-3.498 m -44.562,47.472 h -0.053 c -0.924,0.013 -1.794,0.396 -2.447,1.072 -0.664,0.687 -1.02,1.591 -1.002,2.539 0.017,0.928 0.419,1.835 1.103,2.489 0.683,0.656 1.581,0.98 2.484,0.988 0.928,-0.02 1.804,-0.413 2.465,-1.102 0.66,-0.691 1.01,-1.583 0.988,-2.512 -0.046,-1.895 -1.66,-3.474 -3.538,-3.474 m 18.897,18.69 c -0.048,-0.935 -0.481,-1.832 -1.188,-2.463 -0.653,-0.585 -1.469,-0.901 -2.317,-0.901 -0.065,0 -0.131,0.002 -0.195,0.006 -1.909,0.106 -3.434,1.814 -3.327,3.729 0.051,0.92 0.492,1.814 1.208,2.455 0.703,0.625 1.645,0.953 2.502,0.906 1.93,-0.11 3.418,-1.784 3.317,-3.73 z m -18.901,11.98 h -0.016 c -0.934,0.005 -1.806,0.373 -2.459,1.037 -0.662,0.675 -1.021,1.575 -1.01,2.532 0.012,0.952 0.398,1.844 1.086,2.514 0.674,0.654 1.618,1.023 2.465,0.992 h 0.002 c 1.911,-0.033 3.502,-1.674 3.474,-3.585 -0.029,-1.929 -1.617,-3.49 -3.542,-3.49 m 38.473,52.183 c -0.68,0.719 -1.039,1.668 -0.989,2.609 0.105,1.881 1.764,3.361 3.671,3.349 1.899,-0.065 3.461,-1.719 3.411,-3.61 -0.053,-1.884 -1.678,-3.477 -3.551,-3.477 -0.938,0.002 -1.864,0.414 -2.542,1.129 m 50.329,2.418 c 0,1.919 1.559,3.506 3.478,3.534 h 0.052 c 1.869,0 3.489,-1.553 3.551,-3.42 C 4.545,94.668 4.168,93.728 3.48,93.028 2.803,92.341 1.888,91.948 0.961,91.948 h -0.05 c -1.917,0.031 -3.476,1.622 -3.476,3.547 m 44.492,-47.52 c 0.87,0.027 1.796,-0.327 2.474,-0.981 0.692,-0.666 1.08,-1.559 1.096,-2.514 0.015,-0.947 -0.34,-1.844 -1,-2.526 -0.655,-0.672 -1.529,-1.051 -2.463,-1.062 h -0.045 c -0.919,0 -1.791,0.357 -2.459,1.011 -0.68,0.662 -1.06,1.542 -1.07,2.475 -0.023,1.909 1.563,3.556 3.467,3.597 M 26.659,32.65 c 1.911,-0.029 3.498,-1.679 3.469,-3.604 -0.014,-0.925 -0.416,-1.835 -1.1,-2.498 -0.668,-0.647 -1.524,-1 -2.418,-1 h -0.058 c -1.934,0.031 -3.484,1.647 -3.455,3.602 0.033,1.956 1.699,3.473 3.562,3.5 m 15.33,-15.338 h 0.033 c 0.938,-0.01 1.814,-0.387 2.467,-1.061 0.658,-0.678 1.01,-1.575 0.992,-2.525 -0.037,-1.935 -1.61,-3.495 -3.515,-3.495 h -0.039 c -0.917,0.01 -1.787,0.391 -2.449,1.073 -0.663,0.677 -1.036,1.596 -1.022,2.517 0.027,1.9 1.641,3.491 3.533,3.491 m -8.017,-5.177 c 1.155,-0.01 2,-1.362 2.093,-1.515 1.682,-2.785 4.578,-4.04 7.546,-3.27 3.022,0.78 5.069,3.358 5.094,6.415 0.024,2.901 -2.041,5.599 -4.908,6.417 -2.965,0.839 -6.001,-0.401 -7.559,-3.084 -0.718,-1.236 -1.63,-1.764 -3.045,-1.764 h -0.031 c -5.308,0.031 -10.624,0.029 -15.923,0.027 h -6.826 c -0.389,0 -0.777,0.026 -1.195,0.054 l -1.491,0.09 v 11.997 l 3.627,-0.008 c 2.195,-0.004 4.353,-0.017 6.513,0.031 1.338,-0.011 2.212,-0.461 2.932,-1.697 1.208,-2.075 3.335,-3.345 5.691,-3.399 2.28,-0.022 4.477,1.097 5.751,3.07 0.981,1.523 1.305,3.319 0.913,5.058 -0.39,1.736 -1.451,3.216 -2.987,4.168 -1.542,0.958 -3.355,1.253 -5.108,0.843 -1.773,-0.42 -3.287,-1.519 -4.258,-3.096 -0.489,-0.792 -1.035,-1.682 -1.942,-1.705 -2.595,-0.076 -5.201,-0.068 -7.821,-0.063 l -3.29,0.004 v 12.13 l 8.388,-0.002 c 5.644,-0.004 11.29,-0.008 16.934,0.023 1.469,0.033 2.463,-0.524 3.209,-1.836 1.472,-2.598 4.523,-3.841 7.417,-3.041 2.979,0.83 5.044,3.503 5.023,6.5 -0.024,2.941 -2.076,5.549 -4.992,6.344 -2.998,0.82 -6.034,-0.437 -7.536,-3.129 C 35.523,46.501 34.655,45.99 33.29,45.99 h -0.031 c -5.237,0.029 -10.477,0.027 -15.713,0.025 l -7.371,0.002 c -0.349,0 -0.701,0.035 -1.093,0.076 l -1.447,0.128 0.002,3.142 c 0.002,1.583 0.004,3.127 -0.004,4.671 -0.023,4.613 -2.686,7.268 -7.306,7.285 -1.62,0.006 -3.234,0.004 -4.833,0.004 l -2.87,-0.002 -0.142,0.828 c -0.651,3.809 -0.734,8.085 3.581,10.931 0.237,0.157 0.472,0.425 0.723,0.709 0.289,0.328 0.617,0.701 1.039,0.998 4.04,2.851 5.595,6.604 4.755,11.469 -0.366,2.115 0.912,3.086 1.905,3.634 2.453,1.347 3.673,4.296 2.97,7.169 -0.682,2.785 -3.135,4.886 -5.965,5.107 -2.812,0.196 -5.582,-1.466 -6.697,-4.107 -1.033,-2.448 -0.775,-5.873 1.74,-7.404 2.968,-1.808 3.03,-4.164 2.842,-6.421 -0.014,-0.169 0,-0.345 0.01,-0.522 0.021,-0.399 0.046,-0.852 -0.092,-1.325 l -0.081,-0.28 c -0.243,-0.86 -0.521,-1.836 -1.195,-2.554 -2.167,-2.311 -4.517,-4.756 -7.003,-6.972 -1.515,-1.352 -2.088,-2.763 -1.911,-4.716 0.114,-1.288 0.087,-2.579 0.058,-3.83 -0.012,-0.546 -0.024,-1.09 -0.024,-1.634 v -0.994 h -11.775 l -0.214,0.709 c -0.114,0.324 -0.19,0.534 -0.194,0.802 l -0.008,2.893 c -0.002,1.913 -0.006,3.828 -0.039,5.74 -0.023,1.345 0.465,2.191 1.63,2.834 2.635,1.455 3.966,4.343 3.307,7.19 -0.693,3.009 -3.272,5.188 -6.271,5.3 -3.104,0.169 -5.826,-1.919 -6.689,-4.944 -0.839,-2.943 0.392,-5.914 3.135,-7.57 1.076,-0.646 1.61,-1.302 1.629,-2.007 0.072,-2.538 0.064,-5.076 0.057,-7.616 l -0.004,-3.303 h -12.217 l -0.009,3.015 c -0.014,1.55 -0.026,3.064 0.028,4.574 0.043,1.167 -0.293,1.997 -1.122,2.768 -0.707,0.654 -1.377,1.352 -2.045,2.051 -1.041,1.082 -2.024,2.105 -3.135,2.971 -3.22,2.51 -4.525,5.674 -3.987,9.675 0.157,1.175 0.336,2.505 2.049,3.463 2.379,1.332 3.612,4.288 2.934,7.028 -0.702,2.838 -3.084,4.92 -5.925,5.18 -2.82,0.253 -5.615,-1.392 -6.736,-4.023 -1.074,-2.522 -0.796,-5.94 1.529,-7.299 3.191,-1.867 3.105,-4.382 3.024,-6.816 -0.02,-0.555 -0.012,-0.944 -0.002,-1.333 0.012,-0.566 0.023,-1.133 -0.022,-1.697 -0.073,-0.984 0.251,-1.732 1.125,-2.581 2.704,-2.628 5.36,-5.306 8.01,-7.99 0.497,-0.507 1.074,-1.189 1.112,-1.987 0.068,-1.458 0.059,-2.919 0.049,-4.43 l -0.007,-2.677 -3.481,0.004 c -1.734,0.004 -3.424,0.01 -5.106,-0.008 -1.733,-0.019 -4.092,-0.528 -5.475,-2.85 -0.651,-1.096 -1.096,-2.605 -1.249,-4.25 -0.155,-1.623 -0.121,-3.312 -0.085,-4.947 0.013,-0.714 0.028,-1.429 0.028,-2.138 v -0.845 l -1.192,-0.2 c -0.251,-0.047 -0.404,-0.069 -0.557,-0.069 l -3.848,-0.003 c -6.804,-0.01 -13.609,-0.018 -20.41,0.044 -1.059,0.012 -2.062,1.002 -2.477,1.665 -1.682,2.692 -4.681,3.902 -7.633,3.088 -2.938,-0.812 -4.923,-3.376 -4.943,-6.38 -0.019,-2.957 1.995,-5.597 4.895,-6.425 2.975,-0.843 6.075,0.408 7.551,3.051 0.876,1.566 2.057,1.791 3.207,1.791 h 0.032 c 5.705,-0.025 11.409,-0.019 17.11,-0.019 l 8.137,0.002 V 30.992 l -1.054,-0.204 c -0.167,-0.037 -0.342,-0.078 -0.55,-0.08 l -2.651,0.002 c -1.878,0 -3.76,0.008 -5.64,-0.038 -1.546,-0.049 -2.434,0.481 -3.209,1.804 -1.386,2.352 -3.474,3.461 -6.16,3.253 -2.642,-0.19 -4.549,-1.505 -5.67,-3.91 -1.478,-3.179 -0.231,-6.855 2.9,-8.551 3.191,-1.731 7.058,-0.678 8.992,2.437 0.507,0.826 1.039,1.692 1.929,1.719 2.601,0.076 5.209,0.068 7.843,0.062 l 3.308,-0.004 V 15.627 l -1.226,-0.173 c -0.299,-0.05 -0.566,-0.089 -0.832,-0.089 h -7.009 c -5.566,-0.002 -11.156,0.002 -16.734,-0.037 h -0.021 c -1.589,0 -2.178,0.992 -2.609,1.717 -1.656,2.773 -4.708,4.001 -7.648,3.139 -2.896,-0.841 -4.91,-3.491 -4.9,-6.441 0.009,-2.944 2.05,-5.562 4.962,-6.364 3.022,-0.841 6.052,0.409 7.538,3.098 0.841,1.522 2.012,1.711 3.096,1.724 5.187,-0.021 10.377,-0.021 15.565,-0.021 h 7.186 c 0.376,-0.002 0.749,-0.028 1.169,-0.057 L -57,12.026 -57.002,8.892 c -0.002,-1.597 -0.002,-3.151 0.004,-4.705 0.019,-4.627 2.673,-7.292 7.28,-7.312 1.6,-0.008 3.2,-0.004 4.789,-0.004 l 2.968,0.002 0.126,-0.847 c 0.849,-5.648 0.478,-6.84 -3.31,-10.633 -0.196,-0.197 -0.386,-0.405 -0.576,-0.61 -0.47,-0.511 -0.958,-1.039 -1.564,-1.47 -3.958,-2.819 -5.483,-6.474 -4.659,-11.178 0.398,-2.263 -0.962,-3.31 -2.018,-3.9 -2.426,-1.353 -3.589,-4.319 -2.828,-7.212 0.728,-2.771 3.216,-4.828 6.052,-4.999 2.836,-0.174 5.535,1.525 6.623,4.225 1.002,2.491 0.574,5.932 -1.874,7.372 -2.791,1.644 -2.89,3.846 -2.753,5.959 0.014,0.22 0.002,0.441 -0.009,0.664 -0.021,0.457 -0.045,0.976 0.089,1.504 0.252,0.99 0.536,2.107 1.263,2.876 2.315,2.447 4.826,4.957 7.673,7.666 0.929,0.884 1.302,1.799 1.247,3.061 -0.064,1.515 -0.05,3.03 -0.035,4.529 l 0.012,2.859 h 11.989 l 0.15,-1.105 c 0.03,-0.206 0.05,-0.36 0.05,-0.513 l 0.002,-2.556 c -0.002,-1.907 -0.004,-3.816 0.045,-5.721 0.035,-1.481 -0.492,-2.407 -1.764,-3.104 -2.562,-1.404 -3.857,-4.382 -3.148,-7.239 0.742,-2.992 3.36,-5.125 6.363,-5.184 3.008,-0.139 5.704,1.968 6.563,4.93 0.842,2.898 -0.409,5.943 -3.112,7.574 -1.103,0.662 -1.628,1.298 -1.647,1.995 -0.072,2.527 -0.064,5.054 -0.056,7.612 l 0.004,3.378 h 12.214 v -0.995 c 0,-0.602 0.014,-1.195 0.025,-1.778 0.03,-1.338 0.058,-2.602 -0.062,-3.895 -0.175,-1.886 0.396,-3.237 1.911,-4.518 0.704,-0.597 1.334,-1.263 1.946,-1.905 0.729,-0.77 1.416,-1.496 2.195,-2.082 3.514,-2.65 4.931,-6.12 4.215,-10.32 l 0.023,-0.221 -0.163,-0.38 c -0.101,-0.169 -0.181,-0.346 -0.262,-0.523 -0.261,-0.561 -0.556,-1.198 -1.173,-1.577 -2.257,-1.386 -3.417,-3.25 -3.543,-5.695 -0.165,-3.255 2.158,-6.111 5.528,-6.793 2.95,-0.61 6.193,1.179 7.355,4.055 1.26,3.115 0.128,6.542 -2.692,8.143 -1.416,0.807 -1.989,1.86 -1.913,3.516 0.079,1.752 0.161,3.562 -0.039,5.316 -0.111,0.957 -0.511,1.932 -1.02,2.482 -1.633,1.765 -3.379,3.498 -5.067,5.173 -0.991,0.984 -1.981,1.966 -2.96,2.964 -0.494,0.504 -1.09,1.283 -1.134,2.135 -0.074,1.408 -0.064,2.821 -0.053,4.291 l 0.01,2.674 4.694,-0.012 c 1.397,-0.009 2.793,-0.023 4.186,0.024 3.595,0.116 6.376,2.911 6.471,6.501 0.047,1.756 0.035,3.51 0.023,5.298 L 7.641,12.18 h 5.392 c 7.083,0.009 14.01,0.004 20.939,-0.045" />
    </g>
  </g>
</svg>
