<svg width="7.2358mm" height="1.3644mm" version="1.1" viewBox="0 0 7.2358 1.3644" xmlns="http://www.w3.org/2000/svg">
 <g transform="translate(-79.487 -105.87)">
  <g transform="matrix(.35278 0 0 -.35278 80.572 105.91)">
   <path d="m0 0v-0.806h-1.136v-2.956h-0.805v2.956h-1.136v0.806z" fill="#231f20"/>
  </g>
  <g transform="matrix(.35278 0 0 -.35278 81.517 105.91)">
   <path d="m0 0h2.793v-0.806h-1.988v-0.673h1.183v-0.804h-1.183v-0.674h1.988v-0.805h-2.793z" fill="#231f20"/>
  </g>
  <g transform="matrix(.35278 0 0 -.35278 84.532 106.72)">
   <path d="m0 0 0.584-0.584-0.294-0.295c-0.183-0.185-0.391-0.328-0.623-0.426-0.233-0.098-0.481-0.146-0.745-0.142-0.267 0-0.517 0.051-0.75 0.152-0.233 0.103-0.437 0.24-0.612 0.416-0.176 0.176-0.314 0.38-0.416 0.612-0.102 0.234-0.153 0.484-0.153 0.75 0 0.267 0.051 0.518 0.153 0.752 0.102 0.236 0.24 0.441 0.416 0.617 0.175 0.174 0.379 0.313 0.612 0.415 0.233 0.101 0.483 0.153 0.75 0.153 0.26 0 0.508-0.05 0.745-0.148 0.236-0.098 0.444-0.239 0.623-0.42l0.294-0.29-0.584-0.584-0.294 0.29c-0.105 0.108-0.226 0.189-0.36 0.241-0.135 0.053-0.277 0.081-0.424 0.085-0.151 0-0.294-0.03-0.429-0.087-0.135-0.059-0.252-0.138-0.352-0.239-0.1-0.102-0.179-0.221-0.237-0.356-0.057-0.135-0.087-0.277-0.087-0.429 0-0.151 0.03-0.294 0.087-0.428 0.058-0.135 0.137-0.253 0.237-0.353 0.1-0.099 0.217-0.179 0.352-0.237s0.278-0.086 0.429-0.086 0.293 0.027 0.427 0.084c0.132 0.057 0.252 0.137 0.357 0.242z" fill="#231f20"/>
  </g>
  <g transform="matrix(.35278 0 0 -.35278 85.941 106.69)">
   <path d="m0 0v-1.557h-0.806v3.762h0.806v-1.558h1.409v1.558h0.806v-3.762h-0.806v1.557z" fill="#231f20"/>
  </g>
 </g>
</svg>
