<svg width="51.789mm" height="51.569mm" version="1.1" viewBox="0 0 51.789 51.569" xmlns="http://www.w3.org/2000/svg">
 <g transform="translate(-91.154 -46.479)">
  <g transform="matrix(.35278 0 0 -.35278 112.62 77.495)">
   <path d="m0 0c8e-3 2.798 1.129 5.479 3.118 7.447 1.987 1.969 4.678 3.066 7.476 3.047h3.972c2.793 0.017 5.477-1.082 7.457-3.052s3.092-4.649 3.088-7.442v-1.312h-25.111zm-1.057-3.561h27.273c0.295-0.012 0.582 0.094 0.798 0.295 0.215 0.203 0.34 0.482 0.346 0.777v2.489c4e-3 3.389-1.345 6.64-3.747 9.032-2.401 2.392-5.657 3.728-9.047 3.71h-3.972c-3.394 0.02-6.656-1.314-9.067-3.705-2.409-2.391-3.768-5.643-3.776-9.037v-2.489c0-0.622 0.571-1.072 1.192-1.072"/>
  </g>
  <g transform="matrix(.35278 0 0 -.35278 117.07 66.57)">
   <path d="m0 0c3.708 0 6.714-3.006 6.714-6.714 0-3.707-3.006-6.714-6.714-6.714s-6.713 3.007-6.713 6.714c3e-3 3.706 3.006 6.709 6.713 6.714m0-15.677c4.95 0 8.963 4.014 8.963 8.963 0 4.95-4.013 8.962-8.963 8.962s-8.962-4.012-8.962-8.962c5e-3 -4.947 4.015-8.957 8.962-8.963"/>
  </g>
  <g transform="matrix(.35278 0 0 -.35278 125.76 82.528)">
   <path d="m0 0-18.552-4e-3 -15.946 2e-3c-4.878 2e-3 -9.761 0-14.644 8e-3 -3.552 8e-3 -4.752 1.194-4.754 4.708-4e-3 16.324-4e-3 32.648 0 48.973 0 3.199 1.29 4.505 4.449 4.507 16.433 6e-3 32.87 6e-3 49.305-2e-3 3.446-2e-3 4.667-1.213 4.667-4.629 0.01-16.379 8e-3 -32.76 4e-3 -49.14 0-3.139-1.313-4.421-4.529-4.423m-21.121-22.005v-2e-3c-0.025-1.901-1.614-3.461-3.543-3.474h-0.025c-1.921 0-3.516 1.536-3.558 3.433-0.02 0.935 0.369 1.866 1.068 2.56 0.703 0.697 1.662 1.054 2.591 1.054 1.901-0.057 3.488-1.693 3.467-3.571m-6.005 99.64c-0.713 0.678-1.121 1.599-1.12 2.532 2e-3 1.897 1.578 3.473 3.51 3.512h0.066c1.903 0 3.486-1.512 3.547-3.402 0.06-1.874-1.49-3.542-3.386-3.643-0.056-4e-3 -0.11-4e-3 -0.167-4e-3 -0.889 0-1.775 0.359-2.45 1.005m30.616-112.48c0.667-0.683 1.039-1.598 1.026-2.511-0.029-1.898-1.653-3.483-3.553-3.483h-0.044c-0.948 0.014-1.834 0.4-2.496 1.088-0.656 0.682-1.004 1.571-0.981 2.505 0.049 1.946 1.741 3.514 3.586 3.488 0.903-0.01 1.8-0.405 2.462-1.087m-50.291-2.405c0.027-1.917-1.512-3.524-3.428-3.585-0.035 0-0.07-2e-3 -0.105-2e-3 -1.845 0-3.458 1.521-3.547 3.372-0.046 0.934 0.313 1.876 0.989 2.587 0.682 0.717 1.616 1.126 2.562 1.126 1.919 0 3.501-1.569 3.529-3.498m-44.562 47.472h-0.053c-0.924 0.013-1.794 0.396-2.447 1.072-0.664 0.687-1.02 1.591-1.002 2.539 0.017 0.928 0.419 1.835 1.103 2.489 0.683 0.656 1.581 0.98 2.484 0.988 0.928-0.02 1.804-0.413 2.465-1.102 0.66-0.691 1.01-1.583 0.988-2.512-0.046-1.895-1.66-3.474-3.538-3.474m18.897 18.69c-0.048-0.935-0.481-1.832-1.188-2.463-0.653-0.585-1.469-0.901-2.317-0.901-0.065 0-0.131 2e-3 -0.195 6e-3 -1.909 0.106-3.434 1.814-3.327 3.729 0.051 0.92 0.492 1.814 1.208 2.455 0.703 0.625 1.645 0.953 2.502 0.906 1.93-0.11 3.418-1.784 3.317-3.73zm-18.901 11.98h-0.016c-0.934 5e-3 -1.806 0.373-2.459 1.037-0.662 0.675-1.021 1.575-1.01 2.532 0.012 0.952 0.398 1.844 1.086 2.514 0.674 0.654 1.618 1.023 2.465 0.992h2e-3c1.911-0.033 3.502-1.674 3.474-3.585-0.029-1.929-1.617-3.49-3.542-3.49m38.473 52.183c-0.68 0.719-1.039 1.668-0.989 2.609 0.105 1.881 1.764 3.361 3.671 3.349 1.899-0.065 3.461-1.719 3.411-3.61-0.053-1.884-1.678-3.477-3.551-3.477-0.938 2e-3 -1.864 0.414-2.542 1.129m50.329 2.418c0 1.919 1.559 3.506 3.478 3.534h0.052c1.869 0 3.489-1.553 3.551-3.42 0.029-0.941-0.348-1.881-1.036-2.581-0.677-0.687-1.592-1.08-2.519-1.08h-0.05c-1.917 0.031-3.476 1.622-3.476 3.547m44.492-47.52c0.87 0.027 1.796-0.327 2.474-0.981 0.692-0.666 1.08-1.559 1.096-2.514 0.015-0.947-0.34-1.844-1-2.526-0.655-0.672-1.529-1.051-2.463-1.062h-0.045c-0.919 0-1.791 0.357-2.459 1.011-0.68 0.662-1.06 1.542-1.07 2.475-0.023 1.909 1.563 3.556 3.467 3.597m-15.268-15.325c1.911-0.029 3.498-1.679 3.469-3.604-0.014-0.925-0.416-1.835-1.1-2.498-0.668-0.647-1.524-1-2.418-1h-0.058c-1.934 0.031-3.484 1.647-3.455 3.602 0.033 1.956 1.699 3.473 3.562 3.5m15.33-15.338h0.033c0.938-0.01 1.814-0.387 2.467-1.061 0.658-0.678 1.01-1.575 0.992-2.525-0.037-1.935-1.61-3.495-3.515-3.495h-0.039c-0.917 0.01-1.787 0.391-2.449 1.073-0.663 0.677-1.036 1.596-1.022 2.517 0.027 1.9 1.641 3.491 3.533 3.491m-8.017-5.177c1.155-0.01 2-1.362 2.093-1.515 1.682-2.785 4.578-4.04 7.546-3.27 3.022 0.78 5.069 3.358 5.094 6.415 0.024 2.901-2.041 5.599-4.908 6.417-2.965 0.839-6.001-0.401-7.559-3.084-0.718-1.236-1.63-1.764-3.045-1.764h-0.031c-5.308 0.031-10.624 0.029-15.923 0.027h-6.826c-0.389 0-0.777 0.026-1.195 0.054l-1.491 0.09v11.997l3.627-8e-3c2.195-4e-3 4.353-0.017 6.513 0.031 1.338-0.011 2.212-0.461 2.932-1.697 1.208-2.075 3.335-3.345 5.691-3.399 2.28-0.022 4.477 1.097 5.751 3.07 0.981 1.523 1.305 3.319 0.913 5.058-0.39 1.736-1.451 3.216-2.987 4.168-1.542 0.958-3.355 1.253-5.108 0.843-1.773-0.42-3.287-1.519-4.258-3.096-0.489-0.792-1.035-1.682-1.942-1.705-2.595-0.076-5.201-0.068-7.821-0.063l-3.29 4e-3v12.13l8.388-2e-3c5.644-4e-3 11.29-8e-3 16.934 0.023 1.469 0.033 2.463-0.524 3.209-1.836 1.472-2.598 4.523-3.841 7.417-3.041 2.979 0.83 5.044 3.503 5.023 6.5-0.024 2.941-2.076 5.549-4.992 6.344-2.998 0.82-6.034-0.437-7.536-3.129-0.668-1.196-1.536-1.707-2.901-1.707h-0.031c-5.237 0.029-10.477 0.027-15.713 0.025l-7.371 2e-3c-0.349 0-0.701 0.035-1.093 0.076l-1.447 0.128 2e-3 3.142c2e-3 1.583 4e-3 3.127-4e-3 4.671-0.023 4.613-2.686 7.268-7.306 7.285-1.62 6e-3 -3.234 4e-3 -4.833 4e-3l-2.87-2e-3 -0.142 0.828c-0.651 3.809-0.734 8.085 3.581 10.931 0.237 0.157 0.472 0.425 0.723 0.709 0.289 0.328 0.617 0.701 1.039 0.998 4.04 2.851 5.595 6.604 4.755 11.469-0.366 2.115 0.912 3.086 1.905 3.634 2.453 1.347 3.673 4.296 2.97 7.169-0.682 2.785-3.135 4.886-5.965 5.107-2.812 0.196-5.582-1.466-6.697-4.107-1.033-2.448-0.775-5.873 1.74-7.404 2.968-1.808 3.03-4.164 2.842-6.421-0.014-0.169 0-0.345 0.01-0.522 0.021-0.399 0.046-0.852-0.092-1.325l-0.081-0.28c-0.243-0.86-0.521-1.836-1.195-2.554-2.167-2.311-4.517-4.756-7.003-6.972-1.515-1.352-2.088-2.763-1.911-4.716 0.114-1.288 0.087-2.579 0.058-3.83-0.012-0.546-0.024-1.09-0.024-1.634v-0.994h-11.775l-0.214 0.709c-0.114 0.324-0.19 0.534-0.194 0.802l-8e-3 2.893c-2e-3 1.913-6e-3 3.828-0.039 5.74-0.023 1.345 0.465 2.191 1.63 2.834 2.635 1.455 3.966 4.343 3.307 7.19-0.693 3.009-3.272 5.188-6.271 5.3-3.104 0.169-5.826-1.919-6.689-4.944-0.839-2.943 0.392-5.914 3.135-7.57 1.076-0.646 1.61-1.302 1.629-2.007 0.072-2.538 0.064-5.076 0.057-7.616l-4e-3 -3.303h-12.217l-9e-3 3.015c-0.014 1.55-0.026 3.064 0.028 4.574 0.043 1.167-0.293 1.997-1.122 2.768-0.707 0.654-1.377 1.352-2.045 2.051-1.041 1.082-2.024 2.105-3.135 2.971-3.22 2.51-4.525 5.674-3.987 9.675 0.157 1.175 0.336 2.505 2.049 3.463 2.379 1.332 3.612 4.288 2.934 7.028-0.702 2.838-3.084 4.92-5.925 5.18-2.82 0.253-5.615-1.392-6.736-4.023-1.074-2.522-0.796-5.94 1.529-7.299 3.191-1.867 3.105-4.382 3.024-6.816-0.02-0.555-0.012-0.944-2e-3 -1.333 0.012-0.566 0.023-1.133-0.022-1.697-0.073-0.984 0.251-1.732 1.125-2.581 2.704-2.628 5.36-5.306 8.01-7.99 0.497-0.507 1.074-1.189 1.112-1.987 0.068-1.458 0.059-2.919 0.049-4.43l-7e-3 -2.677-3.481 4e-3c-1.734 4e-3 -3.424 0.01-5.106-8e-3 -1.733-0.019-4.092-0.528-5.475-2.85-0.651-1.096-1.096-2.605-1.249-4.25-0.155-1.623-0.121-3.312-0.085-4.947 0.013-0.714 0.028-1.429 0.028-2.138v-0.845l-1.192-0.2c-0.251-0.047-0.404-0.069-0.557-0.069l-3.848-3e-3c-6.804-0.01-13.609-0.018-20.41 0.044-1.059 0.012-2.062 1.002-2.477 1.665-1.682 2.692-4.681 3.902-7.633 3.088-2.938-0.812-4.923-3.376-4.943-6.38-0.019-2.957 1.995-5.597 4.895-6.425 2.975-0.843 6.075 0.408 7.551 3.051 0.876 1.566 2.057 1.791 3.207 1.791h0.032c5.705-0.025 11.409-0.019 17.11-0.019l8.137 2e-3v-11.846l-1.054-0.204c-0.167-0.037-0.342-0.078-0.55-0.08l-2.651 2e-3c-1.878 0-3.76 8e-3 -5.64-0.038-1.546-0.049-2.434 0.481-3.209 1.804-1.386 2.352-3.474 3.461-6.16 3.253-2.642-0.19-4.549-1.505-5.67-3.91-1.478-3.179-0.231-6.855 2.9-8.551 3.191-1.731 7.058-0.678 8.992 2.437 0.507 0.826 1.039 1.692 1.929 1.719 2.601 0.076 5.209 0.068 7.843 0.062l3.308-4e-3v-11.855l-1.226-0.173c-0.299-0.05-0.566-0.089-0.832-0.089h-7.009c-5.566-2e-3 -11.156 2e-3 -16.734-0.037h-0.021c-1.589 0-2.178 0.992-2.609 1.717-1.656 2.773-4.708 4.001-7.648 3.139-2.896-0.841-4.91-3.491-4.9-6.441 9e-3 -2.944 2.05-5.562 4.962-6.364 3.022-0.841 6.052 0.409 7.538 3.098 0.841 1.522 2.012 1.711 3.096 1.724 5.187-0.021 10.377-0.021 15.565-0.021h7.186c0.376-2e-3 0.749-0.028 1.169-0.057l1.567-0.097-2e-3 -3.134c-2e-3 -1.597-2e-3 -3.151 4e-3 -4.705 0.019-4.627 2.673-7.292 7.28-7.312 1.6-8e-3 3.2-4e-3 4.789-4e-3l2.968 2e-3 0.126-0.847c0.849-5.648 0.478-6.84-3.31-10.633-0.196-0.197-0.386-0.405-0.576-0.61-0.47-0.511-0.958-1.039-1.564-1.47-3.958-2.819-5.483-6.474-4.659-11.178 0.398-2.263-0.962-3.31-2.018-3.9-2.426-1.353-3.589-4.319-2.828-7.212 0.728-2.771 3.216-4.828 6.052-4.999 2.836-0.174 5.535 1.525 6.623 4.225 1.002 2.491 0.574 5.932-1.874 7.372-2.791 1.644-2.89 3.846-2.753 5.959 0.014 0.22 2e-3 0.441-9e-3 0.664-0.021 0.457-0.045 0.976 0.089 1.504 0.252 0.99 0.536 2.107 1.263 2.876 2.315 2.447 4.826 4.957 7.673 7.666 0.929 0.884 1.302 1.799 1.247 3.061-0.064 1.515-0.05 3.03-0.035 4.529l0.012 2.859h11.989l0.15-1.105c0.03-0.206 0.05-0.36 0.05-0.513l2e-3 -2.556c-2e-3 -1.907-4e-3 -3.816 0.045-5.721 0.035-1.481-0.492-2.407-1.764-3.104-2.562-1.404-3.857-4.382-3.148-7.239 0.742-2.992 3.36-5.125 6.363-5.184 3.008-0.139 5.704 1.968 6.563 4.93 0.842 2.898-0.409 5.943-3.112 7.574-1.103 0.662-1.628 1.298-1.647 1.995-0.072 2.527-0.064 5.054-0.056 7.612l4e-3 3.378h12.214v-0.995c0-0.602 0.014-1.195 0.025-1.778 0.03-1.338 0.058-2.602-0.062-3.895-0.175-1.886 0.396-3.237 1.911-4.518 0.704-0.597 1.334-1.263 1.946-1.905 0.729-0.77 1.416-1.496 2.195-2.082 3.514-2.65 4.931-6.12 4.215-10.32l0.023-0.221-0.163-0.38c-0.101-0.169-0.181-0.346-0.262-0.523-0.261-0.561-0.556-1.198-1.173-1.577-2.257-1.386-3.417-3.25-3.543-5.695-0.165-3.255 2.158-6.111 5.528-6.793 2.95-0.61 6.193 1.179 7.355 4.055 1.26 3.115 0.128 6.542-2.692 8.143-1.416 0.807-1.989 1.86-1.913 3.516 0.079 1.752 0.161 3.562-0.039 5.316-0.111 0.957-0.511 1.932-1.02 2.482-1.633 1.765-3.379 3.498-5.067 5.173-0.991 0.984-1.981 1.966-2.96 2.964-0.494 0.504-1.09 1.283-1.134 2.135-0.074 1.408-0.064 2.821-0.053 4.291l0.01 2.674 4.694-0.012c1.397-9e-3 2.793-0.023 4.186 0.024 3.595 0.116 6.376 2.911 6.471 6.501 0.047 1.756 0.035 3.51 0.023 5.298l-0.011 3.496h5.392c7.083 9e-3 14.01 4e-3 20.939-0.045"/>
  </g>
 </g>
</svg>
