<svg xmlns="http://www.w3.org/2000/svg" width="72.202" height="60.464" viewBox="0 0 72.202 60.464"><g transform="translate(-385.159 -4022.243)"><path d="M435.252,4040.976c.2,2.135,1.561,6.548,4.018,7.036a.818.818,0,0,0,.545-.077c3.985,2.248,14.522,1.881,15.435-2.922a11.6,11.6,0,0,0,2-8.231c-.744-4.838-4.057-8.54-8.135-11.012-4.676-2.833-10.8-3.037-16.107-3.255-6.684-.273-13.374.186-20.06-.145-7.257-.356-15.207-.249-20.841,4.23-.044-.02-.088-.036-.132-.056-.165-.074-.381.144-.212.275.013.011.028.018.041.029a16.372,16.372,0,0,0-3.321,3.8,22.016,22.016,0,0,0-3.3,10.934,9.754,9.754,0,0,0,.33,2.731c-.09.029-.179.058-.266.092-.131.053-.123.26.035.258.11,0,.22-.007.331-.017.428,1.311,1.214,2.409,2.518,2.551a.413.413,0,0,0,.106.4c2.917,3.067,11.094,4,14.086.548a1.216,1.216,0,0,0,.233-.421c3.006-2.642,3.4-8.2.854-11.259-.282-.339-.933.024-.759.442a8.872,8.872,0,0,1,.471,1.549c-2.106-.407-4.764.493-6.646,1.4-.071.033-.017.132.051.118,1.085-.207,2.142-.514,3.221-.753,1.125-.247,2.286-.235,3.4-.5.011,0,.016-.013.025-.017a9.9,9.9,0,0,1-.357,5.18c-.524.135-1.048.319-1.57.41a12.655,12.655,0,0,1-3.416.179.066.066,0,0,0-.018.128,11.289,11.289,0,0,0,4.649.056,5.269,5.269,0,0,1-1.1,1.431,1.306,1.306,0,0,0-.214.055c-.222.077-.439.156-.652.233-.011,0-.016-.01-.029-.009-1.3.081-2.835.364-3.947-.524-.021-.017-.052.011-.031.031a3.928,3.928,0,0,0,2.772.961,12.506,12.506,0,0,1-3.914.907,22.768,22.768,0,0,1-6.332-.768.1.1,0,0,0-.009-.018c-.059-.074-.111-.152-.166-.227a5.5,5.5,0,0,0,2.392-.85c.028-.015,0-.057-.023-.04a3.576,3.576,0,0,1-2.535.661,7.7,7.7,0,0,1-1.036-2.31c.091-.025.182-.051.272-.074a11.7,11.7,0,0,0,2.343-.861c.05-.026.006-.1-.045-.075a12.445,12.445,0,0,1-2.362.707c-.089.019-.181.036-.272.052a10.633,10.633,0,0,1-.242-3.061c1.3,0,2.633-.168,3.9-.215.091,0,.091-.172,0-.175-1.256-.047-2.571-.211-3.856-.215a15.909,15.909,0,0,1,.461-2.463c1.557.661,3.564.089,5.059-.432.132-.045.078-.25-.058-.209a12.9,12.9,0,0,1-2.711.536,5.3,5.3,0,0,1-2.158-.371,20.564,20.564,0,0,1,.883-2.408c1.825.938,4.233.563,6.041-.219.09-.039.025-.194-.067-.16a8.715,8.715,0,0,1-3.357.571,5.294,5.294,0,0,1-2.373-.732,21.852,21.852,0,0,1,1.76-3.085,9.5,9.5,0,0,0,6.337-.575c.068-.03.019-.146-.05-.12a9.835,9.835,0,0,1-5.914.17q.148-.2.3-.4a12.892,12.892,0,0,1,2.5-2.435c2.651.753,5.831.222,8.415.148a.066.066,0,0,0,0-.131,36.082,36.082,0,0,1-7.732-.495c5.153-3.349,12.3-3.049,18.226-2.772,10.091.471,20.236-.665,30.23,1.223a15.431,15.431,0,0,1,6.234,2.745c-1.362.386-2.667.952-4.047,1.282-.083.02-.047.142.034.126,1.477-.283,2.88-.831,4.348-1.15a15.075,15.075,0,0,1,2.276,2.185,8.977,8.977,0,0,1-.954.46,6.374,6.374,0,0,1-3.045.337c-.1-.012-.12.156-.023.171a7.539,7.539,0,0,0,4.334-.583,12.878,12.878,0,0,1,1.524,2.466c-1.515.351-3.034.874-4.538,1.251-.111.028-.061.184.047.168a19.16,19.16,0,0,0,4.712-.932,10.616,10.616,0,0,1,.615,2.034.106.106,0,0,0-.067-.018,15.488,15.488,0,0,0-2.59.794,13.528,13.528,0,0,1-3.354.636.044.044,0,0,0,0,.087,12.866,12.866,0,0,0,6.021-1.232c.017-.01.023-.027.033-.04a9.458,9.458,0,0,1,.127,1.9c-.56.133-1.118.287-1.687.384a15.721,15.721,0,0,1-3.833.154c-.123-.009-.151.194-.03.214a12.908,12.908,0,0,0,5.5-.1,8.934,8.934,0,0,1-.43,1.952,30.329,30.329,0,0,1-5.7.6.087.087,0,0,0,0,.174,23.468,23.468,0,0,0,5.481-.206,10.152,10.152,0,0,1-1.393,2.346c-.23.061-.461.118-.694.163a11.805,11.805,0,0,1-3.724.121c-.147-.017-.18.233-.034.257a14.117,14.117,0,0,0,3.9.1c-.267.293-.548.585-.86.869a.826.826,0,0,0-.144.187c-.967.159-1.923.356-2.886.527-.214.006-.427.013-.641.016a.141.141,0,0,0-.141.114c-.63.1-1.265.18-1.912.222a27.488,27.488,0,0,1-3.818-.043c-.04,0-.087,0-.132-.006a3.848,3.848,0,0,1,1.682-.03c.136.025.2-.174.058-.209a4.268,4.268,0,0,0-2.87.191,3.692,3.692,0,0,1-.6-.09,4.072,4.072,0,0,0-.47-.665,6.026,6.026,0,0,0,3.284-1.283c.038-.03-.012-.093-.053-.068a5.4,5.4,0,0,1-2.565.8,4.645,4.645,0,0,1-1.249-.153c-.019-.025-.038-.047-.057-.073a8.441,8.441,0,0,1-.9-1.551,13.1,13.1,0,0,0,3.507-.512.131.131,0,0,0-.07-.252,12.422,12.422,0,0,1-3.605.361c-.157-.382-.3-.769-.425-1.159a8.121,8.121,0,0,1-.275-1.151,11.036,11.036,0,0,0,5.012-.194c.056-.011.031-.093-.024-.085a10.494,10.494,0,0,1-5.035-.043,6.95,6.95,0,0,1,.12-2.376,17.382,17.382,0,0,0,5.594-.49c.028-.005.015-.045-.012-.042a21.736,21.736,0,0,1-3.05.194c-.8.005-1.634-.1-2.437-.032a7.725,7.725,0,0,1,.572-1.446,5.473,5.473,0,0,0,4.943-.308c.043-.023.012-.1-.034-.08a5.344,5.344,0,0,1-4.676-.033c.138-.236.293-.468.456-.7a7.06,7.06,0,0,0,4.272.261c.2-.043.108-.321-.081-.295a7.4,7.4,0,0,1-2.484-.083,5.886,5.886,0,0,1-1.051-.354.484.484,0,0,0,.107-.339,3.2,3.2,0,0,0-2.6-2.606,8.068,8.068,0,0,0-.481-1.127c-.039-.076-.147-.009-.112.066a5.638,5.638,0,0,1,.332.986,17.3,17.3,0,0,0-2.282-.406c-.3-1.116-.85-2.227-1.106-3.307-.059-.249-.427-.142-.38.1a27.7,27.7,0,0,0,.77,3.116,36.153,36.153,0,0,0-4.9-.24c-.064-.136-.129-.271-.192-.407-.407-.88-.833-1.749-1.3-2.6-.1-.176-.341-.021-.264.154.338.77.641,1.551.934,2.338.064.173.124.351.183.531-1.554.048-3.107.173-4.651.354-.047-.056-.094-.111-.135-.165-.48-.621-.941-1.256-1.42-1.876-.056-.072-.17.007-.147.085a8.805,8.805,0,0,0,.95,2.047c-1.706.214-3.431.472-5.146.791a10.8,10.8,0,0,1-.751-1.61c-.116-.31-.61-.186-.505.139a11.535,11.535,0,0,0,.64,1.589c-1.322.257-2.634.551-3.92.886a10.494,10.494,0,0,1-.9-2.6c-.054-.251-.417-.14-.379.1a13.38,13.38,0,0,0,.694,2.644c-.816.217-1.683.39-2.566.557-.284-.315-.575-.626-.819-.943-.585-.762-1.115-1.567-1.648-2.365a.109.109,0,0,0-.189.11c.5.938,1.01,1.871,1.574,2.774.111.176.23.367.358.561-.575.108-1.151.22-1.721.344a4.654,4.654,0,0,0-1.609-1.971,1.4,1.4,0,0,0-1.856.172c-.058.05.016.137.079.1a1.461,1.461,0,0,1,1.911.376c.4.408.622,1,.989,1.43a13.986,13.986,0,0,0-3.7,1.333.161.161,0,0,0,0,.277c2.288.978,4.984.353,7.376.166.164-.013.327-.032.491-.046.146,1.879-.246,3.893-.164,5.706a1.542,1.542,0,0,0,.059.346,22,22,0,0,0-4.044.546,3.991,3.991,0,0,0-.255-.577.081.081,0,0,0-.127-.014,7.472,7.472,0,0,0-.669.9c-.059.021-.119.037-.176.058-.039.014-.059.076-.012.1l.074.031c-1.036,1.683-1.609,3.767-2.471,5.509-1.527,3.093-3.5,5.936-5.286,8.877-.766,1.262-6.381,9.357-5.77,12.305a25.175,25.175,0,0,0-.528,2.992,29.8,29.8,0,0,0-.355,4.265h0a.28.28,0,0,0,.035.542,6.078,6.078,0,0,0,.407,1.8.332.332,0,0,0,.227.208c.168.917.574,1.754,1.509,1.377,3.658,2.207,8.673,1.384,12.824,1.255,4.725-.148,9.433-.5,14.154-.721,9.6-.449,19.2-.88,28.8-.962a1.513,1.513,0,0,0,1.458-.956.319.319,0,0,0,.361-.128,4.229,4.229,0,0,0,.251-.427,3.045,3.045,0,0,0,.645-1.61c.995-3.125,1.578-8.3-.182-10.484-.315-2.033-1.809-4.016-2.869-5.677a86.371,86.371,0,0,0-5.3-7.135c-3.486-4.386-7.594-8.746-10.083-13.812a.564.564,0,0,0-1.046.282c.031.376.068.73.11,1.076a1.094,1.094,0,0,0-1.077-.685c-.995.012-1.987.04-2.98.077.155-.936.253-1.883.346-2.829.127-1.3.414-2.705.445-4.051.55-.01,1.1-.014,1.647,0a21.706,21.706,0,0,1,5.03.688c.242.062.468.117.689.161a.211.211,0,0,0,.068.2c.016.016.033.028.048.043A7.614,7.614,0,0,0,435.252,4040.976Zm-11.509-6.223c-.14,2.027-.241,4.036-.241,6.072a1.362,1.362,0,0,0,.195.721c-1.974.137-3.948.3-5.924.482-.731.067-1.495.1-2.276.125.082-2.134-.424-4.262-.256-6.382,1.27-.154,2.54-.317,3.812-.478a1.5,1.5,0,0,0,.517.2c.148.023.331-.095.269-.268,0-.009-.009-.017-.013-.026.267-.032.531-.068.8-.1C421.661,4034.973,422.7,4034.856,423.743,4034.753Zm-9.33,1.439c0,.02,0,.039,0,.059l-.011-.054Zm-1.276,1.165a6.284,6.284,0,0,0-.27-1.311c.341-.037.679-.078,1.019-.116h0c.215,2.08.313,4.175.593,6.246l-1.276.024a1.587,1.587,0,0,0,.055-.263A24.444,24.444,0,0,0,413.137,4037.357Zm38.069,31.753a7.561,7.561,0,0,1,.14.9c-.039-.3-.09-.6-.148-.891Zm.121,2.582a3.284,3.284,0,0,0,.055-.335c-.006.167-.015.336-.027.5C451.346,4071.8,451.336,4071.747,451.327,4071.692Zm-18.766-29.084a12.729,12.729,0,0,0,.922,3.181c-.446.042-.895.067-1.344.076-.261.006-2.447,0-1.928-.661.018-.023-.011-.055-.032-.033-.5.511-.009.768.54.9a9.45,9.45,0,0,0,2.96.141c.161.337.334.681.537,1.039.427.754.887,1.487,1.366,2.211a8.962,8.962,0,0,0-4.781.912c-.124.07-.015.251.11.188,1.69-.845,3.364-.415,5.093-.471.836,1.222,1.723,2.409,2.611,3.589-.115-.016-.229-.032-.341-.05a27.124,27.124,0,0,1-3.416-.668.153.153,0,0,0-.081.295,22.264,22.264,0,0,0,2.957.716c.443.085.89.2,1.338.313.043.058.087.115.131.173.912,1.214,1.854,2.4,2.788,3.6-.495-.047-1-.056-1.488-.087-1.008-.061-2.01-.216-3.009-.365-.161-.024-.237.21-.068.254,1.54.387,3.392,1.011,5.023.793.817,1.052,1.625,2.111,2.394,3.2.249.352.483.732.709,1.126-1.81-1.262-4.851-1.027-6.8-.729-.122.019-.093.224.029.214a14.991,14.991,0,0,1,3.806.2c1.213.23,2.239.891,3.406,1.2a.286.286,0,0,0,.049,0c.3.571.6,1.157.9,1.733a.631.631,0,0,0,0,.578c-.5-.174-1.037-.289-1.532-.419-1.312-.341-2.646-.535-3.968-.827a.065.065,0,0,0-.034.126,21.913,21.913,0,0,0,3.048,1c1.12.289,2.23.843,3.354,1.071.189.3.385.595.594.872a11.354,11.354,0,0,1,.991,4.1,16.04,16.04,0,0,0-8.63-2.64.153.153,0,0,0,0,.306,15.513,15.513,0,0,1,4.649.978c1.332.475,2.545,1.261,3.9,1.657a.144.144,0,0,0,.09,0v.016a.719.719,0,0,0,.05.419c.037.641.056,1.26.075,1.819.006.173,0,.356,0,.547-3.011-.12-6.1.121-9.085.159a.2.2,0,0,0,0,.394c2.972.036,6.048.276,9.047.161a12.729,12.729,0,0,0-.032,1.562,1.857,1.857,0,0,0-.334-.034c-9.605-.053-19.2.243-28.8.555-4.716.153-9.437.173-14.154.3-3.141.081-6.79-.281-9.954.5,1.127-.458,2.292-.82,3.313-1.149a.108.108,0,0,0-.058-.209,34.583,34.583,0,0,0-4.8,1.646c-.132.057-.281.116-.437.181-.078-.9-.131-1.768-.142-2.643a42,42,0,0,0,4.768-2.343c.041-.025.013-.1-.035-.081q-2.367.945-4.735,1.888a22.955,22.955,0,0,1,.182-2.712c.036-.278.081-.558.129-.838.18-.069.34-.13.455-.179a20.393,20.393,0,0,0,3.112-1.541c.257-.17.022-.579-.242-.416a20.734,20.734,0,0,1-3.208,1.492c.111-.583.231-1.169.35-1.758a8,8,0,0,0,.865-1.587c2.012-.764,4-2.085,5.786-2.744.183-.068.108-.359-.08-.3a38.14,38.14,0,0,0-3.637,1.512,16.867,16.867,0,0,1-1.717.664c.134-.339.252-.637.358-.852.629-1.283,1.321-2.534,2.039-3.772,1.332-.339,2.686-.589,4.017-.932.137-.035.079-.24-.059-.211-1.057.236-2.352.368-3.636.59.839-1.424,1.706-2.831,2.555-4.244,1.481-.385,2.957-.8,4.419-1.171.029-.007.017-.051-.013-.045-1.277.283-2.662.407-4.037.59.557-.94,1.081-1.906,1.586-2.882,1.166-.285,2.325-.626,3.489-.84.195-.036.111-.328-.081-.295-1.039.176-2.087.379-3.132.6q.83-1.642,1.562-3.328c.132-.035.259-.069.374-.1,1.177-.35,2.374-.639,3.577-.88.141-.029.078-.23-.058-.211q-1.857.268-3.686.7c.18-.423.366-.845.536-1.271.064-.161.128-.328.193-.5,1.447-.143,2.869-.483,4.318-.767.056-.01.031-.092-.023-.084-1.406.217-2.794.492-4.2.586a13.221,13.221,0,0,0,.787-3.09.151.151,0,0,0,.078.052,7.9,7.9,0,0,0,2.034.037l2.63-.076a.108.108,0,0,0,0-.217q-1.156-.035-2.312-.067a9.207,9.207,0,0,0-2.352.028.134.134,0,0,0-.06.041,6.189,6.189,0,0,0-.018-1.271c3.055.8,6.77.294,9.759.239,4.889-.092,9.775-.383,14.665-.378A1.145,1.145,0,0,0,432.561,4042.608Zm-5.4-1.264c-.312.015-.625.027-.936.044a1.433,1.433,0,0,0,.11-.563c0-2.1-.106-4.178-.254-6.273q.851-.062,1.7-.1C427.336,4036.722,427.462,4039.052,427.16,4041.344Z"/><path d="M409.227,4055.666c-4.093,5.377-.168,13.167,6.039,15.963,8.183,3.686,17.51-3.35,17.874-11.982.285-6.754-7.535-9.94-13.078-10.42a12.894,12.894,0,0,0-8.411,1.874A5.146,5.146,0,0,0,409.227,4055.666Zm2.349,6.658c-.03.153-.5.216-.626.257a1.583,1.583,0,0,0-.5.277c-.048-.1-.1-.211-.14-.317a.161.161,0,0,0,.175-.012,4.365,4.365,0,0,1,.447-.277,4.179,4.179,0,0,0,.411-.193,1.623,1.623,0,0,1,.152-.091.937.937,0,0,1,.124-.061,1.386,1.386,0,0,1,.14-.044c.018-.005.1-.019.121-.024.033,0,.066,0,.1,0l.06,0h0l.011,0c.037.008.072.018.107.029l0,0,.05.025.051.033c.024.022.047.042.069.066l0,0c.009.014.019.027.027.04s.017.029.024.042l0,.006a.779.779,0,0,1,.027.091l.006.022a.139.139,0,0,0,0,.032c0,.021,0,.043,0,.066,0,0-.014.076-.02.094l-.008.034-.006.012a.918.918,0,0,1-.073.124,1.623,1.623,0,0,1-.166.167,1.974,1.974,0,0,1-1.13.344,4.623,4.623,0,0,1,.4-.24c.181-.1.429-.234.424-.474C411.831,4062.215,411.607,4062.175,411.576,4062.324Zm1.718-9.035a10.043,10.043,0,0,1,5.959-1.32c4.042.094,9.6,1.911,10.845,6.235.77,2.667-1.043,5.428-2.658,7.371-2.386,2.869-5.7,4.476-9.42,3.615a11.56,11.56,0,0,1-7.164-5.535,2.7,2.7,0,0,0,1.785-.478,1.17,1.17,0,0,0-.726-2.122,1.915,1.915,0,0,0-.914.247,2.171,2.171,0,0,0-.789.957.2.2,0,0,0-.008.026,8.129,8.129,0,0,1-.393-4.993,4.308,4.308,0,0,0,.273.387.4.4,0,0,0,.63-.08c.033-.08.066-.162.1-.243a.252.252,0,0,0,.041.04.858.858,0,0,0,.12.061.315.315,0,0,0-.086.09,1.731,1.731,0,0,0,.23,1.658.3.3,0,0,0,.461.059c.462-.437,1.188-1.118.838-1.821-.21-.421-.867-.6-1.277-.725a.359.359,0,0,0-.064-.008A7.156,7.156,0,0,1,413.294,4053.289Zm-1.914,4.324a1.843,1.843,0,0,1,.4.166c.171.107-.111.494-.351.777A1.012,1.012,0,0,1,411.38,4057.613Z"/><path d="M396.484,4041.99c2,.294,4.9.464,6.711-.633a.154.154,0,0,0-.078-.285,25.246,25.246,0,0,0-2.758.6,13.725,13.725,0,0,1-3.847.1C396.391,4041.765,396.362,4041.972,396.484,4041.99Z"/><path d="M418.432,4062.251a5.961,5.961,0,0,0,1.856.058.621.621,0,0,0,.611-.61c0-.014,0-.027,0-.041a2.718,2.718,0,0,0,.825-3.667c-.755-1.322-2.318-.89-3.481.106l-.016,0a.308.308,0,0,0-.2.191C416.648,4059.615,416.006,4061.7,418.432,4062.251Zm2.731-2.573a1.442,1.442,0,0,1-.27.921q0-.935-.01-1.872a.669.669,0,0,0-.074-.287A1.985,1.985,0,0,1,421.163,4059.678Zm-2.909.29a3.779,3.779,0,0,1,.785-1.042c.221.06.439.126.653.2q-.006,1.005-.011,2.006a2.109,2.109,0,0,1-1.487-.317C418,4060.639,418.085,4060.316,418.254,4059.968Z"/><path d="M416.31,4053.478c0,.248-.1.507-.075.758.07.672.939.567,1.412.509a.32.32,0,0,0,.311-.312c.013-.329.026-.66.038-.991.011-.27-.287-.531-.514-.62a1.3,1.3,0,0,0-.68-.023c-.087.014-.184.012-.268.034s-.168.011-.246.038a.3.3,0,0,0-.1.513A.683.683,0,0,0,416.31,4053.478Zm.535.095c.094-.016.339-.124.427-.051.063.051.037.211.041.318l.012.341a1.086,1.086,0,0,1-.554.015.029.029,0,0,0-.017,0,.075.075,0,0,0,0-.028c.011.047,0-.05,0-.063a.965.965,0,0,1,.006-.12,1.71,1.71,0,0,0-.012-.4C416.777,4053.579,416.81,4053.579,416.845,4053.573Z"/><path d="M422.706,4054.221c.24,0,.376,0,.486.17-.007.01-.016.019-.024.029a1.5,1.5,0,0,0-.516-.022c-.589.121-.629.877-.653,1.356a.274.274,0,0,0,.407.234,5.333,5.333,0,0,0,1.362-1.249.893.893,0,0,0,.277-.182.171.171,0,0,0-.156-.287,1.1,1.1,0,0,0-.7-.755c-.262-.082-.538.086-.789-.016-.292-.118-.566.345-.314.54A.915.915,0,0,0,422.706,4054.221Z"/><path d="M426.111,4058.273a9.542,9.542,0,0,0,2.346,1.1.329.329,0,0,0,.4-.23,1.911,1.911,0,0,0-.5-2.028,2.01,2.01,0,0,0-.858-.328,3.069,3.069,0,0,0-1.157-.049c-.235.066-.412.343-.213.543a.557.557,0,0,0,.265.135,2.693,2.693,0,0,0-.368.529A.244.244,0,0,0,426.111,4058.273Zm.814-.729a1.923,1.923,0,0,1,.366-.046c.015,0,.026-.008.041-.01a1.023,1.023,0,0,1,.9,1.136,8.3,8.3,0,0,1-1.687-.661A.818.818,0,0,1,426.925,4057.544Z"/><path d="M426.458,4063.166c.217-.2.2-.582.46-.757.358-.242,1.011.1,1.462.367a9.119,9.119,0,0,1-.68.817.463.463,0,0,1-.088.065.057.057,0,0,0-.041-.042,1.844,1.844,0,0,0-1.435.229.193.193,0,0,0,.1.356,3.648,3.648,0,0,0,1.654-.108c.47-.217.848-.83,1.217-1.175a.326.326,0,0,0-.065-.509c-.62-.358-1.589-.926-2.331-.593a1.488,1.488,0,0,0-.733,1.15A.286.286,0,0,0,426.458,4063.166Z"/><path d="M421.672,4066.426a1.828,1.828,0,0,0-1.776-.022,4.358,4.358,0,0,0-.622.568.808.808,0,0,1-.069.06c-.061-.047-.12-.1-.182-.144-.1-.072-.228.093-.132.172.046.037.093.082.141.125a.672.672,0,0,0-.283.458.219.219,0,0,0,.16.21.641.641,0,0,0,.594-.205,2.289,2.289,0,0,0,1.1.722c.783.134,1.081-1.143,1.231-1.655A.239.239,0,0,0,421.672,4066.426Zm-1.235,1.532a3.561,3.561,0,0,1-.738-.512c.1-.119.2-.242.282-.336a1.157,1.157,0,0,1,1.356-.3C421.228,4067.334,421.015,4068.234,420.437,4067.958Z"/><path d="M414.49,4065.186c.289.374.721.337,1.149.251a2.479,2.479,0,0,0-.136.324c-.015.043,0,.044-.112.1a2.471,2.471,0,0,1-.613.182.928.928,0,0,1-.1-.208c-.059-.184.211-.094.3-.069a.11.11,0,0,0,.084-.2c-.31-.2-.725-.225-.811.217a.786.786,0,0,0,.131.564c.186.31.448.2.753.144a1.178,1.178,0,0,0,.86-.44c.052-.09.082-.2.123-.288a1.953,1.953,0,0,1,.432-.542.316.316,0,0,0-.222-.535,6.446,6.446,0,0,0-.744.091,1.636,1.636,0,0,1-.775,0A.263.263,0,0,0,414.49,4065.186Z"/><path d="M422.845,4064.833a3.064,3.064,0,0,0-.531.389c-.057.052-.131.089-.184.143a.942.942,0,0,0-.086.164.259.259,0,0,0,0,.265c.257.333.575.151.872-.024a3.454,3.454,0,0,1,.734-.405,2.164,2.164,0,0,1-.372.584c.072-.065-.092.035-.034.012-.086.033-.174.06-.26.089-.044.015-.086.034-.131.05a5.369,5.369,0,0,0-.739.286c-.315.147-.09.684.238.563a6.207,6.207,0,0,0,1.312-.451.174.174,0,0,0,.094-.07,5.2,5.2,0,0,0,.818-1.238.381.381,0,0,0-.225-.552A1.868,1.868,0,0,0,422.845,4064.833Z"/><path d="M413.088,4055.986a.555.555,0,0,0,.119-.029,1.236,1.236,0,0,0-.111.483c.006.663,1.053.8,1.51.885a.263.263,0,0,0,.327-.249,4.025,4.025,0,0,0-.029-1.7c-.232-.5-.9-.851-1.3-1.188a.357.357,0,0,0-.423-.055c-.646.375-.478,1-.394,1.622A.247.247,0,0,0,413.088,4055.986Zm.485.168a3.951,3.951,0,0,0,.277-.98,1.785,1.785,0,0,1,.511.467.762.762,0,0,1,.051.391c0,.252,0,.505,0,.756C413.981,4056.74,413.413,4056.642,413.573,4056.154Z"/></g></svg>