<svg width="9.5484mm" height="9.5466mm" version="1.1" viewBox="0 0 9.5484 9.5466" xmlns="http://www.w3.org/2000/svg">
 <g transform="translate(-138.1 -223.44)" fill="#f8d405">
  <path d="m138.78 228.21c4e-3 2.2613 1.833 4.0919 4.0901 4.0922 2.2468 3.4e-4 4.0908-1.8313 4.0929-4.0651 2e-3 -2.2895-1.8288-4.1212-4.1141-4.1162-2.238 5e-3 -4.0721 1.8482-4.0689 4.089m4.0682 4.7748c-2.6423-9e-3 -4.7611-2.159-4.7509-4.8207 0.0102-2.6187 2.1724-4.7378 4.8214-4.7258 2.6053 0.012 4.7392 2.1713 4.7269 4.7833-0.0123 2.6434-2.1562 4.772-4.7974 4.7632"/>
  <path d="m145.83 228.23c-2e-3 1.5642-1.2344 2.8706-2.7975 2.9192-1.6612 0.0519-2.8631-1.0661-3.0903-2.515-0.1778-1.1324 0.38947-2.3375 1.3772-2.9206 0.19579-0.11571 0.39475-0.0797 0.50059 0.0907 0.10618 0.16968 0.0476 0.36159-0.14076 0.4893-0.75353 0.51188-1.1232 1.2263-1.0245 2.1315 0.10266 0.94157 0.63359 1.59 1.5304 1.8944 1.0858 0.36901 2.2338-0.14429 2.734-1.1867 0.47343-0.98637 0.12453-2.2042-0.80962-2.8233-0.0236-0.0159-0.0483-0.0296-0.0716-0.0462-0.15381-0.1083-0.20108-0.30127-0.11077-0.44979 0.0864-0.14146 0.28822-0.2092 0.43709-0.11395 0.20743 0.13265 0.41451 0.27446 0.59126 0.4438 0.56585 0.54257 0.87524 1.3028 0.87453 2.0867"/>
  <path d="m143.22 225.94c0 0.28398 7.1e-4 0.56797-3.5e-4 0.85231-7.1e-4 0.23177-0.14287 0.39123-0.34466 0.38911-0.19685-2e-3 -0.33761-0.15945-0.33796-0.38382-7.2e-4 -0.58032-3.5e-4 -1.1606 7.1e-4 -1.741 3.4e-4 -0.22578 0.14041-0.37571 0.34361-0.37359 0.20073 2e-3 0.3376 0.15452 0.33831 0.38065 1e-3 0.2921 3.4e-4 0.5842 3.4e-4 0.8763"/>
 </g>
</svg>
