<svg xmlns="http://www.w3.org/2000/svg" width="37.832" height="39.061" viewBox="0 0 37.832 39.061"><defs><style>.a{fill:#f7f7f7;stroke:#f7f7f7;stroke-miterlimit:10;}</style></defs><g transform="translate(-348.164 411.826)"><path class="a" d="M367.7-409.468v-1.858h-1.229v1.858a18.434,18.434,0,0,0-17.8,18.4v1.057l4.915-2.81,4.3,2.457,4.316-2.464,4.278,2.142v14.348a1.842,1.842,0,0,1-1.844,1.843,1.842,1.842,0,0,1-1.843-1.843v-1.843h-1.228v1.843a3.076,3.076,0,0,0,3.071,3.072,3.076,3.076,0,0,0,3.072-3.072v-14.348l4.278-2.142,4.421,2.464,4.188-2.45,4.907,2.8v-1.057A18.434,18.434,0,0,0,367.7-409.468Zm-10.407,17.36-3.709-2.121-3.656,2.083a17.223,17.223,0,0,1,15.307-16.011A22.205,22.205,0,0,0,357.288-392.108Zm9.178.037-4.315-2.15-3.634,2.075a21,21,0,0,1,7.889-15.4l.06-.052Zm5.544-2.15-4.315,2.158V-407.6l.06.053a20.971,20.971,0,0,1,7.889,15.351Zm8.572-.015-3.709,2.173a22.192,22.192,0,0,0-7.942-16.094,17.223,17.223,0,0,1,15.307,16.011Z"/></g></svg>