<?xml version="1.0" encoding="UTF-8" standalone="no"?>
<svg
   xmlns:dc="http://purl.org/dc/elements/1.1/"
   xmlns:cc="http://creativecommons.org/ns#"
   xmlns:rdf="http://www.w3.org/1999/02/22-rdf-syntax-ns#"
   xmlns:svg="http://www.w3.org/2000/svg"
   xmlns="http://www.w3.org/2000/svg"
   id="svg5337"
   version="1.1"
   viewBox="0 0 11.83249 9.0267401"
   height="9.0267401mm"
   width="11.83249mm">
  <defs
     id="defs5331" />
  <metadata
     id="metadata5334">
    <rdf:RDF>
      <cc:Work
         rdf:about="">
        <dc:format>image/svg+xml</dc:format>
        <dc:type
           rdf:resource="http://purl.org/dc/dcmitype/StillImage" />
        <dc:title></dc:title>
      </cc:Work>
    </rdf:RDF>
  </metadata>
  <g
     transform="translate(-133.93436,-211.59983)"
     id="layer1">
    <path
       d="m 139.0586,217.03296 v -2.07222 l 1.91029,1.04528 z m 2.57246,-1.43722 -2.55552,-1.39841 c -0.14711,-0.0808 -0.32068,-0.0776 -0.46497,0.008 -0.14393,0.0857 -0.23001,0.23636 -0.23001,0.40393 v 2.77284 c 0,0.16686 0.0854,0.3175 0.2286,0.40287 0.0748,0.0448 0.1577,0.067 0.2406,0.067 0.0762,0 0.1524,-0.0187 0.2226,-0.0565 l 2.55588,-1.37442 c 0.15169,-0.0815 0.24659,-0.23918 0.24729,-0.41169 0,-0.17251 -0.0931,-0.33091 -0.24447,-0.41346"
       style="fill:#000000;fill-opacity:1;fill-rule:nonzero;stroke:none;stroke-width:0.35277775"
       id="path1591" />
    <path
       d="m 139.19072,215.18398 v 1.62772 l 1.50036,-0.80681 z m -0.26459,2.0701 v -2.51672 l 2.31987,1.26965 z m -0.0762,-2.98274 c -0.0593,0 -0.11853,0.0159 -0.1718,0.0476 -0.10372,0.0614 -0.1651,0.16969 -0.1651,0.28998 v 2.77284 c 0,0.11994 0.061,0.22789 0.16404,0.28927 0.10125,0.0607 0.2279,0.0639 0.33303,0.007 l 2.55552,-1.37407 c 0.10901,-0.0586 0.17674,-0.17215 0.17744,-0.29598 3.5e-4,-0.12382 -0.0667,-0.23742 -0.17533,-0.29668 h -3.4e-4 l -2.55553,-1.39842 c -0.0512,-0.0279 -0.10654,-0.042 -0.16193,-0.042 m 0,3.71264 c -0.10795,0 -0.21484,-0.0293 -0.30868,-0.0861 -0.18344,-0.10901 -0.2928,-0.30198 -0.2928,-0.51611 v -2.77284 c 0,-0.21449 0.11006,-0.40781 0.29457,-0.51752 0.18485,-0.11007 0.40781,-0.1136 0.59584,-0.0102 l 2.55552,1.39841 c 0.19403,0.10618 0.31397,0.30903 0.31327,0.53022 0,0.22119 -0.12242,0.42334 -0.3168,0.52741 l -2.55587,1.37442 c -0.0886,0.0476 -0.18697,0.0723 -0.28505,0.0723"
       style="fill:#000000;fill-opacity:1;fill-rule:nonzero;stroke:none;stroke-width:0.35277775"
       id="path1595" />
    <path
       d="m 144.95698,216.55304 c 0,0.85725 -0.0748,1.7399 -0.0818,1.82069 -0.0289,0.2233 -0.14605,0.73624 -0.33267,0.93909 -0.28822,0.31715 -0.5842,0.34855 -0.8001,0.37148 -0.0261,0.003 -0.0501,0.005 -0.072,0.008 -1.47955,0.10724 -3.70205,0.12347 -3.80436,0.12417 -0.11501,-0.002 -2.84304,-0.0434 -3.69923,-0.12312 -0.0441,-0.007 -0.0914,-0.0123 -0.14111,-0.018 -0.25365,-0.0289 -0.60043,-0.0688 -0.86713,-0.3623 l -0.006,-0.006 c -0.18379,-0.19156 -0.29739,-0.67134 -0.32631,-0.92992 -0.005,-0.0614 -0.0822,-0.95427 -0.0822,-1.82351 v -0.86572 c 0,-0.85619 0.0748,-1.73813 0.0818,-1.82068 0.0346,-0.26282 0.15346,-0.74472 0.33267,-0.9391 0.29704,-0.32667 0.60996,-0.36301 0.81704,-0.38699 0.0198,-0.002 0.0381,-0.005 0.0554,-0.007 1.50072,-0.10724 3.73909,-0.12312 3.81953,-0.12382 0.0804,3.5e-4 2.3181,0.0166 3.80541,0.12382 0.0183,0.002 0.0384,0.005 0.0596,0.007 0.21308,0.024 0.53516,0.061 0.83044,0.37571 l 0.004,0.003 c 0.18344,0.1912 0.29704,0.6791 0.32597,0.94333 0.005,0.0579 0.0822,0.95285 0.0822,1.82386 z m 0.59302,-2.75308 v -0.005 c -0.01,-0.0935 -0.10725,-0.92181 -0.51012,-1.34302 -0.46532,-0.4953 -0.99307,-0.55563 -1.24672,-0.5842 -0.0208,-0.002 -0.0402,-0.005 -0.0575,-0.007 l -0.0201,-0.002 c -1.52929,-0.11077 -3.83928,-0.12594 -3.86221,-0.12629 h -0.004 v 0 c -0.0233,3.5e-4 -2.33292,0.0155 -3.87632,0.12629 l -0.0205,0.002 c -0.0162,0.002 -0.0346,0.004 -0.054,0.007 -0.25082,0.0289 -0.77293,0.0893 -1.23966,0.60254 -0.38347,0.41663 -0.49424,1.22696 -0.50553,1.31833 v 0.0116 c -0.004,0.0388 -0.0854,0.96132 -0.0854,1.88736 v 0.86572 c 0,0.92604 0.0818,1.8482 0.0854,1.88736 v 0.006 c 0.01,0.0917 0.10689,0.90488 0.508,1.32609 0.43745,0.47872 0.99096,0.54222 1.28835,0.57644 0.0473,0.005 0.0875,0.01 0.11536,0.0148 l 0.0264,0.004 c 0.88336,0.084 3.65196,0.12523 3.76943,0.127 h 0.004 0.004 c 0.0229,0 2.33257,-0.0152 3.86221,-0.12665 l 0.0201,-0.002 c 0.0194,-0.003 0.0409,-0.005 0.0649,-0.008 0.24941,-0.0261 0.76835,-0.0811 1.22872,-0.58772 0.38347,-0.41699 0.4946,-1.22732 0.50589,-1.31834 v -0.0116 c 0.004,-0.0392 0.085,-0.96132 0.085,-1.88736 v -0.86571 c 0,-0.92605 -0.0818,-1.84821 -0.085,-1.88737"
       style="fill:#000000;fill-opacity:1;fill-rule:nonzero;stroke:none;stroke-width:0.35277775"
       id="path1599" />
    <path
       d="m 139.84995,212.54227 c -0.39687,0.003 -2.41582,0.0236 -3.80964,0.12383 l -0.0508,0.006 c -0.19791,0.0233 -0.4699,0.0547 -0.73308,0.34431 -0.14993,0.16298 -0.26493,0.60536 -0.29915,0.86748 -0.004,0.0324 -0.0811,0.93556 -0.0811,1.8034 v 0.86571 c 0,0.84949 0.0734,1.71592 0.0818,1.81222 0.0275,0.24801 0.13935,0.69286 0.28963,0.84949 0.24201,0.266 0.54752,0.30092 0.79305,0.32879 0.054,0.006 0.1023,0.012 0.14675,0.019 0.84279,0.078 3.56518,0.11959 3.68053,0.12136 0.091,-7.2e-4 2.31599,-0.0169 3.79272,-0.12347 l 0.0512,-0.006 c 0.2226,-0.0236 0.47872,-0.0512 0.73272,-0.33056 0.14887,-0.16192 0.26635,-0.61277 0.29916,-0.86712 0.004,-0.0325 0.0808,-0.93663 0.0808,-1.80376 v -0.86571 c 0,-0.88759 -0.0808,-1.8027 -0.0815,-1.81222 -0.0279,-0.25365 -0.13936,-0.70662 -0.28964,-0.86325 -0.26635,-0.28434 -0.54716,-0.31574 -0.75247,-0.33902 l -0.0448,-0.13864 -0.01,0.13194 c -1.51201,-0.10936 -3.77472,-0.12383 -3.7966,-0.12383 m 0.0169,7.40622 c -0.11889,-0.002 -2.85115,-0.0434 -3.71228,-0.12347 -0.0497,-0.007 -0.0942,-0.0127 -0.14111,-0.018 -0.26177,-0.03 -0.65264,-0.0748 -0.95286,-0.40535 -0.22719,-0.23706 -0.33831,-0.76411 -0.36583,-1.01035 -0.009,-0.10054 -0.0832,-0.9772 -0.0832,-1.83833 v -0.86571 c 0,-0.87913 0.079,-1.79388 0.0825,-1.83198 0.0332,-0.25294 0.15099,-0.78246 0.36724,-1.01741 0.32914,-0.3623 0.68545,-0.40393 0.89817,-0.42862 l 0.042,-0.005 c 1.4217,-0.10266 3.4477,-0.12347 3.83999,-0.12665 0.0318,0 2.30328,0.0145 3.82375,0.12453 l 0.0356,0.004 c 0.24765,0.0282 0.61242,0.0699 0.94156,0.42051 0.23389,0.24377 0.34184,0.82092 0.36371,1.02235 0,0.012 0.0829,0.9391 0.0829,1.83833 v 0.86572 c 0,0.87841 -0.079,1.79387 -0.0822,1.83197 -0.0265,0.20426 -0.14217,0.77294 -0.36724,1.01741 -0.32102,0.35348 -0.65898,0.38947 -0.88264,0.41346 l -0.0706,0.008 c -1.4919,0.10795 -3.72533,0.12417 -3.81952,0.12488 m -0.004,-8.08425 c -0.42369,0.004 -2.47333,0.0247 -3.88232,0.12629 l -0.0452,0.005 c -0.25858,0.03 -0.74683,0.0864 -1.18039,0.56303 -0.28998,0.31504 -0.43321,0.93134 -0.47237,1.24566 -0.004,0.0459 -0.0854,0.96485 -0.0854,1.88278 v 0.86571 c 0,0.89394 0.0758,1.77765 0.0847,1.87572 0.0339,0.31821 0.17145,0.93557 0.47273,1.25201 0.40569,0.4445 0.92745,0.50412 1.20756,0.53622 0.0607,0.007 0.097,0.0117 0.12311,0.0162 0.89253,0.0857 3.6576,0.127 3.77473,0.12877 0.0268,0 2.32974,-0.0148 3.85797,-0.12595 l 0.0575,-0.007 c 0.25611,-0.0272 0.74083,-0.078 1.16804,-0.54786 0.28963,-0.31432 0.43322,-0.93098 0.47237,-1.24601 0.01,-0.10513 0.0854,-0.99025 0.0854,-1.88242 v -0.86572 c 0,-0.89112 -0.0755,-1.772 -0.0843,-1.87431 v -0.005 c -0.0335,-0.32032 -0.17145,-0.94827 -0.47378,-1.26471 -0.43392,-0.46178 -0.92851,-0.51752 -1.16628,-0.54398 l -0.0406,-0.005 c -1.42769,-0.10513 -3.47627,-0.1263 -3.8728,-0.12982 m 0.004,8.76229 c -0.12665,-0.002 -2.9023,-0.0434 -3.78883,-0.12771 l -0.0367,-0.005 c -0.0222,-0.004 -0.0536,-0.007 -0.09,-0.0116 -0.33232,-0.0381 -0.91793,-0.10513 -1.38889,-0.62054 -0.42933,-0.45085 -0.53163,-1.30527 -0.54186,-1.40123 -0.01,-0.10724 -0.0864,-1.00153 -0.0864,-1.90712 v -0.86571 c 0,-0.92957 0.0822,-1.85949 0.0857,-1.899 0.0134,-0.11148 0.12947,-0.95991 0.54116,-1.40794 0.49989,-0.54963 1.05516,-0.61348 1.32186,-0.64417 l 0.0695,0.12453 -0.0155,-0.13124 c 1.44321,-0.10512 3.50026,-0.12629 3.89819,-0.12982 0.42933,0.004 2.48532,0.0247 3.88973,0.12665 l 0.0829,0.0102 c 0.26882,0.03 0.82868,0.0928 1.32821,0.62477 0.43215,0.45261 0.53481,1.32186 0.54504,1.41993 v 0.007 c 0.009,0.0991 0.0857,0.99377 0.0857,1.899 v 0.86572 c 0,0.90382 -0.0769,1.79952 -0.0857,1.89865 -0.0134,0.11183 -0.12982,0.96132 -0.54116,1.40829 -0.49459,0.54398 -1.04704,0.60184 -1.31268,0.62971 l -0.06,0.007 c -1.55927,0.1143 -3.87985,0.12982 -3.90101,0.12982"
       style="fill:#000000;fill-opacity:1;fill-rule:nonzero;stroke:none;stroke-width:0.35277775"
       id="path1603" />
  </g>
</svg>
