<svg xmlns="http://www.w3.org/2000/svg" width="81.097" height="174.742" viewBox="0 0 81.097 174.742"><defs><style>.a{fill:#231f20;}</style></defs><g transform="translate(-1272.356 -1084.18)"><path class="a" d="M1272.356,1258.922v-20.157l33.444-14.83-33.444-13.5V1190.3l4.8,1.992,76.293,31.1v19.994l-24.094-9.544-52.17,23.239Zm2.419-18.584v15.078l1.492-.568,53.037-23.627,21.731,8.607V1225.02l-74.8-30.491-1.465-.608V1208.8L1312,1223.831Z"/><path class="a" d="M1272.356,1190.96v-20.374l27.28-8.67-27.28-7.793v-18.578l27.187-7.7-27.187-8.77V1098.7l62.073,20.02v19.42l-24.5,6.739,24.5,6.65v19.343l-2.355.994Zm2.419-18.6v15.292l56.509-18.069.727-.308v-15.892l-31.262-8.485,31.262-8.6V1120.48l-57.236-18.46v15.292l33.11,10.68-33.11,9.381V1152.3l33.234,9.494Z"/><path class="a" d="M1327.6,1099.462c-4.646,0-8.019-3.236-8.019-7.7s3.3-7.587,8.019-7.587,8.02,3.164,8.02,7.695C1335.62,1096.271,1332.247,1099.462,1327.6,1099.462Zm0-12.863c-3.35,0-5.6,2.077-5.6,5.168,0,3.107,2.3,5.276,5.6,5.276s5.6-2.125,5.6-5.168C1333.2,1088.67,1331,1086.6,1327.6,1086.6Z"/></g></svg>